<svg id="Layer_1" data-name="Layer 1" xmlns="http://www.w3.org/2000/svg" viewBox="0 0 1017.16 578.76"><defs><style>.cls-1{fill:#7dc57e;opacity:0.62;isolation:isolate;}.cls-2,.cls-4{fill:#69af69;}.cls-3{fill:none;}.cls-3,.cls-4{stroke:#e4ebef;stroke-miterlimit:10;stroke-width:8px;}.cls-5{fill:#e4ebef;}.cls-6{opacity:0.2;}.cls-7{fill:#301f1a;}.cls-8{fill:#4d322a;}.cls-9{fill:#462d26;}.cls-10{fill:#1b7943;}.cls-11{fill:#13542f;}.cls-12{fill:#186e3d;}.cls-13{fill:#795548;}.cls-13,.cls-14,.cls-15,.cls-16,.cls-17{fill-rule:evenodd;}.cls-14{fill:#5a3f35;}.cls-15{fill:#1d7c45;}.cls-16{fill:#13532e;}.cls-17{fill:#26a65c;}</style></defs><g id="Layer_2" data-name="Layer 2"><g id="Layer_2-2" data-name="Layer 2-2"><path class="cls-1" d="M121.19,192.61C83.69,239.88-44,182.44-44.52,235.78c-.12,13.62-.29,46.18,0,61.91,1.71,92.17,97.19,63.76,143.07,122.92s36.16,132.5,261.64,144.46c120.54,6.4,125.13,52.55,261.64,26.28,180.59-34.74,113.76-92,216.14-137.93,69-31,134.73-51.91,134-95.62-.13-8.28,0-45.43,0-63.44,0-20.43-36-3.55-65.85-29.5C771.19,147.5,758.28,61.25,530.76,113.79S299.73-32.21,121.19,192.61Z" transform="translate(44.81 -20.61)"/><path class="cls-1" d="M121.19,153.86C85.7,198.61-44.52,235.78-44.52,235.78s-.29-3.35-.29,19.83c0,92.18,97.48,67.11,143.36,126.24s36.16,132.5,261.64,144.46c120.54,6.4,125.13,52.55,261.64,26.28,180.59-34.76,113.76-92,216.14-137.93,68.49-30.75,133.82-51.62,134-94.72V294.36c0-20.76-34.31-40.85-65.85-68.26C771.19,108.74,758.28,22.49,530.76,75S299.73-71,121.19,153.86Z" transform="translate(44.81 -20.61)"/><path class="cls-2" d="M121.56,130.52C76.19,187.72-37.69,143.61-44.17,235.61S53,299.35,98.89,358.48,135.06,491,360.54,503c120.54,6.4,125.13,52.55,261.64,26.28,180.59-34.76,113.76-91.95,216.14-137.93,105.32-47.29,203.2-71.21,68.18-188.56S758.63-.85,531.11,51.69,300.07-94.31,121.56,130.52Z" transform="translate(44.81 -20.61)"/><path class="cls-3" d="M460,198.42c-31.28,25.32-44.06,29.73-56,28.68-22.68-2-25.08-18.66-51-27.88-32.8-11.67-55.54,1.46-55.91,24.76-.33,20.66,35.29,26.23,35.92,44.14.61,17.51-51.95,43-79.29,47.32-46.62,7.29-84-24.9-92.66-32.75" transform="translate(44.81 -20.61)"/><path class="cls-3" d="M301.53,298.13l63.71,36.81a2.7,2.7,0,0,1,1,3.69,2.63,2.63,0,0,1-1,1l-36.94,22.14" transform="translate(44.81 -20.61)"/><path class="cls-3" d="M365.29,339.61s70.2-45.8,96.5-54.54c18.41-6.12,55.93-9.95,45.59,26.32-3.72,13.05-11.75,31.78-4.52,48.58,4.22,9.8,13.82,22.11,37.85,23.82,24.27,1.73,42.13-15.1,42.13-15.1" transform="translate(44.81 -20.61)"/><path class="cls-4" d="M506.59,195.43s13.89,8.73,43.33,26.57c21.08,13.83-28.22,27.65-8.53,38.74l17.87,10.87" transform="translate(44.81 -20.61)"/><circle class="cls-5" cx="205.86" cy="262.08" r="4"/><circle class="cls-5" cx="504.83" cy="177.81" r="4"/><circle class="cls-5" cx="551.4" cy="174.82" r="4"/><circle class="cls-5" cx="604.07" cy="251" r="4"/><circle class="cls-5" cx="627.65" cy="348.17" r="4"/><circle class="cls-5" cx="373.11" cy="341.13" r="4"/><g class="cls-6"><path d="M331,220.61c2.26,1.3,2.28,3.42,0,4.72a9,9,0,0,1-8.16,0c-2.26-1.3-2.27-3.42,0-4.72A9,9,0,0,1,331,220.61Z" transform="translate(44.81 -20.61)"/></g><g id="Layer-1"><path class="cls-7" d="M326.75,224.32l-3-1.75-.06-23.23,3,1.75Z" transform="translate(44.81 -20.61)"/><path class="cls-8" d="M326.68,201.09l-3-1.75,3-1.75,3,1.75Z" transform="translate(44.81 -20.61)"/><path class="cls-9" d="M329.71,199.34l.07,23.23-3,1.75-.07-23.23Z" transform="translate(44.81 -20.61)"/><path class="cls-10" d="M326.74,199.31l13.61,13.89-8,4.63Z" transform="translate(44.81 -20.61)"/><path class="cls-11" d="M326.74,199.31l-5.64,18.52-8-4.63Z" transform="translate(44.81 -20.61)"/><path class="cls-12" d="M326.74,199.31l5.65,18.52H321.1Z" transform="translate(44.81 -20.61)"/><path class="cls-10" d="M326.74,194.18l11.52,11.75-6.74,3.92Z" transform="translate(44.81 -20.61)"/><path class="cls-11" d="M326.74,194.18,322,209.85l-6.78-3.91Z" transform="translate(44.81 -20.61)"/><path class="cls-12" d="M326.74,194.18l4.78,15.67H322Z" transform="translate(44.81 -20.61)"/><path class="cls-10" d="M326.73,189.69l8.38,8.55-4.9,2.85Z" transform="translate(44.81 -20.61)"/><path class="cls-11" d="M326.73,189.69l-3.47,11.4-4.93-2.85Z" transform="translate(44.81 -20.61)"/><path class="cls-12" d="M326.73,189.69l3.48,11.4h-6.95Z" transform="translate(44.81 -20.61)"/></g><g class="cls-6"><path d="M572.84,214c2.26,1.31,2.27,3.42,0,4.73a9,9,0,0,1-8.16,0c-2.26-1.31-2.26-3.42,0-4.72A9,9,0,0,1,572.84,214Z" transform="translate(44.81 -20.61)"/></g><g id="Layer-1-2"><path class="cls-7" d="M568.61,217.71l-3-1.75-.07-23.23,3,1.75Z" transform="translate(44.81 -20.61)"/><path class="cls-8" d="M568.54,194.48l-3-1.75,3-1.75,3,1.75Z" transform="translate(44.81 -20.61)"/><path class="cls-9" d="M571.58,192.73l.06,23.23-3,1.75-.07-23.23Z" transform="translate(44.81 -20.61)"/><path class="cls-10" d="M568.6,192.7l13.59,13.91-8,4.63Z" transform="translate(44.81 -20.61)"/><path class="cls-11" d="M568.6,192.7,563,211.22l-8-4.63Z" transform="translate(44.81 -20.61)"/><path class="cls-12" d="M568.6,192.7l5.66,18.52H563Z" transform="translate(44.81 -20.61)"/><path class="cls-10" d="M568.6,187.61l11.52,11.75-6.73,3.92Z" transform="translate(44.81 -20.61)"/><path class="cls-11" d="M568.6,187.61l-4.77,15.67-6.78-3.92Z" transform="translate(44.81 -20.61)"/><path class="cls-12" d="M568.6,187.61l4.79,15.67h-9.56Z" transform="translate(44.81 -20.61)"/><path class="cls-10" d="M568.6,183.08l8.37,8.55-4.89,2.85Z" transform="translate(44.81 -20.61)"/><path class="cls-11" d="M568.6,183.08l-3.47,11.4-4.94-2.87Z" transform="translate(44.81 -20.61)"/><path class="cls-12" d="M568.6,183.08l3.48,11.4h-7Z" transform="translate(44.81 -20.61)"/></g><g class="cls-6"><path d="M590.67,217.38c2.26,1.3,2.26,3.42,0,4.72a8.94,8.94,0,0,1-8.15,0c-2.26-1.3-2.26-3.42,0-4.72A9,9,0,0,1,590.67,217.38Z" transform="translate(44.81 -20.61)"/></g><g id="Layer-1-3"><path class="cls-7" d="M586.44,221.1l-3-1.75-.07-23.23,3,1.75Z" transform="translate(44.81 -20.61)"/><path class="cls-8" d="M586.37,197.87l-3-1.75,3-1.75,3,1.75Z" transform="translate(44.81 -20.61)"/><path class="cls-9" d="M589.4,196.12l.07,23.23-3,1.75-.07-23.23Z" transform="translate(44.81 -20.61)"/><path class="cls-10" d="M586.43,196.09,600.05,210l-8,4.63Z" transform="translate(44.81 -20.61)"/><path class="cls-11" d="M586.43,196.09l-5.63,18.52-8-4.63Z" transform="translate(44.81 -20.61)"/><path class="cls-12" d="M586.43,196.09l5.66,18.52H580.8Z" transform="translate(44.81 -20.61)"/><path class="cls-10" d="M586.43,191,598,202.71l-6.76,3.9Z" transform="translate(44.81 -20.61)"/><path class="cls-11" d="M586.43,191l-4.77,15.65-6.78-3.92Z" transform="translate(44.81 -20.61)"/><path class="cls-12" d="M586.43,191l4.76,15.65h-9.55Z" transform="translate(44.81 -20.61)"/><path class="cls-10" d="M586.42,186.47,594.8,195l-4.89,2.85Z" transform="translate(44.81 -20.61)"/><path class="cls-11" d="M586.42,186.47,583,197.87,578,195Z" transform="translate(44.81 -20.61)"/><path class="cls-12" d="M586.42,186.47l3.49,11.4h-7Z" transform="translate(44.81 -20.61)"/></g><g class="cls-6"><path d="M246.09,57.15c2.26,1.3,2.27,3.42,0,4.72a9,9,0,0,1-8.16,0c-2.26-1.3-2.27-3.42,0-4.72A9,9,0,0,1,246.09,57.15Z" transform="translate(44.81 -20.61)"/></g><g id="Layer-1-4"><path class="cls-7" d="M241.86,60.87l-3-1.75-.06-23.23,3,1.76Z" transform="translate(44.81 -20.61)"/><path class="cls-8" d="M241.79,37.61l-3-1.76,3-1.75,3,1.75Z" transform="translate(44.81 -20.61)"/><path class="cls-9" d="M244.82,35.89l.07,23.23-3,1.75-.1-23.26Z" transform="translate(44.81 -20.61)"/><path class="cls-10" d="M241.85,35.86l13.61,13.9-8,4.62Z" transform="translate(44.81 -20.61)"/><path class="cls-11" d="M241.85,35.86l-5.66,18.52-8-4.62Z" transform="translate(44.81 -20.61)"/><path class="cls-12" d="M241.85,35.86l5.65,18.52H236.19Z" transform="translate(44.81 -20.61)"/><path class="cls-10" d="M241.85,30.73l11.52,11.76-6.74,3.91Z" transform="translate(44.81 -20.61)"/><path class="cls-11" d="M241.85,30.73,237.08,46.4l-6.78-3.91Z" transform="translate(44.81 -20.61)"/><path class="cls-12" d="M241.85,30.73l4.78,15.67h-9.55Z" transform="translate(44.81 -20.61)"/><path class="cls-10" d="M241.84,26.24l8.35,8.56-4.87,2.81Z" transform="translate(44.81 -20.61)"/><path class="cls-11" d="M241.84,26.24l-3.47,11.37-4.92-2.84Z" transform="translate(44.81 -20.61)"/><path class="cls-12" d="M241.84,26.24l3.48,11.37h-6.95Z" transform="translate(44.81 -20.61)"/></g><g class="cls-6"><path d="M268.19,52.86c2.26,1.31,2.27,3.42,0,4.72a8.88,8.88,0,0,1-8.15,0c-2.26-1.3-2.28-3.41,0-4.72A9,9,0,0,1,268.19,52.86Z" transform="translate(44.81 -20.61)"/></g><g id="Layer-1-5"><path class="cls-7" d="M264,56.61l-3-1.75-.08-23.25,3,1.75Z" transform="translate(44.81 -20.61)"/><path class="cls-8" d="M263.9,33.36l-3-1.75,3-1.75,3,1.75Z" transform="translate(44.81 -20.61)"/><path class="cls-9" d="M266.94,31.61,267,54.83l-3,1.75-.07-23.22Z" transform="translate(44.81 -20.61)"/><path class="cls-10" d="M264,31.61l13.62,13.9-8,4.62Z" transform="translate(44.81 -20.61)"/><path class="cls-11" d="M264,31.61l-5.63,18.52-8-4.62Z" transform="translate(44.81 -20.61)"/><path class="cls-12" d="M264,31.61l5.66,18.52H258.33Z" transform="translate(44.81 -20.61)"/><path class="cls-10" d="M264,26.44,275.48,38.2l-6.73,3.91Z" transform="translate(44.81 -20.61)"/><path class="cls-11" d="M264,26.44l-4.77,15.67-6.78-3.91Z" transform="translate(44.81 -20.61)"/><path class="cls-12" d="M264,26.44l4.79,15.67h-9.56Z" transform="translate(44.81 -20.61)"/><path class="cls-10" d="M264,22l8.38,8.55-4.9,2.84Z" transform="translate(44.81 -20.61)"/><path class="cls-11" d="M264,22l-3.47,11.39-4.93-2.84Z" transform="translate(44.81 -20.61)"/><path class="cls-12" d="M264,22l3.48,11.39h-6.95Z" transform="translate(44.81 -20.61)"/></g><g class="cls-6"><path d="M229,77.83c2.26,1.31,2.26,3.42,0,4.73a8.94,8.94,0,0,1-8.15,0c-2.26-1.31-2.26-3.42,0-4.72A9,9,0,0,1,229,77.83Z" transform="translate(44.81 -20.61)"/></g><g id="Layer-1-6"><path class="cls-7" d="M224.74,81.61l-3-1.75-.08-23.25,3,1.75Z" transform="translate(44.81 -20.61)"/><path class="cls-8" d="M224.67,58.33l-3-1.75,3-1.75,3,1.75Z" transform="translate(44.81 -20.61)"/><path class="cls-9" d="M227.7,56.61l.07,23.23-3,1.75-.07-23.23Z" transform="translate(44.81 -20.61)"/><path class="cls-10" d="M224.73,56.55l13.61,13.89-8,4.63Z" transform="translate(44.81 -20.61)"/><path class="cls-11" d="M224.73,56.55l-5.64,18.52-8-4.63Z" transform="translate(44.81 -20.61)"/><path class="cls-12" d="M224.73,56.55l5.66,18.52h-11.3Z" transform="translate(44.81 -20.61)"/><path class="cls-10" d="M224.73,51.42l11.52,11.75-6.74,3.92Z" transform="translate(44.81 -20.61)"/><path class="cls-11" d="M224.73,51.42,220,67.09l-6.77-3.92Z" transform="translate(44.81 -20.61)"/><path class="cls-12" d="M224.73,51.42l4.78,15.67H220Z" transform="translate(44.81 -20.61)"/><path class="cls-10" d="M224.72,46.93l8.38,8.55-4.91,2.85Z" transform="translate(44.81 -20.61)"/><path class="cls-11" d="M224.72,46.93l-3.46,11.4-4.93-2.85Z" transform="translate(44.81 -20.61)"/><path class="cls-12" d="M224.72,46.93l3.47,11.4h-6.94Z" transform="translate(44.81 -20.61)"/></g><g class="cls-6"><path d="M278.08,70.43c2.25,1.3,2.27,3.41,0,4.72a8.94,8.94,0,0,1-8.15,0c-2.26-1.31-2.27-3.42,0-4.72A8.94,8.94,0,0,1,278.08,70.43Z" transform="translate(44.81 -20.61)"/></g><g id="Layer-1-7"><path class="cls-7" d="M273.85,74.15l-3-1.75-.07-23.23,3,1.75Z" transform="translate(44.81 -20.61)"/><path class="cls-8" d="M273.78,50.92l-3-1.75,3-1.75,3,1.75Z" transform="translate(44.81 -20.61)"/><path class="cls-9" d="M276.81,49.17l.07,23.23-3,1.75-.07-23.23Z" transform="translate(44.81 -20.61)"/><path class="cls-10" d="M273.84,49.14,287.46,63l-8,4.62Z" transform="translate(44.81 -20.61)"/><path class="cls-11" d="M273.84,49.14l-5.65,18.52-8-4.62Z" transform="translate(44.81 -20.61)"/><path class="cls-12" d="M273.84,49.14l5.66,18.52H268.19Z" transform="translate(44.81 -20.61)"/><path class="cls-10" d="M273.84,44l11.52,11.76-6.74,3.91Z" transform="translate(44.81 -20.61)"/><path class="cls-11" d="M273.84,44l-4.77,15.67-6.78-3.91Z" transform="translate(44.81 -20.61)"/><path class="cls-12" d="M273.84,44l4.78,15.67h-9.55Z" transform="translate(44.81 -20.61)"/><path class="cls-10" d="M273.83,39.52l8.36,8.55-4.89,2.85Z" transform="translate(44.81 -20.61)"/><path class="cls-11" d="M273.83,39.52l-3.46,11.4-4.93-2.85Z" transform="translate(44.81 -20.61)"/><path class="cls-12" d="M273.83,39.52l3.49,11.4h-6.95Z" transform="translate(44.81 -20.61)"/></g><g class="cls-6"><ellipse cx="253.33" cy="76.58" rx="3.34" ry="5.76" transform="translate(220.85 309.09) rotate(-89.84)"/></g><g id="Layer-1-8"><path class="cls-7" d="M253.19,77.94l-3-1.75L250.13,53l3,1.75Z" transform="translate(44.81 -20.61)"/><path class="cls-8" d="M253.11,54.71l-3-1.75,3-1.75,3,1.75Z" transform="translate(44.81 -20.61)"/><path class="cls-9" d="M256.19,53V76.19l-3,1.75-.07-23.23Z" transform="translate(44.81 -20.61)"/><path class="cls-10" d="M253.19,52.93l13.61,13.9-7.95,4.62Z" transform="translate(44.81 -20.61)"/><path class="cls-11" d="M253.19,52.93l-5.64,18.52-8-4.62Z" transform="translate(44.81 -20.61)"/><path class="cls-12" d="M253.19,52.93l5.66,18.52h-11.3Z" transform="translate(44.81 -20.61)"/><path class="cls-10" d="M253.19,47.8l11.5,11.81L258,63.52Z" transform="translate(44.81 -20.61)"/><path class="cls-11" d="M253.19,47.8l-4.77,15.67-6.8-3.86Z" transform="translate(44.81 -20.61)"/><path class="cls-12" d="M253.19,47.8,258,63.47h-9.55Z" transform="translate(44.81 -20.61)"/><path class="cls-10" d="M253.19,43.31l8.38,8.55-4.9,2.85Z" transform="translate(44.81 -20.61)"/><path class="cls-11" d="M253.19,43.31l-3.46,11.4-4.93-2.85Z" transform="translate(44.81 -20.61)"/><path class="cls-12" d="M253.19,43.31l3.48,11.4h-6.94Z" transform="translate(44.81 -20.61)"/></g><g class="cls-6"><path d="M295,68.68c2.26,1.3,2.27,3.42,0,4.72a8.94,8.94,0,0,1-8.15,0c-2.26-1.3-2.27-3.41,0-4.72A9,9,0,0,1,295,68.68Z" transform="translate(44.81 -20.61)"/></g><g id="Layer-1-9"><path class="cls-7" d="M290.81,72.4l-3-1.75-.06-23.23,3,1.75Z" transform="translate(44.81 -20.61)"/><path class="cls-8" d="M290.75,49.17l-3-1.75,3-1.75,3,1.75Z" transform="translate(44.81 -20.61)"/><path class="cls-9" d="M293.78,47.42l.07,23.19-3,1.75-.06-23.23Z" transform="translate(44.81 -20.61)"/><path class="cls-10" d="M290.81,47.39l13.61,13.89-8,4.63Z" transform="translate(44.81 -20.61)"/><path class="cls-11" d="M290.81,47.39l-5.62,18.52-8-4.63Z" transform="translate(44.81 -20.61)"/><path class="cls-12" d="M290.81,47.39l5.65,18.52H285.19Z" transform="translate(44.81 -20.61)"/><path class="cls-10" d="M290.8,42.26,302.32,54l-6.73,3.91Z" transform="translate(44.81 -20.61)"/><path class="cls-11" d="M290.8,42.26,286,57.93,279.26,54Z" transform="translate(44.81 -20.61)"/><path class="cls-12" d="M290.8,42.26l4.79,15.67H286Z" transform="translate(44.81 -20.61)"/><path class="cls-10" d="M290.8,37.77l8.39,8.55-4.9,2.85Z" transform="translate(44.81 -20.61)"/><path class="cls-11" d="M290.8,37.77l-3.47,11.4-4.93-2.85Z" transform="translate(44.81 -20.61)"/><path class="cls-12" d="M290.8,37.77l3.48,11.4h-6.95Z" transform="translate(44.81 -20.61)"/></g><g class="cls-6"><path d="M243,84.18c2.26,1.31,2.28,3.42,0,4.72a8.88,8.88,0,0,1-8.15,0c-2.25-1.3-2.27-3.41,0-4.72A9,9,0,0,1,243,84.18Z" transform="translate(44.81 -20.61)"/></g><g id="Layer-1-10"><path class="cls-7" d="M238.73,87.9l-3-1.75-.06-23.22,3,1.75Z" transform="translate(44.81 -20.61)"/><path class="cls-8" d="M238.67,64.68l-3-1.75,3-1.75,3,1.75Z" transform="translate(44.81 -20.61)"/><path class="cls-9" d="M241.7,62.93l.07,23.22-3,1.75-.06-23.22Z" transform="translate(44.81 -20.61)"/><path class="cls-10" d="M238.73,62.89l13.61,13.9-8,4.62Z" transform="translate(44.81 -20.61)"/><path class="cls-11" d="M238.73,62.89l-5.64,18.52-8-4.62Z" transform="translate(44.81 -20.61)"/><path class="cls-12" d="M238.73,62.89l5.65,18.52H233.09Z" transform="translate(44.81 -20.61)"/><path class="cls-10" d="M238.72,57.76l11.52,11.76-6.73,3.91Z" transform="translate(44.81 -20.61)"/><path class="cls-11" d="M238.72,57.76,234,73.43l-6.77-3.91Z" transform="translate(44.81 -20.61)"/><path class="cls-12" d="M238.72,57.76l4.79,15.67H234Z" transform="translate(44.81 -20.61)"/><path class="cls-10" d="M238.72,53.28l8.38,8.55-4.91,2.84Z" transform="translate(44.81 -20.61)"/><path class="cls-11" d="M238.72,53.28l-3.47,11.39-4.93-2.84Z" transform="translate(44.81 -20.61)"/><path class="cls-12" d="M238.72,53.28l3.47,11.39h-6.95Z" transform="translate(44.81 -20.61)"/></g><g class="cls-6"><path d="M285.89,86.76c2.25,1.3,2.27,3.42,0,4.72a8.88,8.88,0,0,1-8.15,0c-2.26-1.3-2.27-3.42,0-4.72A9,9,0,0,1,285.89,86.76Z" transform="translate(44.81 -20.61)"/></g><g id="Layer-1-11"><path class="cls-7" d="M281.66,90.48l-3-1.75-.07-23.22,3,1.75Z" transform="translate(44.81 -20.61)"/><path class="cls-8" d="M281.59,67.26l-3-1.75,3-1.76,3,1.76Z" transform="translate(44.81 -20.61)"/><path class="cls-9" d="M284.63,65.51l.06,23.22-3,1.75-.07-23.22Z" transform="translate(44.81 -20.61)"/><path class="cls-10" d="M281.65,65.47l13.62,13.9-8,4.62Z" transform="translate(44.81 -20.61)"/><path class="cls-11" d="M281.65,65.47,276,84l-8-4.62Z" transform="translate(44.81 -20.61)"/><path class="cls-12" d="M281.65,65.47,287.31,84H276Z" transform="translate(44.81 -20.61)"/><path class="cls-10" d="M281.65,60.34,293.19,72.1,286.46,76Z" transform="translate(44.81 -20.61)"/><path class="cls-11" d="M281.65,60.34,276.88,76,270.1,72.1Z" transform="translate(44.81 -20.61)"/><path class="cls-12" d="M281.65,60.34,286.44,76h-9.56Z" transform="translate(44.81 -20.61)"/><path class="cls-10" d="M281.65,55.86,290,64.41l-4.89,2.84Z" transform="translate(44.81 -20.61)"/><path class="cls-11" d="M281.65,55.86l-3.46,11.39-4.93-2.84Z" transform="translate(44.81 -20.61)"/><path class="cls-12" d="M281.65,55.86l3.48,11.39h-6.94Z" transform="translate(44.81 -20.61)"/></g><g class="cls-6"><path d="M267.46,93.93c2.26,1.31,2.27,3.42,0,4.72a9,9,0,0,1-8.16,0c-2.26-1.31-2.26-3.42,0-4.73A9,9,0,0,1,267.46,93.93Z" transform="translate(44.81 -20.61)"/></g><g id="Layer-1-12"><path class="cls-7" d="M263.19,97.61l-3-1.75V72.68l3,1.75Z" transform="translate(44.81 -20.61)"/><path class="cls-8" d="M263.19,74.43l-3-1.75,3-1.75,3,1.75Z" transform="translate(44.81 -20.61)"/><path class="cls-9" d="M266.19,72.68l.06,23.22-3.06,1.71V74.43Z" transform="translate(44.81 -20.61)"/><path class="cls-10" d="M263.19,72.61l13.62,13.9-8,4.62Z" transform="translate(44.81 -20.61)"/><path class="cls-11" d="M263.19,72.61l-5.6,18.55-8-4.62Z" transform="translate(44.81 -20.61)"/><path class="cls-12" d="M263.19,72.61l5.66,18.52H257.59Z" transform="translate(44.81 -20.61)"/><path class="cls-10" d="M263.19,67.51l11.52,11.76L268,83.18Z" transform="translate(44.81 -20.61)"/><path class="cls-11" d="M263.19,67.51l-4.77,15.67-6.78-3.91Z" transform="translate(44.81 -20.61)"/><path class="cls-12" d="M263.19,67.51,268,83.18h-9.56Z" transform="translate(44.81 -20.61)"/><path class="cls-10" d="M263.19,63l8.41,8.58-4.9,2.84Z" transform="translate(44.81 -20.61)"/><path class="cls-11" d="M263.19,63l-3.47,11.39-4.9-2.81Z" transform="translate(44.81 -20.61)"/><path class="cls-12" d="M263.19,63l3.48,11.39h-6.95Z" transform="translate(44.81 -20.61)"/></g><g class="cls-6"><path d="M251.66,104.89c2.26,1.3,2.27,3.42,0,4.72a8.94,8.94,0,0,1-8.15,0c-2.25-1.3-2.26-3.42,0-4.72A9,9,0,0,1,251.66,104.89Z" transform="translate(44.81 -20.61)"/></g><g id="Layer-1-13"><path class="cls-7" d="M247.43,108.61l-3-1.75-.08-23.25,3,1.75Z" transform="translate(44.81 -20.61)"/><path class="cls-8" d="M247.36,85.38l-3-1.75,3-1.75,3,1.75Z" transform="translate(44.81 -20.61)"/><path class="cls-9" d="M250.4,83.61l.06,23.23-3,1.75-.07-23.23Z" transform="translate(44.81 -20.61)"/><path class="cls-10" d="M247.42,83.61,261,97.51l-8,4.62Z" transform="translate(44.81 -20.61)"/><path class="cls-11" d="M247.42,83.61l-5.63,18.51-8-4.62Z" transform="translate(44.81 -20.61)"/><path class="cls-12" d="M247.42,83.61l5.66,18.52H241.79Z" transform="translate(44.81 -20.61)"/><path class="cls-10" d="M247.42,78.47l11.52,11.76-6.75,3.91Z" transform="translate(44.81 -20.61)"/><path class="cls-11" d="M247.42,78.47l-4.77,15.67-6.78-3.91Z" transform="translate(44.81 -20.61)"/><path class="cls-12" d="M247.42,78.47l4.77,15.67h-9.56Z" transform="translate(44.81 -20.61)"/><path class="cls-10" d="M247.42,74l8.37,8.56-4.89,2.84Z" transform="translate(44.81 -20.61)"/><path class="cls-11" d="M247.42,74,244,85.38,239,82.54Z" transform="translate(44.81 -20.61)"/><path class="cls-12" d="M247.42,74l3.48,11.4h-7Z" transform="translate(44.81 -20.61)"/></g><g class="cls-6"><path d="M458.82,301c2.26,1.31,2.26,3.42,0,4.72a8.94,8.94,0,0,1-8.15,0c-2.26-1.3-2.26-3.41,0-4.72A9,9,0,0,1,458.82,301Z" transform="translate(44.81 -20.61)"/></g><g id="Layer-1-14"><path class="cls-13" d="M456.49,277.28l-1.73,1v25.86l1.73-1Z" transform="translate(44.81 -20.61)"/><path class="cls-14" d="M453,277.28l1.74,1v25.86l-1.74-1Z" transform="translate(44.81 -20.61)"/><path class="cls-15" d="M454.76,268c-2.46,0-6.32,26.43-4.69,27.78a7.32,7.32,0,0,0,9.37,0c1.63-1.35-2.23-27.78-4.68-27.78" transform="translate(44.81 -20.61)"/><path class="cls-16" d="M454.76,268c-2.46,0-7.36,15.48-7.36,22.11a7.34,7.34,0,0,0,2.67,5.67Z" transform="translate(44.81 -20.61)"/><path class="cls-17" d="M454.76,268c2.45,0,7.35,15.48,7.35,22.11a7.34,7.34,0,0,1-2.67,5.67Z" transform="translate(44.81 -20.61)"/></g><g class="cls-6"><path d="M663.34,89.1c2.26,1.3,2.27,3.42,0,4.72a8.88,8.88,0,0,1-8.15,0c-2.26-1.3-2.28-3.42,0-4.72A9,9,0,0,1,663.34,89.1Z" transform="translate(44.81 -20.61)"/></g><g id="Layer-1-15"><path class="cls-7" d="M659.11,92.82l-3-1.75L656,67.84l3,1.75Z" transform="translate(44.81 -20.61)"/><path class="cls-8" d="M659,69.61l-3-1.75,3-1.75,3,1.75Z" transform="translate(44.81 -20.61)"/><path class="cls-9" d="M662.08,67.84l.11,23.23-3,1.75L659,69.61Z" transform="translate(44.81 -20.61)"/><path class="cls-10" d="M659.1,67.81,672.72,81.7l-8,4.63Z" transform="translate(44.81 -20.61)"/><path class="cls-11" d="M659.1,67.81l-5.63,18.52-8-4.63Z" transform="translate(44.81 -20.61)"/><path class="cls-12" d="M659.1,67.81l5.66,18.52H653.47Z" transform="translate(44.81 -20.61)"/><path class="cls-10" d="M659.1,62.68l11.52,11.76-6.73,3.91Z" transform="translate(44.81 -20.61)"/><path class="cls-11" d="M659.1,62.68l-4.77,15.67-6.78-3.91Z" transform="translate(44.81 -20.61)"/><path class="cls-12" d="M659.1,62.68l4.79,15.67h-9.56Z" transform="translate(44.81 -20.61)"/><path class="cls-10" d="M659.1,58.19l8.37,8.55-4.89,2.87Z" transform="translate(44.81 -20.61)"/><path class="cls-11" d="M659.1,58.19l-3.47,11.42-4.93-2.85Z" transform="translate(44.81 -20.61)"/><path class="cls-12" d="M659.1,58.19l3.48,11.42h-7Z" transform="translate(44.81 -20.61)"/></g><g class="cls-6"><path d="M680.46,68.41c2.25,1.3,2.26,3.42,0,4.72a8.88,8.88,0,0,1-8.15,0c-2.26-1.3-2.27-3.42,0-4.72A9,9,0,0,1,680.46,68.41Z" transform="translate(44.81 -20.61)"/></g><g id="Layer-1-16"><path class="cls-7" d="M676.19,72.13l-3-1.75V47.16l3,1.75Z" transform="translate(44.81 -20.61)"/><path class="cls-8" d="M676.19,48.91l-3-1.75,3-1.75,3,1.75Z" transform="translate(44.81 -20.61)"/><path class="cls-9" d="M679.19,47.16l.06,23.22-3,1.75-.06-23.22Z" transform="translate(44.81 -20.61)"/><path class="cls-10" d="M676.19,47.12,689.81,61l-8,4.62Z" transform="translate(44.81 -20.61)"/><path class="cls-11" d="M676.19,47.12l-5.6,18.49-8-4.62Z" transform="translate(44.81 -20.61)"/><path class="cls-12" d="M676.19,47.12l5.69,18.49H670.59Z" transform="translate(44.81 -20.61)"/><path class="cls-10" d="M676.19,42l11.52,11.76L681,57.66Z" transform="translate(44.81 -20.61)"/><path class="cls-11" d="M676.19,42l-4.77,15.67-6.78-3.91Z" transform="translate(44.81 -20.61)"/><path class="cls-12" d="M676.19,42,681,57.66h-9.55Z" transform="translate(44.81 -20.61)"/><path class="cls-10" d="M676.19,37.51l8.37,8.55-4.89,2.84Z" transform="translate(44.81 -20.61)"/><path class="cls-11" d="M676.19,37.51,672.72,48.9l-4.93-2.84Z" transform="translate(44.81 -20.61)"/><path class="cls-12" d="M676.19,37.51l3.48,11.39h-7Z" transform="translate(44.81 -20.61)"/></g><g class="cls-6"><path d="M702.57,64.13c2.26,1.3,2.27,3.41,0,4.71a8.94,8.94,0,0,1-8.15,0c-2.26-1.31-2.27-3.42,0-4.72A8.94,8.94,0,0,1,702.57,64.13Z" transform="translate(44.81 -20.61)"/></g><g id="Layer-1-17"><path class="cls-7" d="M698.34,67.85l-3-1.75-.07-23.23,3,1.75Z" transform="translate(44.81 -20.61)"/><path class="cls-8" d="M698.28,44.61l-3-1.75,3-1.75,3,1.75Z" transform="translate(44.81 -20.61)"/><path class="cls-9" d="M701.31,42.87l.07,23.23-3,1.75-.1-23.24Z" transform="translate(44.81 -20.61)"/><path class="cls-10" d="M698.34,42.83,712,56.73l-8,4.63Z" transform="translate(44.81 -20.61)"/><path class="cls-11" d="M698.34,42.83,692.7,61.36l-8-4.63Z" transform="translate(44.81 -20.61)"/><path class="cls-12" d="M698.34,42.83,704,61.36H692.7Z" transform="translate(44.81 -20.61)"/><path class="cls-10" d="M698.33,37.7l11.52,11.76-6.73,3.92Z" transform="translate(44.81 -20.61)"/><path class="cls-11" d="M698.33,37.7l-4.77,15.68-6.77-3.92Z" transform="translate(44.81 -20.61)"/><path class="cls-12" d="M698.33,37.7l4.79,15.68h-9.56Z" transform="translate(44.81 -20.61)"/><path class="cls-10" d="M698.33,33.22l8.38,8.55-4.9,2.84Z" transform="translate(44.81 -20.61)"/><path class="cls-11" d="M698.33,33.22l-3.47,11.39-4.93-2.85Z" transform="translate(44.81 -20.61)"/><path class="cls-12" d="M698.33,33.22l3.48,11.39h-7Z" transform="translate(44.81 -20.61)"/></g><g class="cls-6"><path d="M712.45,81.69c2.26,1.31,2.27,3.42,0,4.72a9,9,0,0,1-8.16,0c-2.25-1.3-2.26-3.41,0-4.72A9,9,0,0,1,712.45,81.69Z" transform="translate(44.81 -20.61)"/></g><g id="Layer-1-18"><path class="cls-7" d="M708.19,85.41l-3-1.75V60.44l3,1.75Z" transform="translate(44.81 -20.61)"/><path class="cls-8" d="M708.19,62.19l-3-1.75,3-1.76,3,1.76Z" transform="translate(44.81 -20.61)"/><path class="cls-9" d="M711.19,60.44l.06,23.22-3,1.75-.06-23.22Z" transform="translate(44.81 -20.61)"/><path class="cls-10" d="M708.19,60.4l13.62,13.9-8,4.62Z" transform="translate(44.81 -20.61)"/><path class="cls-11" d="M708.19,60.4l-5.63,18.52-8-4.62Z" transform="translate(44.81 -20.61)"/><path class="cls-12" d="M708.19,60.4l5.66,18.52H702.58Z" transform="translate(44.81 -20.61)"/><path class="cls-10" d="M708.19,55.27,719.71,67,713,70.94Z" transform="translate(44.81 -20.61)"/><path class="cls-11" d="M708.19,55.27l-4.77,15.67L696.64,67Z" transform="translate(44.81 -20.61)"/><path class="cls-12" d="M708.19,55.27,713,70.94h-9.56Z" transform="translate(44.81 -20.61)"/><path class="cls-10" d="M708.19,50.79l8.38,8.55-4.9,2.84Z" transform="translate(44.81 -20.61)"/><path class="cls-11" d="M708.19,50.79l-3.47,11.39-4.93-2.84Z" transform="translate(44.81 -20.61)"/><path class="cls-12" d="M708.19,50.79l3.48,11.39h-7Z" transform="translate(44.81 -20.61)"/></g><g class="cls-6"><path d="M691.78,85.48c2.26,1.31,2.27,3.42,0,4.72a8.94,8.94,0,0,1-8.15,0c-2.26-1.31-2.28-3.42,0-4.73A9,9,0,0,1,691.78,85.48Z" transform="translate(44.81 -20.61)"/></g><g id="Layer-1-19"><path class="cls-7" d="M687.55,89.2l-3-1.75-.07-23.23,3,1.76Z" transform="translate(44.81 -20.61)"/><path class="cls-8" d="M687.48,66l-3-1.76,3-1.75,3,1.75Z" transform="translate(44.81 -20.61)"/><path class="cls-9" d="M690.52,64.22l.06,23.23-3,1.75L687.51,66Z" transform="translate(44.81 -20.61)"/><path class="cls-10" d="M687.54,64.19l13.65,13.9-8,4.62Z" transform="translate(44.81 -20.61)"/><path class="cls-11" d="M687.54,64.19l-5.63,18.52-8-4.62Z" transform="translate(44.81 -20.61)"/><path class="cls-12" d="M687.54,64.19l5.65,18.52H681.91Z" transform="translate(44.81 -20.61)"/><path class="cls-10" d="M687.54,59.06l11.52,11.76-6.74,3.91Z" transform="translate(44.81 -20.61)"/><path class="cls-11" d="M687.54,59.06l-4.77,15.67L676,70.82Z" transform="translate(44.81 -20.61)"/><path class="cls-12" d="M687.54,59.06l4.78,15.67h-9.55Z" transform="translate(44.81 -20.61)"/><path class="cls-10" d="M687.54,54.61l8.37,8.56L691,66Z" transform="translate(44.81 -20.61)"/><path class="cls-11" d="M687.54,54.61,684.07,66l-4.88-2.88Z" transform="translate(44.81 -20.61)"/><path class="cls-12" d="M687.54,54.61,691,66h-7Z" transform="translate(44.81 -20.61)"/></g><g class="cls-6"><path d="M720.26,98c2.26,1.31,2.28,3.42,0,4.73a8.94,8.94,0,0,1-8.15,0c-2.26-1.3-2.27-3.41,0-4.72A9,9,0,0,1,720.26,98Z" transform="translate(44.81 -20.61)"/></g><g id="Layer-1-20"><path class="cls-7" d="M716,101.75,713,100,713,76.77l3,1.75Z" transform="translate(44.81 -20.61)"/><path class="cls-8" d="M716,78.52l-3-1.75L716,75l3,1.75Z" transform="translate(44.81 -20.61)"/><path class="cls-9" d="M719,76.77l.06,23.22-3,1.76L716,78.52Z" transform="translate(44.81 -20.61)"/><path class="cls-10" d="M716,76.73l13.62,13.88-8,4.62Z" transform="translate(44.81 -20.61)"/><path class="cls-11" d="M716,76.73l-5.63,18.52-8-4.62Z" transform="translate(44.81 -20.61)"/><path class="cls-12" d="M716,76.73l5.66,18.52H710.39Z" transform="translate(44.81 -20.61)"/><path class="cls-10" d="M716,71.61l11.52,11.76-6.73,3.91Z" transform="translate(44.81 -20.61)"/><path class="cls-11" d="M716,71.61l-4.77,15.67-6.77-3.91Z" transform="translate(44.81 -20.61)"/><path class="cls-12" d="M716,71.61l4.79,15.67h-9.56Z" transform="translate(44.81 -20.61)"/><path class="cls-10" d="M716,67.12l8.38,8.55-4.9,2.85Z" transform="translate(44.81 -20.61)"/><path class="cls-11" d="M716,67.12l-3.47,11.39-4.93-2.84Z" transform="translate(44.81 -20.61)"/><path class="cls-12" d="M716,67.12l3.48,11.4h-7Z" transform="translate(44.81 -20.61)"/></g><g class="cls-6"><path d="M677.34,95.45c2.25,1.3,2.26,3.41,0,4.72a8.94,8.94,0,0,1-8.15,0c-2.26-1.3-2.27-3.42,0-4.73A9,9,0,0,1,677.34,95.45Z" transform="translate(44.81 -20.61)"/></g><g id="Layer-1-21"><path class="cls-7" d="M673.11,99.17l-3-1.75-.06-23.23,3,1.75Z" transform="translate(44.81 -20.61)"/><path class="cls-8" d="M673,75.94l-3-1.75,3-1.75,3,1.75Z" transform="translate(44.81 -20.61)"/><path class="cls-9" d="M676.07,74.19l.12,23.23-3,1.75-.07-23.23Z" transform="translate(44.81 -20.61)"/><path class="cls-10" d="M673.1,74.16l13.61,13.89-8,4.63Z" transform="translate(44.81 -20.61)"/><path class="cls-11" d="M673.1,74.16l-5.64,18.52-8-4.63Z" transform="translate(44.81 -20.61)"/><path class="cls-12" d="M673.1,74.16l5.65,18.52H667.46Z" transform="translate(44.81 -20.61)"/><path class="cls-10" d="M673.1,69l11.52,11.75-6.74,3.92Z" transform="translate(44.81 -20.61)"/><path class="cls-11" d="M673.1,69,668.33,84.7l-6.78-3.92Z" transform="translate(44.81 -20.61)"/><path class="cls-12" d="M673.1,69l4.78,15.67h-9.55Z" transform="translate(44.81 -20.61)"/><path class="cls-10" d="M673.09,64.54l8.38,8.55-4.9,2.85Z" transform="translate(44.81 -20.61)"/><path class="cls-11" d="M673.09,64.54l-3.47,11.4-4.92-2.85Z" transform="translate(44.81 -20.61)"/><path class="cls-12" d="M673.09,64.54l3.48,11.4h-7Z" transform="translate(44.81 -20.61)"/></g><g class="cls-6"><path d="M701.83,105.19c2.26,1.31,2.27,3.42,0,4.73a9,9,0,0,1-8.14,0c-2.26-1.31-2.27-3.42,0-4.73A9,9,0,0,1,701.83,105.19Z" transform="translate(44.81 -20.61)"/></g><g id="Layer-1-22"><path class="cls-7" d="M697.6,108.92l-3-1.75-.07-23.23,3,1.75Z" transform="translate(44.81 -20.61)"/><path class="cls-8" d="M697.54,85.69l-3-1.75,3-1.75,3,1.75Z" transform="translate(44.81 -20.61)"/><path class="cls-9" d="M700.57,83.94l.07,23.23-3,1.75-.06-23.23Z" transform="translate(44.81 -20.61)"/><path class="cls-10" d="M697.6,83.91,711.19,97.8l-8,4.63Z" transform="translate(44.81 -20.61)"/><path class="cls-11" d="M697.6,83.91,692,102.43l-8-4.63Z" transform="translate(44.81 -20.61)"/><path class="cls-12" d="M697.6,83.91l5.65,18.52H692Z" transform="translate(44.81 -20.61)"/><path class="cls-10" d="M697.59,78.78l11.52,11.75-6.73,3.92Z" transform="translate(44.81 -20.61)"/><path class="cls-11" d="M697.59,78.78l-4.77,15.67-6.77-3.92Z" transform="translate(44.81 -20.61)"/><path class="cls-12" d="M697.59,78.78l4.79,15.67h-9.56Z" transform="translate(44.81 -20.61)"/><path class="cls-10" d="M697.59,74.29,706,82.84l-4.9,2.85Z" transform="translate(44.81 -20.61)"/><path class="cls-11" d="M697.59,74.29l-3.47,11.4-4.93-2.85Z" transform="translate(44.81 -20.61)"/><path class="cls-12" d="M697.59,74.29l3.48,11.4h-7Z" transform="translate(44.81 -20.61)"/></g><g class="cls-6"><path d="M679.94,448.61c2.25,1.31,2.26,3.42,0,4.72a8.94,8.94,0,0,1-8.15,0c-2.26-1.31-2.27-3.42,0-4.73A9,9,0,0,1,679.94,448.61Z" transform="translate(44.81 -20.61)"/></g><g id="Layer-1-23"><path class="cls-7" d="M675.7,452.36l-3-1.75-.06-23.23,3,1.76Z" transform="translate(44.81 -20.61)"/><path class="cls-8" d="M675.64,429.14l-3-1.76,3-1.75,3,1.75Z" transform="translate(44.81 -20.61)"/><path class="cls-9" d="M678.67,427.38l.07,23.23-3,1.75-.06-23.22Z" transform="translate(44.81 -20.61)"/><path class="cls-10" d="M675.7,427.35l13.61,13.9-8,4.62Z" transform="translate(44.81 -20.61)"/><path class="cls-11" d="M675.7,427.35l-5.64,18.52-8-4.62Z" transform="translate(44.81 -20.61)"/><path class="cls-12" d="M675.7,427.35l5.65,18.52H670.06Z" transform="translate(44.81 -20.61)"/><path class="cls-10" d="M675.69,422.22,687.19,434l-6.73,3.91Z" transform="translate(44.81 -20.61)"/><path class="cls-11" d="M675.69,422.22l-4.76,15.67L664.19,434Z" transform="translate(44.81 -20.61)"/><path class="cls-12" d="M675.69,422.22l4.79,15.67h-9.55Z" transform="translate(44.81 -20.61)"/><path class="cls-10" d="M675.69,417.73l8.38,8.56-4.9,2.84Z" transform="translate(44.81 -20.61)"/><path class="cls-11" d="M675.69,417.73l-3.5,11.4-4.93-2.84Z" transform="translate(44.81 -20.61)"/><path class="cls-12" d="M675.69,417.73l3.48,11.4h-7Z" transform="translate(44.81 -20.61)"/></g><g class="cls-6"><path d="M670.38,471.84c2.26,1.3,2.26,3.41,0,4.72a8.94,8.94,0,0,1-8.15,0c-2.26-1.31-2.27-3.42,0-4.72A9,9,0,0,1,670.38,471.84Z" transform="translate(44.81 -20.61)"/></g><g id="Layer-1-24"><path class="cls-7" d="M666.19,475.61l-3-1.75-.12-23.25,3,1.75Z" transform="translate(44.81 -20.61)"/><path class="cls-8" d="M666.08,452.33l-3-1.75,3-1.75,3,1.75Z" transform="translate(44.81 -20.61)"/><path class="cls-9" d="M669.12,450.61l.07,23.2-3,1.8-.07-23.23Z" transform="translate(44.81 -20.61)"/><path class="cls-10" d="M666.19,450.55l13.62,13.89-8,4.63Z" transform="translate(44.81 -20.61)"/><path class="cls-11" d="M666.19,450.55l-5.63,18.52-8-4.63Z" transform="translate(44.81 -20.61)"/><path class="cls-12" d="M666.19,450.55l5.66,18.52H660.51Z" transform="translate(44.81 -20.61)"/><path class="cls-10" d="M666.19,445.42l11.52,11.76L671,461.09Z" transform="translate(44.81 -20.61)"/><path class="cls-11" d="M666.19,445.42l-4.77,15.67-6.78-3.91Z" transform="translate(44.81 -20.61)"/><path class="cls-12" d="M666.19,445.42,671,461.09h-9.56Z" transform="translate(44.81 -20.61)"/><path class="cls-10" d="M666.19,440.93l8.37,8.55-4.89,2.85Z" transform="translate(44.81 -20.61)"/><path class="cls-11" d="M666.19,440.93l-3.47,11.4-4.93-2.85Z" transform="translate(44.81 -20.61)"/><path class="cls-12" d="M666.19,440.93l3.48,11.4h-6.95Z" transform="translate(44.81 -20.61)"/></g><g class="cls-6"><path d="M696.09,462.88c2.27,1.3,2.28,3.42,0,4.72a9,9,0,0,1-8.16,0c-2.25-1.3-2.27-3.42,0-4.72A9,9,0,0,1,696.09,462.88Z" transform="translate(44.81 -20.61)"/></g><g id="Layer-1-25"><path class="cls-7" d="M691.87,466.61l-3-1.75-.08-23.25,3,1.75Z" transform="translate(44.81 -20.61)"/><path class="cls-8" d="M691.8,443.37l-3-1.75,3-1.75,3,1.75Z" transform="translate(44.81 -20.61)"/><path class="cls-9" d="M694.83,441.61l.07,23.23-3,1.75-.07-23.23Z" transform="translate(44.81 -20.61)"/><path class="cls-10" d="M691.86,441.61l13.61,13.9-8,4.62Z" transform="translate(44.81 -20.61)"/><path class="cls-11" d="M691.86,441.61l-5.67,18.5-8-4.62Z" transform="translate(44.81 -20.61)"/><path class="cls-12" d="M691.86,441.61l5.66,18.52H686.19Z" transform="translate(44.81 -20.61)"/><path class="cls-10" d="M691.86,436.46l11.52,11.76-6.74,3.91Z" transform="translate(44.81 -20.61)"/><path class="cls-11" d="M691.86,436.46l-4.77,15.67-6.78-3.91Z" transform="translate(44.81 -20.61)"/><path class="cls-12" d="M691.86,436.46l4.78,15.67h-9.55Z" transform="translate(44.81 -20.61)"/><path class="cls-10" d="M691.85,432l8.38,8.56-4.9,2.84Z" transform="translate(44.81 -20.61)"/><path class="cls-11" d="M691.85,432l-3.46,11.4-4.93-2.84Z" transform="translate(44.81 -20.61)"/><path class="cls-12" d="M691.85,432l3.48,11.4h-6.94Z" transform="translate(44.81 -20.61)"/></g><g class="cls-6"><path d="M640,479c2.26,1.3,2.27,3.42,0,4.72a8.94,8.94,0,0,1-8.15,0c-2.26-1.3-2.28-3.42,0-4.72A8.94,8.94,0,0,1,640,479Z" transform="translate(44.81 -20.61)"/></g><g id="Layer-1-26"><path class="cls-7" d="M635.8,482.73l-3-1.75-.07-23.23,3,1.75Z" transform="translate(44.81 -20.61)"/><path class="cls-8" d="M635.74,459.5l-3-1.75,3-1.75,3,1.75Z" transform="translate(44.81 -20.61)"/><path class="cls-9" d="M638.77,457.75l.06,23.23-3,1.75-.06-23.23Z" transform="translate(44.81 -20.61)"/><path class="cls-10" d="M635.79,457.72l13.62,13.89-8,4.63Z" transform="translate(44.81 -20.61)"/><path class="cls-11" d="M635.79,457.72l-5.6,18.52-8-4.63Z" transform="translate(44.81 -20.61)"/><path class="cls-12" d="M635.79,457.72l5.66,18.52H630.19Z" transform="translate(44.81 -20.61)"/><path class="cls-10" d="M635.79,452.61l11.52,11.76-6.73,3.91Z" transform="translate(44.81 -20.61)"/><path class="cls-11" d="M635.79,452.61,631,468.28l-6.78-3.91Z" transform="translate(44.81 -20.61)"/><path class="cls-12" d="M635.79,452.61l4.79,15.67H631Z" transform="translate(44.81 -20.61)"/><path class="cls-10" d="M635.79,448.1l8.4,8.51-4.9,2.85Z" transform="translate(44.81 -20.61)"/><path class="cls-11" d="M635.79,448.1l-3.47,11.4-4.93-2.89Z" transform="translate(44.81 -20.61)"/><path class="cls-12" d="M635.79,448.1l3.48,11.4h-7Z" transform="translate(44.81 -20.61)"/></g><g class="cls-6"><path d="M720.76,450.89c2.26,1.31,2.27,3.42,0,4.72a8.92,8.92,0,0,1-8.14,0c-2.26-1.3-2.27-3.41,0-4.71A9,9,0,0,1,720.76,450.89Z" transform="translate(44.81 -20.61)"/></g><g id="Layer-1-27"><path class="cls-7" d="M716.53,454.61l-3-1.76-.08-23.24,3,1.75Z" transform="translate(44.81 -20.61)"/><path class="cls-8" d="M716.47,431.39l-3-1.75,3-1.75,3,1.75Z" transform="translate(44.81 -20.61)"/><path class="cls-9" d="M719.5,429.61l.06,23.22-3,1.76-.06-23.23Z" transform="translate(44.81 -20.61)"/><path class="cls-10" d="M716.52,429.61l13.67,13.89-8,4.63Z" transform="translate(44.81 -20.61)"/><path class="cls-11" d="M716.52,429.61l-5.63,18.52-8-4.62Z" transform="translate(44.81 -20.61)"/><path class="cls-12" d="M716.52,429.61l5.67,18.52h-11.3Z" transform="translate(44.81 -20.61)"/><path class="cls-10" d="M716.52,424.47,728,436.23l-6.73,3.91Z" transform="translate(44.81 -20.61)"/><path class="cls-11" d="M716.52,424.47l-4.77,15.67L705,436.23Z" transform="translate(44.81 -20.61)"/><path class="cls-12" d="M716.52,424.47l4.79,15.67h-9.56Z" transform="translate(44.81 -20.61)"/><path class="cls-10" d="M716.52,420l8.38,8.55-4.9,2.85Z" transform="translate(44.81 -20.61)"/><path class="cls-11" d="M716.52,420l-3.47,11.39-4.93-2.84Z" transform="translate(44.81 -20.61)"/><path class="cls-12" d="M716.52,420l3.48,11.4h-7Z" transform="translate(44.81 -20.61)"/></g><g class="cls-6"><path d="M738.69,460.26c2.25,1.3,2.27,3.41,0,4.72a9,9,0,0,1-8.14,0c-2.26-1.31-2.28-3.42,0-4.72A9,9,0,0,1,738.69,460.26Z" transform="translate(44.81 -20.61)"/></g><g id="Layer-1-28"><path class="cls-7" d="M734.46,464l-3-1.75L731.39,439l3,1.75Z" transform="translate(44.81 -20.61)"/><path class="cls-8" d="M734.39,440.75l-3-1.75,3-1.75,3,1.75Z" transform="translate(44.81 -20.61)"/><path class="cls-9" d="M737.43,439l.06,23.23-3,1.75-.07-23.23Z" transform="translate(44.81 -20.61)"/><path class="cls-10" d="M734.45,439l13.62,13.89-8,4.63Z" transform="translate(44.81 -20.61)"/><path class="cls-11" d="M734.45,439l-5.63,18.52-8-4.63Z" transform="translate(44.81 -20.61)"/><path class="cls-12" d="M734.45,439l5.66,18.52H728.82Z" transform="translate(44.81 -20.61)"/><path class="cls-10" d="M734.45,433.84,746,445.61l-6.78,3.9Z" transform="translate(44.81 -20.61)"/><path class="cls-11" d="M734.45,433.84l-4.77,15.67-6.78-3.9Z" transform="translate(44.81 -20.61)"/><path class="cls-12" d="M734.45,433.84l4.74,15.67h-9.55Z" transform="translate(44.81 -20.61)"/><path class="cls-10" d="M734.45,429.35l8.37,8.55-4.89,2.85Z" transform="translate(44.81 -20.61)"/><path class="cls-11" d="M734.45,429.35,731,440.75l-4.93-2.85Z" transform="translate(44.81 -20.61)"/><path class="cls-12" d="M734.45,429.35l3.48,11.4h-7Z" transform="translate(44.81 -20.61)"/></g><g class="cls-6"><path d="M658.31,498.07c2.26,1.3,2.28,3.41,0,4.72a8.94,8.94,0,0,1-8.15,0c-2.25-1.3-2.27-3.41,0-4.71A9,9,0,0,1,658.31,498.07Z" transform="translate(44.81 -20.61)"/></g><g id="Layer-1-29"><path class="cls-7" d="M654.08,501.79l-3-1.75L651,476.81l3,1.75Z" transform="translate(44.81 -20.61)"/><path class="cls-8" d="M654,478.61l-3-1.75,3-1.75,3,1.75Z" transform="translate(44.81 -20.61)"/><path class="cls-9" d="M657.05,476.81l.07,23.23-3,1.75-.1-23.18Z" transform="translate(44.81 -20.61)"/><path class="cls-10" d="M654.08,476.78l13.61,13.89-8,4.63Z" transform="translate(44.81 -20.61)"/><path class="cls-11" d="M654.08,476.78l-5.64,18.52-8-4.63Z" transform="translate(44.81 -20.61)"/><path class="cls-12" d="M654.08,476.78l5.65,18.52H648.44Z" transform="translate(44.81 -20.61)"/><path class="cls-10" d="M654.07,471.61l11.52,11.76-6.73,3.92Z" transform="translate(44.81 -20.61)"/><path class="cls-11" d="M654.07,471.61l-4.76,15.68-6.78-3.92Z" transform="translate(44.81 -20.61)"/><path class="cls-12" d="M654.07,471.61l4.79,15.68h-9.55Z" transform="translate(44.81 -20.61)"/><path class="cls-10" d="M654.07,467.16l8.38,8.55-4.9,2.85Z" transform="translate(44.81 -20.61)"/><path class="cls-11" d="M654.07,467.16l-3.47,11.45-4.93-2.85Z" transform="translate(44.81 -20.61)"/><path class="cls-12" d="M654.07,467.16l3.48,11.4h-7Z" transform="translate(44.81 -20.61)"/></g><g class="cls-6"><path d="M684,490.08c2.26,1.3,2.27,3.42,0,4.72a8.94,8.94,0,0,1-8.15,0c-2.26-1.3-2.27-3.42,0-4.72A8.94,8.94,0,0,1,684,490.08Z" transform="translate(44.81 -20.61)"/></g><g id="Layer-1-30"><path class="cls-7" d="M679.75,493.8l-3-1.75-.06-23.23,3,1.75Z" transform="translate(44.81 -20.61)"/><path class="cls-8" d="M679.69,470.61l-3-1.75,3-1.75,3,1.75Z" transform="translate(44.81 -20.61)"/><path class="cls-9" d="M682.72,468.82l.07,23.23-3,1.75-.1-23.19Z" transform="translate(44.81 -20.61)"/><path class="cls-10" d="M679.75,468.79l13.61,13.89-8,4.63Z" transform="translate(44.81 -20.61)"/><path class="cls-11" d="M679.75,468.79l-5.64,18.52-8-4.63Z" transform="translate(44.81 -20.61)"/><path class="cls-12" d="M679.75,468.79l5.65,18.52H674.11Z" transform="translate(44.81 -20.61)"/><path class="cls-10" d="M679.74,463.66l11.52,11.75-6.73,3.92Z" transform="translate(44.81 -20.61)"/><path class="cls-11" d="M679.74,463.66,675,479.33l-6.79-3.92Z" transform="translate(44.81 -20.61)"/><path class="cls-12" d="M679.74,463.66l4.79,15.67H675Z" transform="translate(44.81 -20.61)"/><path class="cls-10" d="M679.74,459.17l8.38,8.55-4.93,2.89Z" transform="translate(44.81 -20.61)"/><path class="cls-11" d="M679.74,459.17l-3.47,11.44-4.93-2.85Z" transform="translate(44.81 -20.61)"/><path class="cls-12" d="M679.74,459.17l3.45,11.44h-7Z" transform="translate(44.81 -20.61)"/></g><g class="cls-6"><path d="M711.88,476.39c2.26,1.3,2.28,3.41,0,4.72a8.94,8.94,0,0,1-8.15,0c-2.26-1.31-2.27-3.42,0-4.73A9,9,0,0,1,711.88,476.39Z" transform="translate(44.81 -20.61)"/></g><g id="Layer-1-31"><path class="cls-7" d="M707.66,480.11l-3-1.75-.06-23.23,3,1.75Z" transform="translate(44.81 -20.61)"/><path class="cls-8" d="M707.59,456.88l-3-1.75,3-1.75,3,1.75Z" transform="translate(44.81 -20.61)"/><path class="cls-9" d="M710.62,455.13l.07,23.23-3,1.75-.07-23.23Z" transform="translate(44.81 -20.61)"/><path class="cls-10" d="M707.65,455.1,721.26,469l-8,4.63Z" transform="translate(44.81 -20.61)"/><path class="cls-11" d="M707.65,455.1,702,473.61,694,469Z" transform="translate(44.81 -20.61)"/><path class="cls-12" d="M707.65,455.1l5.65,18.51H702Z" transform="translate(44.81 -20.61)"/><path class="cls-10" d="M707.65,450l11.54,11.76-6.76,3.89Z" transform="translate(44.81 -20.61)"/><path class="cls-11" d="M707.65,450l-4.77,15.65-6.78-3.92Z" transform="translate(44.81 -20.61)"/><path class="cls-12" d="M707.65,450l4.78,15.65h-9.55Z" transform="translate(44.81 -20.61)"/><path class="cls-10" d="M707.64,445.48,716,454l-4.9,2.85Z" transform="translate(44.81 -20.61)"/><path class="cls-11" d="M707.64,445.48l-3.45,11.4L699.27,454Z" transform="translate(44.81 -20.61)"/><path class="cls-12" d="M707.64,445.48l3.48,11.4h-6.93Z" transform="translate(44.81 -20.61)"/></g><g class="cls-6"><path d="M29.07,204.94c2.26,1.31,2.27,3.42,0,4.73a8.94,8.94,0,0,1-8.15,0c-2.26-1.3-2.28-3.41,0-4.72A9,9,0,0,1,29.07,204.94Z" transform="translate(44.81 -20.61)"/></g><g id="Layer-1-32"><path class="cls-7" d="M24.84,208.67l-3-1.76-.07-23.22,3,1.75Z" transform="translate(44.81 -20.61)"/><path class="cls-8" d="M24.77,185.44l-3-1.75,3-1.75,3,1.75Z" transform="translate(44.81 -20.61)"/><path class="cls-9" d="M27.81,183.69l.06,23.22-3,1.76-.07-23.23Z" transform="translate(44.81 -20.61)"/><path class="cls-10" d="M24.83,183.61l13.62,13.9-8,4.63Z" transform="translate(44.81 -20.61)"/><path class="cls-11" d="M24.83,183.61l-5.64,18.56-8-4.62Z" transform="translate(44.81 -20.61)"/><path class="cls-12" d="M24.83,183.61l5.66,18.53H19.19Z" transform="translate(44.81 -20.61)"/><path class="cls-10" d="M24.83,178.52l11.52,11.76-6.73,3.91Z" transform="translate(44.81 -20.61)"/><path class="cls-11" d="M24.83,178.52l-4.77,15.67-6.78-3.91Z" transform="translate(44.81 -20.61)"/><path class="cls-12" d="M24.83,178.52l4.79,15.67H20.06Z" transform="translate(44.81 -20.61)"/><path class="cls-10" d="M24.83,174l8.36,8.57-4.89,2.85Z" transform="translate(44.81 -20.61)"/><path class="cls-11" d="M24.83,174l-3.47,11.4-4.93-2.83Z" transform="translate(44.81 -20.61)"/><path class="cls-12" d="M24.83,174l3.48,11.4h-7Z" transform="translate(44.81 -20.61)"/></g><g class="cls-6"><path d="M8.39,208.73c2.26,1.31,2.28,3.42,0,4.73a9,9,0,0,1-8.16,0c-2.25-1.3-2.27-3.41,0-4.72A9,9,0,0,1,8.39,208.73Z" transform="translate(44.81 -20.61)"/></g><g id="Layer-1-33"><path class="cls-7" d="M4.19,212.45l-3-1.75-.06-23.22,3,1.75Z" transform="translate(44.81 -20.61)"/><path class="cls-8" d="M4.1,189.23l-3-1.75,3-1.75,3,1.75Z" transform="translate(44.81 -20.61)"/><path class="cls-9" d="M7.13,187.48l.06,23.22-3,1.75-.07-23.22Z" transform="translate(44.81 -20.61)"/><path class="cls-10" d="M4.19,187.44l13.61,13.9-8,4.62Z" transform="translate(44.81 -20.61)"/><path class="cls-11" d="M4.19,187.44-1.45,206l-8-4.62Z" transform="translate(44.81 -20.61)"/><path class="cls-12" d="M4.19,187.44,9.85,206H-1.48Z" transform="translate(44.81 -20.61)"/><path class="cls-10" d="M4.19,182.31l11.52,11.76L9,198Z" transform="translate(44.81 -20.61)"/><path class="cls-11" d="M4.19,182.31-.61,198l-6.78-3.91Z" transform="translate(44.81 -20.61)"/><path class="cls-12" d="M4.19,182.31,9,198H-.61Z" transform="translate(44.81 -20.61)"/><path class="cls-10" d="M4.19,177.83l8.38,8.55-4.9,2.84Z" transform="translate(44.81 -20.61)"/><path class="cls-11" d="M4.19,177.83.69,189.22l-4.93-2.84Z" transform="translate(44.81 -20.61)"/><path class="cls-12" d="M4.19,177.83l3.48,11.39h-7Z" transform="translate(44.81 -20.61)"/></g><g class="cls-6"><path d="M-6,218.7c2.26,1.3,2.28,3.41,0,4.72a8.94,8.94,0,0,1-8.15,0c-2.26-1.3-2.27-3.41,0-4.71A9,9,0,0,1-6,218.7Z" transform="translate(44.81 -20.61)"/></g><g id="Layer-1-34"><path class="cls-7" d="M-10.28,222.42l-3-1.75-.06-23.23,3,1.75Z" transform="translate(44.81 -20.61)"/><path class="cls-8" d="M-10.34,199.19l-3-1.75,3-1.75,3,1.75Z" transform="translate(44.81 -20.61)"/><path class="cls-9" d="M-7.31,197.44l.07,23.23-3,1.75-.06-23.23Z" transform="translate(44.81 -20.61)"/><path class="cls-10" d="M-10.28,197.41,3.33,211.3l-8,4.63Z" transform="translate(44.81 -20.61)"/><path class="cls-11" d="M-10.28,197.41l-5.64,18.52-8-4.63Z" transform="translate(44.81 -20.61)"/><path class="cls-12" d="M-10.28,197.41l5.65,18.52H-15.92Z" transform="translate(44.81 -20.61)"/><path class="cls-10" d="M-10.29,192.28,1.19,204-5.54,208Z" transform="translate(44.81 -20.61)"/><path class="cls-11" d="M-10.29,192.28-15,208-21.81,204Z" transform="translate(44.81 -20.61)"/><path class="cls-12" d="M-10.29,192.28-5.5,208H-15Z" transform="translate(44.81 -20.61)"/><path class="cls-10" d="M-10.29,187.79l8.38,8.55-4.9,2.85Z" transform="translate(44.81 -20.61)"/><path class="cls-11" d="M-10.29,187.79l-3.47,11.4-4.93-2.85Z" transform="translate(44.81 -20.61)"/><path class="cls-12" d="M-10.29,187.79l3.48,11.4h-6.95Z" transform="translate(44.81 -20.61)"/></g><g class="cls-6"><path d="M36.88,221.28c2.26,1.3,2.27,3.41,0,4.72a8.94,8.94,0,0,1-8.15,0c-2.26-1.31-2.26-3.42,0-4.72A8.94,8.94,0,0,1,36.88,221.28Z" transform="translate(44.81 -20.61)"/></g><g id="Layer-1-35"><path class="cls-7" d="M32.65,225l-3-1.75L29.58,200l3,1.75Z" transform="translate(44.81 -20.61)"/><path class="cls-8" d="M32.58,201.77l-3-1.75,3-1.75,3,1.75Z" transform="translate(44.81 -20.61)"/><path class="cls-9" d="M35.62,200l.06,23.23-3,1.75-.07-23.23Z" transform="translate(44.81 -20.61)"/><path class="cls-10" d="M32.64,200l13.62,13.89-8,4.63Z" transform="translate(44.81 -20.61)"/><path class="cls-11" d="M32.64,200,27,218.51l-8-4.63Z" transform="translate(44.81 -20.61)"/><path class="cls-12" d="M32.64,200l5.66,18.52H27Z" transform="translate(44.81 -20.61)"/><path class="cls-10" d="M32.64,194.86l11.55,11.75-6.73,3.92Z" transform="translate(44.81 -20.61)"/><path class="cls-11" d="M32.64,194.86l-4.77,15.67-6.78-3.92Z" transform="translate(44.81 -20.61)"/><path class="cls-12" d="M32.64,194.86l4.79,15.67H27.87Z" transform="translate(44.81 -20.61)"/><path class="cls-10" d="M32.64,190.37,41,198.92l-4.9,2.85Z" transform="translate(44.81 -20.61)"/><path class="cls-11" d="M32.64,190.37l-3.45,11.4-4.93-2.85Z" transform="translate(44.81 -20.61)"/><path class="cls-12" d="M32.64,190.37l3.48,11.4H29.19Z" transform="translate(44.81 -20.61)"/></g><g class="cls-6"><path d="M18.45,228.45c2.26,1.3,2.27,3.42,0,4.72a9,9,0,0,1-8.16,0c-2.25-1.3-2.26-3.42,0-4.72A9,9,0,0,1,18.45,228.45Z" transform="translate(44.81 -20.61)"/></g><g id="Layer-1-36"><path class="cls-7" d="M14.19,232.17l-3-1.75V207.19l3,1.75Z" transform="translate(44.81 -20.61)"/><path class="cls-8" d="M14.19,208.94l-3-1.75,3-1.75,3,1.75Z" transform="translate(44.81 -20.61)"/><path class="cls-9" d="M17.19,207.19l.06,23.23-3,1.75-.06-23.23Z" transform="translate(44.81 -20.61)"/><path class="cls-10" d="M14.19,207.16l13.62,13.89-8,4.63Z" transform="translate(44.81 -20.61)"/><path class="cls-11" d="M14.19,207.16,8.56,225.68l-8-4.63Z" transform="translate(44.81 -20.61)"/><path class="cls-12" d="M14.19,207.16l5.66,18.52H8.58Z" transform="translate(44.81 -20.61)"/><path class="cls-10" d="M14.19,202l11.52,11.76L19,217.7Z" transform="translate(44.81 -20.61)"/><path class="cls-11" d="M14.19,202,9.42,217.7l-6.77-3.91Z" transform="translate(44.81 -20.61)"/><path class="cls-12" d="M14.19,202,19,217.7H9.44Z" transform="translate(44.81 -20.61)"/><path class="cls-10" d="M14.19,197.54l8.38,8.55-4.9,2.85Z" transform="translate(44.81 -20.61)"/><path class="cls-11" d="M14.19,197.54l-3.47,11.4-4.93-2.85Z" transform="translate(44.81 -20.61)"/><path class="cls-12" d="M14.19,197.54l3.48,11.4h-7Z" transform="translate(44.81 -20.61)"/></g><g class="cls-6"><path d="M2.65,239.4c2.26,1.3,2.27,3.42,0,4.72a8.92,8.92,0,0,1-8.14,0c-2.26-1.3-2.28-3.41,0-4.72A9,9,0,0,1,2.65,239.4Z" transform="translate(44.81 -20.61)"/></g><g id="Layer-1-37"><path class="cls-7" d="M-1.58,243.13l-3-1.75-.07-23.23,3,1.75Z" transform="translate(44.81 -20.61)"/><path class="cls-8" d="M-1.65,219.9l-3-1.75,3-1.75,3,1.75Z" transform="translate(44.81 -20.61)"/><path class="cls-9" d="M1.39,218.15l.06,23.23-3,1.75-.07-23.23Z" transform="translate(44.81 -20.61)"/><path class="cls-10" d="M-1.59,218.12,12,232l-8,4.63Z" transform="translate(44.81 -20.61)"/><path class="cls-11" d="M-1.59,218.12l-5.63,18.49-8-4.63Z" transform="translate(44.81 -20.61)"/><path class="cls-12" d="M-1.59,218.12l5.66,18.49H-7.22Z" transform="translate(44.81 -20.61)"/><path class="cls-10" d="M-1.59,213,9.93,224.74l-6.74,3.92Z" transform="translate(44.81 -20.61)"/><path class="cls-11" d="M-1.59,213l-4.77,15.68-6.78-3.92Z" transform="translate(44.81 -20.61)"/><path class="cls-12" d="M-1.59,213l4.78,15.68H-6.36Z" transform="translate(44.81 -20.61)"/><path class="cls-10" d="M-1.59,208.5l8.37,8.55L1.89,219.9Z" transform="translate(44.81 -20.61)"/><path class="cls-11" d="M-1.59,208.5l-3.47,11.4L-10,217.05Z" transform="translate(44.81 -20.61)"/><path class="cls-12" d="M-1.59,208.5l3.48,11.4h-7Z" transform="translate(44.81 -20.61)"/></g><g class="cls-6"><path d="M480.3,292.33c2.26,1.3,2.27,3.42,0,4.72a8.88,8.88,0,0,1-8.15,0c-2.26-1.3-2.27-3.42,0-4.72A9,9,0,0,1,480.3,292.33Z" transform="translate(44.81 -20.61)"/></g><g id="Layer-1-38"><path class="cls-13" d="M478,268.61l-1.74,1v25.86l1.74-1Z" transform="translate(44.81 -20.61)"/><path class="cls-14" d="M474.5,268.61l1.74,1v25.86l-1.74-1Z" transform="translate(44.81 -20.61)"/><path class="cls-15" d="M476.24,259.37c-2.45,0-6.32,26.43-4.68,27.78a7.36,7.36,0,0,0,9.36,0c1.63-1.35-2.23-27.78-4.68-27.78" transform="translate(44.81 -20.61)"/><path class="cls-16" d="M476.24,259.37c-2.45,0-7.36,15.47-7.36,22.1a7.34,7.34,0,0,0,2.68,5.68Z" transform="translate(44.81 -20.61)"/><path class="cls-17" d="M476.24,259.37c2.45,0,7.36,15.47,7.36,22.1a7.34,7.34,0,0,1-2.68,5.68Z" transform="translate(44.81 -20.61)"/></g><g class="cls-6"><path d="M498,306.33c2.26,1.3,2.28,3.42,0,4.72a8.94,8.94,0,0,1-8.15,0c-2.26-1.3-2.27-3.42,0-4.72A9,9,0,0,1,498,306.33Z" transform="translate(44.81 -20.61)"/></g><g id="Layer-1-39"><path class="cls-13" d="M495.63,282.61l-1.74,1v25.9l1.74-1Z" transform="translate(44.81 -20.61)"/><path class="cls-14" d="M492.19,282.61l1.74,1v25.9l-1.74-1Z" transform="translate(44.81 -20.61)"/><path class="cls-15" d="M493.89,273.37c-2.45,0-6.32,26.43-4.68,27.78a7.36,7.36,0,0,0,9.36,0c1.63-1.35-2.23-27.78-4.68-27.78" transform="translate(44.81 -20.61)"/><path class="cls-16" d="M493.89,273.37c-2.45,0-7.36,15.48-7.36,22.11a7.32,7.32,0,0,0,2.68,5.67Z" transform="translate(44.81 -20.61)"/><path class="cls-17" d="M493.89,273.37c2.45,0,7.36,15.48,7.36,22.11a7.32,7.32,0,0,1-2.68,5.67Z" transform="translate(44.81 -20.61)"/></g></g></g></svg>