<svg xmlns="http://www.w3.org/2000/svg" xmlns:xlink="http://www.w3.org/1999/xlink" viewBox="0 0 41.58 59.68"><defs><style>.cls-1{fill:none;}.cls-2{opacity:0.2;}.cls-3{isolation:isolate;}.cls-4{fill:#b8a58e;}.cls-5{fill:#776a5b;}.cls-6{fill:#897b69;}.cls-7{clip-path:url(#clip-path);}.cls-8{fill:#6b6053;}.cls-9{fill:#6f6456;}.cls-10{fill:#736759;}.cls-11{fill:#776b5c;}.cls-12{fill:#7b6e5f;}.cls-13{fill:#7f7262;}.cls-14{fill:#837565;}.cls-15{clip-path:url(#clip-path-2);}.cls-16{fill:#7d7772;}.cls-17{fill:#827c77;}.cls-18{fill:#87807b;}.cls-19{fill:#8b857f;}.cls-20{fill:#908983;}.cls-21{fill:#948d88;}.cls-22{fill:#99928c;}.cls-23{clip-path:url(#clip-path-3);}.cls-24{fill:#79736e;}.cls-25{clip-path:url(#clip-path-4);}.cls-26{clip-path:url(#clip-path-5);}.cls-27{fill:#373737;}.cls-28{fill:#393939;}.cls-29{fill:#3b3b3b;}.cls-30{fill:#3d3d3d;}.cls-31{fill:#3f3f3f;}.cls-32{fill:#414141;}.cls-33{fill:#434343;}.cls-34{clip-path:url(#clip-path-6);}.cls-35{fill:#353535;}.cls-36{clip-path:url(#clip-path-7);}.cls-37{clip-path:url(#clip-path-8);}.cls-38{fill:#76716c;}.cls-39{fill:#343434;}.cls-40{fill:#a69e98;}.cls-41{fill:#5e5e5e;}.cls-42{fill:#494949;}.cls-43{clip-path:url(#clip-path-9);}.cls-44{clip-path:url(#clip-path-10);}.cls-45{clip-path:url(#clip-path-11);}.cls-46{clip-path:url(#clip-path-12);}.cls-47{clip-path:url(#clip-path-13);}.cls-48{clip-path:url(#clip-path-14);}.cls-49{fill:#8a847e;}.cls-50{clip-path:url(#clip-path-15);}.cls-51{clip-path:url(#clip-path-16);}.cls-52{fill:#675d50;}.cls-53{fill:#a09892;}.cls-54{clip-path:url(#clip-path-17);}.cls-55{clip-path:url(#clip-path-18);}.cls-56{clip-path:url(#clip-path-19);}.cls-57{fill:#464646;}.cls-58{clip-path:url(#clip-path-20);}.cls-59{clip-path:url(#clip-path-21);}.cls-60{clip-path:url(#clip-path-22);}.cls-61{clip-path:url(#clip-path-23);}.cls-62{clip-path:url(#clip-path-24);}.cls-63{fill:#d7cdc4;}.cls-64{clip-path:url(#clip-path-25);}.cls-65{clip-path:url(#clip-path-26);}.cls-66{clip-path:url(#clip-path-27);}.cls-67{clip-path:url(#clip-path-28);}.cls-68{clip-path:url(#clip-path-29);}.cls-69{clip-path:url(#clip-path-30);}.cls-70{clip-path:url(#clip-path-31);}.cls-71{clip-path:url(#clip-path-32);}.cls-72{clip-path:url(#clip-path-33);}.cls-73{clip-path:url(#clip-path-34);}.cls-74{clip-path:url(#clip-path-35);}.cls-75{clip-path:url(#clip-path-36);}</style><clipPath id="clip-path" transform="translate(-7.57 0)"><path class="cls-1" d="M9.3,25.77,10.61,25a4.89,4.89,0,0,0,2.21,3.84l-1.3.75A4.87,4.87,0,0,1,9.3,25.77Z"/></clipPath><clipPath id="clip-path-2" transform="translate(-7.57 0)"><path class="cls-1" d="M17.48,23.28l1.31-.76a2.4,2.4,0,0,0,1.08,1.88l-1.3.76A2.41,2.41,0,0,1,17.48,23.28Z"/></clipPath><clipPath id="clip-path-3" transform="translate(-7.57 0)"><path class="cls-1" d="M24.54,34.78,25.85,34c-.11.07-.11.27,0,.47l-1.3.76C24.44,35.05,24.43,34.84,24.54,34.78Z"/></clipPath><clipPath id="clip-path-4" transform="translate(-7.57 0)"><path class="cls-1" d="M26.06,34.7a.21.21,0,0,0,.2,0l-1.3.76a.23.23,0,0,1-.21,0,.68.68,0,0,1-.2-.21l1.3-.76A.6.6,0,0,0,26.06,34.7Z"/></clipPath><clipPath id="clip-path-5" transform="translate(-7.57 0)"><path class="cls-1" d="M18.06,23.61l1.3-.76a1.13,1.13,0,0,0,.51.89l-1.3.76A1.15,1.15,0,0,1,18.06,23.61Z"/></clipPath><clipPath id="clip-path-6" transform="translate(-7.57 0)"><polygon class="cls-1" points="24.54 34.78 25.85 34.02 25.85 34.02 24.55 34.78 24.54 34.78"/></clipPath><clipPath id="clip-path-7" transform="translate(-7.57 0)"><path class="cls-1" d="M28.85,36.31l-1.3.76a.2.2,0,0,1-.21,0,.61.61,0,0,1-.28-.49l1.3-.76a.62.62,0,0,0,.29.49A.19.19,0,0,0,28.85,36.31Z"/></clipPath><clipPath id="clip-path-8" transform="translate(-7.57 0)"><path class="cls-1" d="M28.85,36.31l-1.3.76a.19.19,0,0,0,.08-.18l1.31-.76A.2.2,0,0,1,28.85,36.31Z"/></clipPath><clipPath id="clip-path-9" transform="translate(-7.57 0)"><path class="cls-1" d="M27,33.38l1.3-.76.06,0-1.3.76Z"/></clipPath><clipPath id="clip-path-10" transform="translate(-7.57 0)"><path class="cls-1" d="M29.73,38.24,31,37.48a.61.61,0,0,0,.2.22.26.26,0,0,0,.21,0l-1.31.76a.25.25,0,0,1-.2,0A.6.6,0,0,1,29.73,38.24Z"/></clipPath><clipPath id="clip-path-11" transform="translate(-7.57 0)"><path class="cls-1" d="M27.07,33.36l1.3-.76a.21.21,0,0,1,.15,0l-1.31.76A.19.19,0,0,0,27.07,33.36Z"/></clipPath><clipPath id="clip-path-12" transform="translate(-7.57 0)"><path class="cls-1" d="M27.21,33.39l1.31-.76a.79.79,0,0,1,.14.13l.06.09c.11.19.11.4,0,.47l-1.3.75c.11-.06.11-.27,0-.46a.31.31,0,0,0-.07-.09A.43.43,0,0,0,27.21,33.39Z"/></clipPath><clipPath id="clip-path-13" transform="translate(-7.57 0)"><path class="cls-1" d="M28.66,32.76a.25.25,0,0,1,.14,0l-1.3.76a.21.21,0,0,0-.15,0A7.83,7.83,0,0,1,28.66,32.76Z"/></clipPath><clipPath id="clip-path-14" transform="translate(-7.57 0)"><path class="cls-1" d="M30.14,38l1.31-.76c.11.19.1.4,0,.47l-1.31.76C30.25,38.41,30.25,38.19,30.14,38Z"/></clipPath><clipPath id="clip-path-15" transform="translate(-7.57 0)"><path class="cls-1" d="M27.5,33.55l1.3-.76a.64.64,0,0,1,.15.14A.35.35,0,0,0,29,33l-1.31.76a.35.35,0,0,0-.05-.08A.62.62,0,0,0,27.5,33.55Z"/></clipPath><clipPath id="clip-path-16" transform="translate(-7.57 0)"><path class="cls-1" d="M10,3.29l1.31-.76A1.56,1.56,0,0,0,10.67,4l-1.31.75A1.56,1.56,0,0,1,10,3.29Z"/></clipPath><clipPath id="clip-path-17" transform="translate(-7.57 0)"><path class="cls-1" d="M28.46,29.12a.2.2,0,0,0-.08.19l-1.3.75a.19.19,0,0,1,.08-.18Z"/></clipPath><clipPath id="clip-path-18" transform="translate(-7.57 0)"><path class="cls-1" d="M27.16,29.88l1.31-.76a.19.19,0,0,1,.2,0l-1.31.76A.19.19,0,0,0,27.16,29.88Z"/></clipPath><clipPath id="clip-path-19" transform="translate(-7.57 0)"><path class="cls-1" d="M27.36,29.9l1.31-.76a.63.63,0,0,1,.29.5l-1.31.75A.62.62,0,0,0,27.36,29.9Z"/></clipPath><clipPath id="clip-path-20" transform="translate(-7.57 0)"><path class="cls-1" d="M18.24,10.79,19.55,10a.36.36,0,0,0-.15.33l-1.31.75A.34.34,0,0,1,18.24,10.79Z"/></clipPath><clipPath id="clip-path-21" transform="translate(-7.57 0)"><path class="cls-1" d="M17.84,10.08l1.3-.75a.76.76,0,0,0-.32.69l-1.3.76A.77.77,0,0,1,17.84,10.08Z"/></clipPath><clipPath id="clip-path-22" transform="translate(-7.57 0)"><path class="cls-1" d="M18.24,10.79,19.55,10a.34.34,0,0,1,.36,0l-1.3.76A.36.36,0,0,0,18.24,10.79Z"/></clipPath><clipPath id="clip-path-23" transform="translate(-7.57 0)"><path class="cls-1" d="M17.84,10.08l1.3-.75a.76.76,0,0,1,.77.07l-1.3.76A.79.79,0,0,0,17.84,10.08Z"/></clipPath><clipPath id="clip-path-24" transform="translate(-7.57 0)"><path class="cls-1" d="M10,3.29l1.31-.76a1.57,1.57,0,0,1,1.58.16l-1.31.75A1.57,1.57,0,0,0,10,3.29Z"/></clipPath><clipPath id="clip-path-25" transform="translate(-7.57 0)"><path class="cls-1" d="M37.82,33.93l-1.3.76a.37.37,0,0,1-.36,0l1.3-.76A.35.35,0,0,0,37.82,33.93Z"/></clipPath><clipPath id="clip-path-26" transform="translate(-7.57 0)"><path class="cls-1" d="M38.24,34.63l-1.31.76a.76.76,0,0,1-.77-.08l1.3-.76A.76.76,0,0,0,38.24,34.63Z"/></clipPath><clipPath id="clip-path-27" transform="translate(-7.57 0)"><path class="cls-1" d="M37.82,33.93l-1.3.76a.37.37,0,0,0,.15-.34l1.3-.76A.35.35,0,0,1,37.82,33.93Z"/></clipPath><clipPath id="clip-path-28" transform="translate(-7.57 0)"><path class="cls-1" d="M38.24,34.63l-1.31.76a.77.77,0,0,0,.32-.7l1.31-.76A.79.79,0,0,1,38.24,34.63Z"/></clipPath><clipPath id="clip-path-29" transform="translate(-7.57 0)"><path class="cls-1" d="M46.68,47.63l-1.31.76a1.55,1.55,0,0,1-1.58-.16l1.3-.75A1.56,1.56,0,0,0,46.68,47.63Z"/></clipPath><clipPath id="clip-path-30" transform="translate(-7.57 0)"><path class="cls-1" d="M46.68,47.63l-1.31.76A1.54,1.54,0,0,0,46,47l1.31-.76A1.56,1.56,0,0,1,46.68,47.63Z"/></clipPath><clipPath id="clip-path-31" transform="translate(-7.57 0)"><path class="cls-1" d="M36.2,21l1.3-.76a1.1,1.1,0,0,1,.51.88l-1.3.76A1.13,1.13,0,0,0,36.2,21Z"/></clipPath><clipPath id="clip-path-32" transform="translate(-7.57 0)"><path class="cls-1" d="M36.2,20.32l1.3-.76a2.41,2.41,0,0,1,1.09,1.88l-1.3.75A2.38,2.38,0,0,0,36.2,20.32Z"/></clipPath><clipPath id="clip-path-33" transform="translate(-7.57 0)"><path class="cls-1" d="M43.86,22.07l1.3-.75a4.88,4.88,0,0,1,2.23,3.83l-1.31.76A4.87,4.87,0,0,0,43.86,22.07Z"/></clipPath><clipPath id="clip-path-34" transform="translate(-7.57 0)"><path class="cls-1" d="M8.71,1,10,.25a2.61,2.61,0,0,1,2.64.26l-1.3.76A2.61,2.61,0,0,0,8.71,1Z"/></clipPath><clipPath id="clip-path-35" transform="translate(-7.57 0)"><path class="cls-1" d="M48,49.93l-1.31.76a2.58,2.58,0,0,0,1.08-2.38l1.31-.76A2.63,2.63,0,0,1,48,49.93Z"/></clipPath><clipPath id="clip-path-36" transform="translate(-7.57 0)"><path class="cls-1" d="M44.15,20.2l1.3-.75a8.12,8.12,0,0,1,3.7,6.4l-1.31.76A8.14,8.14,0,0,0,44.15,20.2Z"/></clipPath></defs><g id="Layer_2" data-name="Layer 2"><g id="Layer_2-2" data-name="Layer 2"><path class="cls-2" d="M40.82,58.48l-1.25.82a2.33,2.33,0,0,1-2.44.07L14.84,46.48a1.24,1.24,0,0,1-.05-2.12L16.84,43a1.26,1.26,0,0,1,1.32,0L40.77,56.37A1.24,1.24,0,0,1,40.82,58.48Z" transform="translate(-7.57 0)"/><g class="cls-3"><polygon class="cls-4" points="12.21 36.41 12.19 46.85 9.26 45.16 9.29 34.72 12.21 36.41"/><polygon class="cls-5" points="12.21 36.41 13.52 35.65 13.49 46.09 12.19 46.85 12.21 36.41"/><polygon class="cls-6" points="9.29 34.72 10.6 33.97 13.52 35.65 12.21 36.41 9.29 34.72"/></g><g class="cls-3"><polygon class="cls-4" points="30.57 47.01 30.54 57.45 27.62 55.76 27.65 45.32 30.57 47.01"/><polygon class="cls-5" points="30.57 47.01 31.88 46.25 31.84 56.69 30.54 57.45 30.57 47.01"/><polygon class="cls-6" points="27.65 45.32 28.95 44.56 31.88 46.25 30.57 47.01 27.65 45.32"/></g><g class="cls-3"><g class="cls-3"><g class="cls-7"><g class="cls-3"><path class="cls-8" d="M9.3,25.77,10.61,25v.08l-1.31.76v-.08" transform="translate(-7.57 0)"/><path class="cls-9" d="M9.3,25.85l1.31-.76a2.56,2.56,0,0,0,0,.39l-1.3.76c0-.13,0-.26,0-.39" transform="translate(-7.57 0)"/><path class="cls-10" d="M9.34,26.24l1.3-.76c0,.12,0,.25.07.37l-1.3.76a2.66,2.66,0,0,1-.07-.37" transform="translate(-7.57 0)"/><path class="cls-11" d="M9.41,26.61l1.3-.76c0,.13.07.26.11.4L9.52,27c0-.13-.08-.26-.11-.39" transform="translate(-7.57 0)"/><path class="cls-12" d="M9.52,27l1.3-.75c0,.14.11.29.18.44l-1.31.76c-.06-.15-.12-.3-.17-.45" transform="translate(-7.57 0)"/><path class="cls-13" d="M9.69,27.45,11,26.69a5.71,5.71,0,0,0,.31.6l-1.3.76a5.83,5.83,0,0,1-.32-.6" transform="translate(-7.57 0)"/><path class="cls-14" d="M10,28.05l1.3-.76a5.15,5.15,0,0,0,.9,1.11l-1.3.75a5.09,5.09,0,0,1-.9-1.1" transform="translate(-7.57 0)"/><path class="cls-13" d="M10.91,29.15l1.3-.75a3.91,3.91,0,0,0,.47.36l-1.3.76a4,4,0,0,1-.47-.37" transform="translate(-7.57 0)"/><path class="cls-12" d="M11.38,29.52l1.3-.76.14.09-1.3.75-.14-.08" transform="translate(-7.57 0)"/></g></g></g><g class="cls-3"><g class="cls-15"><g class="cls-3"><path class="cls-16" d="M17.48,23.28l1.31-.76v0l-1.31.76v0" transform="translate(-7.57 0)"/><path class="cls-17" d="M17.48,23.32l1.31-.76c0,.06,0,.13,0,.19l-1.3.76c0-.07,0-.13,0-.19" transform="translate(-7.57 0)"/><path class="cls-18" d="M17.5,23.51l1.3-.76a1.62,1.62,0,0,0,0,.19l-1.3.75a1.16,1.16,0,0,1,0-.18" transform="translate(-7.57 0)"/><path class="cls-19" d="M17.54,23.69l1.3-.75a.7.7,0,0,0,.06.19l-1.31.76a1.46,1.46,0,0,1-.05-.2" transform="translate(-7.57 0)"/><path class="cls-20" d="M17.59,23.89l1.31-.76a2,2,0,0,0,.08.22l-1.3.76c0-.08-.06-.15-.09-.22" transform="translate(-7.57 0)"/><path class="cls-21" d="M17.68,24.11l1.3-.76c0,.1.1.19.15.29l-1.3.76a2,2,0,0,1-.15-.29" transform="translate(-7.57 0)"/><path class="cls-22" d="M17.83,24.4l1.3-.76a2.6,2.6,0,0,0,.44.54l-1.3.76a2.31,2.31,0,0,1-.44-.54" transform="translate(-7.57 0)"/><path class="cls-21" d="M18.27,24.94l1.3-.76.23.18-1.3.75-.23-.17" transform="translate(-7.57 0)"/><path class="cls-20" d="M18.5,25.11l1.3-.75.07,0-1.3.76-.07-.05" transform="translate(-7.57 0)"/></g></g></g><g class="cls-3"><g class="cls-23"><g class="cls-3"><path class="cls-24" d="M24.54,34.78,25.85,34a.18.18,0,0,0-.08.14l-1.3.76a.16.16,0,0,1,.07-.14" transform="translate(-7.57 0)"/><path class="cls-16" d="M24.47,34.92l1.3-.76v.05L24.46,35a.07.07,0,0,1,0,0" transform="translate(-7.57 0)"/><path class="cls-17" d="M24.46,35l1.31-.76v0l-1.3.76a.09.09,0,0,1,0-.05" transform="translate(-7.57 0)"/><path class="cls-18" d="M24.47,35l1.3-.76s0,0,0,.05l-1.3.76a.09.09,0,0,1,0,0" transform="translate(-7.57 0)"/><path class="cls-19" d="M24.48,35.07l1.3-.76a.08.08,0,0,0,0,0l-1.31.76s0,0,0,0" transform="translate(-7.57 0)"/><path class="cls-20" d="M24.49,35.12l1.31-.76a.14.14,0,0,0,0,.06l-1.31.76a.14.14,0,0,0,0-.06" transform="translate(-7.57 0)"/><path class="cls-21" d="M24.51,35.18l1.31-.76,0,.07-1.3.76a.43.43,0,0,0,0-.07" transform="translate(-7.57 0)"/></g></g></g><g class="cls-3"><g class="cls-25"><g class="cls-3"><path class="cls-22" d="M24.55,35.25l1.3-.76a1,1,0,0,0,.13.16l-1.3.75a.64.64,0,0,1-.13-.15" transform="translate(-7.57 0)"/><path class="cls-21" d="M24.68,35.4l1.3-.75.06,0-1.3.76-.06-.05" transform="translate(-7.57 0)"/><path class="cls-20" d="M24.74,35.45l1.3-.76h0l-1.3.76h0" transform="translate(-7.57 0)"/><path class="cls-19" d="M24.78,35.47l1.3-.76,0,0-1.31.76,0,0" transform="translate(-7.57 0)"/><path class="cls-18" d="M24.81,35.49l1.31-.76h0l-1.31.76h0" transform="translate(-7.57 0)"/><path class="cls-17" d="M24.85,35.5l1.31-.76h0l-1.3.76h0" transform="translate(-7.57 0)"/><path class="cls-16" d="M24.9,35.5l1.3-.76h.05l-1.3.76H24.9" transform="translate(-7.57 0)"/><path class="cls-24" d="M25,35.49l1.3-.76h0l-1.3.76h0" transform="translate(-7.57 0)"/></g></g></g><g class="cls-3"><g class="cls-26"><g class="cls-3"><path class="cls-27" d="M18.06,23.61l1.3-.76v0l-1.3.76v0" transform="translate(-7.57 0)"/><path class="cls-28" d="M18.06,23.63l1.3-.76s0,.06,0,.09l-1.3.76a.28.28,0,0,1,0-.09" transform="translate(-7.57 0)"/><path class="cls-29" d="M18.07,23.72l1.3-.76a.29.29,0,0,0,0,.09l-1.31.76s0-.06,0-.09" transform="translate(-7.57 0)"/><path class="cls-30" d="M18.08,23.81l1.31-.76a.29.29,0,0,0,0,.09l-1.3.76,0-.09" transform="translate(-7.57 0)"/><path class="cls-31" d="M18.11,23.9l1.3-.76a.42.42,0,0,1,0,.1l-1.3.76a.42.42,0,0,1,0-.1" transform="translate(-7.57 0)"/><path class="cls-32" d="M18.15,24l1.3-.76a.64.64,0,0,0,.08.14l-1.31.76a.61.61,0,0,1-.07-.14" transform="translate(-7.57 0)"/><path class="cls-33" d="M18.22,24.14l1.31-.76a.86.86,0,0,0,.2.26l-1.3.75a1,1,0,0,1-.21-.25" transform="translate(-7.57 0)"/><path class="cls-32" d="M18.43,24.39l1.3-.75.11.08-1.3.76-.11-.09" transform="translate(-7.57 0)"/><path class="cls-31" d="M18.54,24.48l1.3-.76,0,0-1.3.76,0,0" transform="translate(-7.57 0)"/></g></g></g><g class="cls-3"><g class="cls-34"><g class="cls-3"><polyline class="cls-35" points="16.98 34.78 18.28 34.02 18.29 34.02 16.98 34.78 16.98 34.78"/></g></g></g><g class="cls-3"><g class="cls-36"><g class="cls-3"><polyline class="cls-16" points="19.49 36.56 20.8 35.8 20.8 35.81 19.49 36.57 19.49 36.56"/><path class="cls-17" d="M27.06,36.57l1.3-.76a.09.09,0,0,0,0,0l-1.31.76v0" transform="translate(-7.57 0)"/><path class="cls-18" d="M27.06,36.62l1.31-.76a.09.09,0,0,0,0,0l-1.31.76a.43.43,0,0,0,0-.05" transform="translate(-7.57 0)"/><path class="cls-19" d="M27.07,36.67l1.31-.76a.11.11,0,0,0,0,.05l-1.3.76s0,0,0,0" transform="translate(-7.57 0)"/><path class="cls-20" d="M27.09,36.72l1.3-.76s0,0,0,.06l-1.3.75a.08.08,0,0,1,0-.05" transform="translate(-7.57 0)"/><path class="cls-21" d="M27.11,36.77l1.3-.75,0,.07-1.3.76a.2.2,0,0,1,0-.08" transform="translate(-7.57 0)"/><path class="cls-22" d="M27.15,36.85l1.3-.76a.55.55,0,0,0,.12.14L27.26,37a.76.76,0,0,1-.11-.14" transform="translate(-7.57 0)"/><path class="cls-21" d="M27.26,37l1.31-.76.06.05-1.3.76a.18.18,0,0,1-.07,0" transform="translate(-7.57 0)"/><path class="cls-20" d="M27.33,37l1.3-.76h0l0,0-1.31.76,0,0h0" transform="translate(-7.57 0)"/><path class="cls-19" d="M27.37,37.07l1.31-.76h0l-1.31.76h0" transform="translate(-7.57 0)"/><path class="cls-18" d="M27.41,37.08l1.31-.76h0l-1.3.76h0" transform="translate(-7.57 0)"/><path class="cls-17" d="M27.45,37.09l1.3-.76h0l-1.3.76h0" transform="translate(-7.57 0)"/><path class="cls-16" d="M27.49,37.09l1.3-.76h0l-1.3.75h0" transform="translate(-7.57 0)"/><path class="cls-24" d="M27.53,37.08l1.3-.75,0,0-1.3.76h0" transform="translate(-7.57 0)"/></g></g></g><g class="cls-3"><g class="cls-37"><g class="cls-3"><path class="cls-27" d="M27.63,36.89l1.31-.76a.09.09,0,0,1,0,0l-1.3.75v0" transform="translate(-7.57 0)"/><path class="cls-35" d="M27.63,36.93l1.3-.75a.15.15,0,0,1-.08.13l-1.3.76a.18.18,0,0,0,.08-.14" transform="translate(-7.57 0)"/></g></g></g><polygon class="cls-5" points="1.8 4.71 3.1 3.96 3.04 25.01 1.74 25.77 1.8 4.71"/><polygon class="cls-38" points="17.39 35.48 18.7 34.73 20.8 33.52 19.5 34.27 17.39 35.48"/><polygon class="cls-39" points="19.5 34.27 20.8 33.52 21.09 33.35 19.79 34.11 19.5 34.27"/><polygon class="cls-30" points="20.07 34.61 21.38 33.85 21.37 36.13 20.07 36.89 20.07 34.61"/><polygon class="cls-40" points="20.07 34.61 21.38 33.85 23.47 37.48 22.17 38.24 20.07 34.61"/><path class="cls-41" d="M27.06,34.28l.29-.17.29.5v2.28c0,.18-.13.25-.29.16a.61.61,0,0,1-.28-.49Z" transform="translate(-7.57 0)"/><polygon class="cls-39" points="19.79 34.11 21.09 33.35 21.16 33.32 19.85 34.07 19.79 34.11"/><polygon class="cls-42" points="19.79 34.11 21.09 33.35 21.38 33.85 20.07 34.61 19.79 34.11"/><g class="cls-3"><g class="cls-43"><g class="cls-3"><path class="cls-35" d="M27,33.38l1.3-.76h0l-1.3.75,0,0" transform="translate(-7.57 0)"/><path class="cls-27" d="M27,33.36l1.3-.75h0l-1.3.76h0" transform="translate(-7.57 0)"/></g></g></g><polygon class="cls-39" points="16.98 34.78 18.29 34.02 20.75 32.62 19.44 33.38 16.98 34.78"/><g class="cls-3"><g class="cls-44"><g class="cls-3"><path class="cls-22" d="M29.73,38.24,31,37.48a.51.51,0,0,0,.13.16l-1.31.76a1,1,0,0,1-.13-.16" transform="translate(-7.57 0)"/><path class="cls-21" d="M29.86,38.4l1.31-.76a.1.1,0,0,0,0,0l-1.3.76-.06,0" transform="translate(-7.57 0)"/><path class="cls-20" d="M29.92,38.44l1.3-.76,0,0h0l-1.3.75h0" transform="translate(-7.57 0)"/><path class="cls-19" d="M30,38.46l1.3-.75h0l-1.3.76,0,0" transform="translate(-7.57 0)"/><path class="cls-18" d="M30,38.48l1.3-.76h0l-1.3.76h0" transform="translate(-7.57 0)"/><path class="cls-17" d="M30,38.49l1.3-.76h.05l-1.31.76h0" transform="translate(-7.57 0)"/><path class="cls-16" d="M30.08,38.49l1.31-.76h0l-1.3.76h-.05" transform="translate(-7.57 0)"/><path class="cls-24" d="M30.13,38.48l1.3-.76h0l-1.31.76h0" transform="translate(-7.57 0)"/></g></g></g><g class="cls-3"><g class="cls-45"><g class="cls-3"><path class="cls-27" d="M27.07,33.36l1.3-.76h0l-1.31.75h0" transform="translate(-7.57 0)"/><path class="cls-28" d="M27.08,33.35l1.31-.75h0l-1.3.76h0" transform="translate(-7.57 0)"/><path class="cls-29" d="M27.12,33.36l1.3-.76h0l-1.31.75h0" transform="translate(-7.57 0)"/><path class="cls-30" d="M27.15,33.36l1.31-.75h0l-1.3.76,0,0" transform="translate(-7.57 0)"/><path class="cls-31" d="M27.19,33.38l1.3-.76h0l-1.31.76h0" transform="translate(-7.57 0)"/></g></g></g><g class="cls-3"><g class="cls-46"><g class="cls-3"><path class="cls-31" d="M27.21,33.39l1.31-.76h0l-1.3.76h0" transform="translate(-7.57 0)"/><path class="cls-32" d="M27.23,33.4l1.3-.76.06,0-1.31.76-.05,0" transform="translate(-7.57 0)"/><path class="cls-33" d="M27.28,33.44l1.31-.76.07.08.06.08-1.31.76-.06-.08a.27.27,0,0,0-.07-.08" transform="translate(-7.57 0)"/><path class="cls-32" d="M27.41,33.6l1.31-.76h0l0,.06-1.3.76,0-.06h0" transform="translate(-7.57 0)"/><path class="cls-31" d="M27.45,33.67l1.3-.76a.14.14,0,0,1,0,.06l-1.3.76s0,0,0-.06" transform="translate(-7.57 0)"/><path class="cls-30" d="M27.47,33.73l1.3-.76s0,0,0,.05l-1.3.76s0,0,0-.05" transform="translate(-7.57 0)"/><path class="cls-29" d="M27.49,33.78l1.3-.76s0,0,0,0l-1.31.76v0" transform="translate(-7.57 0)"/><path class="cls-28" d="M27.49,33.83l1.31-.76v0l-1.3.76a.07.07,0,0,0,0-.05" transform="translate(-7.57 0)"/><path class="cls-27" d="M27.5,33.88l1.3-.76v.06l-1.3.76v-.06" transform="translate(-7.57 0)"/><path class="cls-35" d="M27.5,33.94l1.3-.76a.18.18,0,0,1-.08.14l-1.3.75a.17.17,0,0,0,.08-.13" transform="translate(-7.57 0)"/></g></g></g><g class="cls-3"><g class="cls-47"><g class="cls-3"><polyline class="cls-27" points="19.79 33.52 21.09 32.76 21.1 32.76 19.79 33.52 19.79 33.52"/><path class="cls-28" d="M27.36,33.51l1.3-.75h0l-1.31.76h0" transform="translate(-7.57 0)"/><path class="cls-29" d="M27.39,33.52l1.31-.76h0l-1.31.75h0" transform="translate(-7.57 0)"/><path class="cls-30" d="M27.43,33.52l1.31-.75h0l-1.3.76,0,0" transform="translate(-7.57 0)"/><path class="cls-31" d="M27.47,33.54l1.3-.76h0l-1.3.76h0" transform="translate(-7.57 0)"/></g></g></g><g class="cls-3"><g class="cls-48"><g class="cls-3"><path class="cls-32" d="M30.14,38l1.31-.76,0,.06-1.31.76,0-.06" transform="translate(-7.57 0)"/><path class="cls-31" d="M30.17,38.07l1.31-.76s0,0,0,0l-1.3.76,0,0" transform="translate(-7.57 0)"/><path class="cls-30" d="M30.2,38.12l1.3-.76a.11.11,0,0,1,0,0l-1.3.76a.43.43,0,0,1,0-.05" transform="translate(-7.57 0)"/><path class="cls-29" d="M30.21,38.17l1.3-.76a.11.11,0,0,1,0,.05l-1.3.76a.43.43,0,0,1,0,0" transform="translate(-7.57 0)"/><path class="cls-28" d="M30.22,38.22l1.3-.76a.13.13,0,0,1,0,.06l-1.31.75v-.05" transform="translate(-7.57 0)"/><path class="cls-27" d="M30.22,38.27l1.31-.75a.07.07,0,0,1,0,0l-1.3.76v-.06" transform="translate(-7.57 0)"/><path class="cls-35" d="M30.22,38.33l1.3-.76a.18.18,0,0,1-.07.15l-1.31.76a.19.19,0,0,0,.08-.15" transform="translate(-7.57 0)"/></g></g></g><polygon class="cls-42" points="20.13 33.77 21.43 33.01 23.88 37.25 22.58 38.01 20.13 33.77"/><polygon class="cls-49" points="19.51 30.07 20.81 29.31 20.8 32.6 19.5 33.36 19.51 30.07"/><polygon class="cls-30" points="20.09 30.39 21.39 29.64 21.38 32.93 20.08 33.69 20.09 30.39"/><g class="cls-3"><g class="cls-50"><g class="cls-3"><path class="cls-31" d="M27.5,33.55l1.3-.76h0l-1.3.76h0" transform="translate(-7.57 0)"/><path class="cls-32" d="M27.51,33.56l1.3-.76.06.05-1.31.75,0,0" transform="translate(-7.57 0)"/><path class="cls-33" d="M27.56,33.6l1.31-.75.08.08L29,33l-1.3.75,0-.05-.08-.09" transform="translate(-7.57 0)"/><path class="cls-32" d="M27.68,33.74,29,33l0,0-1.31.76v0" transform="translate(-7.57 0)"/></g></g></g><g class="cls-3"><g class="cls-51"><g class="cls-3"><path class="cls-52" d="M10,3.29l1.31-.76a1.4,1.4,0,0,0-.63,1.08l-1.3.76A1.39,1.39,0,0,1,10,3.29" transform="translate(-7.57 0)"/><path class="cls-8" d="M9.39,4.37l1.3-.76c0,.11,0,.22,0,.35l-1.31.75a1.87,1.87,0,0,1,0-.34" transform="translate(-7.57 0)"/></g></g></g><polygon class="cls-53" points="11 25.16 12.3 24.4 20.81 29.31 19.51 30.07 11 25.16"/><g class="cls-3"><g class="cls-54"><g class="cls-3"><path class="cls-35" d="M27.16,29.88l1.3-.76a.18.18,0,0,0-.08.14l-1.3.76a.18.18,0,0,1,.08-.14" transform="translate(-7.57 0)"/><path class="cls-27" d="M27.08,30l1.3-.76v0l-1.3.75v0" transform="translate(-7.57 0)"/></g></g></g><g class="cls-3"><g class="cls-55"><g class="cls-3"><path class="cls-35" d="M27.16,29.88l1.31-.76h0l-1.31.76h0" transform="translate(-7.57 0)"/><path class="cls-27" d="M27.18,29.87l1.31-.76h0l-1.31.76h0" transform="translate(-7.57 0)"/><path class="cls-28" d="M27.22,29.86l1.31-.76h0l-1.31.76h0" transform="translate(-7.57 0)"/><path class="cls-29" d="M27.26,29.86l1.31-.76h0l-1.3.76h0" transform="translate(-7.57 0)"/><path class="cls-30" d="M27.3,29.87l1.3-.76,0,0-1.3.75h0" transform="translate(-7.57 0)"/><path class="cls-31" d="M27.34,29.88l1.3-.75h0l-1.31.76,0,0" transform="translate(-7.57 0)"/></g></g></g><g class="cls-3"><g class="cls-56"><g class="cls-3"><path class="cls-31" d="M27.36,29.9l1.31-.76h0l-1.31.76h0" transform="translate(-7.57 0)"/><path class="cls-32" d="M27.38,29.91l1.31-.76.06.05L27.44,30a.15.15,0,0,0-.06-.05" transform="translate(-7.57 0)"/><path class="cls-33" d="M27.44,30l1.31-.76a.76.76,0,0,1,.11.14l-1.3.76a.53.53,0,0,0-.12-.14" transform="translate(-7.57 0)"/><path class="cls-32" d="M27.56,30.1l1.3-.76a.3.3,0,0,1,0,.08l-1.3.76,0-.08" transform="translate(-7.57 0)"/><path class="cls-31" d="M27.6,30.18l1.3-.76,0,.06-1.31.75s0,0,0-.05" transform="translate(-7.57 0)"/><path class="cls-30" d="M27.62,30.23l1.31-.75a.43.43,0,0,1,0,.05l-1.3.75s0,0,0-.05" transform="translate(-7.57 0)"/><path class="cls-29" d="M27.64,30.28l1.3-.75a.07.07,0,0,1,0,0l-1.3.75a.07.07,0,0,1,0,0" transform="translate(-7.57 0)"/><path class="cls-28" d="M27.65,30.33l1.3-.75a.11.11,0,0,0,0,.05l-1.31.75v-.05" transform="translate(-7.57 0)"/><polyline class="cls-27" points="20.09 30.38 21.39 29.63 21.39 29.64 20.09 30.39 20.09 30.38"/></g></g></g><polygon class="cls-53" points="13.04 22.59 14.35 21.84 19.73 24.94 18.42 25.7 13.04 22.59"/><polygon class="cls-57" points="13.62 22.27 14.93 21.51 19.15 23.95 17.84 24.71 13.62 22.27"/><polygon class="cls-49" points="9.95 10.78 11.26 10.02 11.22 22.52 9.92 23.28 9.95 10.78"/><polygon class="cls-30" points="10.53 11.11 11.83 10.36 11.8 22.85 10.49 23.61 10.53 11.11"/><g class="cls-3"><g class="cls-58"><g class="cls-3"><path class="cls-35" d="M18.24,10.79,19.55,10a.32.32,0,0,0-.15.25L18.1,11a.34.34,0,0,1,.14-.24" transform="translate(-7.57 0)"/><path class="cls-27" d="M18.1,11l1.3-.75v.08l-1.31.75s0,0,0-.08" transform="translate(-7.57 0)"/></g></g></g><g class="cls-3"><g class="cls-59"><g class="cls-3"><path class="cls-24" d="M17.84,10.08l1.3-.75a.69.69,0,0,0-.31.52l-1.3.76a.67.67,0,0,1,.31-.53" transform="translate(-7.57 0)"/><path class="cls-16" d="M17.53,10.61l1.3-.76c0,.06,0,.11,0,.17l-1.3.76a1,1,0,0,1,0-.17" transform="translate(-7.57 0)"/></g></g></g><polygon class="cls-49" points="13.06 14.61 14.37 13.86 14.35 21.84 13.04 22.59 13.06 14.61"/><polygon class="cls-30" points="13.64 15.62 14.95 14.86 14.93 21.51 13.62 22.27 13.64 15.62"/><g class="cls-3"><g class="cls-60"><g class="cls-3"><path class="cls-24" d="M18.24,10.79,19.55,10l0,0-1.31.76,0,0" transform="translate(-7.57 0)"/><path class="cls-16" d="M18.28,10.77,19.59,10l.07,0-1.3.76-.08,0" transform="translate(-7.57 0)"/><path class="cls-17" d="M18.36,10.75l1.3-.76h.07l-1.31.75h-.06" transform="translate(-7.57 0)"/><path class="cls-18" d="M18.42,10.75,19.73,10h.06l-1.3.76-.07,0" transform="translate(-7.57 0)"/><path class="cls-19" d="M18.49,10.77l1.3-.76.07,0-1.3.76-.07,0" transform="translate(-7.57 0)"/><path class="cls-20" d="M18.56,10.8l1.3-.76.05,0-1.3.76-.05,0" transform="translate(-7.57 0)"/></g></g></g><g class="cls-3"><g class="cls-61"><g class="cls-3"><path class="cls-35" d="M17.84,10.08l1.3-.75.09,0L17.92,10l-.08,0" transform="translate(-7.57 0)"/><path class="cls-27" d="M17.92,10l1.31-.75.15,0-1.3.75-.16,0" transform="translate(-7.57 0)"/><path class="cls-28" d="M18.08,10l1.3-.75h.14l-1.3.76h-.14" transform="translate(-7.57 0)"/><path class="cls-29" d="M18.22,10l1.3-.76.14,0-1.3.76-.14,0" transform="translate(-7.57 0)"/><path class="cls-30" d="M18.36,10.05l1.3-.76.15.06-1.3.76-.15-.06" transform="translate(-7.57 0)"/><path class="cls-31" d="M18.51,10.11l1.3-.76.1.05-1.3.76-.1-.05" transform="translate(-7.57 0)"/></g></g></g><polygon class="cls-49" points="20.76 26.02 22.07 25.27 22.07 25.93 20.76 26.68 20.76 26.02"/><polygon class="cls-49" points="20.77 24.29 22.07 23.53 22.07 24.19 20.77 24.95 20.77 24.29"/><polygon class="cls-49" points="17.86 18.05 19.17 17.29 19.15 23.95 17.84 24.71 17.86 18.05"/><polygon class="cls-53" points="13.64 15.62 14.95 14.86 19.17 17.29 17.86 18.05 13.64 15.62"/><polygon class="cls-49" points="20.77 22.55 22.08 21.79 22.07 22.46 20.77 23.21 20.77 22.55"/><polygon class="cls-53" points="20.76 26.68 22.07 25.93 26.11 28.26 24.81 29.02 20.76 26.68"/><g class="cls-3"><g class="cls-62"><g class="cls-3"><path class="cls-24" d="M10,3.29l1.31-.76a.75.75,0,0,1,.18-.08l-1.31.76L10,3.29" transform="translate(-7.57 0)"/><path class="cls-16" d="M10.19,3.21l1.31-.76a1,1,0,0,1,.31-.07l-1.3.76a1.14,1.14,0,0,0-.32.07" transform="translate(-7.57 0)"/><path class="cls-17" d="M10.51,3.14l1.3-.76h.29l-1.3.76h-.29" transform="translate(-7.57 0)"/><path class="cls-18" d="M10.8,3.15l1.3-.76.29.07-1.31.76-.28-.07" transform="translate(-7.57 0)"/><path class="cls-19" d="M11.08,3.22l1.31-.76a2.34,2.34,0,0,1,.3.12l-1.31.75-.3-.11" transform="translate(-7.57 0)"/><path class="cls-20" d="M11.38,3.33l1.31-.75a1.06,1.06,0,0,1,.21.11l-1.31.75-.21-.11" transform="translate(-7.57 0)"/></g></g></g><polygon class="cls-57" points="13.06 14.61 14.37 13.86 19.75 16.96 18.45 17.72 13.06 14.61"/><polygon class="cls-63" points="17.86 18.05 17.84 24.71 13.62 22.27 13.64 15.62 17.86 18.05"/><path class="cls-41" d="M20.63,14.61,26,17.72l0,8-5.38-3.11Zm4.78,10.1,0-6.66-4.22-2.43,0,6.65,4.22,2.44" transform="translate(-7.57 0)"/><polygon class="cls-30" points="18.45 17.72 19.75 16.96 19.73 24.94 18.42 25.7 18.45 17.72"/><polygon class="cls-6" points="3.95 29.61 5.26 28.85 37.52 47.48 36.22 48.23 3.95 29.61"/><polygon class="cls-57" points="20.76 26.02 22.07 25.27 26.11 27.6 24.81 28.36 20.76 26.02"/><polygon class="cls-41" points="24.81 28.36 24.81 29.02 20.76 26.68 20.76 26.02 24.81 28.36"/><polygon class="cls-30" points="24.81 28.36 26.11 27.6 26.11 28.26 24.81 29.02 24.81 28.36"/><polygon class="cls-57" points="11 24.5 12.31 23.74 29.89 33.89 28.59 34.65 11 24.5"/><polygon class="cls-49" points="20.78 20.81 22.08 20.05 22.08 20.72 20.77 21.48 20.78 20.81"/><g class="cls-3"><g class="cls-64"><g class="cls-3"><path class="cls-31" d="M36.16,34.65l1.3-.76,0,0-1.3.76-.05,0" transform="translate(-7.57 0)"/><path class="cls-30" d="M36.21,34.68l1.3-.76.07,0-1.3.76-.07,0" transform="translate(-7.57 0)"/><path class="cls-29" d="M36.28,34.71l1.3-.76h.07l-1.31.76h-.06" transform="translate(-7.57 0)"/><path class="cls-28" d="M36.34,34.72,37.65,34h.06l-1.3.76h-.07" transform="translate(-7.57 0)"/><path class="cls-27" d="M36.41,34.72l1.3-.76h.07l-1.3.76h-.07" transform="translate(-7.57 0)"/><path class="cls-35" d="M36.48,34.71l1.3-.76,0,0-1.3.76,0,0" transform="translate(-7.57 0)"/></g></g></g><g class="cls-3"><g class="cls-65"><g class="cls-3"><path class="cls-20" d="M36.16,35.31l1.3-.76.1.06-1.3.76-.1-.06" transform="translate(-7.57 0)"/><path class="cls-19" d="M36.26,35.37l1.3-.76.15.06-1.3.75-.15-.05" transform="translate(-7.57 0)"/><path class="cls-18" d="M36.41,35.42l1.3-.75.14,0-1.3.76-.14,0" transform="translate(-7.57 0)"/><path class="cls-17" d="M36.55,35.46l1.3-.76H38l-1.3.76h-.14" transform="translate(-7.57 0)"/><path class="cls-16" d="M36.69,35.46,38,34.7a.41.41,0,0,0,.16,0l-1.31.76a.37.37,0,0,1-.15,0" transform="translate(-7.57 0)"/><path class="cls-24" d="M36.84,35.43l1.31-.76.09,0-1.31.76-.09,0" transform="translate(-7.57 0)"/></g></g></g><g class="cls-3"><g class="cls-66"><g class="cls-3"><path class="cls-16" d="M36.67,34.35l1.3-.76v.09l-1.31.76a.28.28,0,0,0,0-.09" transform="translate(-7.57 0)"/><path class="cls-24" d="M36.66,34.44,38,33.68a.32.32,0,0,1-.15.25l-1.3.76a.3.3,0,0,0,.14-.25" transform="translate(-7.57 0)"/></g></g></g><g class="cls-3"><g class="cls-67"><g class="cls-3"><path class="cls-27" d="M37.25,34.69l1.31-.76c0,.06,0,.12,0,.17l-1.3.76a1,1,0,0,0,0-.17" transform="translate(-7.57 0)"/><path class="cls-35" d="M37.24,34.86l1.3-.76a.66.66,0,0,1-.3.53l-1.31.76a.7.7,0,0,0,.31-.53" transform="translate(-7.57 0)"/></g></g></g><g class="cls-3"><g class="cls-68"><g class="cls-3"><path class="cls-12" d="M43.79,48.23l1.3-.75.21.11-1.3.76a2.25,2.25,0,0,1-.21-.12" transform="translate(-7.57 0)"/><path class="cls-11" d="M44,48.35l1.3-.76.31.12-1.31.75-.3-.11" transform="translate(-7.57 0)"/><path class="cls-10" d="M44.3,48.46l1.31-.75a1.4,1.4,0,0,0,.28.06l-1.3.76a1.74,1.74,0,0,1-.29-.07" transform="translate(-7.57 0)"/><path class="cls-9" d="M44.59,48.53l1.3-.76a1.43,1.43,0,0,0,.29,0l-1.3.76h-.29" transform="translate(-7.57 0)"/><path class="cls-8" d="M44.88,48.54l1.3-.76a1.65,1.65,0,0,0,.32-.06l-1.31.75a1,1,0,0,1-.31.07" transform="translate(-7.57 0)"/><path class="cls-52" d="M45.19,48.47l1.31-.75.18-.09-1.31.76a.75.75,0,0,1-.18.08" transform="translate(-7.57 0)"/></g></g></g><polygon class="cls-49" points="20.78 19.07 22.09 18.31 22.08 18.98 20.78 19.74 20.78 19.07"/><polygon class="cls-53" points="20.77 24.95 22.07 24.19 27.28 27.2 25.98 27.95 20.77 24.95"/><polygon class="cls-57" points="20.77 24.29 22.07 23.53 27.28 26.54 25.98 27.29 20.77 24.29"/><polygon class="cls-30" points="25.98 27.29 27.28 26.54 27.28 27.2 25.98 27.95 25.98 27.29"/><polygon class="cls-53" points="20.77 23.21 22.07 22.46 27.86 25.8 26.56 26.56 20.77 23.21"/><g class="cls-3"><g class="cls-69"><g class="cls-3"><path class="cls-16" d="M46,47l1.31-.76a2,2,0,0,1,0,.35l-1.3.75c0-.11,0-.22,0-.34" transform="translate(-7.57 0)"/><path class="cls-24" d="M46,47.31l1.3-.75a1.39,1.39,0,0,1-.62,1.07l-1.31.76A1.4,1.4,0,0,0,46,47.31" transform="translate(-7.57 0)"/></g></g></g><polygon class="cls-57" points="20.77 22.55 22.08 21.79 27.87 25.13 26.56 25.89 20.77 22.55"/><polygon class="cls-53" points="20.77 21.48 22.08 20.72 26.68 23.38 25.38 24.13 20.77 21.48"/><polygon class="cls-30" points="26.56 25.89 27.87 25.13 27.87 25.8 26.56 26.56 26.56 25.89"/><polygon class="cls-41" points="26.56 25.89 26.56 26.56 20.77 23.21 20.77 22.55 26.56 25.89"/><polygon class="cls-57" points="20.78 20.81 22.08 20.05 26.68 22.71 25.38 23.47 20.78 20.81"/><polygon class="cls-30" points="25.38 23.47 26.68 22.71 26.68 23.38 25.38 24.13 25.38 23.47"/><polygon class="cls-53" points="20.78 19.74 22.08 18.98 27.88 22.32 26.57 23.08 20.78 19.74"/><polygon class="cls-41" points="26.57 22.41 26.57 23.08 20.78 19.74 20.78 19.07 26.57 22.41"/><polygon class="cls-57" points="20.78 19.07 22.09 18.31 27.88 21.66 26.57 22.41 20.78 19.07"/><polygon class="cls-30" points="26.57 22.41 27.88 21.66 27.88 22.32 26.57 23.08 26.57 22.41"/><polygon class="cls-49" points="29.14 21.86 30.44 21.1 30.41 33.59 29.1 34.35 29.14 21.86"/><polygon class="cls-53" points="11.04 10.82 12.34 10.06 29.93 20.22 28.63 20.98 11.04 10.82"/><g class="cls-3"><g class="cls-70"><g class="cls-3"><path class="cls-20" d="M36.2,21l1.3-.76,0,0-1.3.76,0,0" transform="translate(-7.57 0)"/><path class="cls-21" d="M36.23,21l1.3-.76.11.08-1.3.76L36.23,21" transform="translate(-7.57 0)"/><path class="cls-22" d="M36.34,21.08l1.3-.76a1.33,1.33,0,0,1,.21.26l-1.31.75a1,1,0,0,0-.2-.25" transform="translate(-7.57 0)"/><path class="cls-21" d="M36.54,21.33l1.31-.75a.83.83,0,0,1,.07.13l-1.3.76-.08-.14" transform="translate(-7.57 0)"/><path class="cls-20" d="M36.62,21.47l1.3-.76a1,1,0,0,0,0,.1l-1.31.76,0-.1" transform="translate(-7.57 0)"/><path class="cls-19" d="M36.65,21.57,38,20.81l0,.09-1.31.76a.32.32,0,0,0,0-.09" transform="translate(-7.57 0)"/><path class="cls-18" d="M36.68,21.66,38,20.9S38,21,38,21l-1.3.76s0-.06,0-.09" transform="translate(-7.57 0)"/><path class="cls-17" d="M36.7,21.75,38,21a.28.28,0,0,1,0,.09l-1.31.76v-.09" transform="translate(-7.57 0)"/><path class="cls-16" d="M36.7,21.84,38,21.08v0l-1.3.76v0" transform="translate(-7.57 0)"/></g></g></g><polygon class="cls-30" points="29.72 22.19 31.02 21.44 30.99 33.93 29.68 34.69 29.72 22.19"/><polygon class="cls-57" points="11.04 10.16 12.35 9.4 29.94 19.56 28.63 20.32 11.04 10.16"/><path class="cls-63" d="M36.2,21a1.13,1.13,0,0,1,.51.88l0,12.49c0,.33-.23.47-.51.3L18.57,24.5a1.15,1.15,0,0,1-.51-.89l0-12.5c0-.32.24-.45.52-.29ZM26,25.7l0-8-5.38-3.11,0,8L26,25.7m8.14.86v-.67l-5.79-3.34v.66l5.79,3.35m0-3.48v-.67l-5.79-3.34v.67l5.79,3.34M33.54,28v-.66l-5.21-3V25l5.21,3m-5.2-7.14v.67l4.6,2.65v-.66l-4.61-2.66m4,8.21v-.66L28.33,26v.66l4,2.34" transform="translate(-7.57 0)"/><path class="cls-41" d="M36.2,20.32a2.38,2.38,0,0,1,1.09,1.87l0,12.5c0,.7-.49,1-1.09.62L27.65,30.4a.63.63,0,0,0-.29-.5c-.15-.09-.28,0-.28.16l-8.51-4.9a2.41,2.41,0,0,1-1.09-1.88l0-12.5c0-.69.49-1,1.09-.62Zm.47,14,0-12.49A1.13,1.13,0,0,0,36.2,21L18.61,10.82c-.28-.16-.52,0-.52.29l0,12.5a1.15,1.15,0,0,0,.51.89L36.16,34.65c.28.17.51,0,.51-.3" transform="translate(-7.57 0)"/><g class="cls-3"><g class="cls-71"><g class="cls-3"><path class="cls-31" d="M36.2,20.32l1.3-.76.07,0-1.3.76-.07,0" transform="translate(-7.57 0)"/><path class="cls-32" d="M36.27,20.36l1.3-.76a1.3,1.3,0,0,1,.23.18l-1.3.76a1.81,1.81,0,0,0-.23-.18" transform="translate(-7.57 0)"/><path class="cls-33" d="M36.5,20.54l1.3-.76a2.45,2.45,0,0,1,.45.55l-1.31.76a2.17,2.17,0,0,0-.44-.55" transform="translate(-7.57 0)"/><path class="cls-32" d="M36.94,21.09l1.31-.76a2.64,2.64,0,0,1,.15.29l-1.3.76a2.69,2.69,0,0,0-.16-.29" transform="translate(-7.57 0)"/><path class="cls-31" d="M37.1,21.38l1.3-.76.09.22-1.31.75a1.8,1.8,0,0,0-.08-.21" transform="translate(-7.57 0)"/><path class="cls-30" d="M37.18,21.59l1.31-.75c0,.06,0,.12,0,.19l-1.3.76-.06-.2" transform="translate(-7.57 0)"/><path class="cls-29" d="M37.24,21.79l1.3-.76a1.13,1.13,0,0,1,0,.18l-1.3.76,0-.18" transform="translate(-7.57 0)"/><path class="cls-28" d="M37.27,22l1.3-.76a1.23,1.23,0,0,1,0,.19l-1.3.75c0-.06,0-.12,0-.18" transform="translate(-7.57 0)"/><path class="cls-27" d="M37.29,22.15l1.3-.75v0l-1.3.75v0" transform="translate(-7.57 0)"/></g></g></g><polygon class="cls-49" points="38.52 25.91 39.82 25.16 39.76 46.21 38.46 46.97 38.52 25.91"/><polygon class="cls-53" points="4.03 3.44 5.33 2.69 37.6 21.32 36.29 22.07 4.03 3.44"/><g class="cls-3"><g class="cls-72"><g class="cls-3"><path class="cls-20" d="M43.86,22.07l1.3-.75.15.08L44,22.16l-.14-.09" transform="translate(-7.57 0)"/><path class="cls-21" d="M44,22.16l1.31-.76a4,4,0,0,1,.47.37l-1.3.76a4.1,4.1,0,0,0-.48-.37" transform="translate(-7.57 0)"/><path class="cls-22" d="M44.48,22.53l1.3-.76a4.92,4.92,0,0,1,.9,1.11l-1.3.76a4.92,4.92,0,0,0-.9-1.11" transform="translate(-7.57 0)"/><path class="cls-21" d="M45.38,23.64l1.3-.76a4.3,4.3,0,0,1,.32.6l-1.31.76a4.25,4.25,0,0,0-.31-.6" transform="translate(-7.57 0)"/><path class="cls-20" d="M45.69,24.24,47,23.48c.06.14.12.29.17.44l-1.3.76a3.38,3.38,0,0,0-.18-.44" transform="translate(-7.57 0)"/><path class="cls-19" d="M45.87,24.68l1.3-.76c0,.13.08.26.11.39l-1.3.76c0-.13-.07-.26-.11-.39" transform="translate(-7.57 0)"/><path class="cls-18" d="M46,25.07l1.3-.76a2.53,2.53,0,0,1,.07.38l-1.3.76c0-.13,0-.25-.07-.38" transform="translate(-7.57 0)"/><path class="cls-17" d="M46.05,25.45l1.3-.76c0,.13,0,.26,0,.38l-1.31.76a2.43,2.43,0,0,0,0-.38" transform="translate(-7.57 0)"/><path class="cls-16" d="M46.08,25.83l1.31-.76v.08l-1.31.76v-.08" transform="translate(-7.57 0)"/></g></g></g><path class="cls-4" d="M44.15,20.2,11.35,1.27C9.3.08,7.63,1,7.63,3.39l-.06,21.7a8.12,8.12,0,0,0,3.69,6.4l5.6,3.23,2.92,1.69,15.43,8.91L38.14,47l5.92,3.42c2,1.18,3.72.23,3.72-2.12l.06-21.7A8.14,8.14,0,0,0,44.15,20.2ZM46,47c0,1.41-1,2-2.23,1.26L11.52,29.6A4.87,4.87,0,0,1,9.3,25.77L9.36,4.71c0-1.41,1-2,2.23-1.27L43.86,22.07a4.87,4.87,0,0,1,2.22,3.84L46,47" transform="translate(-7.57 0)"/><path class="cls-41" d="M27.5,33.55a.62.62,0,0,1,.14.14.35.35,0,0,1,.05.08L30.14,38c.11.18.11.4,0,.47a.25.25,0,0,1-.2,0,.6.6,0,0,1-.21-.21l-2.09-3.63-.29-.5.07,0c.11-.06.11-.27,0-.46a.31.31,0,0,0-.07-.09A.21.21,0,0,1,27.5,33.55Z" transform="translate(-7.57 0)"/><path class="cls-63" d="M43.86,22.07,11.59,3.44c-1.22-.7-2.22-.14-2.23,1.27L9.3,25.77a4.87,4.87,0,0,0,2.22,3.83L43.79,48.23C45,49,46,48.38,46,47l.06-21.06A4.87,4.87,0,0,0,43.86,22.07ZM37.25,34.69c0,.7-.49,1-1.09.62L27.65,30.4v3.29a.35.35,0,0,1,.05.08L30.14,38c.11.18.11.4,0,.47a.25.25,0,0,1-.2,0,.45.45,0,0,1-.14-.11.86.86,0,0,1-.07-.1l-2.09-3.63v2.28c0,.18-.13.25-.29.16a.61.61,0,0,1-.28-.49V34.28L25,35.48a.23.23,0,0,1-.21,0,.68.68,0,0,1-.2-.21c-.12-.2-.12-.41,0-.47L27,33.38l.06,0V30.07l-8.51-4.91a2.41,2.41,0,0,1-1.09-1.88l0-12.5c0-.69.49-1,1.09-.62L36.2,20.32a2.38,2.38,0,0,1,1.09,1.87l0,12.5" transform="translate(-7.57 0)"/><path class="cls-41" d="M27.35,34.11l.07,0c.11-.06.11-.27,0-.46a.31.31,0,0,0-.07-.09.43.43,0,0,0-.14-.13.19.19,0,0,0-.14,0l-.06,0-2.46,1.4c-.12.06-.12.27,0,.47a.68.68,0,0,0,.2.21.23.23,0,0,0,.21,0l2.1-1.2.29-.17Z" transform="translate(-7.57 0)"/><polygon class="cls-49" points="19.85 34.07 19.86 34.06 19.5 34.27 19.79 34.11 19.85 34.07"/><path class="cls-41" d="M27.36,29.9a.62.62,0,0,1,.29.49v3.3a.49.49,0,0,0-.15-.14.17.17,0,0,0-.14,0,.43.43,0,0,0-.14-.13.19.19,0,0,0-.14,0V30.07C27.08,29.88,27.21,29.81,27.36,29.9Z" transform="translate(-7.57 0)"/><g class="cls-3"><g class="cls-73"><g class="cls-3"><path class="cls-52" d="M8.71,1,10,.25l.3-.14L9,.87a1.38,1.38,0,0,0-.3.14" transform="translate(-7.57 0)"/><path class="cls-8" d="M9,.87l1.3-.76A2.27,2.27,0,0,1,10.84,0L9.53.76A2.18,2.18,0,0,0,9,.87" transform="translate(-7.57 0)"/><path class="cls-9" d="M9.53.76,10.84,0a2.64,2.64,0,0,1,.48,0L10,.78a2.57,2.57,0,0,0-.48,0" transform="translate(-7.57 0)"/><path class="cls-10" d="M10,.78,11.32,0a3.26,3.26,0,0,1,.48.11L10.49.89A2.77,2.77,0,0,0,10,.78" transform="translate(-7.57 0)"/><path class="cls-11" d="M10.49.89,11.8.13a4,4,0,0,1,.5.2L11,1.08a3.52,3.52,0,0,0-.51-.19" transform="translate(-7.57 0)"/><path class="cls-12" d="M11,1.08,12.3.33a2.31,2.31,0,0,1,.35.18l-1.3.76L11,1.08" transform="translate(-7.57 0)"/></g></g></g><polygon class="cls-41" points="25.98 27.29 25.98 27.95 20.77 24.95 20.77 24.29 25.98 27.29"/><polygon class="cls-41" points="25.38 23.47 25.38 24.13 20.77 21.48 20.78 20.81 25.38 23.47"/><g class="cls-3"><g class="cls-74"><g class="cls-3"><path class="cls-8" d="M47.78,48.31l1.31-.76a5.28,5.28,0,0,1,0,.58l-1.3.76a5.49,5.49,0,0,0,0-.58" transform="translate(-7.57 0)"/><path class="cls-52" d="M47.75,48.89l1.3-.76a2.35,2.35,0,0,1-1,1.8l-1.31.76a2.35,2.35,0,0,0,1-1.8" transform="translate(-7.57 0)"/></g></g></g><polygon class="cls-5" points="40.28 26.61 41.58 25.85 41.52 47.55 40.22 48.31 40.28 26.61"/><polygon class="cls-6" points="3.78 1.27 5.09 0.51 37.88 19.45 36.58 20.2 3.78 1.27"/><g class="cls-3"><g class="cls-75"><g class="cls-3"><path class="cls-12" d="M44.15,20.2l1.3-.75.24.14-1.31.76-.23-.15" transform="translate(-7.57 0)"/><path class="cls-13" d="M44.38,20.35l1.31-.76a6.33,6.33,0,0,1,.78.61l-1.3.76a5.06,5.06,0,0,0-.79-.61" transform="translate(-7.57 0)"/><path class="cls-14" d="M45.17,21l1.3-.76A8.31,8.31,0,0,1,48,22.05l-1.31.76A8,8,0,0,0,45.17,21" transform="translate(-7.57 0)"/><path class="cls-13" d="M46.67,22.81,48,22.05a8.59,8.59,0,0,1,.52,1l-1.31.75a7.79,7.79,0,0,0-.52-1" transform="translate(-7.57 0)"/><path class="cls-12" d="M47.19,23.8l1.31-.75c.11.24.2.49.29.74l-1.31.75a7.54,7.54,0,0,0-.29-.74" transform="translate(-7.57 0)"/><path class="cls-11" d="M47.48,24.54l1.31-.75c.07.21.13.43.19.65l-1.31.76a5.46,5.46,0,0,0-.19-.66" transform="translate(-7.57 0)"/><path class="cls-10" d="M47.67,25.2,49,24.44a4.62,4.62,0,0,1,.11.63l-1.3.76q0-.31-.12-.63" transform="translate(-7.57 0)"/><path class="cls-9" d="M47.79,25.83l1.3-.76c0,.22,0,.43.06.64l-1.31.76a4.6,4.6,0,0,0-.05-.64" transform="translate(-7.57 0)"/><path class="cls-8" d="M47.84,26.47l1.31-.76v.14l-1.31.76v-.14" transform="translate(-7.57 0)"/></g></g></g></g></g></g></svg>