<svg id="Layer_1" data-name="Layer 1" xmlns="http://www.w3.org/2000/svg" viewBox="0 0 249.84 472.26"><defs><style>.cls-1{fill:#fff;}</style></defs><circle class="cls-1" cx="161.6" cy="84.69" r="43.59"/><path class="cls-1" d="M335.45,216.31c16.66-1.24,20.75-9.2,29.46-6,6.07,2.26,9,8,9.77,9.43,4.41,8.4,1.53,17.6-.17,23.67-9.4,33.59-4.5,50.1-13.24,77.63-.18.57-5,16.71-5.13,17.13-3.48,11.6-3.74,12.43-3.73,14.15.1,9.15,7.79,13.26,15.92,23.42,4.18,5.22,17.45,21.81,14.62,34.93-3.84,17.8-36.27,24.23-42.12,25.39-16.11,3.2-32.73.44-66-5.12-14.46-2.41-35.52-6.61-56.28-5.29-11,.7-16.47,1-23.17,4.3-8.29,4-13.36,10-17.88,7.95-2.78-1.25-3.72-4.79-4.3-7-1.88-7.06,1.8-13.32,3.31-15.88a27,27,0,0,1,10.93-10.6c7.43-3.78,11.38-1,28.13-3,3.42-.39,6.23-.81,8.86-1.3,2.18-.4,3.79-.77,4.17-.85,1.55-.35,28.82-5.76,40.6-6.79,26.84-2.33,59.88,11.21,60.5,9.4.73-2.14-48.39-13.07-65.22-45.15a54,54,0,0,1-6.7-24.82c-.15-12.48,3.95-23,6.46-27.07a155.68,155.68,0,0,0,9.43-17.62,90.52,90.52,0,0,0,6-15.65c1.07-4.12,3.47-13.31,2.14-21.16-1.93-11.33-10.78-15-22.75-27-8.37-8.38-21.27-21.6-26.07-39.48-3-11.15-1.33-22.11,2-44,1.93-12.78,4.37-21,7.29-30.85,4-13.36,6.17-16.67,7.36-18.35,8.69-12.28,23.81-18.45,26.44-15.77.4.41.56,1.27.87,3a19.68,19.68,0,0,1,0,6.08c-.9,5.07-7.87,11.42-9.68,13.28-1.47,1.51-5,5.71-5.74,28.23-.73,23.1-1.09,34.65,3.5,44.89,9,20.11,26.85,29.77,29,30.83a91.65,91.65,0,0,1,9,4.18c.51.28,1.42.8,8.74,5.26l3.79,2.31C322.44,217.18,329.86,216.72,335.45,216.31Z" transform="translate(-172.72 -74.42)"/><path class="cls-1" d="M317.67,455.55c-.05-3.35,0-10.82,4.17-13.19,2.49-1.4,4.2.26,11.7-.36a75.49,75.49,0,0,0,9.44-1.49c6.12-1.31,7.76-2.35,9.19-1.36,2.3,1.6,1.32,6.67.78,9.64a207,207,0,0,0-3.26,26.48c-.71,14.09-.67,26-.4,35.14.47,16,1.51,19.93,3.65,23.82,2.35,4.29,5.17,7,4.07,9.44-1.55,3.45-9.44,3.4-14.23,2.47a25.87,25.87,0,0,1-12.48-6.34c-6.27-6-7.65-13.46-10.42-33.81C319.88,506,318.23,493.91,317.67,455.55Z" transform="translate(-172.72 -74.42)"/><path class="cls-1" d="M379,240.47c1.5.15,2.57,33.52-3.23,69.52-3.58,22.24-7.86,33.28-5.22,49.91.34,2.14,2,12,.1,12.58-.86.28-1.81-1.54-6.67-7.41-4.26-5.14-5.13-5.67-5.84-7.7-1.34-3.85,0-7.4.75-10.18,3.95-14.46,5.93-21.7,7.82-28.3.4-1.39,2.41-8.52,4-17.26,2.9-16.24,1.63-21.52,4.1-39.8C375.76,254.42,378,240.38,379,240.47Z" transform="translate(-172.72 -74.42)"/><path class="cls-1" d="M422.38,160.32c-.21-.49-.89-1.56-1.79-1.61-1.06-.06-1.92,1.28-2.26,1.79a33.61,33.61,0,0,1-3.27,4.06c-.24-1.28-.51-2.54-.85-3.79a26.7,26.7,0,0,0,5.31-7.73c1-2.43-2-5.15-4-2.85-1.29,1.51-2.51,3.07-3.78,4.6a33.37,33.37,0,0,0-10-10.9c-2-1.41-4.53,1.15-2.61,2.81a33.71,33.71,0,0,1,9.23,11.79c-1.83,1.72-3.91,3.31-5.12,5.42-.69,1.21.32,3.22,1.85,3a11.61,11.61,0,0,0,5.05-2.38c.24,1.32.4,2.64.53,4-.31.21-.62.41-.92.58-3.24,1.88-6.58,1.86-8.2,4.21-.2.28-.66,1-.43,1.52.37.85,2.18.8,2.84.79,1.74,0,4.32-1.07,7-2.59.15,3.28.23,6.56.67,9.83.22,1.65,2.64,2.11,3.06.3a45.48,45.48,0,0,0,1-13.3C420,166.52,423.37,162.63,422.38,160.32Z" transform="translate(-172.72 -74.42)"/><path class="cls-1" d="M403.44,122c-1.12-.76-2.28-1.47-3.45-2.14a51.81,51.81,0,0,0,1.89-6.68c.47-2.17-2.77-2.71-3.6-.88s-1.48,3.64-2.17,5.47c-.76-.38-1.52-.74-2.28-1.1-3-1.38-6.11-2.79-9.44-2a1.23,1.23,0,0,0,.07,2.42c3.46.36,7,2,10.34,4a17,17,0,0,0-1.36,4.93c-.09,1.1,1.33,2.09,2.23,1.21a15.63,15.63,0,0,0,2.75-3.8c1.08.75,2.13,1.49,3.11,2.19,5.2,3.72,8.18,8.38,11.55,13.67.71,1.11,2.11.07,2.07-.94C414.86,131.51,408.7,125.68,403.44,122Z" transform="translate(-172.72 -74.42)"/></svg>