<svg id="Layer_1" data-name="Layer 1" xmlns="http://www.w3.org/2000/svg" viewBox="0 0 69.956 70.339"><defs><style>.cls-1{fill:#fedf40;}.cls-2{fill:none;stroke:#2896cd;stroke-miterlimit:10;stroke-width:3px;}</style></defs><path class="cls-1" d="M97.4,73.763v60a1.809,1.809,0,0,0,2.584,1.635l62.751-29.724a1.81,1.81,0,0,0,.012-3.265L100,72.134A1.809,1.809,0,0,0,97.4,73.763Z" transform="translate(-97.403 -65.235)"/><path class="cls-2" d="M103.88,68.427v56.029a1.69,1.69,0,0,0,2.413,1.527l58.6-27.758a1.69,1.69,0,0,0,.011-3.049L106.3,66.905A1.689,1.689,0,0,0,103.88,68.427Z" transform="translate(-97.403 -65.235)"/></svg>