<svg xmlns="http://www.w3.org/2000/svg" xmlns:xlink="http://www.w3.org/1999/xlink" viewBox="0 0 162.73 232.15"><defs><style>.cls-1{fill:#faccc1;}.cls-2{fill:#c9e7f4;}.cls-3{fill:none;stroke:#999;stroke-miterlimit:10;stroke-width:1.36px;}.cls-4{fill:#fff;}.cls-5{fill:url(#linear-gradient);}.cls-6{opacity:0.86;fill:url(#linear-gradient-2);}.cls-7{opacity:0.5;fill:url(#linear-gradient-3);}.cls-8{fill:#f9e3de;}</style><linearGradient id="linear-gradient" x1="21.44" y1="160.16" x2="111.23" y2="4.65" gradientUnits="userSpaceOnUse"><stop offset="0" stop-color="#96d0f1" stop-opacity="0.5"/><stop offset="1" stop-color="#fff"/></linearGradient><linearGradient id="linear-gradient-2" x1="161.22" y1="48.79" x2="39.04" y2="170.97" gradientUnits="userSpaceOnUse"><stop offset="0" stop-color="#f7ada3" stop-opacity="0.5"/><stop offset="0" stop-color="#f7b0a7" stop-opacity="0.52"/><stop offset="1" stop-color="#fff"/></linearGradient><linearGradient id="linear-gradient-3" x1="158.95" y1="103.47" x2="8.25" y2="103.47" gradientUnits="userSpaceOnUse"><stop offset="0" stop-color="#fff"/><stop offset="0.84" stop-color="#fbb3c9"/></linearGradient></defs><g id="Layer_2" data-name="Layer 2"><g id="Layer_1-2" data-name="Layer 1"><path class="cls-1" d="M63.32,191.3C27.92,169.52,0,118.68,0,81.36a81.36,81.36,0,1,1,162.71,0c0,37.45-37.45,89.52-66,109.94"/><path class="cls-2" d="M63.32,206.28H96.68a0,0,0,0,1,0,0v22.33a3.54,3.54,0,0,1-3.54,3.54H66.87a3.55,3.55,0,0,1-3.55-3.55V206.28A0,0,0,0,1,63.32,206.28Z"/><line class="cls-3" x1="64.06" y1="206.28" x2="64.06" y2="191.3"/><line class="cls-3" x1="96" y1="206.28" x2="96" y2="191.3"/><path class="cls-4" d="M81.37,0A81.36,81.36,0,0,0,0,81.36c0,37.32,27.92,88.16,63.32,109.94H96.69c28.59-20.42,66-72.49,66-109.94A81.36,81.36,0,0,0,81.37,0Z"/><path class="cls-5" d="M81.36,0A81.35,81.35,0,0,0,0,81.36c0,27.85,15.55,63.24,38.16,88.46,10.32-20.48,9.15-33.74,21.87-49.47,27.22-33.66,63.51-11.2,89-44.41a70.66,70.66,0,0,0,10.09-18.69A81.38,81.38,0,0,0,81.36,0Z"/><path class="cls-6" d="M122,62.34C106.16,80.13,98.22,89,91.11,93.92c-25.93,17.89-57.18,6.21-77,22.13a45.55,45.55,0,0,0-5.6,5.42c10.88,27.78,31.18,55.29,54.82,69.83H96.69c28.59-20.42,66-72.49,66-109.94a81,81,0,0,0-12.89-44,130.18,130.18,0,0,0-13.47,9.83C130.61,52,127.67,56,122,62.34Z"/><path class="cls-7" d="M149.51,37.12a131.25,131.25,0,0,0-12.89,9.46c-5.75,4.81-8.7,8.81-14.33,15.11C106.41,79.47,98.47,88.37,91.37,93.27c-12.25,8.44-25.67,10.3-38.52,11.58-14.37,1.43-28,2.14-38.48,10.55a46.11,46.11,0,0,0-6.12,6,162.75,162.75,0,0,0,29.85,48.4C48.78,149,47.45,135.6,60.3,119.7c27.22-33.66,63.51-11.2,89-44.41A70.22,70.22,0,0,0,159,57.68,81.21,81.21,0,0,0,149.51,37.12Z"/><rect class="cls-8" x="63.32" y="211.37" width="33.36" height="2.08"/><rect class="cls-8" x="63.32" y="218.18" width="33.36" height="2.08"/><rect class="cls-8" x="63.32" y="224.98" width="33.36" height="2.08"/></g></g></svg>