<svg xmlns="http://www.w3.org/2000/svg" xmlns:xlink="http://www.w3.org/1999/xlink" viewBox="0 0 285.52 148.92"><defs><style>.cls-1{fill:url(#linear-gradient);}.cls-2{fill:url(#linear-gradient-2);}</style><linearGradient id="linear-gradient" x1="-1884.29" x2="-1884.29" y2="59.61" gradientTransform="matrix(-1, 0, 0, 1, -1668.66, 0)" gradientUnits="userSpaceOnUse"><stop offset="0" stop-color="#fff"/><stop offset="0.37" stop-color="#fff" stop-opacity="0.99"/><stop offset="0.51" stop-color="#fff" stop-opacity="0.97"/><stop offset="0.6" stop-color="#fff" stop-opacity="0.92"/><stop offset="0.68" stop-color="#fff" stop-opacity="0.85"/><stop offset="0.75" stop-color="#fff" stop-opacity="0.77"/><stop offset="0.8" stop-color="#fff" stop-opacity="0.66"/><stop offset="0.86" stop-color="#fff" stop-opacity="0.53"/><stop offset="0.91" stop-color="#fff" stop-opacity="0.39"/><stop offset="0.95" stop-color="#fff" stop-opacity="0.22"/><stop offset="0.99" stop-color="#fff" stop-opacity="0.04"/><stop offset="1" stop-color="#fff" stop-opacity="0"/></linearGradient><linearGradient id="linear-gradient-2" x1="68.44" y1="90.55" x2="68.44" y2="148.92" gradientTransform="matrix(1, 0, 0, 1, 0, 0)" xlink:href="#linear-gradient"/></defs><g id="Layer_2" data-name="Layer 2"><g id="Layer_1-2" data-name="Layer 1"><path class="cls-1" d="M145.74,39.67a19.69,19.69,0,0,0,19.63,19.72l32.36.07,33.65.08,34.42.07a19.67,19.67,0,1,0,.09-39.34,19.42,19.42,0,0,0-5.94.9A29.77,29.77,0,0,0,209.32,9.85,26.15,26.15,0,0,0,174.17,22.1a19.67,19.67,0,0,0-28.43,17.57"/><path class="cls-2" d="M136.87,129.4a19.26,19.26,0,0,1-19.22,19.3L86,148.77,53,148.85l-33.71.07a19.26,19.26,0,1,1-.09-38.52,19,19,0,0,1,5.82.88A29.15,29.15,0,0,1,74.61,100.2a25.6,25.6,0,0,1,34.43,12,19.06,19.06,0,0,1,8.52-2,19.26,19.26,0,0,1,19.31,19.22"/></g></g></svg>