<svg xmlns="http://www.w3.org/2000/svg" xmlns:xlink="http://www.w3.org/1999/xlink" viewBox="0 0 880 525.5"><defs><style>.cls-1{fill:none;}.cls-2{fill:#ffebef;}.cls-3{fill:#f9c7ce;}.cls-4{fill:#fff;}.cls-5{fill:url(#New_Pattern_Swatch_2);}</style><pattern id="New_Pattern_Swatch_2" data-name="New Pattern Swatch 2" width="277" height="277" patternUnits="userSpaceOnUse" viewBox="0 0 277 277"><rect class="cls-1" width="277" height="277"/><polygon class="cls-2" points="221.75 0 0 221.75 0 262.65 262.65 0 221.75 0"/><polygon class="cls-2" points="193.2 277 277 193.2 277 152.3 152.3 277 193.2 277"/><polygon class="cls-2" points="262.38 277 277 262.38 277 221.49 221.49 277 262.38 277"/><polygon class="cls-2" points="124.02 277 277 124.02 277 83.12 83.12 277 124.02 277"/><polygon class="cls-2" points="152.57 0 0 152.57 0 193.47 193.47 0 152.57 0"/><polygon class="cls-2" points="277 54.83 277 13.94 13.94 277 54.83 277 277 54.83"/><polygon class="cls-2" points="14.2 0 0 14.2 0 55.1 55.1 0 14.2 0"/><polygon class="cls-2" points="83.39 0 0 83.39 0 124.28 124.28 0 83.39 0"/><polygon class="cls-3" points="0 0 0 14.2 14.2 0 0 0"/><polygon class="cls-3" points="55.1 0 0 55.1 0 83.39 83.39 0 55.1 0"/><polygon class="cls-3" points="124.28 0 0 124.28 0 152.57 152.57 0 124.28 0"/><polygon class="cls-3" points="193.47 0 0 193.47 0 221.75 221.75 0 193.47 0"/><polygon class="cls-3" points="277 0 262.65 0 0 262.65 0 277 13.94 277 277 13.94 277 0"/><polygon class="cls-3" points="83.12 277 277 83.12 277 54.83 54.83 277 83.12 277"/><polygon class="cls-3" points="152.3 277 277 152.3 277 124.02 124.02 277 152.3 277"/><polygon class="cls-3" points="221.49 277 277 221.49 277 193.2 193.2 277 221.49 277"/><polygon class="cls-3" points="277 277 277 262.38 262.38 277 277 277"/></pattern></defs><g id="Layer_2" data-name="Layer 2"><g id="Layer_1-2" data-name="Layer 1"><rect class="cls-4" x="40" y="61" width="800" height="459"/><path class="cls-5" d="M845.5,525.5H34.5V55.5h811Zm-800-11h789V66.5H45.5Z"/><path class="cls-3" d="M43.7,121H36.3A36.3,36.3,0,0,1,0,84.7V0H80V84.7A36.3,36.3,0,0,1,43.7,121Z"/><path class="cls-2" d="M123.7,121h-7.4A36.3,36.3,0,0,1,80,84.7V0h80V84.7A36.3,36.3,0,0,1,123.7,121Z"/><path class="cls-3" d="M203.7,121h-7.4A36.3,36.3,0,0,1,160,84.7V0h80V84.7A36.3,36.3,0,0,1,203.7,121Z"/><path class="cls-2" d="M283.7,121h-7.4A36.3,36.3,0,0,1,240,84.7V0h80V84.7A36.3,36.3,0,0,1,283.7,121Z"/><path class="cls-3" d="M363.7,121h-7.4A36.3,36.3,0,0,1,320,84.7V0h80V84.7A36.3,36.3,0,0,1,363.7,121Z"/><path class="cls-2" d="M443.7,121h-7.4A36.3,36.3,0,0,1,400,84.7V0h80V84.7A36.3,36.3,0,0,1,443.7,121Z"/><path class="cls-3" d="M523.7,121h-7.4A36.3,36.3,0,0,1,480,84.7V0h80V84.7A36.3,36.3,0,0,1,523.7,121Z"/><path class="cls-2" d="M603.7,121h-7.4A36.3,36.3,0,0,1,560,84.7V0h80V84.7A36.3,36.3,0,0,1,603.7,121Z"/><path class="cls-3" d="M683.7,121h-7.4A36.3,36.3,0,0,1,640,84.7V0h80V84.7A36.3,36.3,0,0,1,683.7,121Z"/><path class="cls-2" d="M763.7,121h-7.4A36.3,36.3,0,0,1,720,84.7V0h80V84.7A36.3,36.3,0,0,1,763.7,121Z"/><path class="cls-3" d="M843.7,121h-7.4A36.3,36.3,0,0,1,800,84.7V0h80V84.7A36.3,36.3,0,0,1,843.7,121Z"/></g></g></svg>