<?xml version="1.0" encoding="utf-8"?>
<!-- Generator: Adobe Illustrator 23.1.1, SVG Export Plug-In . SVG Version: 6.00 Build 0)  -->
<svg version="1.1" id="Layer_1" xmlns="http://www.w3.org/2000/svg" xmlns:xlink="http://www.w3.org/1999/xlink" x="0px" y="0px"
	 viewBox="0 0 612 792" style="enable-background:new 0 0 612 792;" xml:space="preserve">
<style type="text/css">
	.st0{fill:#FFFFFF;stroke:#E6E7E8;stroke-miterlimit:10;}
	.st1{fill:#E6E7E8;stroke:#E6E7E8;stroke-miterlimit:10;}
	.st2{fill:#FFFFFF;}
</style>
<polygon class="st0" points="303.44,370.9 303.44,366.22 309.5,366.22 309.5,372.68 303.44,372.68 "/>
<polygon class="st1" points="321.84,377.18 324.87,373.61 329.48,377.54 325.29,382.46 320.68,378.54 "/>
<polygon class="st0" points="280.65,413.11 284.12,409.96 288.18,414.45 283.39,418.79 279.32,414.31 "/>
<polygon class="st1" points="331.4,394.55 336.08,394.65 335.95,400.7 329.48,400.56 329.62,394.51 "/>
<polygon class="st0" points="321.84,413.52 324.87,409.95 329.48,413.88 325.29,418.8 320.68,414.88 "/>
<polygon class="st0" points="302.54,419.76 307.21,420.06 306.82,426.1 300.37,425.68 300.76,419.64 "/>
<polygon class="st0" points="282.45,377.2 285.46,373.61 290.1,377.51 285.93,382.46 281.3,378.56 "/>
<polygon class="st0" points="275.06,397.6 275.25,392.92 281.3,393.17 281.04,399.63 274.99,399.39 "/>
<path class="st0" d="M330.32,396.28c0,14.02-11.36,25.38-25.38,25.38c-14.02,0-25.38-11.36-25.38-25.38
	c0-7.02,3.05-12.44,4.78-14.82c0.81-1.11,2.4-3.14,4.91-5.1c5.21-4.05,11.4-5.48,15.7-5.46C316,370.96,330.32,380.72,330.32,396.28z
	"/>
<path class="st0" d="M317.31,422.87"/>
<polygon class="st2" points="331.4,394.55 336.08,394.65 335.95,400.7 329.48,400.56 329.62,394.51 "/>
<polygon class="st2" points="321.84,377.18 324.87,373.61 329.48,377.54 325.29,382.46 320.68,378.54 "/>
<polygon class="st2" points="303.44,370.9 303.44,366.22 309.5,366.22 309.5,372.68 303.44,372.68 "/>
<polygon class="st2" points="321.84,413.52 324.87,409.95 329.48,413.88 325.29,418.8 320.68,414.88 "/>
<polygon class="st2" points="302.54,419.76 307.21,420.06 306.82,426.1 300.37,425.68 300.76,419.64 "/>
<polygon class="st2" points="280.65,413.11 284.12,409.96 288.18,414.45 283.39,418.79 279.32,414.31 "/>
<polygon class="st2" points="275.06,397.6 275.25,392.92 281.3,393.17 281.04,399.63 274.99,399.39 "/>
<polygon class="st2" points="282.45,377.2 285.46,373.61 290.1,377.51 285.93,382.46 281.3,378.56 "/>
<path class="st1" d="M318.66,396.16c0,7.58-6.14,13.72-13.72,13.72c-7.58,0-13.72-6.14-13.72-13.72c0-3.8,1.65-6.72,2.58-8.02
	c0.44-0.6,1.3-1.7,2.65-2.76c2.82-2.19,6.16-2.97,8.49-2.95C310.92,382.47,318.66,387.75,318.66,396.16z"/>
</svg>
