<svg xmlns="http://www.w3.org/2000/svg" viewBox="0 0 90.02 90.02"><defs><style>.cls-1{fill:#fff;opacity:0;}.cls-2{opacity:0.6;}.cls-3{fill:none;stroke:#000;stroke-miterlimit:10;stroke-width:3.1px;}</style></defs><title>Site_Icon</title><g id="Layer_2" data-name="Layer 2"><g id="Layer_1-2" data-name="Layer 1"><circle class="cls-1" cx="45.01" cy="45.01" r="45.01"/><g class="cls-2"><path class="cls-3" d="M65.29,46.83V62.64a3.82,3.82,0,0,1-3.83,3.83H29.53a3.83,3.83,0,0,1-3.83-3.83V30.71a3.83,3.83,0,0,1,3.83-3.83h16"/><rect x="54.09" y="21.34" width="3.1" height="30.34" rx="1.55" transform="translate(42.11 -28.65) rotate(45)"/><rect x="58.06" y="19.66" width="3.1" height="14.47" rx="1.55" transform="translate(86.51 -32.72) rotate(90)"/><rect x="63.74" y="25.34" width="3.1" height="14.47" rx="1.55" transform="translate(130.59 65.15) rotate(-180)"/><circle cx="45.5" cy="26.88" r="1.55"/><circle cx="65.29" cy="46.88" r="1.55"/></g></g></g></svg>
