<svg xmlns="http://www.w3.org/2000/svg" xmlns:xlink="http://www.w3.org/1999/xlink" viewBox="0 0 765.92 706.86"><defs><style>.cls-1,.cls-80{fill:none;}.cls-2{fill:#f9f9f9;}.cls-3{fill:#ddeded;}.cls-4{fill:#f5f5f5;}.cls-5{isolation:isolate;}.cls-6{fill:#fff1e6;}.cls-7{fill:#eddace;}.cls-8{fill:#f7f2eb;}.cls-9{fill:#e2d2c7;}.cls-10{fill:#ede2da;}.cls-11{fill:#c1e8ea;}.cls-12{fill:#a1bfbf;}.cls-13{fill:#b4d1d0;}.cls-14{fill:#acd1ee;}.cls-15{fill:#f7ada3;}.cls-16{opacity:0.3;}.cls-17{clip-path:url(#clip-path);}.cls-18{fill:#fff;}.cls-19{clip-path:url(#clip-path-2);}.cls-20{clip-path:url(#clip-path-3);}.cls-21{clip-path:url(#clip-path-4);}.cls-22{fill:#f4e9e4;}.cls-23{fill:#f9f4ef;}.cls-24{fill:#603813;}.cls-25{fill:#efdcd5;}.cls-26{fill:#607a36;}.cls-27{fill:#526d30;}.cls-28{fill:#6d8c41;}.cls-29{fill:#637c40;}.cls-30{fill:#637f3b;}.cls-31{fill:#6b893f;}.cls-32{fill:#929497;}.cls-33{fill:#e6e7e8;}.cls-34{fill:#d5e9f7;}.cls-35{opacity:0.5;}.cls-36{clip-path:url(#clip-path-5);}.cls-37{clip-path:url(#clip-path-6);}.cls-38{fill:#87c8dd;}.cls-39{clip-path:url(#clip-path-7);}.cls-40{clip-path:url(#clip-path-8);}.cls-41{clip-path:url(#clip-path-9);}.cls-42{clip-path:url(#clip-path-10);}.cls-43{clip-path:url(#clip-path-11);}.cls-44{clip-path:url(#clip-path-12);}.cls-45{fill:#ffd9b2;}.cls-46{fill:#ffcf9f;}.cls-47{clip-path:url(#clip-path-13);}.cls-48{clip-path:url(#clip-path-14);}.cls-49{fill:#e4e4e4;}.cls-50{fill:#e9e9e9;}.cls-51{fill:#fbfbfb;}.cls-52{clip-path:url(#clip-path-15);}.cls-53{fill:#dfdfdf;}.cls-54{fill:#e0e0e0;}.cls-55{fill:#e2e2e2;}.cls-56{fill:#e3e3e3;}.cls-57{fill:#e6e6e6;}.cls-58{fill:#e7e7e7;}.cls-59{clip-path:url(#clip-path-16);}.cls-60{clip-path:url(#clip-path-17);}.cls-61{clip-path:url(#clip-path-18);}.cls-62{clip-path:url(#clip-path-19);}.cls-63{clip-path:url(#clip-path-20);}.cls-64{clip-path:url(#clip-path-21);}.cls-65{clip-path:url(#clip-path-22);}.cls-66{clip-path:url(#clip-path-23);}.cls-67{clip-path:url(#clip-path-24);}.cls-68{clip-path:url(#clip-path-25);}.cls-69{clip-path:url(#clip-path-26);}.cls-70{fill:#d3c7be;}.cls-71{fill:#efe7e1;}.cls-72{fill:#95cff0;}.cls-73{fill:#a1d1d1;}.cls-74{fill:#68a3d5;}.cls-75{fill:#998675;}.cls-76{fill:#b2aa97;}.cls-77{fill:#a09682;}.cls-78{fill:#666;}.cls-79{fill:#4d4d4d;}.cls-80{stroke:#000;stroke-width:0.12px;}.cls-100,.cls-80{stroke-miterlimit:10;}.cls-81{fill:#2896cd;}.cls-82{fill:#333;}.cls-83{fill:#1a1a1a;}.cls-84{fill:#969695;}.cls-85{fill:#b3b3b3;}.cls-86{fill:gray;}.cls-87{fill:#ccc;}.cls-88{fill:#999;}.cls-89{fill:#42210b;}.cls-90{fill:#9eadbf;}.cls-91{fill:#d2e7ff;}.cls-92{fill:#ffecd9;}.cls-93{fill:#efe6e1;}.cls-94{fill:#b7a69e;}.cls-95{fill:#d8cbc5;}.cls-96{fill:#e2e1e0;}.cls-97{fill:#efefef;}.cls-98{fill:#e8e5e3;}.cls-99{fill:#f4f3f2;}.cls-100{fill:#edeae8;stroke:#ccc;stroke-width:0.12px;}</style><clipPath id="clip-path"><rect class="cls-1" x="381.12" y="193.69" width="32.51" height="58.85"/></clipPath><clipPath id="clip-path-2"><rect class="cls-1" x="381.12" y="239.74" width="32.51" height="58.85"/></clipPath><clipPath id="clip-path-3"><rect class="cls-1" x="339.17" y="215.6" width="35.61" height="60.28"/></clipPath><clipPath id="clip-path-4"><rect class="cls-1" x="339.17" y="261.25" width="35.61" height="60.28"/></clipPath><clipPath id="clip-path-5"><rect class="cls-1" x="51.94" y="261.35" width="25.84" height="122.31"/></clipPath><clipPath id="clip-path-6"><rect class="cls-1" x="54.75" y="272.24" width="4.18" height="109.44"/></clipPath><clipPath id="clip-path-7"><rect class="cls-1" x="62.77" y="267.63" width="4.18" height="109.44"/></clipPath><clipPath id="clip-path-8"><rect class="cls-1" x="70.29" y="263.25" width="4.18" height="109.44"/></clipPath><clipPath id="clip-path-9"><rect class="cls-1" x="160.98" y="197.85" width="25.84" height="122.31"/></clipPath><clipPath id="clip-path-10"><rect class="cls-1" x="163.78" y="208.74" width="4.18" height="109.44"/></clipPath><clipPath id="clip-path-11"><rect class="cls-1" x="171.8" y="204.13" width="4.18" height="109.44"/></clipPath><clipPath id="clip-path-12"><rect class="cls-1" x="179.33" y="199.75" width="4.18" height="109.44"/></clipPath><clipPath id="clip-path-13"><rect class="cls-1" x="440.37" y="574.7" width="39.02" height="70.64"/></clipPath><clipPath id="clip-path-14"><rect class="cls-1" x="390.02" y="600.53" width="42.75" height="72.37"/></clipPath><clipPath id="clip-path-15"><path class="cls-1" d="M513.06,159.74l7.57-4.39c-2.47,1.43-4,4.48-4,8.8,0,8.6,6.08,19.18,13.6,23.52l-7.56,4.4c-7.52-4.34-13.63-14.92-13.6-23.53C509.07,164.22,510.6,161.18,513.06,159.74Z"/></clipPath><clipPath id="clip-path-16"><path class="cls-1" d="M540,188.62l-7.56,4.4c-2.5,1.45-6,1.25-9.77-1l7.56-4.4C534,189.87,537.49,190.07,540,188.62Z"/></clipPath><clipPath id="clip-path-17"><path class="cls-1" d="M506.89,149.12l7.56-4.4c4.08-2.37,9.72-2.05,15.91,1.53l-7.56,4.39C516.6,147.06,511,146.74,506.89,149.12Z"/></clipPath><clipPath id="clip-path-18"><path class="cls-1" d="M546.21,199.31l-7.56,4.39c4-2.33,6.51-7.26,6.53-14.24,0-14.24-10-31.7-22.38-38.82l7.56-4.39c12.34,7.12,22.42,24.58,22.38,38.81C552.72,192.05,550.23,197,546.21,199.31Z"/></clipPath><clipPath id="clip-path-19"><path class="cls-1" d="M567.23,191.11l7.56-4.4c-2.39,1.39-4,4.31-4,8.78,0,8.61,5.78,19,14.21,23.91,3.62,2.09,6.64,2.58,8.58,1.45l-7.57,4.4c-1.94,1.12-4.95.64-8.57-1.45-8.43-4.87-14.24-15.3-14.21-23.92C563.25,195.42,564.84,192.5,567.23,191.11Z"/></clipPath><clipPath id="clip-path-20"><path class="cls-1" d="M561,180.35l7.56-4.39c4.08-2.37,9.7-2.06,15.88,1.51l-7.56,4.39C570.69,178.29,565.07,178,561,180.35Z"/></clipPath><clipPath id="clip-path-21"><path class="cls-1" d="M599.33,231l-7.56,4.4c3.64-2.11,5.91-6.89,5.93-14.53,0-1.35-.08-2.79-.21-4.31l7.56-4.39c.13,1.52.21,3,.21,4.3C605.24,224.11,603,228.88,599.33,231Z"/></clipPath><clipPath id="clip-path-22"><path class="cls-1" d="M576.88,181.86l7.56-4.39c5.59,3.28,11.55,9.68,15.76,16.86l-7.56,4.39C588.43,191.54,582.46,185.15,576.88,181.86Z"/></clipPath><clipPath id="clip-path-23"><path class="cls-1" d="M619.68,221.3l7.56-4.39c-2.46,1.43-4,4.47-4,8.79,0,8.61,6.08,19.19,13.6,23.53l-7.57,4.39c-7.51-4.34-13.62-14.92-13.6-23.52C615.69,225.78,617.22,222.73,619.68,221.3Z"/></clipPath><clipPath id="clip-path-24"><path class="cls-1" d="M646.6,250.18,639,254.57c-2.49,1.45-5.95,1.25-9.77-.95l7.57-4.39C640.65,251.43,644.11,251.63,646.6,250.18Z"/></clipPath><clipPath id="clip-path-25"><path class="cls-1" d="M613.51,210.68l7.56-4.4c4.08-2.37,9.72-2.05,15.91,1.52l-7.56,4.4C623.23,208.62,617.59,208.3,613.51,210.68Z"/></clipPath><clipPath id="clip-path-26"><path class="cls-1" d="M652.83,260.87l-7.56,4.39c4-2.33,6.51-7.26,6.53-14.25,0-14.23-10-31.69-22.38-38.81l7.56-4.4c12.34,7.13,22.42,24.59,22.38,38.82C659.34,253.6,656.85,258.53,652.83,260.87Z"/></clipPath></defs><title>Sponsor_Room_1</title><g id="Layer_2" data-name="Layer 2"><g id="Layer_1-2" data-name="Layer 1"><polygon class="cls-2" points="382.96 264.64 0 485.75 382.96 706.86 765.92 485.75 382.96 264.64"/><ellipse class="cls-3" cx="308.97" cy="516.92" rx="91.6" ry="158.15" transform="translate(-208.82 824.43) rotate(-89.84)"/><path class="cls-4" d="M407.36,573.05,415.21,585c-.82.43-1.65.85-2.48,1.27l-8.26-12.54Z"/><polygon class="cls-4" points="419.2 491.77 416.31 492.41 395.48 460.78 398.38 460.15 419.2 491.77"/><polygon class="cls-4" points="293.83 597.96 296.73 597.32 302.58 606.2 299.68 606.84 293.83 597.96"/><polygon class="cls-4" points="215.86 576.06 212.97 576.7 191.24 543.71 194.13 543.07 215.86 576.06"/><path class="cls-4" d="M394.38,459.1l-16.1-24.44.11,0c1.3.37,2.58.74,3.85,1.13l.14.05,14.89,22.6Z"/><path class="cls-4" d="M217,577.74l11.84,18-.46-.17c-1.14-.39-2.26-.79-3.38-1.2l-.48-.18-10.4-15.79Z"/><g class="cls-5"><path class="cls-4" d="M307.68,425.3h2.37l8.62,13.09-2.9.63-9-13.72Z"/><path class="cls-4" d="M263.58,450.47l-12.48-19,.85-.19,1.21-.27.84-.17,12.48,18.95Z"/><path class="cls-4" d="M205.14,463.29l-7.63-11.57c.56-.32,1.11-.64,1.68-1l.62-.36.12-.06,8.1,12.31Z"/><polygon class="cls-4" points="337.25 471.63 316.88 440.7 319.77 440.07 340.15 471 337.25 471.63"/><path class="cls-4" d="M361.73,430.62l.57.12-42.53,9.33-2.89.63-49.3,10.82-2.89.63-55.55,12.19-2.9.63-36.28,8,.24-.25c.59-.63,1.21-1.26,1.83-1.89l.3-.3,32.81-7.2,2.89-.63,55.55-12.19,2.9-.63L315.77,439l2.9-.63,39.05-8.57.71.14Z"/><polygon class="cls-4" points="267.58 451.51 287.96 482.45 285.06 483.08 264.69 452.15 267.58 451.51"/><polygon class="cls-4" points="229.51 495.27 226.62 495.9 206.24 464.97 209.14 464.34 229.51 495.27"/><polygon class="cls-4" points="362.08 504.31 359.19 504.94 338.35 473.31 341.25 472.68 362.08 504.31"/><path class="cls-4" d="M168.2,508.72l-11.33-17.2c0-.09.08-.18.13-.27.41-.83.84-1.66,1.29-2.48l0-.07,12.77,19.38Z"/><path class="cls-4" d="M423.78,454.11l.55.34-26,5.7-2.89.63-54.23,11.9-2.9.63-49.29,10.81-2.89.64-55.56,12.18-2.89.64-55.53,12.18-2.89.63-18.41,4c0-.63.06-1.27.11-1.9l17.2-3.81,2.89-.64,55.53-12.18,2.89-.63,55.55-12.19,2.9-.63,49.29-10.82,2.9-.63,54.23-11.9,2.89-.63L422,453l.73.43Z"/><polygon class="cls-4" points="286.17 484.76 289.06 484.12 309.89 515.75 307 516.39 286.17 484.76"/><polygon class="cls-4" points="439.15 527.08 417.42 494.09 420.31 493.45 442.04 526.45 439.15 527.08"/><polygon class="cls-4" points="248.55 529.21 227.72 497.58 230.62 496.94 251.45 528.58 248.55 529.21"/><polygon class="cls-4" points="382.02 539.61 360.29 506.62 363.19 505.99 384.92 538.98 382.02 539.61"/><polygon class="cls-4" points="190.13 542.03 169.3 510.39 172.19 509.76 193.03 541.39 190.13 542.03"/><path class="cls-4" d="M419.2,491.77l36.14-7.92,1.1,1.68-36.13,7.92-2.89.64L363.19,506l-2.9.63L311,517.43l-2.9.64-55.55,12.18-2.89.64-55.53,12.18-2.89.64-29.44,6.45-.35-.51L161,549c-.1-.16-.2-.31-.29-.47L190.13,542l2.9-.64,55.52-12.18,2.9-.63L307,516.39l2.89-.64,49.3-10.81,2.89-.63,54.23-11.9Z"/><polygon class="cls-4" points="332.73 550.43 329.83 551.06 308.11 518.07 311 517.43 332.73 550.43"/><path class="cls-4" d="M455.56,551.62l-.13.18-15.18-23,2.9-.63,14,21.2-.06.09C456.57,550.16,456.07,550.89,455.56,551.62Z"/><polygon class="cls-4" points="274.28 563.25 271.39 563.88 249.66 530.89 252.55 530.25 274.28 563.25"/><polygon class="cls-4" points="406.26 571.38 403.36 572.01 383.13 541.29 386.02 540.66 406.26 571.38"/><path class="cls-4" d="M214.08,578.38,198,581.91c-1.09-.63-1.73-1-2.38-1.4L213,576.7l2.89-.64,55.53-12.18,2.89-.63,55.55-12.19,2.9-.63L382,539.61l2.9-.63,54.23-11.9,2.89-.63L467,521c0,.42-.06.7-.08,1s-.06.65-.1,1l-23.66,5.2-2.9.63L386,540.66l-2.89.63L333.84,552.1l-2.9.64-55.55,12.19-2.9.63L217,577.74Z"/><polygon class="cls-4" points="275.39 564.93 295.62 595.65 292.73 596.28 272.5 565.56 275.39 564.93"/><path class="cls-4" d="M355.17,584.5l11.7,17.77-1.16.26-.64.14-1.09.23-11.7-17.76Z"/><path class="cls-4" d="M355.17,584.5l-2.89.64-55.55,12.18-2.9.64-30.18,6.62-.82-.15c-1.06-.19-2.13-.38-3.19-.59l-.72-.14,33.81-7.42,2.89-.63,55.55-12.19,2.9-.63L403.36,572l2.9-.63,40.08-8.8-.31.33c-.58.58-1.18,1.16-1.78,1.73l-.44.42-36.45,8-2.89.64Z"/></g><polygon class="cls-4" points="333.84 552.11 354.07 582.83 351.17 583.46 330.94 552.74 333.84 552.11"/><polygon class="cls-6" points="0 221.76 0 485.75 382.96 264.65 382.96 0 0 221.76"/><polygon class="cls-7" points="765.92 221.76 765.92 485.75 382.96 264.65 382.96 0 765.92 221.76"/><path class="cls-8" d="M189.21,441.67c-3.34-2.79-7.79-.56-7.79-.56s-26.88,15.37-41.54,23.65q-4.55-6-9.11-12s36.74-21.71,38.25-22.52c1.83-.86,4-1.42,5.17-.3,4.45,3.89,9.76,8.62,15,11.69"/><path class="cls-9" d="M133.66,453c0,.06-7.25,10-7.23,10,.56,1.69-5.5-15.88-5.49-14l.27,40.38.66,48.63,20.59-12.25v-.09l49-28.58V446.67a6.59,6.59,0,0,0-9.88-5.72l-39.45,22.7,9.36-27.38c0-.65-9.59-4-9.71-4.61-.57-3.19-5.24,23-8.1,21.31"/><polygon class="cls-10" points="308.51 571.09 145.42 476.46 190.67 450.04 354.75 545.61 308.51 571.09"/><path class="cls-10" d="M298.42,545.63a17.25,17.25,0,0,1,.89,5.32l.58,89.17-182-104.7-.08-86.4a7.24,7.24,0,0,1,10.86-6.28l162.07,93.54a17.11,17.11,0,0,1,7.65,9.35"/><path class="cls-8" d="M367.43,544.25c-3.34-2.78-7.79-.55-7.79-.55s-26.88,15.37-41.54,23.65l-9.11-12s36.73-21.7,38.25-22.51c1.82-.86,4.05-1.42,5.16-.31,4.46,3.9,9.77,8.63,15,11.69"/><path class="cls-9" d="M314.55,527s-24.63,9.53-24.49,9.46a19.46,19.46,0,0,1,8.21,9.75,17,17,0,0,1,.89,5.33l.26,40.37.66,48.63,20.6-12.24v-.1l49-28.57V549.25a6.6,6.6,0,0,0-9.89-5.71l-39.44,22.7-.17-30.08a12.24,12.24,0,0,0-.18-1.92,11.16,11.16,0,0,0-5.38-7.67L149.46,430.72a10.14,10.14,0,0,0-3.55-.57,10.45,10.45,0,0,0-4.46,1.11l-19.11,11.57a7.34,7.34,0,0,1,1.19-.35l.2,0a7.14,7.14,0,0,1,4.82.87l17.59,10.15C164.44,464,196,482.12,236,505.18v.17l54.6,31.51m7.79,9.62c7.8-2.23,15-5,21.71-9.46-6.68,4.45-13.91,7.23-21.71,9.46"/><polygon class="cls-8" points="291.74 537.57 128.65 442.95 150.52 431 314.61 526.57 291.74 537.57"/><polygon class="cls-11" points="382.86 165.24 417.36 185.16 331.1 234.98 296.59 215.05 382.86 165.24"/><polygon class="cls-12" points="417.36 185.16 331.1 234.98 331.1 334.6 417.36 284.79 417.36 185.16"/><polygon class="cls-13" points="296.59 215.05 296.59 314.67 331.1 334.6 331.1 234.98 296.59 215.05"/><polygon class="cls-14" points="413.62 193.6 381.12 212.6 381.12 252.45 413.62 233.45 413.62 193.6"/><polygon class="cls-14" points="374.78 215.49 339.17 236.11 339.17 275.96 374.78 255.34 374.78 215.49"/><polygon class="cls-14" points="374.78 261.07 339.17 281.69 339.17 321.54 374.78 300.92 374.78 261.07"/><polygon class="cls-14" points="413.62 239.76 381.12 258.53 381.12 298.38 413.62 279.61 413.62 239.76"/><polygon class="cls-15" points="413.62 233.45 381.12 212.6 381.12 252.45 413.62 233.45"/><polygon class="cls-15" points="374.78 255.34 339.17 236.11 339.17 275.96 374.78 255.34"/><polygon class="cls-15" points="374.78 300.91 339.17 281.68 339.17 321.53 374.78 300.91"/><polygon class="cls-15" points="413.62 279.66 381.12 258.81 381.12 298.66 413.62 279.66"/><polygon class="cls-13" points="413.62 193.6 410.53 195.41 410.53 231.46 413.62 233.45 413.62 193.6"/><polygon class="cls-13" points="413.62 239.96 410.53 241.77 410.53 277.82 413.62 279.81 413.62 239.96"/><polygon class="cls-13" points="374.78 215.49 371.28 217.52 371.28 253.45 374.78 255.34 374.78 215.49"/><polygon class="cls-13" points="374.78 261.07 371.28 263.1 371.28 299.03 374.78 300.92 374.78 261.07"/><polygon class="cls-13" points="410.53 231.46 413.62 233.45 381.12 252.45 381.12 248.55 410.53 231.46"/><polygon class="cls-13" points="410.53 277.67 413.62 279.66 381.12 298.66 381.12 294.76 410.53 277.67"/><polygon class="cls-13" points="371.28 253.45 374.78 255.34 339.17 275.96 339.17 271.72 371.28 253.45"/><polygon class="cls-13" points="371.28 298.95 374.78 300.84 339.17 321.46 339.17 317.22 371.28 298.95"/><g class="cls-16"><g class="cls-17"><polygon class="cls-18" points="413.62 193.69 381.12 212.69 381.12 252.54 413.62 233.54 413.62 193.69"/></g></g><g class="cls-16"><g class="cls-19"><polygon class="cls-18" points="413.62 239.74 381.12 258.74 381.12 298.59 413.62 279.59 413.62 239.74"/></g></g><g class="cls-16"><g class="cls-20"><polygon class="cls-18" points="374.78 215.6 339.17 236.04 339.17 275.89 374.78 255.45 374.78 215.6"/></g></g><g class="cls-16"><g class="cls-21"><polygon class="cls-18" points="374.78 261.25 339.17 281.69 339.17 321.53 374.78 301.1 374.78 261.25"/></g></g><polyline class="cls-22" points="312.07 200.1 312.07 216.61 329.23 226.52 346.39 216.61 346.39 200.1"/><polyline class="cls-23" points="346.39 200.1 329.23 210.01 312.07 200.1 329.23 190.19"/><polygon class="cls-24" points="329.23 193.5 317.79 200.1 329.23 206.71 340.67 200.1 329.23 193.5"/><polygon class="cls-25" points="329.23 195.15 319.22 200.93 317.79 200.1 329.23 193.5 329.23 195.15"/><polygon class="cls-22" points="329.23 195.15 339.24 200.92 340.67 200.1 329.23 193.5 329.23 195.15"/><polygon class="cls-25" points="329.23 210.01 329.23 226.52 346.39 216.61 346.39 200.1 329.23 210.01"/><path class="cls-26" d="M335.62,192.19l-2.8-.58a1.81,1.81,0,0,0-1.93.93L330.3,194a.81.81,0,0,0,.31,1l1.25.82a1.65,1.65,0,0,0,2-.41l2.06-2.43A.45.45,0,0,0,335.62,192.19Z"/><path class="cls-27" d="M325.52,190.56l.21,3.55a2.37,2.37,0,0,0,1.71,2.08l1.85.33a.93.93,0,0,0,1.13-.65l.56-1.74a2.13,2.13,0,0,0-1.11-2.26L326.36,190A.53.53,0,0,0,325.52,190.56Z"/><path class="cls-28" d="M331.9,188.88l-2.75,2.25a2.38,2.38,0,0,0-.69,2.61l.82,1.69a1,1,0,0,0,1.2.53l1.73-.56a2.14,2.14,0,0,0,1.18-2.23l-.58-3.92A.52.52,0,0,0,331.9,188.88Z"/><path class="cls-27" d="M335.85,200.31l-2.11-2.08a1.47,1.47,0,0,0-2.05,0l-1.16,1.22a1.17,1.17,0,0,0-.22,1.29l.68,1.52a1.36,1.36,0,0,0,1.85.58l2.87-1.56A.6.6,0,0,0,335.85,200.31Z"/><path class="cls-29" d="M330,204.06l.74-2.59a1.13,1.13,0,0,0-1-1.45l-1.59-.16a1.3,1.3,0,0,0-1.19.53l-1,1.29a1.05,1.05,0,0,0,.41,1.61l2.68,1.19A.66.66,0,0,0,330,204.06Z"/><path class="cls-27" d="M333.73,196.42l-.57-2.91a1.47,1.47,0,0,0-1.7-1.15l-1.64.36a1.15,1.15,0,0,0-.91.93l-.29,1.65a1.36,1.36,0,0,0,1.2,1.52l3.24.33A.61.61,0,0,0,333.73,196.42Z"/><path class="cls-30" d="M331.4,194l-3.29,1.35a2.38,2.38,0,0,0-1.42,2.29l.3,1.87a.94.94,0,0,0,1,.85l1.82,0a2.12,2.12,0,0,0,1.78-1.78l.6-3.92C332.24,194.1,331.88,193.8,331.4,194Z"/><path class="cls-27" d="M322.29,201.41l3.27.59a2.37,2.37,0,0,0,2.33-1l.78-1.56a.79.79,0,0,0-.3-1.12l-1.42-.87a2.13,2.13,0,0,0-2.34.48L322,200.57C321.69,200.92,321.81,201.33,322.29,201.41Z"/><path class="cls-31" d="M322,198.05l1.43-2.59a1.49,1.49,0,0,1,2-.58l1.45.85a1.18,1.18,0,0,1,.58,1.17l-.23,1.66a1.34,1.34,0,0,1-1.61,1.07l-3.19-.68A.6.6,0,0,1,322,198.05Z"/><path class="cls-28" d="M336.61,195.64l-2.8-.58a1.82,1.82,0,0,0-1.93.93l-.58,1.42a.81.81,0,0,0,.3,1l1.25.81a1.63,1.63,0,0,0,2-.41l2.06-2.43A.45.45,0,0,0,336.61,195.64Z"/><path class="cls-28" d="M323.91,193.05l1.35,2.37a1.56,1.56,0,0,0,1.87.66l1.36-.63a.89.89,0,0,0,.54-1l-.21-1.47a1.42,1.42,0,0,0-1.53-1.06l-3,.35A.48.48,0,0,0,323.91,193.05Z"/><polygon class="cls-32" points="42.82 384.46 52.18 389.77 52.18 395.29 42.82 389.88 42.82 384.46"/><polygon class="cls-33" points="194.52 189.51 47.05 275.06 47.05 386.99 194.52 301.31 194.52 189.51"/><polygon class="cls-34" points="122.1 235.07 51.94 275.61 51.94 382.99 122.1 342.51 122.1 235.07"/><polygon class="cls-32" points="114.19 344.15 117.2 345.98 51.94 383.37 51.94 379.69 114.19 344.15"/><polygon class="cls-34" points="189.82 196.05 121.28 235.82 121.28 343.2 189.82 303.49 189.82 196.05"/><polygon class="cls-18" points="194.39 301.27 46.5 386.52 52.13 389.77 199.35 304.14 194.39 301.27"/><polygon class="cls-33" points="199.4 304.01 52.3 389.7 52.18 395.29 199.32 308.51 199.4 304.01"/><polygon class="cls-33" points="121.28 235.82 117.2 238.53 117.2 345.98 121.28 343.2 121.28 235.82"/><polygon class="cls-32" points="117.2 238.53 114.19 240.27 114.19 344.15 117.2 345.98 117.2 238.53"/><polygon class="cls-32" points="189.82 196.2 186.81 197.94 186.81 301.81 189.82 303.64 189.82 196.2"/><polygon class="cls-32" points="186.81 301.81 121.28 340.23 121.28 343.2 189.82 303.64 186.81 301.81"/><g class="cls-35"><g class="cls-36"><polygon class="cls-18" points="77.78 261.35 51.95 276.28 51.95 383.67 77.78 368.44 77.78 261.35"/></g></g><g class="cls-35"><g class="cls-37"><polygon class="cls-38" points="54.75 274.66 58.94 272.24 58.94 379.28 54.75 381.69 54.75 274.66"/></g></g><g class="cls-35"><g class="cls-39"><polygon class="cls-38" points="62.77 270.04 66.95 267.63 66.95 374.66 62.77 377.07 62.77 270.04"/></g></g><g class="cls-35"><g class="cls-40"><polygon class="cls-38" points="70.3 265.67 74.48 263.25 74.48 370.29 70.3 372.69 70.3 265.67"/></g></g><g class="cls-35"><g class="cls-41"><polygon class="cls-18" points="186.81 197.85 160.98 212.78 160.98 320.17 186.81 304.95 186.81 197.85"/></g></g><g class="cls-35"><g class="cls-42"><polygon class="cls-38" points="163.78 211.16 167.97 208.74 167.97 315.78 163.78 318.19 163.78 211.16"/></g></g><g class="cls-35"><g class="cls-43"><polygon class="cls-38" points="171.8 206.54 175.99 204.13 175.99 311.16 171.8 313.57 171.8 206.54"/></g></g><g class="cls-35"><g class="cls-44"><polygon class="cls-38" points="179.33 202.17 183.51 199.75 183.51 306.79 179.33 309.19 179.33 202.17"/></g></g><polygon class="cls-45" points="191.73 183.53 36.65 273.07 42.27 276.32 197.75 187 191.73 183.53"/><polygon class="cls-46" points="197.75 187 42.27 276.32 42.3 283 197.78 193.06 197.75 187"/><polygon class="cls-32" points="47.27 280.09 43.03 282.48 42.82 384.46 47.05 386.99 47.27 280.09"/><polygon class="cls-11" points="442.56 540.08 483.98 564 380.42 623.8 339 599.88 442.56 540.08"/><polygon class="cls-12" points="483.89 564.06 380.44 623.79 380.33 689.05 483.89 629.25 483.89 564.06"/><polygon class="cls-13" points="338.9 599.81 338.9 665.13 380.33 689.05 380.44 623.79 338.9 599.81"/><polygon class="cls-14" points="432.77 600.78 390.02 625.53 390.02 673.37 432.77 648.62 432.77 600.78"/><polygon class="cls-14" points="479.4 575.21 440.37 597.74 440.37 645.57 479.4 623.04 479.4 575.21"/><polygon class="cls-15" points="432.77 648.61 390.02 625.53 390.02 673.36 432.77 648.61"/><polygon class="cls-15" points="479.4 623.1 440.37 598.07 440.37 645.91 479.4 623.1"/><polygon class="cls-12" points="479.4 575.44 475.68 577.61 475.68 620.89 479.4 623.27 479.4 575.44"/><polygon class="cls-12" points="432.77 600.78 428.57 603.22 428.57 646.35 432.77 648.62 432.77 600.78"/><polygon class="cls-12" points="475.68 620.72 479.4 623.1 440.37 645.91 440.37 641.23 475.68 620.72"/><polygon class="cls-12" points="428.57 646.26 432.77 648.52 390.02 673.28 390.02 668.18 428.57 646.26"/><g class="cls-16"><g class="cls-47"><polygon class="cls-18" points="479.4 574.7 440.37 597.51 440.37 645.34 479.4 622.54 479.4 574.7"/></g></g><g class="cls-16"><g class="cls-48"><polygon class="cls-18" points="432.77 600.53 390.02 625.06 390.02 672.89 432.77 648.36 432.77 600.53"/></g></g><polyline class="cls-22" points="420.3 542.12 420.3 565.48 444.57 579.49 468.85 565.48 468.85 542.12"/><polyline class="cls-23" points="468.85 542.12 444.57 556.14 420.3 542.12 444.57 528.11"/><polygon class="cls-24" points="444.57 532.78 428.39 542.12 444.57 551.47 460.75 542.12 444.57 532.78"/><polygon class="cls-25" points="444.57 535.12 430.42 543.29 428.39 542.12 444.57 532.78 444.57 535.12"/><polygon class="cls-22" points="444.57 535.12 458.74 543.29 460.75 542.12 444.57 532.78 444.57 535.12"/><polygon class="cls-25" points="444.57 556.14 444.57 579.49 468.85 565.48 468.85 542.12 444.57 556.14"/><path class="cls-26" d="M453.61,530.93l-4-.82a2.57,2.57,0,0,0-2.72,1.31l-.83,2a1.14,1.14,0,0,0,.43,1.47l1.77,1.15a2.32,2.32,0,0,0,2.78-.58L454,532A.63.63,0,0,0,453.61,530.93Z"/><path class="cls-27" d="M439.33,528.62l.29,5a3.35,3.35,0,0,0,2.42,2.94l2.62.47a1.34,1.34,0,0,0,1.6-.92l.79-2.46a3,3,0,0,0-1.57-3.2l-5-2.6C439.85,527.54,439.28,527.89,439.33,528.62Z"/><path class="cls-28" d="M448.35,526.25l-3.9,3.19a3.35,3.35,0,0,0-1,3.68l1.16,2.4a1.33,1.33,0,0,0,1.68.75l2.46-.8a3,3,0,0,0,1.67-3.15l-.82-5.55A.74.74,0,0,0,448.35,526.25Z"/><path class="cls-27" d="M453.94,542.43l-3-2.95a2.09,2.09,0,0,0-2.91,0l-1.64,1.73a1.64,1.64,0,0,0-.31,1.82l1,2.16a1.92,1.92,0,0,0,2.62.81l4-2.2A.85.85,0,0,0,453.94,542.43Z"/><path class="cls-29" d="M445.65,547.72l1.05-3.66a1.6,1.6,0,0,0-1.41-2l-2.24-.23a1.87,1.87,0,0,0-1.69.75L440,544.36a1.48,1.48,0,0,0,.58,2.27l3.8,1.68A.94.94,0,0,0,445.65,547.72Z"/><path class="cls-27" d="M450.94,536.91l-.8-4.11a2.1,2.1,0,0,0-2.41-1.63l-2.32.51a1.64,1.64,0,0,0-1.29,1.32l-.42,2.33a1.92,1.92,0,0,0,1.71,2.15l4.58.46A.85.85,0,0,0,450.94,536.91Z"/><path class="cls-30" d="M447.64,533.49,443,535.41a3.34,3.34,0,0,0-2,3.24l.41,2.63a1.33,1.33,0,0,0,1.39,1.21l2.58,0a3,3,0,0,0,2.52-2.53l.83-5.54C448.84,533.63,448.32,533.21,447.64,533.49Z"/><path class="cls-27" d="M434.76,544l4.63.83a3.33,3.33,0,0,0,3.29-1.48l1.1-2.19a1.15,1.15,0,0,0-.42-1.6l-2-1.22A3,3,0,0,0,438,539l-3.64,3.78C433.91,543.29,434.08,543.86,434.76,544Z"/><path class="cls-31" d="M434.35,539.22l2-3.66a2.1,2.1,0,0,1,2.8-.82l2.05,1.2a1.66,1.66,0,0,1,.82,1.66l-.32,2.34a1.92,1.92,0,0,1-2.29,1.52l-4.5-1A.84.84,0,0,1,434.35,539.22Z"/><path class="cls-28" d="M455,535.81l-4-.82a2.55,2.55,0,0,0-2.72,1.32l-.84,2a1.14,1.14,0,0,0,.44,1.47l1.77,1.16a2.33,2.33,0,0,0,2.77-.59l2.91-3.43A.64.64,0,0,0,455,535.81Z"/><path class="cls-28" d="M437,532.15,439,535.5a2.18,2.18,0,0,0,2.64.93l1.93-.88a1.27,1.27,0,0,0,.76-1.38l-.3-2.07a2,2,0,0,0-2.16-1.5l-4.24.49A.68.68,0,0,0,437,532.15Z"/><g class="cls-5"><polygon class="cls-49" points="475.78 164.23 483.35 159.84 500.69 169.85 493.12 174.25 475.78 164.23"/><polygon class="cls-50" points="493.12 174.25 500.69 169.85 500.66 179.76 493.1 184.15 493.12 174.25"/><polygon class="cls-51" points="475.89 124.57 475.78 164.23 493.12 174.25 493.1 184.15 467.08 169.13 467.23 119.57 475.89 124.57"/><polygon class="cls-50" points="475.89 124.57 483.46 120.18 483.35 159.84 475.78 164.23 475.89 124.57"/><polygon class="cls-49" points="467.23 119.57 474.79 115.17 483.46 120.18 475.89 124.57 467.23 119.57"/></g><g class="cls-5"><g class="cls-5"><g class="cls-52"><g class="cls-5"><path class="cls-53" d="M513.06,159.74l7.57-4.39a6.74,6.74,0,0,0-1.64,1.34l-7.56,4.39a6.7,6.7,0,0,1,1.63-1.34"/><path class="cls-54" d="M511.43,161.08l7.56-4.39a7.85,7.85,0,0,0-1.22,1.84l-7.57,4.4a8.51,8.51,0,0,1,1.23-1.85"/><path class="cls-55" d="M510.2,162.93l7.57-4.4a10.1,10.1,0,0,0-.71,1.94l-7.56,4.39a10.43,10.43,0,0,1,.7-1.93"/><path class="cls-56" d="M509.5,164.86l7.56-4.39a13.88,13.88,0,0,0-.37,2.16L509.13,167a12.79,12.79,0,0,1,.37-2.16"/><path class="cls-49" d="M509.13,167l7.56-4.39a14.91,14.91,0,0,0-.07,1.52q0,.53,0,1.08l-7.57,4.39c0-.36,0-.72,0-1.08a15,15,0,0,1,.07-1.52"/><path class="cls-57" d="M509.08,169.62l7.57-4.39a22.37,22.37,0,0,0,.49,3.56l-7.56,4.39a23.45,23.45,0,0,1-.5-3.56"/><path class="cls-58" d="M509.58,173.18l7.56-4.39a31.33,31.33,0,0,0,4.32,10.15l-7.56,4.39a31.24,31.24,0,0,1-4.32-10.15"/><path class="cls-57" d="M513.9,183.33l7.56-4.39a33.31,33.31,0,0,0,2.42,3.27l-7.56,4.4a33,33,0,0,1-2.42-3.28"/><path class="cls-49" d="M516.32,186.61l7.56-4.4a29,29,0,0,0,2.07,2.21l-7.56,4.39a27.12,27.12,0,0,1-2.07-2.2"/><path class="cls-56" d="M518.39,188.81l7.56-4.39a24.87,24.87,0,0,0,2,1.73l-7.56,4.4a23.16,23.16,0,0,1-2-1.74"/><path class="cls-55" d="M520.4,190.55l7.56-4.4a20.89,20.89,0,0,0,2.15,1.46L522.54,192a20.66,20.66,0,0,1-2.14-1.45"/><path class="cls-54" d="M522.54,192l7.57-4.39.11.06-7.56,4.4-.12-.07"/></g></g></g><g class="cls-5"><g class="cls-59"><g class="cls-5"><path class="cls-54" d="M522.66,192.07l7.56-4.4a15.09,15.09,0,0,0,2.42,1.15l-7.57,4.4a16.38,16.38,0,0,1-2.41-1.15"/><path class="cls-53" d="M525.07,193.22l7.57-4.4c2.84,1.06,5.39.94,7.35-.2l-7.56,4.4c-2,1.13-4.51,1.26-7.36.2"/></g></g></g><g class="cls-5"><g class="cls-60"><g class="cls-5"><path class="cls-53" d="M506.89,149.12l7.56-4.4c3.2-1.86,7.36-2.06,12-.34l-7.57,4.4c-4.63-1.73-8.79-1.52-12,.34"/><path class="cls-54" d="M518.88,148.78l7.57-4.4a25.6,25.6,0,0,1,3.91,1.87l-7.56,4.39a25.17,25.17,0,0,0-3.92-1.86"/></g></g></g><path class="cls-51" d="M522.8,150.64c12.33,7.12,22.42,24.58,22.38,38.82s-10.19,19.83-22.55,12.7-22.37-24.5-22.33-38.61S510.46,143.52,522.8,150.64Zm-.14,41.43c7.54,4.35,13.72.87,13.74-7.74s-6.11-19.3-13.65-23.65-13.67-.81-13.69,7.86,6.08,19.19,13.6,23.53"/><g class="cls-5"><g class="cls-61"><g class="cls-5"><path class="cls-54" d="M522.8,150.64l7.56-4.39.18.1-7.56,4.4-.18-.11"/><path class="cls-55" d="M523,150.75l7.56-4.4a32.85,32.85,0,0,1,3.51,2.38l-7.56,4.39a32.75,32.75,0,0,0-3.51-2.37"/><path class="cls-56" d="M526.49,153.12l7.56-4.39a41.37,41.37,0,0,1,3.3,2.84l-7.56,4.4a39.56,39.56,0,0,0-3.3-2.85"/><path class="cls-49" d="M529.79,156l7.56-4.4a48.77,48.77,0,0,1,3.39,3.62l-7.56,4.4a48.9,48.9,0,0,0-3.39-3.62"/><path class="cls-57" d="M533.18,159.59l7.56-4.4a52.41,52.41,0,0,1,4,5.41L537.17,165a52.66,52.66,0,0,0-4-5.4"/><path class="cls-58" d="M537.17,165l7.56-4.39a52,52,0,0,1,7.15,16.78l-7.56,4.39A52,52,0,0,0,537.17,165"/><path class="cls-57" d="M544.32,181.77l7.56-4.39a38.37,38.37,0,0,1,.82,5.9l-7.57,4.39a37.3,37.3,0,0,0-.81-5.9"/><path class="cls-49" d="M545.13,187.67l7.57-4.39c0,.6,0,1.19,0,1.78,0,.85,0,1.66-.11,2.44l-7.56,4.39c.07-.78.11-1.59.11-2.43,0-.59,0-1.19,0-1.79"/><path class="cls-56" d="M545.07,191.89l7.56-4.39A22.5,22.5,0,0,1,552,191l-7.56,4.39a22.5,22.5,0,0,0,.6-3.48"/><path class="cls-55" d="M544.47,195.37,552,191a16.74,16.74,0,0,1-1.14,3.13l-7.56,4.39a16.49,16.49,0,0,0,1.14-3.13"/><path class="cls-54" d="M543.33,198.5l7.56-4.39a13.14,13.14,0,0,1-2,3l-7.56,4.39a13.25,13.25,0,0,0,2-3"/><path class="cls-53" d="M541.33,201.51l7.56-4.39a11.19,11.19,0,0,1-2.68,2.19l-7.56,4.39a10.74,10.74,0,0,0,2.68-2.19"/></g></g></g></g><g class="cls-5"><g class="cls-5"><g class="cls-62"><g class="cls-5"><path class="cls-53" d="M567.23,191.11l7.56-4.4a6.79,6.79,0,0,0-1.65,1.35l-7.56,4.39a7,7,0,0,1,1.65-1.34"/><path class="cls-54" d="M565.58,192.45l7.56-4.39a8.24,8.24,0,0,0-1.21,1.82l-7.56,4.4a8.08,8.08,0,0,1,1.21-1.83"/><path class="cls-55" d="M564.37,194.28l7.56-4.4a10.21,10.21,0,0,0-.69,1.91l-7.56,4.39a10.11,10.11,0,0,1,.69-1.9"/><path class="cls-56" d="M563.68,196.18l7.56-4.39a13.54,13.54,0,0,0-.37,2.15l-7.56,4.4a13.67,13.67,0,0,1,.37-2.16"/><path class="cls-49" d="M563.31,198.34l7.56-4.4a15.37,15.37,0,0,0-.07,1.55c0,.37,0,.75,0,1.13L563.27,201c0-.38,0-.76,0-1.13a15.17,15.17,0,0,1,.07-1.54"/><path class="cls-57" d="M563.27,201l7.56-4.39a22.24,22.24,0,0,0,.5,3.64l-7.56,4.39a22.24,22.24,0,0,1-.5-3.64"/><path class="cls-58" d="M563.77,204.65l7.56-4.39a30.22,30.22,0,0,0,4.2,9.88L568,214.53a30.41,30.41,0,0,1-4.19-9.88"/><path class="cls-57" d="M568,214.53l7.57-4.39a31,31,0,0,0,2.38,3.21l-7.57,4.4a32.62,32.62,0,0,1-2.38-3.22"/><path class="cls-49" d="M570.34,217.75l7.57-4.4a31.41,31.41,0,0,0,2.15,2.31l-7.56,4.39a31.26,31.26,0,0,1-2.16-2.3"/><path class="cls-56" d="M572.5,220.05l7.56-4.39c.72.68,1.47,1.33,2.24,1.93L574.74,222a28.92,28.92,0,0,1-2.24-1.93"/><path class="cls-55" d="M574.74,222l7.56-4.39a26.87,26.87,0,0,0,2.57,1.73l-7.56,4.4a24.17,24.17,0,0,1-2.57-1.74"/><path class="cls-54" d="M577.31,223.72l7.56-4.4.14.08a20,20,0,0,0,2.82,1.36l-7.56,4.39a18.79,18.79,0,0,1-2.82-1.35l-.14-.08"/><path class="cls-53" d="M580.27,225.15l7.56-4.39c2.36.88,4.35.91,5.76.09l-7.57,4.4c-1.41.82-3.39.78-5.75-.1"/></g></g></g><g class="cls-5"><g class="cls-63"><g class="cls-5"><path class="cls-53" d="M561,180.35l7.56-4.39c3.2-1.86,7.35-2.07,12-.35L573,180c-4.63-1.73-8.78-1.52-12,.34"/><path class="cls-54" d="M573,180l7.56-4.4a25.43,25.43,0,0,1,3.9,1.86l-7.56,4.39A25.34,25.34,0,0,0,573,180"/></g></g></g><polygon class="cls-49" points="577.21 204.84 584.77 200.45 605.05 212.16 597.49 216.55 577.21 204.84"/><g class="cls-5"><g class="cls-64"><g class="cls-5"><path class="cls-57" d="M597.49,216.55l7.56-4.39c.06.68.11,1.35.15,2l-7.57,4.39c0-.65-.08-1.31-.14-2"/><path class="cls-49" d="M597.63,218.55l7.57-4.39c0,.79.06,1.56.06,2.3,0,1.07,0,2.09-.14,3l-7.56,4.4c.09-1,.14-2,.14-3,0-.74,0-1.51-.07-2.31"/><path class="cls-56" d="M597.56,223.9l7.56-4.4a23.67,23.67,0,0,1-.66,3.89l-7.56,4.4a23.85,23.85,0,0,0,.66-3.89"/><path class="cls-55" d="M596.9,227.79l7.56-4.4a16,16,0,0,1-1.12,3.09l-7.56,4.4a16.69,16.69,0,0,0,1.12-3.09"/><path class="cls-54" d="M595.78,230.88l7.56-4.4a11.14,11.14,0,0,1-1.77,2.68L594,233.55a11.58,11.58,0,0,0,1.77-2.67"/><path class="cls-53" d="M594,233.55l7.56-4.39a9,9,0,0,1-2.24,1.83l-7.56,4.4a9.27,9.27,0,0,0,2.24-1.84"/></g></g></g><path class="cls-51" d="M576.88,181.86c5.58,3.29,11.55,9.68,15.76,16.86l-4.84,5.49c-3.36-5.72-7.21-10.11-11.06-12.33-6.69-3.86-13.48-1.25-13.5,8,0,8.62,5.78,19.05,14.21,23.92,6.15,3.55,10.58,2.47,10.89-3.32L577.18,214l0-9.19,20.28,11.71c.13,1.52.21,3,.21,4.31-.05,15.56-9.41,19.23-20.65,12.75-12.71-7.34-22.68-24.68-22.64-38.83S564.54,174.74,576.88,181.86Z"/><g class="cls-5"><g class="cls-65"><g class="cls-5"><path class="cls-55" d="M576.88,181.86l7.56-4.39a29.69,29.69,0,0,1,3.12,2.12L580,184a29.83,29.83,0,0,0-3.12-2.13"/><path class="cls-56" d="M580,184l7.56-4.4a40.11,40.11,0,0,1,3.36,2.91l-7.56,4.39A39.94,39.94,0,0,0,580,184"/><path class="cls-49" d="M583.36,186.89l7.56-4.39a50.45,50.45,0,0,1,3.71,4l-7.56,4.39a52.28,52.28,0,0,0-3.71-4"/><path class="cls-57" d="M587.07,190.85l7.56-4.39a58.21,58.21,0,0,1,4.29,5.79l-7.56,4.4a58.35,58.35,0,0,0-4.29-5.8"/><path class="cls-58" d="M591.36,196.65l7.56-4.4c.44.68.87,1.38,1.28,2.08l-7.56,4.39c-.41-.7-.84-1.39-1.28-2.07"/></g></g></g><polygon class="cls-54" points="592.64 198.72 600.2 194.33 595.36 199.81 587.8 204.21 592.64 198.72"/></g><g class="cls-5"><g class="cls-5"><g class="cls-66"><g class="cls-5"><path class="cls-53" d="M619.68,221.3l7.56-4.39a6.89,6.89,0,0,0-1.63,1.33l-7.56,4.4a6.7,6.7,0,0,1,1.63-1.34"/><path class="cls-54" d="M618.05,222.64l7.56-4.4a8.16,8.16,0,0,0-1.23,1.85l-7.56,4.4a7.84,7.84,0,0,1,1.23-1.85"/><path class="cls-55" d="M616.82,224.49l7.56-4.4a10.54,10.54,0,0,0-.7,1.94l-7.56,4.39a10.43,10.43,0,0,1,.7-1.93"/><path class="cls-56" d="M616.12,226.42l7.56-4.39a12.79,12.79,0,0,0-.37,2.16l-7.56,4.39a12.79,12.79,0,0,1,.37-2.16"/><path class="cls-49" d="M615.75,228.58l7.56-4.39a14.71,14.71,0,0,0-.07,1.51c0,.36,0,.72,0,1.08l-7.56,4.4q0-.56,0-1.08c0-.53,0-1,.08-1.52"/><path class="cls-57" d="M615.7,231.18l7.56-4.4a23.45,23.45,0,0,0,.5,3.56l-7.56,4.4a22.57,22.57,0,0,1-.5-3.56"/><path class="cls-58" d="M616.2,234.74l7.56-4.4a31.24,31.24,0,0,0,4.32,10.15l-7.56,4.4a31.33,31.33,0,0,1-4.32-10.15"/><path class="cls-57" d="M620.52,244.89l7.56-4.4a32.3,32.3,0,0,0,2.42,3.28l-7.56,4.4a33,33,0,0,1-2.42-3.28"/><path class="cls-49" d="M622.94,248.17l7.56-4.4a29,29,0,0,0,2.07,2.21L625,250.37a28.88,28.88,0,0,1-2.07-2.2"/><path class="cls-56" d="M625,250.37l7.56-4.39a24.87,24.87,0,0,0,2,1.73l-7.56,4.4q-1-.81-2-1.74"/><path class="cls-55" d="M627,252.11l7.56-4.4a19.19,19.19,0,0,0,2.14,1.45l-7.56,4.4a22.38,22.38,0,0,1-2.14-1.45"/><path class="cls-54" d="M629.16,253.56l7.56-4.4.12.07-7.57,4.39-.11-.06"/></g></g></g><g class="cls-5"><g class="cls-67"><g class="cls-5"><path class="cls-54" d="M629.27,253.62l7.57-4.39a16.38,16.38,0,0,0,2.41,1.15l-7.56,4.39a16,16,0,0,1-2.42-1.15"/><path class="cls-53" d="M631.69,254.77l7.56-4.39c2.85,1.06,5.4.94,7.35-.2L639,254.57c-1.95,1.14-4.5,1.26-7.35.2"/></g></g></g><g class="cls-5"><g class="cls-68"><g class="cls-5"><path class="cls-53" d="M613.51,210.68l7.56-4.4c3.21-1.86,7.36-2.06,12-.34l-7.56,4.4c-4.64-1.73-8.8-1.53-12,.34"/><path class="cls-54" d="M625.51,210.34l7.56-4.4A25.51,25.51,0,0,1,637,207.8l-7.56,4.4a25.51,25.51,0,0,0-3.91-1.86"/></g></g></g><path class="cls-51" d="M629.42,212.2c12.34,7.12,22.42,24.58,22.38,38.81s-10.19,19.84-22.55,12.7-22.36-24.49-22.32-38.6S617.09,205.08,629.42,212.2Zm-.15,41.42c7.55,4.36,13.73.87,13.75-7.73s-6.11-19.3-13.66-23.66-13.66-.8-13.69,7.87,6.09,19.18,13.6,23.52"/><g class="cls-5"><g class="cls-69"><g class="cls-5"><path class="cls-54" d="M629.42,212.2l7.56-4.4.19.11-7.56,4.4-.19-.11"/><path class="cls-55" d="M629.61,212.31l7.56-4.4a33.77,33.77,0,0,1,3.5,2.38l-7.56,4.39a32.16,32.16,0,0,0-3.5-2.37"/><path class="cls-56" d="M633.11,214.68l7.56-4.39a41.37,41.37,0,0,1,3.3,2.84l-7.56,4.39a41.37,41.37,0,0,0-3.3-2.84"/><path class="cls-49" d="M636.41,217.52l7.56-4.39a48.77,48.77,0,0,1,3.39,3.62l-7.56,4.39a48.77,48.77,0,0,0-3.39-3.62"/><path class="cls-57" d="M639.8,221.14l7.56-4.39a52.66,52.66,0,0,1,4,5.4l-7.56,4.4a55.5,55.5,0,0,0-4-5.41"/><path class="cls-58" d="M643.79,226.55l7.56-4.4a52,52,0,0,1,7.15,16.78l-7.57,4.4a51.63,51.63,0,0,0-7.14-16.78"/><path class="cls-57" d="M650.93,243.33l7.57-4.4a37.14,37.14,0,0,1,.81,5.9l-7.56,4.39a35.94,35.94,0,0,0-.82-5.89"/><path class="cls-49" d="M651.75,249.22l7.56-4.39c0,.6.05,1.2.05,1.79,0,.84,0,1.65-.11,2.44l-7.56,4.39c.07-.78.11-1.59.11-2.44,0-.59,0-1.18,0-1.79"/><path class="cls-56" d="M651.69,253.45l7.56-4.39a22.5,22.5,0,0,1-.6,3.48l-7.56,4.39a22.5,22.5,0,0,0,.6-3.48"/><path class="cls-55" d="M651.09,256.93l7.56-4.39a17.77,17.77,0,0,1-1.14,3.13L650,260.06a17.2,17.2,0,0,0,1.14-3.13"/><path class="cls-54" d="M650,260.06l7.56-4.39a13.48,13.48,0,0,1-2,3L648,263.07a13.25,13.25,0,0,0,2-3"/><path class="cls-53" d="M648,263.07l7.56-4.39a11.19,11.19,0,0,1-2.68,2.19l-7.56,4.39a11,11,0,0,0,2.68-2.19"/></g></g></g></g><polyline class="cls-70" points="535.2 364.44 535.2 391.13 532.99 392.41 532.99 365.71 535.2 364.44 532.99 365.71"/><polygon class="cls-71" points="532.99 365.71 530.79 364.44 530.79 391.09 532.99 392.41 532.99 365.71"/><polygon class="cls-72" points="576.83 343.77 578.74 342.45 580.36 343.39 581.98 342.45 576.83 343.77"/><polygon class="cls-73" points="552.58 307.23 550.37 308.5 552.58 309.77 554.79 308.5 552.58 307.23"/><polyline class="cls-70" points="554.79 308.5 554.79 378.44 552.58 379.71 552.58 309.77 554.79 308.5 552.58 309.77"/><polygon class="cls-71" points="552.58 309.77 550.37 308.5 550.37 378.39 552.58 379.71 552.58 309.77"/><polygon class="cls-74" points="583.29 334.09 581.03 335.44 581.1 358 582.86 356.63 583.29 334.09"/><polygon class="cls-73" points="552.56 318.76 554.82 317.41 583.29 334.09 581.03 335.44 552.56 318.76"/><polygon class="cls-71" points="552.56 318.76 581.03 335.44 581.1 358 552.5 341.43 552.56 318.76"/><polygon class="cls-73" points="581.07 321.1 578.87 322.38 581.07 323.65 583.29 322.38 581.07 321.1"/><polygon class="cls-70" points="583.28 367.46 559.26 381.12 559.44 384.17 583.15 370.6 583.28 367.46"/><polygon class="cls-73" points="530.79 364.44 554.81 350.78 583.29 367.46 559.26 381.12 530.79 364.44"/><polygon class="cls-71" points="530.79 364.44 559.26 381.12 559.44 384.17 530.73 367.54 530.79 364.44"/><polyline class="cls-70" points="583.29 322.38 583.29 392.32 581.07 393.59 581.07 323.65 583.29 322.38 581.07 323.65"/><polygon class="cls-71" points="581.07 323.65 578.87 322.38 578.87 392.27 581.07 393.59 581.07 323.65"/><polyline class="cls-70" points="561.47 379.99 561.47 406.69 559.26 407.96 559.26 381.26 561.47 379.99 559.26 381.26"/><polygon class="cls-71" points="559.26 381.26 557.05 379.99 557.05 406.64 559.26 407.96 559.26 381.26"/><polygon class="cls-75" points="539.85 359.92 484.98 328.23 539.86 296.56 539.85 359.92"/><polygon class="cls-10" points="411.83 328.23 411.82 391.6 613.01 507.75 613.02 444.39 411.83 328.23"/><polygon class="cls-9" points="649.59 486.63 613.01 507.75 613.02 444.39 649.6 423.27 649.59 486.63"/><polyline class="cls-11" points="655.67 423.27 613.02 447.84 405.8 328.24 503.28 272 545.76 296.56 490.98 328.23"/><polygon class="cls-12" points="655.67 423.27 613.02 447.84 613.01 453.02 655.67 428.55 655.67 423.27"/><polygon class="cls-13" points="405.8 328.24 613.01 447.84 613.02 453.02 405.8 334.14 405.8 328.24"/><polygon class="cls-12" points="545.72 296.56 490.98 328.23 495.35 330.74 545.72 301.84 545.72 296.56"/><polygon class="cls-76" points="411.86 363.74 613.03 479.86 613.05 485.04 411.85 369.61 411.86 363.74"/><polygon class="cls-77" points="649.62 458.79 613.06 479.86 613.05 485.04 649.62 464.06 649.62 458.79"/><path class="cls-78" d="M485.53,286.1c4,1.89.35,19.15.35,19.15l13-7.8c-5.32-3.67-6.86-14.54-6.86-14.54"/><path class="cls-79" d="M481.86,303l4,2.24s4-21-.94-18.68"/><polygon points="458.05 306.05 519.31 270.57 519.29 239.21 458.04 274.57 458.05 306.05"/><polygon class="cls-80" points="458.05 306.05 519.31 270.57 519.29 239.21 458.04 274.57 458.05 306.05"/><polygon class="cls-79" points="455.82 304.74 458.1 306.08 457.98 274.51 455.81 273.26 455.82 304.74"/><polygon class="cls-78" points="455.79 273.27 457.98 274.51 519.23 239.15 517.04 237.91 455.79 273.27"/><polygon class="cls-81" points="478.17 316.84 490.51 323.84 521.8 303.97 509.39 296.44 478.17 316.84"/><polygon class="cls-82" points="478.23 315.32 490.57 322.32 521.86 302.45 509.74 295.79 478.23 315.32"/><polygon class="cls-83" points="490.54 323.79 521.77 303.92 521.77 302.53 490.54 322.3 490.54 323.79"/><polygon class="cls-78" points="478.18 316.81 490.54 323.89 490.54 322.3 478.18 315.31 478.18 316.81"/><polygon points="480.46 315.31 489.96 320.94 519.85 302.59 510.09 297.18 480.46 315.31"/><path class="cls-84" d="M499.53,311.55l2,1.12s.11,0,.48.21l8-4.8c-.22-.28-.22-.43-.33-.49l-2-1.07a.15.15,0,0,0-.16,0l-8,4.75a.16.16,0,0,0,0,.28"/><path class="cls-84" d="M497.05,309.94l1.95,1.13a.15.15,0,0,0,.16,0l1.91-1.15a.16.16,0,0,0,0-.27l-2-1.08a.16.16,0,0,0-.15,0l-1.86,1.09a.16.16,0,0,0,0,.27"/><path class="cls-84" d="M494.19,308.36l1.95,1.13a.15.15,0,0,0,.16,0l1.9-1.15a.16.16,0,0,0,0-.27l-2-1.08a.18.18,0,0,0-.16,0l-1.85,1.09a.16.16,0,0,0,0,.27"/><path class="cls-84" d="M497,313.45l1.95,1.13a.18.18,0,0,0,.16,0l1.9-1.14a.16.16,0,0,0,0-.28l-2-1.07a.18.18,0,0,0-.16,0l-1.85,1.1a.16.16,0,0,0,0,.27"/><path class="cls-84" d="M494.05,311.77,496,312.9a.15.15,0,0,0,.16,0l1.9-1.15a.16.16,0,0,0,0-.27l-2-1.08a.16.16,0,0,0-.15,0l-1.85,1.09a.15.15,0,0,0,0,.27"/><path class="cls-84" d="M491.18,310.19l1.95,1.13a.15.15,0,0,0,.16,0l1.9-1.15a.16.16,0,0,0,0-.27l-2-1.08a.16.16,0,0,0-.15,0l-1.86,1.09a.16.16,0,0,0,0,.27"/><path class="cls-84" d="M494.13,315.23l1.95,1.12a.15.15,0,0,0,.16,0l1.9-1.14a.16.16,0,0,0,0-.28l-2-1.07a.14.14,0,0,0-.15,0l-1.86,1.1a.16.16,0,0,0,0,.27"/><path class="cls-84" d="M491.18,313.55l1.95,1.13a.15.15,0,0,0,.16,0l1.9-1.14a.16.16,0,0,0,0-.28l-2-1.07a.19.19,0,0,0-.15,0l-1.86,1.1a.16.16,0,0,0,0,.27"/><path class="cls-84" d="M488.32,312l1.95,1.13a.18.18,0,0,0,.16,0l1.9-1.14a.16.16,0,0,0,0-.28l-2-1.07a.16.16,0,0,0-.15,0l-1.85,1.1a.15.15,0,0,0,0,.27"/><path class="cls-84" d="M491.27,317l2,1.12a.15.15,0,0,0,.16,0l1.9-1.15a.16.16,0,0,0,0-.27l-2-1.07a.15.15,0,0,0-.16,0l-1.85,1.09a.16.16,0,0,0,0,.28"/><path class="cls-84" d="M488.32,315.33l1.95,1.12a.15.15,0,0,0,.16,0l1.9-1.14a.16.16,0,0,0,0-.28l-2-1.07a.16.16,0,0,0-.15,0l-1.85,1.1a.15.15,0,0,0,0,.27"/><path class="cls-84" d="M485.45,313.75l1.95,1.12a.15.15,0,0,0,.16,0l1.9-1.14a.16.16,0,0,0,0-.28l-2-1.07a.15.15,0,0,0-.16,0l-1.85,1.1a.16.16,0,0,0,0,.27"/><path class="cls-84" d="M488.21,318.78l2,1.13a.15.15,0,0,0,.16,0l1.9-1.15a.16.16,0,0,0,0-.27l-2-1.07a.14.14,0,0,0-.15,0l-1.85,1.09a.15.15,0,0,0,0,.27"/><path class="cls-84" d="M485.25,317.11l1.95,1.12a.15.15,0,0,0,.16,0l1.9-1.15a.15.15,0,0,0,0-.27l-2-1.07a.14.14,0,0,0-.15,0l-1.86,1.1a.16.16,0,0,0,0,.27"/><path class="cls-84" d="M482.39,315.53l1.95,1.12a.15.15,0,0,0,.16,0l1.9-1.15a.16.16,0,0,0,0-.27l-2-1.07a.15.15,0,0,0-.16,0l-1.85,1.1a.15.15,0,0,0,0,.27"/><path class="cls-84" d="M514.6,302.7l1.95,1.12a.15.15,0,0,0,.16,0l1.91-1.15a.16.16,0,0,0,0-.27l-2-1.07a.14.14,0,0,0-.15,0l-1.86,1.1a.16.16,0,0,0,0,.27"/><path class="cls-84" d="M511.65,301l2,1.13a.18.18,0,0,0,.16,0l1.9-1.14a.16.16,0,0,0,0-.28l-2-1.07a.16.16,0,0,0-.15,0l-1.86,1.1a.16.16,0,0,0,0,.27"/><path class="cls-84" d="M508.79,299.44l1.95,1.12a.15.15,0,0,0,.16,0l1.9-1.14a.16.16,0,0,0,0-.28l-2-1.07a.16.16,0,0,0-.15,0l-1.85,1.1a.15.15,0,0,0,0,.27"/><path class="cls-84" d="M511.6,304.53l1.95,1.12a.15.15,0,0,0,.16,0l1.9-1.15a.16.16,0,0,0,0-.27l-2-1.07a.14.14,0,0,0-.15,0l-1.85,1.09a.16.16,0,0,0,0,.28"/><path class="cls-84" d="M508.65,302.85l1.94,1.12a.15.15,0,0,0,.16,0l1.91-1.14a.16.16,0,0,0,0-.28l-2-1.07a.14.14,0,0,0-.15,0l-1.86,1.1a.16.16,0,0,0,0,.27"/><path class="cls-84" d="M505.78,301.27l2,1.12a.15.15,0,0,0,.16,0l1.9-1.15a.16.16,0,0,0,0-.27l-2-1.07a.15.15,0,0,0-.16,0l-1.85,1.1a.16.16,0,0,0,0,.27"/><path class="cls-84" d="M508.73,306.3l1.95,1.13a.15.15,0,0,0,.16,0l1.9-1.15a.16.16,0,0,0,0-.27l-2-1.07a.14.14,0,0,0-.15,0L508.73,306a.16.16,0,0,0,0,.27"/><path class="cls-84" d="M505.78,304.63l2,1.12a.15.15,0,0,0,.16,0l1.9-1.15a.16.16,0,0,0,0-.27l-2-1.07a.15.15,0,0,0-.16,0l-1.85,1.1a.16.16,0,0,0,0,.27"/><path class="cls-84" d="M502.91,303.05l1.95,1.12a.15.15,0,0,0,.16,0l1.91-1.15a.16.16,0,0,0,0-.27l-2-1.07a.14.14,0,0,0-.15,0l-1.86,1.09a.17.17,0,0,0,0,.28"/><path class="cls-84" d="M502.91,306.41l1.95,1.12a.15.15,0,0,0,.16,0l1.91-1.15a.16.16,0,0,0,0-.27l-2-1.07a.14.14,0,0,0-.15,0l-1.86,1.09a.17.17,0,0,0,0,.28"/><path class="cls-84" d="M500.05,304.82,502,306a.15.15,0,0,0,.16,0l1.9-1.15a.16.16,0,0,0,0-.27l-2-1.07a.15.15,0,0,0-.16,0l-1.85,1.09a.16.16,0,0,0,0,.27"/><path class="cls-84" d="M499.85,308.18l1.95,1.13a.15.15,0,0,0,.16,0l1.9-1.15a.16.16,0,0,0,0-.27l-2-1.08a.18.18,0,0,0-.16,0l-1.85,1.09a.16.16,0,0,0,0,.27"/><path class="cls-84" d="M497,306.6l1.95,1.13a.15.15,0,0,0,.16,0l1.9-1.15a.16.16,0,0,0,0-.27l-2-1.08a.16.16,0,0,0-.15,0L497,306.33a.15.15,0,0,0,0,.27"/><path class="cls-85" d="M559,377.89s.29-.32,1.35-.32c2.09,0,4,2.47-2.28,8l.34-1.88s4.27-4.08,2-4.74a1.5,1.5,0,0,0-1.08.23l-.45.28"/><ellipse class="cls-86" cx="553.21" cy="389.15" rx="5.39" ry="3.14"/><path class="cls-87" d="M547.17,377.25s.16,7.71,2,12.71a.84.84,0,0,0,.45.49,8.4,8.4,0,0,0,7.23,0,.88.88,0,0,0,.44-.56,70.84,70.84,0,0,0,1.8-12.67"/><ellipse class="cls-57" cx="553.12" cy="377.14" rx="5.95" ry="3.46"/><ellipse class="cls-88" cx="553.23" cy="377.09" rx="5.3" ry="2.87"/><path class="cls-89" d="M548,377.57c.42,1.36,2.6,2.38,5.22,2.38s4.8-1,5.23-2.38l0,.11c-.34-1.4-2.57-2.49-5.26-2.49s-4.91,1.09-5.25,2.49A.26.26,0,0,1,548,377.57Z"/><path class="cls-85" d="M553.12,383.34c-2.73,0-5-1.07-5.73-2.54a38.75,38.75,0,0,0,1.77,9.16.84.84,0,0,0,.45.49,8.41,8.41,0,0,0,7.23,0,.88.88,0,0,0,.44-.56,65.52,65.52,0,0,0,1.5-9C558,382.34,555.77,383.34,553.12,383.34Z"/><path class="cls-85" d="M553.48,370.58l-.68,1.7a2,2,0,0,0,0,1.35l.4,1a2.48,2.48,0,0,1,.06,1.2l-.07.86.56-1.45a2.49,2.49,0,0,0,.09-1.83l-.35-.85a2.27,2.27,0,0,1-.14-1.07Z"/><ellipse class="cls-90" cx="385.33" cy="182.2" rx="8.22" ry="5.39"/><ellipse class="cls-91" cx="385.33" cy="181.49" rx="8.22" ry="5.39"/><path class="cls-90" d="M386.79,182.14c0,.16-.25.37-.25.37a2.06,2.06,0,0,1-1.19.37,3.43,3.43,0,0,1-1.15-.33c-.12-.07-.3-.24-.3-.39V161.61h2.89Z"/><path class="cls-45" d="M372.83,140.88l-2.83,18c-.25,1.59,2,3.49,2,3.49s3.54,3.89,13.43,3.89c9.46,0,13.18-3.66,13.18-3.66s2.54-2.17,2.25-3.78l-3.31-17.89"/><ellipse class="cls-92" cx="385.2" cy="140.88" rx="12.37" ry="7.63"/><ellipse class="cls-46" cx="385.2" cy="140.88" rx="10.76" ry="6.31"/><polygon class="cls-7" points="506.48 346.8 490.58 357.54 502.3 362.69 517.69 351.68 506.48 346.8"/><polygon class="cls-93" points="490.59 360.84 490.83 357.64 502.3 362.69 502.26 365.99 490.59 360.84"/><polygon class="cls-94" points="517.91 355.12 517.69 351.68 502.3 362.69 502.26 365.99 517.91 355.12"/><polygon class="cls-95" points="490.54 357.91 490.58 357.54 502.3 362.69 502.3 363.07 490.54 357.91"/><polygon class="cls-95" points="490.25 360.7 490.29 360.32 502.26 365.61 502.26 365.99 490.25 360.7"/><polyline class="cls-7" points="490.64 360.12 490.29 360.32 490.62 360.47"/><polygon class="cls-95" points="501.88 365.82 501.95 362.53 502.3 362.69 502.26 365.99 501.88 365.82"/><polygon class="cls-96" points="526.22 360.76 509.45 377.09 529.01 385.25 545.77 368.92 526.22 360.76"/><polygon class="cls-97" points="526.22 359.92 509.45 376.25 529.01 384.42 545.77 368.09 526.22 359.92"/><polyline class="cls-98" points="530.21 361.16 508.24 373.84 525.81 383.98 547.78 371.3"/><polyline class="cls-99" points="530.39 360.32 508.42 373 526 383.15 547.96 370.47"/><line class="cls-100" x1="523.8" y1="379.35" x2="515.01" y2="374.27"/><line class="cls-100" x1="514.95" y1="371.74" x2="528.19" y2="379.35"/><line class="cls-100" x1="515.69" y1="371.23" x2="528.94" y2="378.84"/><line class="cls-100" x1="516.42" y1="370.74" x2="529.67" y2="378.35"/><line class="cls-100" x1="517.21" y1="370.22" x2="530.46" y2="377.83"/><line class="cls-100" x1="517.96" y1="369.71" x2="531.2" y2="377.32"/><line class="cls-100" x1="518.69" y1="369.22" x2="531.94" y2="376.83"/><line class="cls-100" x1="532.59" y1="376.3" x2="523.8" y2="371.23"/></g></g></svg>