<svg xmlns="http://www.w3.org/2000/svg" viewBox="0 0 90.02 90.02"><defs><style>.cls-1{fill:#fff;opacity:0;}.cls-2{opacity:0.6;}.cls-3{fill:none;stroke:#000;stroke-miterlimit:10;stroke-width:2.59px;}</style></defs><title>Coffee_Icon</title><g id="Layer_2" data-name="Layer 2"><g id="Layer_1-2" data-name="Layer 1"><circle class="cls-1" cx="45.01" cy="45.01" r="45.01"/><g class="cls-2"><path class="cls-3" d="M28.84,41.33H58.56a0,0,0,0,1,0,0V57.76a6.19,6.19,0,0,1-6.19,6.19H35a6.18,6.18,0,0,1-6.18-6.18V41.33a0,0,0,0,1,0,0Z" transform="translate(0.52 -0.43) rotate(0.57)"/><path class="cls-3" d="M60.82,45.84a5.59,5.59,0,0,0-2.09.39l-.11,10.56a5.81,5.81,0,0,0,2.09.42,5.69,5.69,0,1,0,.11-11.37Z"/><path class="cls-3" d="M36.11,21.47c0,2.52-3.41,2.58-3.36,5.1s3.5,2.46,3.55,5-3.41,2.59-3.37,5.11"/><circle cx="36.11" cy="21.52" r="1.3"/><circle cx="32.93" cy="36.69" r="1.3"/><path class="cls-3" d="M45.71,21.52c0,2.52-3.41,2.59-3.36,5.11s3.5,2.46,3.55,5-3.41,2.58-3.36,5.11"/><circle cx="45.71" cy="21.58" r="1.3"/><circle cx="42.54" cy="36.75" r="1.3"/><path class="cls-3" d="M55.53,21.58c0,2.52-3.41,2.58-3.36,5.1s3.5,2.46,3.55,5-3.41,2.59-3.36,5.11"/><circle cx="55.53" cy="21.63" r="1.3"/><circle cx="52.36" cy="36.8" r="1.3"/></g></g></g></svg>
