<svg xmlns="http://www.w3.org/2000/svg" xmlns:xlink="http://www.w3.org/1999/xlink" viewBox="0 0 1920.79 588.09"><defs><style>.cls-1{fill:url(#linear-gradient);}</style><linearGradient id="linear-gradient" x1="960.39" x2="960.39" y2="588.09" gradientUnits="userSpaceOnUse"><stop offset="0" stop-color="#fff"/><stop offset="0.14" stop-color="#fff" stop-opacity="0.79"/><stop offset="0.31" stop-color="#fff" stop-opacity="0.55"/><stop offset="0.48" stop-color="#fff" stop-opacity="0.36"/><stop offset="0.64" stop-color="#fff" stop-opacity="0.2"/><stop offset="0.78" stop-color="#fff" stop-opacity="0.09"/><stop offset="0.91" stop-color="#fff" stop-opacity="0.02"/><stop offset="1" stop-color="#fff" stop-opacity="0"/></linearGradient></defs><title>Asset 26</title><g id="Layer_2" data-name="Layer 2"><g id="Layer_3" data-name="Layer 3"><path class="cls-1" d="M1912.86,104.4a36.71,36.71,0,0,0-16.4,3.87,49.23,49.23,0,0,0-66.18-23,56,56,0,0,0-64.56-13.65,72.88,72.88,0,0,0-106.16,2.33,63.7,63.7,0,0,0-28.12-6.56,64.48,64.48,0,0,0-12.89,1.28,49.24,49.24,0,0,0-59.89-13.12,56,56,0,0,0-86.5,3.91,83.41,83.41,0,0,0-95.32-15.47A94.94,94.94,0,0,0,1215.4,80a62.52,62.52,0,0,0-17.94-2.85,72.88,72.88,0,0,0-102.53-11.4,72.39,72.39,0,0,0-94.13-27.95A82.42,82.42,0,0,0,860.65,69.16a54.46,54.46,0,0,0-53.6,12.27,64.26,64.26,0,0,0-38.69-12.77,62.75,62.75,0,0,0-7,.41,72.9,72.9,0,0,0-113-5.73,64.12,64.12,0,0,0-49.69-2.87A27.85,27.85,0,0,0,565.9,47.31a42.09,42.09,0,0,0-71.57-16A37,37,0,0,0,451.27,39a72.4,72.4,0,0,0-81-11.75A82.39,82.39,0,0,0,230.44,57.65a72.45,72.45,0,0,0-72.94-5.32A82.42,82.42,0,0,0,17.36,83.66,54.51,54.51,0,0,0,.91,81.17c-.31,0-.61,0-.91,0V588.09H1920.79V105.24A37.7,37.7,0,0,0,1912.86,104.4Z"/></g></g></svg>