<svg id="Layer_1" data-name="Layer 1" xmlns="http://www.w3.org/2000/svg" viewBox="0 0 67.956 68.328"><defs><style>.cls-1{fill:#2896cd;}.cls-2{fill:none;stroke:#1b4581;stroke-miterlimit:10;stroke-width:3px;}</style></defs><path class="cls-1" d="M94.4,63.569v58.246a1.756,1.756,0,0,0,2.508,1.588l60.918-28.856a1.756,1.756,0,0,0,.011-3.169L96.923,61.987A1.757,1.757,0,0,0,94.4,63.569Z" transform="translate(-94.403 -55.246)"/><path class="cls-2" d="M100.691,58.388v54.393a1.64,1.64,0,0,0,2.342,1.482L159.92,87.316a1.64,1.64,0,0,0,.011-2.959L103.044,56.911A1.64,1.64,0,0,0,100.691,58.388Z" transform="translate(-94.403 -55.246)"/></svg>