<svg width="24" height="24" xmlns="http://www.w3.org/2000/svg" fill-rule="evenodd" clip-rule="evenodd"><path d="M22.697 17.991c.487 1.694.954 3.318 1.254 4.369.033.118.049.236.049.35 0 .522-.32 1.005-.83 1.201l-.002.002c-.604.232-1.286-.013-1.599-.578-.694-1.253-1.866-3.304-2.47-4.357l.428.016c1.18 0 2.273-.371 3.17-1.003zm-4.215 6.002h-12.953l-.231-5.686s-1.901 3.195-2.867 4.937c-.313.565-.995.81-1.599.579l-.002-.003c-.51-.196-.83-.678-.83-1.201 0-.114.016-.232.049-.349.635-2.23 2.038-6.952 2.771-9.526.273-.959 1.152-1.619 2.154-1.619h9.582c-.344.717-.537 1.521-.537 2.369 0 2.751 2.027 5.033 4.67 5.437l-.207 5.062zm1.018-14.993c2.484 0 4.5 2.016 4.5 4.5s-2.016 4.5-4.5 4.5-4.5-2.016-4.5-4.5 2.016-4.5 4.5-4.5zm.5 2h-1v2h-2v1h2v2h1v-2h2v-1h-2v-2zm-7.994-11c2.777 0 5.031 2.243 5.031 5.006 0 2.763-2.254 5.006-5.031 5.006-2.777 0-5.031-2.243-5.031-5.006 0-2.763 2.254-5.006 5.031-5.006z" fill="#ffffff"/></svg>