<svg id="Layer_1" data-name="Layer 1" xmlns="http://www.w3.org/2000/svg" viewBox="0 0 300.74 405.5"><defs><style>.cls-1{fill:#fff;}</style></defs><g id="Layer_4" data-name="Layer 4"><circle class="cls-1" cx="145.58" cy="74.91" r="74.91"/></g><path class="cls-1" d="M470.33,386.78c-3.75-17.06-6.22-28.63-13.24-46.34-5.26-13.27-11.18-27.94-22.92-44.83-6.25-9-10.42-14.89-18.21-20.85-9-6.94-21.72-11.92-32.09-13L358.26,297l-11.57-5.77q3-10.69,5.92-21.39c-1.58.63-3.86,1.47-6.64,2.27-3.59,1-10,2.59-21.88,2.81A152.64,152.64,0,0,1,297.24,273l1.89,20.65-16,2.59-14.22-31.37c-21.74.6-34.37,8.71-39.91,13-6,4.65-10.32,9.87-18.2,20.86a207.53,207.53,0,0,0-18.1,29.11c-.83,1.64-3.44,6.93-6.4,14.25-4.58,11.33-11.56,29-12.91,51.64-.72,12.14-1.45,18.26,1.6,22.18,8.45,10.84,31.56,6.61,44.08,2.15,8.75-3.11,15.35-8.09,28.18-17.91,11.13-8.52,25.24-19.73,40.68-37.7,8.4-9.78,12.5-17.22,20.69-32.11,1.49-2.72,5.72-10.63,5.13-20.69-.2-3.44-.43-6.56-2.48-7.94-4-2.72-12.29,3.12-24.5,12.24-19.54,14.6-29.31,21.9-41.38,32.11-6.51,5.51-13.7,11.75-24.83,20-6.32,4.7-13.1,9.87-13.51,9.38-.78-.91,21.7-21.22,39-36,0,0,14.47-12.38,40.22-30.12,14.85-10.23,23.5-15.27,28.31-12.08,3.22,2.14,3.42,7.1,3.64,12.58.5,12.76-4.81,22.8-9.77,31.94a125.57,125.57,0,0,1-11.67,17.55,176.29,176.29,0,0,1-15.64,17.5c-6.87,6.87-10.28,9.55-21.38,19.27C235.93,417,232,421.89,229.15,427.34c-1.76,3.39-6.41,12.62-5,23.6,0,0,0,.14,0,.27,1.42,10.44,39.16,56.41,95.85,56.57,51,.14,98.3-36.76,98.65-62.07a45.55,45.55,0,0,0-6-22.18c-1.48-2.39-3.08-4.37-18.19-15.89-7.8-5.95-27.07-20.45-36.41-29.8h0c-3-3.17-6.42-7.3-13.24-15.56s-9.49-11.84-12.09-15.89A85.93,85.93,0,0,1,326.33,335c-2.18-4.73-6.12-13.57-6.08-25.2,0-6.72,0-10.51,2.48-12.41,5.29-4.11,17.56,3.75,29.17,11.3,9,5.83,13.62,9.78,26.69,20.36,21.57,17.44,26.06,20.52,37.12,30.53,2,1.79,18.12,16.42,17.38,17.3s-18.66-12.56-31.29-22.68c-18.28-14.64-37-28.72-55.44-43.2,0,0-15.87-12.46-20.28-9.26l-.2.15c-2.06,1.71-1.84,5.17-1.62,7.29,1.46,13.93,4.8,21.27,4.8,21.27a65.93,65.93,0,0,0,9,14.49,234.77,234.77,0,0,0,30.58,35.87,192,192,0,0,0,34.14,26.44,104.34,104.34,0,0,0,21,9.85c8.21,2.79,37.41,12.72,47,1.32C474.65,413.85,474.25,404.63,470.33,386.78Zm-206.73-73-35.44-14,19.55-24Q261.36,289.4,275,303.12Zm108.66-2.86-6.21-10,38.05-27.19,10.74,30.79Z" transform="translate(-172.75 -102.28)"/><polygon class="cls-1" points="197.17 198.64 201.64 205.96 237.88 200.38 229.94 175.45 197.17 198.64"/><path class="cls-1" d="M233.45,299l30,11.42,7.12-7.12L248,279.8Z" transform="translate(-172.75 -102.28)"/><path class="cls-1" d="M349.66,289.58l14.28-41.5,20.3,7.45L358.44,293Z" transform="translate(-172.75 -102.28)"/><path class="cls-1" d="M295.9,290.23,291,252.92l-20.36,4.59q7.26,17.4,14.51,34.79Z" transform="translate(-172.75 -102.28)"/></svg>