<svg width="24" height="24" xmlns="http://www.w3.org/2000/svg" fill-rule="evenodd" clip-rule="evenodd"><path d="M17.95 24h-11.9v-2.416c0-1.478-.22-1.698-.639-2.445-1.447-2.581-3.478-6.221-4.291-7.767-.218-.414-.083-.925.31-1.178h.001c.414-.266.959-.194 1.291.169.909.994 2.806 2.975 4.435 4.665 1.221 1.269 1.383 1.92 4.775 1.961 3.391.041 3.615-.614 4.911-1.961 1.629-1.69 3.526-3.671 4.435-4.665.332-.363.877-.435 1.291-.169h.001c.264.17.412.456.414.752.001.144-.032.291-.104.426-.813 1.546-2.844 5.186-4.291 7.767-.419.747-.639.873-.639 2.445v2.416zm-5.95-18c2.484 0 4.5 2.016 4.5 4.5s-2.016 4.5-4.5 4.5-4.5-2.016-4.5-4.5 2.016-4.5 4.5-4.5zm-1.351-5.31l-.961-.69-3.657 5.094c-1.18-1.806-3.457-2.283-4.631-.648-.262.366-.385.786-.387 1.207-.004.741.363 1.483.987 1.932 1.164.835 2.968 1.013 4.046-.485l4.603-6.41zm8.671-.69l1.201 2.217 2.479.457-1.737 1.827.331 2.499-2.274-1.088-2.275 1.088.332-2.499-1.737-1.827 2.479-.457 1.201-2.217z" fill="#ffffff"/></svg>