<svg xmlns="http://www.w3.org/2000/svg" xmlns:xlink="http://www.w3.org/1999/xlink" viewBox="0 0 100.04 100.01"><defs><style>.cls-1{fill:none;}.cls-2{fill:#96cff0;}.cls-3{isolation:isolate;}.cls-4{clip-path:url(#clip-path);}.cls-5{fill:#39a935;}.cls-6{clip-path:url(#clip-path-2);}</style><clipPath id="clip-path" transform="translate(-0.12 -0.02)"><path class="cls-1" d="M0,49.94a33.07,33.07,0,0,1,.21-4.45c.15-1.2.31-2.8.52-4s.59-3,.92-4.26.76-2.64,1.15-3.75,1.12-2.82,1.62-4a33,33,0,0,1,2-4c1.16-1.95,2.85-4.45,4.2-6.27a32.46,32.46,0,0,1,3-3.5c.78-.77,1.78-1.83,2.59-2.56,1.15-1,2.73-2.31,3.94-3.25a50,50,0,0,1,5.7-3.68,43,43,0,0,1,5.17-2.48c1-.4,2.44-.93,3.51-1.28s2.55-.75,3.66-1A49.44,49.44,0,0,1,50.42,0a50.1,50.1,0,0,1,6.92.54A51.23,51.23,0,0,1,63.7,1.9,47.54,47.54,0,0,1,69.59,4c1.58.66,3.61,1.73,5.12,2.53C86.92,13.46,95,27.17,94.93,44c0,26.53-20.18,50.74-45,54.08,24.8-3.34,44.94-27.55,45-54.08,0-16.81-8-30.52-20.22-37.46A44.2,44.2,0,0,1,78.58,9c.83.61,2,1.41,2.76,2.06,1,.82,2.35,1.92,3.26,2.85s1.83,1.82,2.57,2.64,2,2.27,2.73,3.3a49,49,0,0,1,4.32,6.75A49.57,49.57,0,0,1,97.44,34a66.5,66.5,0,0,1,1.92,7.66,50.55,50.55,0,0,1,.44,13.4c-.15,1.2-.34,2.79-.56,4s-.63,3-1,4.24A44.9,44.9,0,0,1,95.43,71a36.7,36.7,0,0,1-1.75,3.42c-.66,1.15-1.62,2.63-2.33,3.75A38.81,38.81,0,0,1,88.5,82a53.42,53.42,0,0,1-5.06,5.25c-1.16,1-2.77,2.31-4,3.25-.81.61-1.94,1.34-2.79,1.89a55.23,55.23,0,0,1-5.63,3,47.47,47.47,0,0,1-7.41,2.74,50,50,0,0,1-22.29,1.11,49.32,49.32,0,0,1-10.82-3.21A50,50,0,0,1,21,90.7c-1.06-.81-2.51-1.84-3.49-2.74-.8-.73-1.9-1.69-2.67-2.46-.91-.92-2.08-2.18-2.92-3.16a69.54,69.54,0,0,1-4.43-6.09c-.71-1.08-1.51-2.61-2.1-3.76a38.47,38.47,0,0,1-1.75-3.87,78,78,0,0,1-2.33-7.48A67.93,67.93,0,0,1,.18,54C0,52.8,0,51.16,0,49.94Z"/></clipPath><clipPath id="clip-path-2" transform="translate(-0.12 -0.02)"><path class="cls-1" d="M25.37,93.52c-.87-.5-2-1.17-2.85-1.74-1.31-.91-3-2.16-4.28-3.16a63.93,63.93,0,0,1-5.26-5,31.53,31.53,0,0,1-3-3.69,45.92,45.92,0,0,1-4.38-7C5,71.77,4.24,70.18,3.74,69s-.93-2.56-1.34-3.66a31.89,31.89,0,0,1-1.14-4.18A70.93,70.93,0,0,1,.12,53.2a43.86,43.86,0,0,1,.07-7.34c.16-1.31.28-3.07.56-4.36s.53-2.73.83-3.88a40,40,0,0,1,1.24-4.13c.43-1.08,1-2.54,1.43-3.61S5.53,27.16,6.15,26a49.92,49.92,0,0,1,4.5-6.81,63.27,63.27,0,0,1,4.92-5.42,55.09,55.09,0,0,1,6.06-4.92c1.14-.77,2.7-1.74,3.89-2.44.75-.44,1.79-1,2.58-1.35a48.74,48.74,0,0,1,8.48-3.22A49.68,49.68,0,0,1,56.08.37a50.2,50.2,0,0,1,9.68,2.17,45.75,45.75,0,0,1,5.08,2c1.19.53,2.73,1.35,3.87,2A38.8,38.8,0,0,0,50.13,2,38.8,38.8,0,0,1,74.71,6.52a65.4,65.4,0,0,1,5.67,3.75c1.11.87,2.55,2.07,3.59,3,.82.74,1.87,1.77,2.61,2.59.92,1,2.12,2.4,3,3.47.7.89,1.58,2.13,2.21,3.07.72,1.1,1.62,2.61,2.26,3.76s1.21,2.41,1.7,3.45,1.17,2.8,1.6,4,.79,2.63,1.13,3.76a29.35,29.35,0,0,1,.91,4.26c.15,1.19.41,2.79.51,4s.18,3.11.18,4.44a60.58,60.58,0,0,1-.66,8.08,36.2,36.2,0,0,1-1,4.73,45.88,45.88,0,0,1-2.75,7.7c-.5,1-1.16,2.43-1.71,3.44s-1.5,2.58-2.21,3.64a49.44,49.44,0,0,1-5,6.32,47.94,47.94,0,0,1-5.92,5.43c-.8.63-1.89,1.44-2.74,2-1.16.76-2.74,1.72-3.94,2.41a52.7,52.7,0,0,1-5.66,2.67,50.79,50.79,0,0,1-7.25,2.25,50,50,0,0,1-26.89-1.26,47.2,47.2,0,0,1-5.08-2C28.05,95,26.5,94.18,25.37,93.52Z"/></clipPath></defs><g id="Layer_2" data-name="Layer 2"><g id="Layer_3" data-name="Layer 3"><circle class="cls-2" cx="50.03" cy="50" r="50"/><g class="cls-3"><g class="cls-3"><g class="cls-4"><path class="cls-5" d="M30.31,4.09,31.08,4c.73-.17,1.72-.38,2.46-.53l.78-.58,2.33-.85a7.69,7.69,0,0,0-.83,0l1.44-.42a52.27,52.27,0,0,0-6.2,2.07L30,4.2l.32-.11" transform="translate(-0.12 -0.02)"/><path class="cls-5" d="M.25,52.14l.28-.63c0-1.26,0-2.94.06-4.19.33-1.53.8-3.56,1.25-5.06.41-1,.93-2.36,1.39-3.34C4,37.85,5,36.45,5.82,35.43c.31-1.2.68-2.81,1-4l1-1.91c.91-1.14,2.12-2.67,3.08-3.77l.91-1.92,1.58-3L14.9,19l1.92-2.58,1.05-1.51,1.12-2,.57-1.17.52-.76c.69-.64,1.59-1.52,2.32-2.12l2-1.51L26.2,6.09l2.46-1.28A50.49,50.49,0,0,0,23,8a53.42,53.42,0,0,0-6.73,5.19A50.7,50.7,0,0,0,6.15,26L4.88,28.5h0l.09,0a5.35,5.35,0,0,1,.56-.36L5.17,29.5c-.33,1.17-.8,2.71-1.06,3.89C3.42,35.07,2.53,37.33,2,39.06l.11-2-.31.2c-.23,1.21-.56,2.8-.72,4S.56,44,.43,45.15L.19,48.53.12,50.72c0,1,0,2.36.07,3.37a9.77,9.77,0,0,1,.06-2" transform="translate(-0.12 -0.02)"/><path class="cls-5" d="M28.29,95.05l-1.54-.8c1.14.53,2.64,1.27,3.79,1.74l.61.05c1.16.34,2.69.83,3.87,1.11,1.66.33,3.87.74,5.54,1,1,0,2.36.12,3.37.13s2.1.12,3,.12a25.3,25.3,0,0,1-3.9-.22,43,43,0,0,1-8.82-1.7,46.69,46.69,0,0,1-15.52-7.7,43.19,43.19,0,0,1-5.64-5.15c-.88-1.07-2-2.52-2.85-3.65A45.36,45.36,0,0,1,5,70.19c-.72-1.62-1.66-3.79-2.28-5.46a35.24,35.24,0,0,1-2-6.58C.57,56.93.3,55.31.19,54.09l0-.45c.25,2.26.69,5.26,1.11,7.5A48.13,48.13,0,0,0,3.74,69a47.63,47.63,0,0,0,3.7,7.27,49.17,49.17,0,0,0,4.85,6.58,50.94,50.94,0,0,0,5.95,5.79,52.71,52.71,0,0,0,7.13,4.9l2.22,1.19.7.34" transform="translate(-0.12 -0.02)"/><path class="cls-5" d="M86.11,16.5,86,16.19l1.08.64c.71,1.05,1.66,2.45,2.3,3.55s1.16,2.84,1.56,4.09l.51,1.23c.52,1.26,1,2.56,1.41,3.89.92,1.32,2.13,3.09,3,4.47l1.07,1c.42,1.38,1,3.21,1.35,4.61-.14,1-.33,2.25-.56,3.2.23,1.59.54,3.7.69,5.3A19.06,19.06,0,0,0,99.41,46c-.09,1.66-.25,3.88-.46,5.53a38.93,38.93,0,0,1-1.81,7.25c.48-.8,1.12-1.87,1.53-2.71a34.21,34.21,0,0,0,1.07-6.88c0-1.5-.06-3.49-.17-5a5.54,5.54,0,0,0,0-.91l-.24-1.61a48.43,48.43,0,0,0-2-8A49.22,49.22,0,0,0,94,26.18a48.17,48.17,0,0,0-4.47-6.83A49.47,49.47,0,0,0,84,13.29a52.82,52.82,0,0,0-9.26-6.77,37.88,37.88,0,0,1,11.4,10" transform="translate(-0.12 -0.02)"/><path class="cls-5" d="M72.87,88.26c-.07.4-.13.93-.23,1.32l2.88-1.28a54.5,54.5,0,0,0,8-7.17,26.61,26.61,0,0,0-.09-3.57,56.05,56.05,0,0,1-10.56,10.7" transform="translate(-0.12 -0.02)"/></g></g><g class="cls-3"><g class="cls-6"><path class="cls-5" d="M35,8.12,34.66,8l-1.6,1.11-.84.21.21-.79.9-.79,2.11-.9,1.06-.48,0-.47.12-.25L33.84,6.67l-.63.08-1,0-1.43.4-1.67.49L29,7.47c-.65.18-1.52.4-2.17.59l-1.92,1-.09.33-2,1.62-.26.74-2.76,1.94,2.62-1.38,1.79-.73,1.65-.83,2.29-1.15,1.65-.85.6.3-.82.9-1.69,1.15.79.27,1.42-.62-1.9,1.71c-.59.77-1.41,1.77-2,2.57l-.78,1.61-2.37,1.75-1.34,2.11c-.3-.45-.72-1-1-1.51.88-.59,2.05-1.37,2.94-1.94l-1.94.49-.28-1-2,1.73-1.34.95L18.24,21l-1.15-.17-.8-.05-1.79.06-2.08,1.88-.61,0-.59-.06c-.84.84-2,1.94-2.77,2.81L6.74,27.31C6.1,28,5.26,29,4.68,29.8L4.13,31l-.85,2.08-1,2.41,1.05-3,1-2.41.46-1.27.07-.3L6.15,26a48.15,48.15,0,0,1,4.5-6.81,50.41,50.41,0,0,1,5.6-6.06A53.5,53.5,0,0,1,23,8a50.42,50.42,0,0,1,5.68-3.15l1.23-.57.1,0,1.07-.46a55.17,55.17,0,0,1,6.2-2.07l.41-.11c-.15,0-.34.08-.49.13l.17,0,1.13-.22.05.15a2.88,2.88,0,0,0-.46.39,24.64,24.64,0,0,0-2.6.93L36.92,3A11.94,11.94,0,0,0,35,4.18a2.31,2.31,0,0,0-.42,1l6.31-1.27L37.53,5l1.15-.21h.86l.09.09L40,5l-1,.45L37.25,6.64,36.14,7.71,35,8.12" transform="translate(-0.12 -0.02)"/><path class="cls-5" d="M20.41,86c.8,1.08,1.86,2.51,2.73,3.54-.79.77-.8.78-.93,1.14.63.54,1.43,1.3,2.09,1.81s1.88,1.38,2.74,1.9l.55.29-2.22-1.19a53.31,53.31,0,0,1-7.13-4.9,51.37,51.37,0,0,1-5.95-5.79,49.8,49.8,0,0,1-4.85-6.58A48.5,48.5,0,0,1,3.74,69a47.46,47.46,0,0,1-2.48-7.84C.85,58.9.39,55.9.15,53.64c0-.62,0-1.45,0-2.07a11.43,11.43,0,0,0,1.87,4.16,37.15,37.15,0,0,0,2.67,6.63C5.29,63.6,6,65.27,6.66,66.49a47.47,47.47,0,0,0,4.51,5A81.43,81.43,0,0,0,19.08,80c.23,1.65.64,4.73,1.33,6" transform="translate(-0.12 -0.02)"/><path class="cls-5" d="M74.71,6.52A52.77,52.77,0,0,1,84,13.29,49.85,49.85,0,0,1,94,26.18a49.31,49.31,0,0,1,5.34,15.49l.24,1.61V43.2c-.3-1.49-.77-3.47-1.21-4.93.12,1.14.3,2.67.35,3.81.06,2.06,0,4.81-.11,6.86.07,1.51.19,3.52.18,5-.17,1.33-.37,3.13-.6,4.46l-.2-2a36,36,0,0,0-1.3-7.56c-.36-1.72-.86-4-1.32-5.7l-.55,1.92c-.45-1-1-2.29-1.51-3.25-1.14.16-2.67.34-3.81.46l-4-.22c-.94-1.29-2.19-3-3.17-4.28L80.86,39c.92,1.49,2.15,3.49,3,5,3.44.93,4.06,1.1,6,1.65a50.79,50.79,0,0,1-1.82,7.42,55.7,55.7,0,0,1-6,3.71c-.66-.9-1.52-2.11-2.19-3-2.59-4.15-2.59-4.15-4.36-6.71-.62-1.49-1.46-3.49-2.12-5L71.24,43.4a137.92,137.92,0,0,1,6.94,12.32c.95,1.84,2.18,4.32,3,6.2,1.64-.75,3.81-1.79,5.41-2.61-.35,2.08-.85,4.85-1.31,6.9a71,71,0,0,1-5.11,7.44c-1,1.53-2.24,3.58-3.26,5.07A45.11,45.11,0,0,1,74.11,87c-3.63,2.83-3.7,2.89-5.88,4.38l-1,1.88c-1,.45-2.36,1.07-3.38,1.5a37.33,37.33,0,0,1-4.44,3.05c-1.25.21-2.91.47-4.16.65,0-.31.09-.72.09-1-.2-.42-.45-1-.66-1.38,0-.87-.07-2-.13-2.91-.51-1-1.2-2.31-1.74-3.29,1.42-3,1.54-3.3,2.28-5-1.27-2.9-1.27-2.9-3.35-7.51.33-1.2.77-2.79,1.09-4l-3.47-1.21C48,71.62,46.06,71,44.65,70.44c-1.68.14-3.91.33-5.58.45-1.25-.39-2.91-.91-4.15-1.32-1.56-1.76-3.6-4.15-5.1-6a125.53,125.53,0,0,1-.6-12.87l6.88-7.05c2.18-3.62,3.46-5.76,4.87-8.14.86.79,2,1.85,2.86,2.61,3.9-1.32,4.6-1.56,7.78-2.78.66,1.4,1.54,3.26,2.21,4.64,2,.67,4.63,1.52,6.62,2.14l1.2-2.78c4.34-.19,5.47-.26,9.94-.67l-1.26-3.32c-1.85-.81-4.32-1.91-6.15-2.75a69.64,69.64,0,0,0,8.09-3.8c-4.78-1.87-5.33-2.1-8.39-3.38A52.42,52.42,0,0,1,60.15,33c-2.81-3.38-3.24-3.9-5.1-6.36-3.46,1.26-3.67,1.33-6.12,2.1-1.27.95-3,2.2-4.28,3.12-1.46,0-3.4.1-4.85.11,0-1.28,0-3,0-4.26,3.73.05,3.73.05,5.66,0-.48-1.2-1.11-2.79-1.53-4,1.33-.54,3.1-1.27,4.42-1.83.91-.89,2.11-2.07,3-3,1.12.49,2.62,1.15,3.76,1.61a26.81,26.81,0,0,0,2.46-4.91c-.64-1.4-1.51-3.27-2.18-4.66-.26,1-.65,2.24-1,3.17L55,16.43A43.15,43.15,0,0,1,50.38,13c.27-.88.63-2,.85-2.92A20.71,20.71,0,0,0,55.08,8c1.1.8,2.6,1.85,3.73,2.61a5.49,5.49,0,0,0,.26-3.77c2.61,1,2.61,1,4.25,1.49-1.38-.91-3.24-2.1-4.68-2.93l.92,0a10.4,10.4,0,0,0-3.4-2.21c.26-.08.61-.18.87-.29,1.1.33,2.59.74,3.67,1.13a1.49,1.49,0,0,0,.44-.61.83.83,0,0,0,0-.54c.29-.07.67-.17,1-.26l.25-.53A37.57,37.57,0,0,1,74.71,6.52" transform="translate(-0.12 -0.02)"/><path class="cls-5" d="M46.94,5.43c-.64.4-1.51.94-2.17,1.33l0,1.1c-2,.65-2,.65-3.1,1C41,8.9,40,9,39.29,9.07c-1.08.83-2.52,1.95-3.58,2.8a6.61,6.61,0,0,1,.11-2.73c2.94-1.5,3.64-1.86,6.67-3.38A6,6,0,0,1,44.91,3.5c1.3-.23,1.47-.26,2.38-.47l.39.14c.54,0,.58,0,.94-.1a2.43,2.43,0,0,0,.3.34,25.18,25.18,0,0,1-2,2" transform="translate(-0.12 -0.02)"/></g></g></g></g></g></svg>