<svg xmlns="http://www.w3.org/2000/svg" viewBox="0 0 16.23 26.14"><defs><style>.cls-1{fill:#fff;}.cls-2{fill:#ff9797;}.cls-3{fill:#506fb6;}</style></defs><g id="Layer_2" data-name="Layer 2"><g id="Layer_1-2" data-name="Layer 1"><polygon class="cls-1" points="4.71 1.58 4.71 11.62 14.39 6.81 4.71 1.58"/><polyline class="cls-2" points="4.71 9.2 12.49 5.31 4.71 1.21"/><rect class="cls-3" x="3.94" width="1.54" height="26" rx="0.77"/><path class="cls-3" d="M16.18,6.79h0c-.15.54-.59.82-1,.62L4.45,2A1.19,1.19,0,0,1,4,.69H4c.15-.55.59-.82,1-.63L15.72,5.44A1.19,1.19,0,0,1,16.18,6.79Z"/><path class="cls-3" d="M16.14,6.1h0c-.15-.54-.59-.82-1-.62L4.77,10.67A1.19,1.19,0,0,0,4.32,12h0c.14.54.59.82,1,.62l10.38-5.2A1.17,1.17,0,0,0,16.14,6.1Z"/><rect class="cls-3" x="3.81" y="20.52" width="1.81" height="9.43" rx="0.78" transform="translate(29.95 20.52) rotate(90)"/></g></g></svg>