<svg id="Layer_1" data-name="Layer 1" xmlns="http://www.w3.org/2000/svg" viewBox="0 0 354.36 492.24"><defs><style>.cls-1{fill:#fff;}</style></defs><circle class="cls-1" cx="146.12" cy="62.3" r="62.3"/><path class="cls-1" d="M484.33,257.65c.75-.29.38-2.62-.06-4a11.79,11.79,0,0,0-4.12-5.47c-3.35-2.71-6.86-3.52-11.14-4.52,0,0-6.42-1.51-10.08,0-1.07.44-1.1.78-1.09.9.07.79,3.69.75,7.13,1.3a33.68,33.68,0,0,1,11.27,4.31C481.6,253.7,483.24,258.08,484.33,257.65Z" transform="translate(-146 -68.14)"/><path class="cls-1" d="M456.89,233.55c.7,1.09,4,1.2,5.16,1.26,7.18.38,20.63,3.78,27.51,9.32,1.47,1.18,6.1,5.24,8.89,5.52.32,0,1.27.13,1.69-.24s.26-.8-.14-1.49c-3.9-6.75-11.85-11-11.85-11a39,39,0,0,0-8-3.38c-1.76-.51-5.06-1-11.66-1.87,0,0-1.12-.16-6.6-.45-2-.11-3.25-.15-4.19.44C457,232.1,456.48,232.92,456.89,233.55Z" transform="translate(-146 -68.14)"/><path class="cls-1" d="M369.69,531.4c-8.57-13.32-14-40.13-25.68-93.6-2.1-9.67-3.52-18-4-21.16-2.79-17.05-3.94-30-4.39-36.07-.26-3.46-.43-6.36-.54-8.4a40.94,40.94,0,0,1-19.86-7.2c-3.6-2.57-9.21-6.58-10.06-13-.52-4,.76-8.78,3-9.31.72-.17,1.4.14,6.08,4.35,3.87,3.46,4.93,4.61,7.51,6.7a33.7,33.7,0,0,0,4.91,3.54,25.5,25.5,0,0,0,7.45,2.78c0-.72-.07-1.45-.1-2.19l-.06-1.56a18.83,18.83,0,0,1-7.29-5.86,12.45,12.45,0,0,1-2.61-5.59c-.52-3.15.23-7.49,2.42-8.19a2.57,2.57,0,0,1,1.2,0c1,.12,1.92.64,4.51,3.33.48.5,1.14,1.19,1.9,2.05,0-.5.08-1,.12-1.5.12-1.28.25-2.52.41-3.74-26.92-4.08-50.7-15.78-72.32-26.62-16.38-8.22-28.26-15.5-36.19-29.09a48.54,48.54,0,0,1-3.61-7.68c-1.34,2.23-2.95,4.74-5.12,7.87a218.77,218.77,0,0,0-16.47,28.67,163.4,163.4,0,0,0-10.82,28s-11.38,41.53,3.5,86.15c0,0,0,0,0,0,5.76,25.35,12.42,24.52,30.19,72.31,5.28,14.2,8.77,25.9,10.74,32.87h0a3.52,3.52,0,0,1,.22.36l.12.23c9.91,20.9,26.85,27.67,26.85,27.67,9.1,3.62,22.36,4.52,25.27-.66,2.53-4.5-2.82-13.43-2.83-13.44h0c-11.25-11-16.89-61.35-16.91-61.55h0a373.65,373.65,0,0,1-8.67-52.84c-1.64-18.13-1.17-28.12,5.41-36.15,4.81-5.86,13.29-11.18,18-8.82,3.52,1.76,2.58,7,4.06,19,1.23,9.91,3.13,16.67,6.63,29.13,2.72,9.66,4.34,12.49,9.83,27.18,8.66,23.17,7.42,23.56,12.19,35.38,8.22,20.4,18.52,45.94,39.23,51.8,6.8,1.92,17,2.36,19.61-2C375.85,540.58,371.56,534.3,369.69,531.4Z" transform="translate(-146 -68.14)"/><polygon class="cls-1" points="51.49 68.78 54.59 60.72 8.44 32.92 0 52.05 51.49 68.78"/><polygon class="cls-1" points="59.45 53.21 66.6 47.18 44.93 6.89 30.88 15.01 59.45 53.21"/><polygon class="cls-1" points="49.9 77.77 50.81 85.59 19.38 91.05 16.33 75.84 49.9 77.77"/><path class="cls-1" d="M474.63,261A897,897,0,0,1,389,215c-22.32-14-26.34-20.33-33.4-23.5a25.35,25.35,0,0,0-6.76-2c-12.66-2.18-18.7,6.22-37.48,11.14a66.81,66.81,0,0,1-21.31,2.6c-2.06-.1-8.41-.51-21.49-4.6l-1.21-.39c4.8,12.78.53,31.1,12.71,48.62,4.44,6.39,10.55,10.57,22.78,19,14,9.56,21.65,11.8,42.78,21.8,2.6-20.76,4.36-35.1,4.52-37.29a2.33,2.33,0,0,1,.66-1.64c1.21-1.1,3.77-.1,4.75.29,47.5,19,52.82,22.15,52.82,22.15,11.74,5.16,29.35,11.43,53.67,15.11,16.36-1.14,26.68-8,26.61-13.75C488.55,267.54,480,263.54,474.63,261Z" transform="translate(-146 -68.14)"/><path class="cls-1" d="M276.17,250.51c-15.8-22.74-3.89-46.83-20.07-58.4a23.25,23.25,0,0,0-14-4.51c-9.06.23-15,6.62-16.23,7.89-2.09,2.21-5.27,6.38-7.33,16.23-4,18.92,1.07,35.64,4.73,47.36,2.75,8.77,4.12,13.15,7.11,18.26,7.93,13.6,19.81,20.88,36.19,29.09,25.71,12.9,54.47,27,87.94,28.08,22,.7,29.48-4.73,32.52-9.47a9.06,9.06,0,0,0,1.65-4c1-7.43-17.05-15.51-44-28.41-23.45-11.24-31.17-13.22-45.78-23.23C286.72,261.08,280.61,256.89,276.17,250.51Z" transform="translate(-146 -68.14)"/><path class="cls-1" d="M328.15,338.74c-1.48.43-2.11,3.93-1.45,6.56a10,10,0,0,0,2.28,3.9,24.21,24.21,0,0,0,7.29,6.45,24.91,24.91,0,0,0,9,2.84c3.32.52,5.78.88,8.21-.47,1.25-.69,3.18-2.22,2.88-3.39-.38-1.44-3.86-.91-8.8-2.19a32.06,32.06,0,0,1-11-5.42C331.12,342.73,330,338.21,328.15,338.74Z" transform="translate(-146 -68.14)"/><path class="cls-1" d="M354.42,366.87c-.34-3.95-25.44-2.45-33.71-10.71-2.17-2.17-4.62-4.06-6.77-6.26-2.35-2.41-3.51-3.87-4.56-3.55-1.26.38-1.79,3.19-1.52,5.41.58,4.93,5.13,8.2,9.64,11.33a47.91,47.91,0,0,0,10.14,5.41,51.47,51.47,0,0,0,19,2.65c1.74-.08,4.47-.33,6.44-2.27C353.9,368.06,354.48,367.49,354.42,366.87Z" transform="translate(-146 -68.14)"/></svg>