<svg xmlns="http://www.w3.org/2000/svg" viewBox="0 0 43.41 60.15"><defs><style>.cls-1{fill:#71aec9;}.cls-2{fill:#95cff0;}.cls-3{fill:#fff;}</style></defs><g id="Layer_2" data-name="Layer 2"><g id="Layer_1-2" data-name="Layer 1"><path class="cls-1" d="M0,53.7V2.23A2.23,2.23,0,0,1,2.23,0h2.3V53.7Z"/><path class="cls-2" d="M4.53,0H42a1.46,1.46,0,0,1,1.46,1.46v48.4a1.49,1.49,0,0,1-1.49,1.49H4.53a0,0,0,0,1,0,0V0A0,0,0,0,1,4.53,0Z"/><path class="cls-3" d="M2.36,51.34H41.11a0,0,0,0,1,0,0v3.52a1.2,1.2,0,0,1-1.2,1.2H2.36A2.36,2.36,0,0,1,0,53.7v0a2.36,2.36,0,0,1,2.36-2.36Z"/><rect class="cls-1" x="7.85" y="3.41" width="12.62" height="0.95" rx="0.47"/><rect class="cls-1" x="7.85" y="5.51" width="9.85" height="0.95" rx="0.42"/><path class="cls-3" d="M20.17,31.65c0-3.23,2.12-5.4,5.27-7.84A4.27,4.27,0,0,0,27,20.61c0-2.49-1.94-4.11-4.69-4.11-2.29,0-3.85,1.67-5.28,3.06a1.45,1.45,0,0,1-2.46-.74,3.75,3.75,0,0,1,.53-2.9,8.62,8.62,0,0,1,7.43-3.63c5,0,8.46,3.89,8.46,7.53a7.67,7.67,0,0,1-2.29,5.85c-2,1.87-4.34,2.58-4.41,5.76a5.47,5.47,0,0,1-.08.76,1.69,1.69,0,0,1-1.91,1.43c-2,0-2.11-1.47-2.11-1.47Zm-.8,7.29a2.43,2.43,0,0,1,2.45-2.42A2.5,2.5,0,0,1,24.32,39a2.48,2.48,0,0,1-4.95-.05Z"/><polygon class="cls-2" points="7.74 53.7 7.74 60.15 10.1 58.36 12.34 60.15 12.34 53.7 7.74 53.7"/><path class="cls-1" d="M34.31,53.12h6.79a0,0,0,0,1,0,0V54a0,0,0,0,1,0,0H34.31a.46.46,0,0,1-.46-.46v0A.46.46,0,0,1,34.31,53.12Z"/></g></g></svg>