<svg xmlns="http://www.w3.org/2000/svg" viewBox="0 0 212.8 54.52"><defs><style>.cls-1{fill:#95cff0;}.cls-2{fill:#506fb6;}.cls-3{fill:#fff;}.cls-4{fill:#ff9797;}</style></defs><g id="Layer_2" data-name="Layer 2"><g id="Layer_1-2" data-name="Layer 1"><path class="cls-1" d="M210.83,54.52H2c-1.44,0-2.4-2-1.79-3.82L7.82,28.4a3.67,3.67,0,0,0,0-2.27L.19,3.82C-.42,2,.54,0,2,0H210.76c1.56,0,2.5,2.33,1.67,4.12L202.57,25.4a3.55,3.55,0,0,0,0,2.84l10,22.19C213.31,52.22,212.37,54.52,210.83,54.52Z"/><path class="cls-2" d="M.19,3.81,1.29,7h209.8l1.35-2.92c.82-1.78-.12-4.11-1.67-4.11H2C.53,0-.42,2,.19,3.81Z"/><path class="cls-2" d="M.19,50.71l1.1-3.21h209.8l1.35,2.91c.82,1.79-.12,4.11-1.67,4.11H2C.53,54.52-.42,52.49.19,50.71Z"/><polygon class="cls-3" points="19.83 14.48 19.83 24.52 29.51 19.71 19.83 14.48"/><polyline class="cls-4" points="19.83 22.1 27.61 18.21 19.83 14.11"/><rect class="cls-2" x="19.06" y="12.9" width="1.54" height="26" rx="0.77"/><path class="cls-2" d="M31.3,19.69h0c-.15.55-.59.82-1,.62L19.57,14.94a1.19,1.19,0,0,1-.46-1.35h0c.15-.54.59-.82,1-.62l10.74,5.38A1.19,1.19,0,0,1,31.3,19.69Z"/><path class="cls-2" d="M31.26,19h0c-.15-.54-.59-.82-1-.62L19.89,23.57a1.19,1.19,0,0,0-.45,1.35h0c.14.54.58.82,1,.62L30.8,20.35A1.2,1.2,0,0,0,31.26,19Z"/><rect class="cls-2" x="18.92" y="33.42" width="1.81" height="9.43" rx="0.78" transform="translate(57.97 18.31) rotate(90)"/></g></g></svg>