<svg xmlns="http://www.w3.org/2000/svg" viewBox="0 0 52.06 46.26"><defs><style>.cls-1{fill:#fff;}.cls-2{fill:#ff9797;}</style></defs><g id="Layer_2" data-name="Layer 2"><g id="Layer_1-2" data-name="Layer 1"><polygon class="cls-1" points="3.92 19.34 0 20.29 0 26.2 3.25 27.47 4.52 27.47 4.15 30.4 6.88 30.43 7.08 45.92 10.47 45.92 10.68 30.43 13.24 30.43 33.91 45.92 37.3 45.01 37.61 27.82 40.42 27.82 42.85 23.13 40.42 18.44 37.09 17.37 37.38 1.41 34.54 0.34 13.87 16.66 4.68 15.72 3.92 19.34"/><rect class="cls-2" x="3.48" y="15.72" width="10.6" height="14.82" rx="1.21"/><rect class="cls-2" x="4.52" y="16.77" width="8.51" height="12.72" rx="0.16"/><rect class="cls-2" x="10.98" y="7.98" width="25.82" height="1.05" transform="translate(-0.33 16.02) rotate(-36.84)"/><rect class="cls-2" x="23.37" y="24.84" width="1.05" height="25.82" transform="translate(-20.65 34.24) rotate(-53.16)"/><path class="cls-2" d="M35.18,46.26a2.43,2.43,0,0,1-2.44-2.43V2.43a2.44,2.44,0,0,1,4.87,0v41.4A2.43,2.43,0,0,1,35.18,46.26Z"/><path class="cls-2" d="M35.18,1.05a1.38,1.38,0,0,0-1.39,1.38v41.4a1.39,1.39,0,0,0,2.77,0V2.43A1.38,1.38,0,0,0,35.18,1.05Z"/><path class="cls-2" d="M37.08,28.89h-.52V17.37h.52a5.76,5.76,0,1,1,0,11.52Zm.53-10.45v9.38a4.72,4.72,0,0,0,0-9.38Z"/><path class="cls-2" d="M3.25,27.47h-2A1.27,1.27,0,0,1,0,26.2V20.29A1.27,1.27,0,0,1,1.27,19h2a1.27,1.27,0,0,1,1.27,1.26V26.2A1.27,1.27,0,0,1,3.25,27.47Zm-2-7.4a.22.22,0,0,0-.22.22V26.2a.22.22,0,0,0,.22.22h2a.22.22,0,0,0,.23-.22V20.29a.22.22,0,0,0-.23-.22Z"/><path class="cls-2" d="M9.76,46.26h-2a.92.92,0,0,1-.91-.92V30.43a.91.91,0,0,1,.91-.91h2a.92.92,0,0,1,.92.91V45.34A.92.92,0,0,1,9.76,46.26Zm-1.84-1H9.64V30.56H7.92Z"/><rect class="cls-2" x="44.48" y="10.87" width="1.05" height="6.84" rx="0.52" transform="translate(23.28 -27.63) rotate(45)"/><rect class="cls-2" x="44.48" y="28.55" width="1.05" height="6.84" rx="0.52" transform="translate(-9.43 41.18) rotate(-45)"/><rect class="cls-2" x="48.12" y="19.71" width="1.05" height="6.84" rx="0.52" transform="translate(25.51 71.77) rotate(-90)"/></g></g></svg>