<svg xmlns="http://www.w3.org/2000/svg" viewBox="0 0 64.02 46.18"><defs><style>.cls-1{fill:#fff;}.cls-2{fill:#95cff0;}.cls-3{fill:#ade1f7;}</style></defs><g id="Layer_2" data-name="Layer 2"><g id="Layer_1-2" data-name="Layer 1"><rect class="cls-1" width="64.02" height="46.18" rx="3.81"/><path class="cls-2" d="M3.81,0h56.4A3.81,3.81,0,0,1,64,3.81v9.76a0,0,0,0,1,0,0H0a0,0,0,0,1,0,0V3.81A3.81,3.81,0,0,1,3.81,0Z"/><rect class="cls-3" x="6.37" y="18.71" width="10.54" height="1.83" rx="0.54"/><rect class="cls-3" x="26.74" y="18.71" width="10.54" height="1.83" rx="0.54"/><rect class="cls-3" x="47.22" y="18.71" width="10.54" height="1.83" rx="0.54"/><rect class="cls-3" x="6.32" y="28.56" width="10.54" height="1.83" rx="0.54"/><rect class="cls-3" x="26.69" y="28.56" width="10.54" height="1.83" rx="0.54"/><rect class="cls-3" x="47.17" y="28.56" width="10.54" height="1.83" rx="0.54"/><rect class="cls-3" x="6.32" y="38.41" width="10.54" height="1.83" rx="0.54"/><rect class="cls-3" x="26.69" y="38.41" width="10.54" height="1.83" rx="0.54"/><rect class="cls-3" x="47.17" y="38.41" width="10.54" height="1.83" rx="0.54"/></g></g></svg>