<svg xmlns="http://www.w3.org/2000/svg" viewBox="0 0 447.31 426"><defs><style>.cls-1{fill:#fff;}</style></defs><g id="Layer_2" data-name="Layer 2"><g id="Layer_1-2" data-name="Layer 1"><g id="Layer_4" data-name="Layer 4"><circle class="cls-1" cx="208.98" cy="112.06" r="80.5"/></g><g id="Layer_6" data-name="Layer 6"><path class="cls-1" d="M43.48,49.56c5.68-4.17,13.5-8.51,20-6,8.45,3.27,10,16,13,31,4.16,20.79,12.11,34.86,28,63,8.87,15.7,17.16,30.3,33,45,11.37,10.55,30.61,28.4,61,32,6.49.77,36.67,3.63,62-14,11.46-8,11.45-12.86,19-15,14.7-4.18,30,10,69,51,15.94,16.74,14.8,15.85,86,106,6.68,8.46,15.6,19.74,12,26-4.78,8.32-29.69,4.25-47-3-5.22-2.19-15-6.87-32-22-28.15-25.09-41.79-48.4-44-47-1.84,1.17,5.36,18.81,13,33,5.54,10.3,10.57,17.37,10,28a35.32,35.32,0,0,1-3,12c-2,4.93-7.36,16.09-29,32-11,8-18.42,13.53-30,18-25.29,9.75-48,6.08-60,4-9.85-1.71-32.14-5.87-54-23-8.95-7-20.13-15.78-27-31-9.53-21.12.52-29.68-6-64a146.39,146.39,0,0,0-14-41c-8.93-16.77-18.61-26.31-27-35-2.36-2.44-4-4.26-4.24-4.46-30.43-31.54-49.76-72.54-49.76-72.54-.94-2-19-40.82-17-67a58.3,58.3,0,0,1,4-17A52.79,52.79,0,0,1,43.48,49.56Z"/></g><g id="Layer_7" data-name="Layer 7"><path class="cls-1" d="M32.12,15.76C20.9,20,15.75,38.81,18.78,49.43c.53,1.84,3.67,2.12,4,0,.94-5.62.74-11.11,2.48-16.63C27.06,27.06,30.8,23,33.82,18,34.48,16.92,33.4,15.28,32.12,15.76Z"/><path class="cls-1" d="M30.78,0C20.23-.43,12.18,9.11,7.57,17.47,2.69,26.3-3.32,38.24,2.21,48a1.81,1.81,0,0,0,3.27-1.41c-2.14-9,3.52-19,7.89-26.69C17.85,12,23.64,7,31.5,2.74A1.47,1.47,0,0,0,31.92.68,1.5,1.5,0,0,0,30.78,0Z"/><path class="cls-1" d="M287,35c-1.52-1.45-3.13-2.82-4.77-4.15a77.86,77.86,0,0,0,4.56-9.8c1.25-3.21-3.59-4.84-5.31-2.24s-3.17,5.23-4.69,7.88c-1.07-.77-2.15-1.52-3.23-2.25-4.23-2.87-8.7-5.8-14-5.44-2.06.14-2.66,3.15-.5,3.73,5.23,1.41,10.29,4.82,14.9,8.69a26.66,26.66,0,0,0-3.31,7.24c-.4,1.66,1.53,3.54,3.14,2.41a24.28,24.28,0,0,0,5.16-5.16c1.48,1.41,2.9,2.81,4.23,4.13,7.08,7,10.5,14.9,14.38,23.85.81,1.88,3.22.63,3.41-.92C302.19,52.37,294.17,41.89,287,35Z"/><path class="cls-1" d="M329,91.15c1.34-2.89-2.24-6.32-4.71-3.63-1.63,1.77-3.17,3.6-4.77,5.39A40.59,40.59,0,0,0,307.93,79.3c-2.29-1.79-5.52,1.19-3.28,3.28,4.63,4.34,8.4,9,10.62,14.65-2.28,2-4.86,3.83-6.42,6.32-.89,1.43.24,3.91,2.11,3.67a13.9,13.9,0,0,0,6.2-2.65c1.08,7.36.27,14.77,1,22.17.19,2,3.1,2.67,3.68.5a55,55,0,0,0,.42-27A31.94,31.94,0,0,0,329,91.15Z"/></g></g></g></svg>