<svg xmlns="http://www.w3.org/2000/svg" xmlns:xlink="http://www.w3.org/1999/xlink" viewBox="0 0 47.38 65.83"><defs><style>.cls-1{fill:none;}.cls-2{opacity:0.2;}.cls-3{isolation:isolate;}.cls-4{fill:#b6a38c;}.cls-5{fill:#726658;}.cls-6{fill:#8e7f6d;}.cls-7{clip-path:url(#clip-path);}.cls-8{fill:#7f7262;}.cls-9{fill:#837565;}.cls-10{fill:#7b6e5f;}.cls-11{fill:#776b5c;}.cls-12{fill:#736759;}.cls-13{fill:#6f6456;}.cls-14{fill:#6b6053;}.cls-15{clip-path:url(#clip-path-2);}.cls-16{fill:#948d88;}.cls-17{fill:#99928c;}.cls-18{fill:#908983;}.cls-19{fill:#8b857f;}.cls-20{fill:#87807b;}.cls-21{fill:#827c77;}.cls-22{fill:#7d7772;}.cls-23{clip-path:url(#clip-path-3);}.cls-24{fill:#414141;}.cls-25{fill:#434343;}.cls-26{fill:#3f3f3f;}.cls-27{fill:#3d3d3d;}.cls-28{fill:#3b3b3b;}.cls-29{fill:#393939;}.cls-30{fill:#373737;}.cls-31{clip-path:url(#clip-path-4);}.cls-32{clip-path:url(#clip-path-5);}.cls-33{fill:#79736e;}.cls-34{clip-path:url(#clip-path-6);}.cls-35{fill:#675d50;}.cls-36{clip-path:url(#clip-path-7);}.cls-37{clip-path:url(#clip-path-8);}.cls-38{clip-path:url(#clip-path-9);}.cls-39{fill:#857f7a;}.cls-40{clip-path:url(#clip-path-10);}.cls-41{clip-path:url(#clip-path-11);}.cls-42{clip-path:url(#clip-path-12);}.cls-43{clip-path:url(#clip-path-13);}.cls-44{clip-path:url(#clip-path-14);}.cls-45{fill:#a59d97;}.cls-46{clip-path:url(#clip-path-15);}.cls-47{clip-path:url(#clip-path-16);}.cls-48{fill:#494949;}.cls-49{clip-path:url(#clip-path-17);}.cls-50{fill:#353535;}.cls-51{fill:#5d5d5d;}.cls-52{clip-path:url(#clip-path-18);}.cls-53{fill:#b5b5b5;}.cls-54{clip-path:url(#clip-path-19);}.cls-55{clip-path:url(#clip-path-20);}.cls-56{fill:#a8a8a8;}.cls-57{fill:#a3a3a3;}.cls-58{fill:#484848;}.cls-59{clip-path:url(#clip-path-21);}.cls-60{clip-path:url(#clip-path-22);}.cls-61{clip-path:url(#clip-path-23);}.cls-62{clip-path:url(#clip-path-25);}.cls-63{clip-path:url(#clip-path-26);}.cls-64{clip-path:url(#clip-path-27);}.cls-65{clip-path:url(#clip-path-28);}.cls-66{fill:#8a8a8a;}.cls-67{fill:#8f8f8f;}.cls-68{fill:#949494;}.cls-69{fill:#999;}.cls-70{fill:#9e9e9e;}.cls-71{clip-path:url(#clip-path-29);}.cls-72{fill:#858585;}.cls-73{clip-path:url(#clip-path-30);}.cls-74{clip-path:url(#clip-path-31);}.cls-75{clip-path:url(#clip-path-32);}.cls-76{clip-path:url(#clip-path-33);}.cls-77{clip-path:url(#clip-path-34);}.cls-78{clip-path:url(#clip-path-35);}.cls-79{clip-path:url(#clip-path-36);}.cls-80{clip-path:url(#clip-path-37);}.cls-81{clip-path:url(#clip-path-38);}.cls-82{clip-path:url(#clip-path-39);}.cls-83{clip-path:url(#clip-path-40);}.cls-84{fill:#868686;}.cls-85{clip-path:url(#clip-path-41);}.cls-86{clip-path:url(#clip-path-42);}.cls-87{clip-path:url(#clip-path-43);}.cls-88{clip-path:url(#clip-path-44);}.cls-89{clip-path:url(#clip-path-45);}.cls-90{clip-path:url(#clip-path-46);}.cls-91{clip-path:url(#clip-path-47);}.cls-92{clip-path:url(#clip-path-48);}.cls-93{clip-path:url(#clip-path-49);}.cls-94{clip-path:url(#clip-path-50);}.cls-95{clip-path:url(#clip-path-51);}.cls-96{clip-path:url(#clip-path-52);}.cls-97{clip-path:url(#clip-path-53);}.cls-98{clip-path:url(#clip-path-54);}.cls-99{clip-path:url(#clip-path-55);}.cls-100{clip-path:url(#clip-path-56);}.cls-101{clip-path:url(#clip-path-57);}.cls-102{clip-path:url(#clip-path-58);}.cls-103{clip-path:url(#clip-path-59);}.cls-104{clip-path:url(#clip-path-60);}.cls-105{clip-path:url(#clip-path-61);}.cls-106{clip-path:url(#clip-path-62);}.cls-107{clip-path:url(#clip-path-63);}.cls-108{clip-path:url(#clip-path-64);}.cls-109{clip-path:url(#clip-path-65);}.cls-110{clip-path:url(#clip-path-66);}.cls-111{clip-path:url(#clip-path-67);}.cls-112{clip-path:url(#clip-path-68);}.cls-113{clip-path:url(#clip-path-69);}.cls-114{fill:#d4cac2;}.cls-115{clip-path:url(#clip-path-70);}.cls-116{fill:#e9e9e9;}.cls-117{fill:gray;}.cls-118{clip-path:url(#clip-path-71);}</style><clipPath id="clip-path" transform="translate(-8.6 0)"><path class="cls-1" d="M51.55,31l-1.49-.87A5.32,5.32,0,0,0,52.48,26l1.48.87A5.33,5.33,0,0,1,51.55,31Z"/></clipPath><clipPath id="clip-path-2" transform="translate(-8.6 0)"><path class="cls-1" d="M44.49,32.82,43,32a3.46,3.46,0,0,0,1.56-2.7l1.49.86A3.44,3.44,0,0,1,44.49,32.82Z"/></clipPath><clipPath id="clip-path-3" transform="translate(-8.6 0)"><path class="cls-1" d="M44.49,32.19,43,31.32a2.2,2.2,0,0,0,1-1.74l1.49.87A2.23,2.23,0,0,1,44.49,32.19Z"/></clipPath><clipPath id="clip-path-4" transform="translate(-8.6 0)"><path class="cls-1" d="M38,31.16c1.43-.83,2.88-3.85,2.88-5.51l1.49.87c0,1.65-1.46,4.68-2.89,5.5Z"/></clipPath><clipPath id="clip-path-5" transform="translate(-8.6 0)"><path class="cls-1" d="M40.92,25.65A2.55,2.55,0,0,0,40,23.39l1.49.86a2.59,2.59,0,0,1,.89,2.27Z"/></clipPath><clipPath id="clip-path-6" transform="translate(-8.6 0)"><path class="cls-1" d="M51.71,2.72l1.48.87a1.68,1.68,0,0,1,.71,1.56l-1.49-.87A1.72,1.72,0,0,0,51.71,2.72Z"/></clipPath><clipPath id="clip-path-7" transform="translate(-8.6 0)"><path class="cls-1" d="M33.5,33.76,38,31.16l1.48.86L35,34.63Z"/></clipPath><clipPath id="clip-path-8" transform="translate(-8.6 0)"><path class="cls-1" d="M40,23.39l1.49.86a2.05,2.05,0,0,0-2,.22L38,23.6A2.07,2.07,0,0,1,40,23.39Z"/></clipPath><clipPath id="clip-path-9" transform="translate(-8.6 0)"><path class="cls-1" d="M51.71,2.72l1.48.87a1.69,1.69,0,0,0-1.72.17L50,2.89A1.71,1.71,0,0,1,51.71,2.72Z"/></clipPath><clipPath id="clip-path-10" transform="translate(-8.6 0)"><path class="cls-1" d="M42.71,15.32a.64.64,0,0,0,.28-.49l1.48.87a.61.61,0,0,1-.28.48Z"/></clipPath><clipPath id="clip-path-11" transform="translate(-8.6 0)"><path class="cls-1" d="M43,14.83a.19.19,0,0,0-.08-.17l1.48.86a.19.19,0,0,1,.08.18h0L43,14.83Z"/></clipPath><clipPath id="clip-path-12" transform="translate(-8.6 0)"><path class="cls-1" d="M38.73,25.05l-1.49-.86a4.64,4.64,0,0,1,.68-.53L38,23.6l1.49.87-.11.05A4.17,4.17,0,0,0,38.73,25.05Z"/></clipPath><clipPath id="clip-path-13" transform="translate(-8.6 0)"><path class="cls-1" d="M42.91,14.66l1.48.86a.21.21,0,0,0-.2,0l-1.49-.86A.2.2,0,0,1,42.91,14.66Z"/></clipPath><clipPath id="clip-path-14" transform="translate(-8.6 0)"><path class="cls-1" d="M53.25.27l1.48.87a2.83,2.83,0,0,0-2.87.28L50.37.55A2.89,2.89,0,0,1,53.25.27Z"/></clipPath><clipPath id="clip-path-15" transform="translate(-8.6 0)"><path class="cls-1" d="M29.07,36.31c.81-.46,3.58-2.05,4.43-2.55l1.49.87-4.43,2.54L30.2,37,30,36.85l-.19-.11-.2-.12-.19-.11Z"/></clipPath><clipPath id="clip-path-16" transform="translate(-8.6 0)"><path class="cls-1" d="M40.51,16.49a.19.19,0,0,0,.2,0l1.48.87a.21.21,0,0,1-.2,0Z"/></clipPath><clipPath id="clip-path-17" transform="translate(-8.6 0)"><path class="cls-1" d="M42,17.35l-1.48-.86a.19.19,0,0,1-.08-.18.61.61,0,0,1,.28-.48l1.48.87a.62.62,0,0,0-.28.48A.19.19,0,0,0,42,17.35Z"/></clipPath><clipPath id="clip-path-18" transform="translate(-8.6 0)"><path class="cls-1" d="M31.79,34.28l-1.48-.87,0,0,1.49.86Z"/></clipPath><clipPath id="clip-path-19" transform="translate(-8.6 0)"><path class="cls-1" d="M31.74,34.35l-1.48-.87,0-.07,1.48.87Z"/></clipPath><clipPath id="clip-path-20" transform="translate(-8.6 0)"><path class="cls-1" d="M31.74,34.35l-1.48-.87,0-.08,1.48.87A.35.35,0,0,1,31.74,34.35Z"/></clipPath><clipPath id="clip-path-21" transform="translate(-8.6 0)"><path class="cls-1" d="M30.11,33.61a.45.45,0,0,0,.15-.13l1.48.87a.86.86,0,0,1-.14.13Z"/></clipPath><clipPath id="clip-path-22" transform="translate(-8.6 0)"><path class="cls-1" d="M30.11,33.61l1.49.87h0l-1.49-.87Z"/></clipPath><clipPath id="clip-path-23" transform="translate(-8.6 0)"><path class="cls-1" d="M30.11,33.61h0l1.49.87h0Z"/></clipPath><clipPath id="clip-path-25" transform="translate(-8.6 0)"><path class="cls-1" d="M43.65,10.26l1.49.87a.7.7,0,0,1,.29.65L44,10.91A.72.72,0,0,0,43.65,10.26Z"/></clipPath><clipPath id="clip-path-26" transform="translate(-8.6 0)"><path class="cls-1" d="M37.24,24.19a2.16,2.16,0,0,0-1-1.31l1.49.86a2.22,2.22,0,0,1,1,1.31A5.48,5.48,0,0,1,37.24,24.19Z"/></clipPath><clipPath id="clip-path-27" transform="translate(-8.6 0)"><path class="cls-1" d="M30.11,33.61h0l1.49.87h0a.19.19,0,0,1-.19,0l-1.49-.86A.21.21,0,0,0,30.11,33.61Z"/></clipPath><clipPath id="clip-path-28" transform="translate(-8.6 0)"><path class="cls-1" d="M29.93,33.64a.21.21,0,0,0,.18,0l1.49.87a.19.19,0,0,1-.19,0Z"/></clipPath><clipPath id="clip-path-29" transform="translate(-8.6 0)"><polygon class="cls-1" points="31.41 34.5 29.93 33.63 29.92 33.63 31.4 34.49 31.41 34.5"/></clipPath><clipPath id="clip-path-30" transform="translate(-8.6 0)"><path class="cls-1" d="M34.33,26.44c.11-.19.11-.39,0-.46l1.31.77.17.1c.11.07.11.26,0,.45Z"/></clipPath><clipPath id="clip-path-31" transform="translate(-8.6 0)"><path class="cls-1" d="M39.22,17.29a.6.6,0,0,0,.28-.47l1.49.86a.62.62,0,0,1-.28.48Z"/></clipPath><clipPath id="clip-path-32" transform="translate(-8.6 0)"><path class="cls-1" d="M35.61,26.87,34.13,26c.08,0,.15-.06.2,0l1.48.87A.21.21,0,0,0,35.61,26.87Z"/></clipPath><clipPath id="clip-path-33" transform="translate(-8.6 0)"><path class="cls-1" d="M31.4,34.49l-1.48-.86c-.11-.06-.11-.27,0-.46L31.4,34C31.29,34.23,31.29,34.43,31.4,34.49Z"/></clipPath><clipPath id="clip-path-34" transform="translate(-8.6 0)"><path class="cls-1" d="M44.05,9.59l1.49.86a1.11,1.11,0,0,1,.46,1l-1.49-.86A1.09,1.09,0,0,0,44.05,9.59Z"/></clipPath><clipPath id="clip-path-35" transform="translate(-8.6 0)"><path class="cls-1" d="M35.42,27.08l-1.49-.87a.63.63,0,0,1,.2-.2l1.48.86A.49.49,0,0,0,35.42,27.08Z"/></clipPath><clipPath id="clip-path-36" transform="translate(-8.6 0)"><path class="cls-1" d="M39.5,16.82c0-.09,0-.16-.08-.18l1.49.86a.22.22,0,0,1,.08.18h0l-1.49-.86Z"/></clipPath><clipPath id="clip-path-37" transform="translate(-8.6 0)"><path class="cls-1" d="M43.65,10.26l1.49.87a.69.69,0,0,0-.71.07l-1.49-.87A.72.72,0,0,1,43.65,10.26Z"/></clipPath><clipPath id="clip-path-38" transform="translate(-8.6 0)"><path class="cls-1" d="M39.42,16.64l1.49.86a.2.2,0,0,0-.21,0l-1.48-.86A.19.19,0,0,1,39.42,16.64Z"/></clipPath><clipPath id="clip-path-39" transform="translate(-8.6 0)"><path class="cls-1" d="M44.05,9.59l1.49.86a1.09,1.09,0,0,0-1.11.11l-1.49-.87A1.08,1.08,0,0,1,44.05,9.59Z"/></clipPath><clipPath id="clip-path-40" transform="translate(-8.6 0)"><path class="cls-1" d="M24.81,38.76l4.26-2.45,1.49.86L26.3,39.62Z"/></clipPath><clipPath id="clip-path-41" transform="translate(-8.6 0)"><path class="cls-1" d="M29.32,33.31l-1.49-.86c-.1-.06-.1-.26,0-.45l1.49.87C29.21,33.05,29.21,33.25,29.32,33.31Z"/></clipPath><clipPath id="clip-path-42" transform="translate(-8.6 0)"><path class="cls-1" d="M29.32,32.87,27.83,32a.58.58,0,0,1,.2-.21.21.21,0,0,1,.2,0l1.49.87a.21.21,0,0,0-.2,0A.51.51,0,0,0,29.32,32.87Z"/></clipPath><clipPath id="clip-path-43" transform="translate(-8.6 0)"><path class="cls-1" d="M36.28,22.88l1.48.86A2.78,2.78,0,0,0,35,24a8.1,8.1,0,0,0-2.9,3.16l-1.49-.86a8.2,8.2,0,0,1,2.9-3.17A2.81,2.81,0,0,1,36.28,22.88Z"/></clipPath><clipPath id="clip-path-44" transform="translate(-8.6 0)"><path class="cls-1" d="M23.28,38.79a1.48,1.48,0,0,0,1.53,0l1.49.86a1.47,1.47,0,0,1-1.54,0Z"/></clipPath><clipPath id="clip-path-45" transform="translate(-8.6 0)"><path class="cls-1" d="M36.42,15.7a.62.62,0,0,0,.28-.48l1.49.87a.62.62,0,0,1-.28.47Z"/></clipPath><clipPath id="clip-path-46" transform="translate(-8.6 0)"><path class="cls-1" d="M36.22,15.72a.21.21,0,0,0,.2,0l1.49.86a.19.19,0,0,1-.2,0Z"/></clipPath><clipPath id="clip-path-47" transform="translate(-8.6 0)"><path class="cls-1" d="M20.83,45.5l-1.49-.86a.72.72,0,0,0,.71-.07l1.49.86A.69.69,0,0,1,20.83,45.5Z"/></clipPath><clipPath id="clip-path-48" transform="translate(-8.6 0)"><path class="cls-1" d="M20.43,46.18l-1.49-.86a1.13,1.13,0,0,0,1.12-.11l1.48.86A1.09,1.09,0,0,1,20.43,46.18Z"/></clipPath><clipPath id="clip-path-49" transform="translate(-8.6 0)"><path class="cls-1" d="M37.71,16.58l-1.49-.86a.22.22,0,0,1-.07-.18l1.48.87A.19.19,0,0,0,37.71,16.58Z"/></clipPath><clipPath id="clip-path-50" transform="translate(-8.6 0)"><path class="cls-1" d="M20.83,45.5l-1.49-.86a.71.71,0,0,1-.29-.65l1.49.86A.7.7,0,0,0,20.83,45.5Z"/></clipPath><clipPath id="clip-path-51" transform="translate(-8.6 0)"><path class="cls-1" d="M20.43,46.18l-1.49-.86a1.1,1.1,0,0,1-.45-1l1.48.87A1.09,1.09,0,0,0,20.43,46.18Z"/></clipPath><clipPath id="clip-path-52" transform="translate(-8.6 0)"><path class="cls-1" d="M27.44,31.71,26,30.85a7.56,7.56,0,0,1,3.09-4,3.14,3.14,0,0,1,1.53-.48l1.49.86a3.25,3.25,0,0,0-1.53.48A7.55,7.55,0,0,0,27.44,31.71Z"/></clipPath><clipPath id="clip-path-53" transform="translate(-8.6 0)"><path class="cls-1" d="M36.69,11.85a.19.19,0,0,0-.08-.17l1.49.86a.19.19,0,0,1,.08.18Z"/></clipPath><clipPath id="clip-path-54" transform="translate(-8.6 0)"><path class="cls-1" d="M36.61,11.68l1.49.86a.21.21,0,0,0-.2,0l-1.49-.86A.21.21,0,0,1,36.61,11.68Z"/></clipPath><clipPath id="clip-path-55" transform="translate(-8.6 0)"><path class="cls-1" d="M37.62,13l-1.48-.87a.61.61,0,0,1,.27-.47l1.49.86A.6.6,0,0,0,37.62,13Z"/></clipPath><clipPath id="clip-path-56" transform="translate(-8.6 0)"><path class="cls-1" d="M24.76,39.65l-1.48-.86a2.79,2.79,0,0,1-1.18-2.38,6.77,6.77,0,0,1,2.41-5l.24-.16a2.91,2.91,0,0,1,1.2-.4l1.49.86a3.07,3.07,0,0,0-1.2.4,2.5,2.5,0,0,0-.24.16,6.82,6.82,0,0,0-2.42,5A2.79,2.79,0,0,0,24.76,39.65Z"/></clipPath><clipPath id="clip-path-57" transform="translate(-8.6 0)"><path class="cls-1" d="M12.82,52.53l-1.48-.87a1.69,1.69,0,0,0,1.72-.17l1.49.87A1.73,1.73,0,0,1,12.82,52.53Z"/></clipPath><clipPath id="clip-path-58" transform="translate(-8.6 0)"><path class="cls-1" d="M12.82,52.53l-1.48-.87a1.68,1.68,0,0,1-.71-1.55l1.49.87A1.7,1.7,0,0,0,12.82,52.53Z"/></clipPath><clipPath id="clip-path-59" transform="translate(-8.6 0)"><path class="cls-1" d="M26.52,21.41a.59.59,0,0,0,.28-.47l1.48.86a.59.59,0,0,1-.27.48Z"/></clipPath><clipPath id="clip-path-60" transform="translate(-8.6 0)"><path class="cls-1" d="M26.32,21.43a.19.19,0,0,0,.2,0l1.49.87a.21.21,0,0,1-.2,0Z"/></clipPath><clipPath id="clip-path-61" transform="translate(-8.6 0)"><path class="cls-1" d="M27.81,22.3l-1.49-.87a.19.19,0,0,1-.08-.17l1.49.86A.19.19,0,0,0,27.81,22.3Z"/></clipPath><clipPath id="clip-path-62" transform="translate(-8.6 0)"><path class="cls-1" d="M11.32,55,9.84,54.1a2.81,2.81,0,0,1-1.18-2.59l1.49.86A2.83,2.83,0,0,0,11.32,55Z"/></clipPath><clipPath id="clip-path-63" transform="translate(-8.6 0)"><path class="cls-1" d="M26.79,17.57a.19.19,0,0,0-.08-.18l1.49.87a.21.21,0,0,1,.07.17Z"/></clipPath><clipPath id="clip-path-64" transform="translate(-8.6 0)"><path class="cls-1" d="M26.71,17.39l1.49.87a.19.19,0,0,0-.2,0l-1.49-.87A.24.24,0,0,1,26.71,17.39Z"/></clipPath><clipPath id="clip-path-65" transform="translate(-8.6 0)"><path class="cls-1" d="M27.72,18.76l-1.49-.87a.64.64,0,0,1,.28-.48l1.49.87A.62.62,0,0,0,27.72,18.76Z"/></clipPath><clipPath id="clip-path-66" transform="translate(-8.6 0)"><path class="cls-1" d="M18.66,29.07a.23.23,0,0,0,.21,0l1.48.86a.21.21,0,0,1-.2,0Z"/></clipPath><clipPath id="clip-path-67" transform="translate(-8.6 0)"><path class="cls-1" d="M20.15,29.93l-1.49-.86a.19.19,0,0,1-.08-.18.62.62,0,0,1,.28-.48l1.49.86a.62.62,0,0,0-.28.49A.19.19,0,0,0,20.15,29.93Z"/></clipPath><clipPath id="clip-path-68" transform="translate(-8.6 0)"><path class="cls-1" d="M21,24.17l-1-.59a2.19,2.19,0,0,0-1,1.74l1,.58A3.69,3.69,0,0,1,21,24.17Z"/></clipPath><clipPath id="clip-path-69" transform="translate(-8.6 0)"><path class="cls-1" d="M19.92,26.51l-1.49-.87A3.46,3.46,0,0,1,20,22.94l1.49.87A3.44,3.44,0,0,0,19.92,26.51Z"/></clipPath><clipPath id="clip-path-70" transform="translate(-8.6 0)"><path class="cls-1" d="M12.06,29.31l-1.49-.87A5.35,5.35,0,0,1,13,24.25l1.48.87A5.29,5.29,0,0,0,12.06,29.31Z"/></clipPath><clipPath id="clip-path-71" transform="translate(-8.6 0)"><path class="cls-1" d="M10.08,30.19,8.6,29.32a8.86,8.86,0,0,1,4-7l1.49.86A8.88,8.88,0,0,0,10.08,30.19Z"/></clipPath></defs><g id="Layer_2" data-name="Layer 2"><g id="Layer_2-2" data-name="Layer 2"><path class="cls-2" d="M16.85,64.46l1.42.93a2.65,2.65,0,0,0,2.78.08l25.4-14.68a1.42,1.42,0,0,0,.07-2.42l-2.35-1.53a1.43,1.43,0,0,0-1.49,0L16.9,62.05A1.42,1.42,0,0,0,16.85,64.46Z" transform="translate(-8.6 0)"/><g class="cls-3"><polygon class="cls-4" points="15.49 48.97 15.53 61.8 12.2 63.73 12.16 50.89 15.49 48.97"/><polygon class="cls-5" points="12.2 63.73 10.71 62.87 10.68 50.03 12.16 50.89 12.2 63.73"/><polygon class="cls-6" points="12.16 50.89 10.68 50.03 14.01 48.1 15.49 48.97 12.16 50.89"/></g><g class="cls-3"><polygon class="cls-4" points="36.41 36.89 36.45 49.73 33.12 51.65 33.08 38.81 36.41 36.89"/><polygon class="cls-5" points="33.12 51.65 31.63 50.79 31.6 37.95 33.08 38.81 33.12 51.65"/><polygon class="cls-6" points="33.08 38.81 31.6 37.95 34.92 36.03 36.41 36.89 33.08 38.81"/></g><g class="cls-3"><g class="cls-3"><g class="cls-7"><g class="cls-3"><path class="cls-8" d="M51.55,31l-1.49-.87.11-.06,1.49.86-.11.07" transform="translate(-8.6 0)"/><path class="cls-9" d="M51.66,30.93l-1.49-.86a5,5,0,0,0,1.49-1.56l1.49.87a4.92,4.92,0,0,1-1.49,1.55" transform="translate(-8.6 0)"/><path class="cls-8" d="M53.15,29.38l-1.49-.87c.1-.16.2-.33.29-.5l1.48.86c-.08.17-.18.34-.28.51" transform="translate(-8.6 0)"/><path class="cls-10" d="M53.43,28.87,52,28l.19-.43,1.48.86a4,4,0,0,1-.19.43" transform="translate(-8.6 0)"/><path class="cls-11" d="M53.62,28.44l-1.48-.86c0-.14.1-.27.14-.4l1.49.86c-.05.13-.09.27-.15.4" transform="translate(-8.6 0)"/><path class="cls-12" d="M53.77,28l-1.49-.86c0-.14.07-.27.1-.4l1.49.87c0,.13-.06.26-.1.39" transform="translate(-8.6 0)"/><path class="cls-13" d="M53.87,27.65l-1.49-.87a2.93,2.93,0,0,0,.07-.41l1.49.87c0,.13,0,.27-.07.41" transform="translate(-8.6 0)"/><path class="cls-14" d="M53.94,27.24l-1.49-.87a3,3,0,0,0,0-.42l1.48.87c0,.14,0,.27,0,.42" transform="translate(-8.6 0)"/></g></g></g><g class="cls-3"><g class="cls-15"><g class="cls-3"><path class="cls-16" d="M44.49,32.82,43,32l.07,0,1.49.86-.07,0" transform="translate(-8.6 0)"/><path class="cls-17" d="M44.56,32.78l-1.49-.86a3,3,0,0,0,1-1l1.49.87a3.18,3.18,0,0,1-1,1" transform="translate(-8.6 0)"/><path class="cls-16" d="M45.52,31.78,44,30.91a3.37,3.37,0,0,0,.19-.32l1.49.86c-.06.11-.12.22-.19.33" transform="translate(-8.6 0)"/><path class="cls-18" d="M45.71,31.45l-1.49-.86c0-.1.09-.19.12-.28l1.49.86-.12.28" transform="translate(-8.6 0)"/><path class="cls-19" d="M45.83,31.17l-1.49-.86a1.61,1.61,0,0,0,.09-.26l1.49.86-.09.26" transform="translate(-8.6 0)"/><path class="cls-20" d="M45.92,30.91l-1.49-.86a2.5,2.5,0,0,0,.07-.26l1.49.87a2.33,2.33,0,0,1-.07.25" transform="translate(-8.6 0)"/><path class="cls-21" d="M46,30.66l-1.49-.87a2,2,0,0,0,0-.26l1.48.86a2.51,2.51,0,0,1,0,.27" transform="translate(-8.6 0)"/><path class="cls-22" d="M46,30.39l-1.48-.86a2.44,2.44,0,0,0,0-.27l1.49.86a2.45,2.45,0,0,1,0,.27" transform="translate(-8.6 0)"/></g></g></g><g class="cls-3"><g class="cls-23"><g class="cls-3"><path class="cls-24" d="M44.49,32.19,43,31.32l0,0,1.49.86,0,0" transform="translate(-8.6 0)"/><path class="cls-25" d="M44.53,32.16,43,31.3a1.94,1.94,0,0,0,.62-.65l1.49.87a2.11,2.11,0,0,1-.62.64" transform="translate(-8.6 0)"/><path class="cls-24" d="M45.15,31.52l-1.49-.87a2,2,0,0,0,.12-.21l1.48.87a2.12,2.12,0,0,1-.11.21" transform="translate(-8.6 0)"/><path class="cls-26" d="M45.26,31.31l-1.48-.87.08-.18,1.48.87a1.42,1.42,0,0,1-.08.18" transform="translate(-8.6 0)"/><path class="cls-27" d="M45.34,31.13l-1.48-.87.06-.16L45.4,31a.58.58,0,0,1-.06.17" transform="translate(-8.6 0)"/><path class="cls-28" d="M45.4,31l-1.48-.86c0-.06,0-.11,0-.17l1.49.87a1,1,0,0,1-.05.16" transform="translate(-8.6 0)"/><path class="cls-29" d="M45.45,30.8,44,29.93l0-.17,1.49.86,0,.18" transform="translate(-8.6 0)"/><path class="cls-30" d="M45.48,30.62,44,29.76a1.09,1.09,0,0,0,0-.18l1.49.87c0,.06,0,.11,0,.17" transform="translate(-8.6 0)"/></g></g></g><g class="cls-3"><g class="cls-31"><g class="cls-3"><path class="cls-16" d="M39.52,32,38,31.16l.07-.05L39.6,32l-.08,0" transform="translate(-8.6 0)"/><path class="cls-17" d="M39.6,32l-1.49-.87a5.1,5.1,0,0,0,1.47-1.62l1.49.86A5.39,5.39,0,0,1,39.6,32" transform="translate(-8.6 0)"/><path class="cls-16" d="M41.07,30.35l-1.49-.86a8.76,8.76,0,0,0,.47-.85l1.49.86c-.15.29-.3.58-.47.85" transform="translate(-8.6 0)"/><path class="cls-18" d="M41.54,29.5l-1.49-.86c.13-.26.25-.52.35-.78l1.49.86c-.11.26-.22.53-.35.78" transform="translate(-8.6 0)"/><path class="cls-19" d="M41.89,28.72l-1.49-.86a7.4,7.4,0,0,0,.25-.7l1.49.87c-.08.22-.16.46-.25.69" transform="translate(-8.6 0)"/><path class="cls-20" d="M42.14,28l-1.49-.87c.06-.2.12-.4.16-.59l1.48.86q-.06.29-.15.6" transform="translate(-8.6 0)"/><path class="cls-21" d="M42.29,27.43l-1.48-.86a3.28,3.28,0,0,0,.08-.52l1.49.87q0,.24-.09.51" transform="translate(-8.6 0)"/><path class="cls-22" d="M42.38,26.92l-1.49-.87a2.8,2.8,0,0,0,0-.4v-.09l1.48.86a.34.34,0,0,1,0,.1,2.91,2.91,0,0,1,0,.4" transform="translate(-8.6 0)"/></g></g></g><polygon class="cls-5" points="45.37 26.82 43.88 25.95 43.82 4.28 45.3 5.15 45.37 26.82"/><g class="cls-3"><g class="cls-32"><g class="cls-3"><path class="cls-22" d="M42.38,26.92l-1.49-.87a2.8,2.8,0,0,0,0-.4v-.09l1.48.86a.34.34,0,0,1,0,.1,2.91,2.91,0,0,1,0,.4" transform="translate(-8.6 0)"/><path class="cls-33" d="M42.4,26.42l-1.48-.86A2.5,2.5,0,0,0,40,23.39l1.49.86a2.47,2.47,0,0,1,.88,2.17" transform="translate(-8.6 0)"/></g></g></g><g class="cls-3"><g class="cls-34"><g class="cls-3"><path class="cls-14" d="M53.9,5.15l-1.49-.87v0l1.49.86v.06" transform="translate(-8.6 0)"/><path class="cls-35" d="M53.9,5.09l-1.49-.86a1.68,1.68,0,0,0-.7-1.51l1.48.87a1.65,1.65,0,0,1,.71,1.5" transform="translate(-8.6 0)"/></g></g></g><g class="cls-3"><g class="cls-36"><g class="cls-3"><path class="cls-16" d="M26.1,39.72l-1.49-.86.2-.1,4.26-2.45c.81-.46,3.58-2.05,4.43-2.55L38,31.16l1.48.86L35,34.63l-4.43,2.54L26.3,39.62a1.24,1.24,0,0,1-.2.1" transform="translate(-8.6 0)"/></g></g></g><g class="cls-3"><g class="cls-37"><g class="cls-3"><path class="cls-24" d="M39.52,24.47,38,23.6l.31-.14,1.48.86a2.1,2.1,0,0,0-.3.15" transform="translate(-8.6 0)"/><path class="cls-26" d="M39.82,24.32l-1.48-.86a3.36,3.36,0,0,1,.47-.17l1.49.87a2.7,2.7,0,0,0-.48.16" transform="translate(-8.6 0)"/><path class="cls-27" d="M40.3,24.16l-1.49-.87.37-.07,1.48.87a1.75,1.75,0,0,0-.36.07" transform="translate(-8.6 0)"/><path class="cls-28" d="M40.66,24.09l-1.48-.87h.31l1.49.87a1.71,1.71,0,0,0-.32,0" transform="translate(-8.6 0)"/><path class="cls-29" d="M41,24.09l-1.49-.87a1.24,1.24,0,0,1,.29.06l1.49.86a.93.93,0,0,0-.29-.05" transform="translate(-8.6 0)"/><path class="cls-30" d="M41.27,24.14l-1.49-.86a1,1,0,0,1,.25.11l1.49.86-.25-.11" transform="translate(-8.6 0)"/></g></g></g><g class="cls-3"><g class="cls-38"><g class="cls-3"><path class="cls-16" d="M51.47,3.76,50,2.89a1.77,1.77,0,0,1,.31-.15l1.48.86a1.84,1.84,0,0,0-.31.16" transform="translate(-8.6 0)"/><path class="cls-18" d="M51.78,3.6,50.3,2.74l.32-.12,1.49.87a1.42,1.42,0,0,0-.33.11" transform="translate(-8.6 0)"/><path class="cls-19" d="M52.11,3.49l-1.49-.87.3-.05,1.48.86-.29.06" transform="translate(-8.6 0)"/><path class="cls-20" d="M52.4,3.43l-1.48-.86h.27l1.49.86a1.31,1.31,0,0,0-.28,0" transform="translate(-8.6 0)"/><path class="cls-21" d="M52.68,3.43l-1.49-.86a.87.87,0,0,1,.28.05L53,3.48l-.28,0" transform="translate(-8.6 0)"/><path class="cls-22" d="M53,3.48l-1.49-.86.24.1,1.48.87L53,3.48" transform="translate(-8.6 0)"/></g></g></g><polygon class="cls-39" points="37.45 30.12 35.97 29.26 35.91 10.59 37.4 11.45 37.45 30.12"/><polygon class="cls-28" points="36.89 30.45 35.4 29.58 35.35 10.91 36.84 11.78 36.89 30.45"/><g class="cls-3"><g class="cls-40"><g class="cls-3"><path class="cls-16" d="M44.19,16.18l-1.48-.86h0l1.48.86h0" transform="translate(-8.6 0)"/><path class="cls-17" d="M44.2,16.17l-1.48-.86a.74.74,0,0,0,.17-.18l1.49.86a.52.52,0,0,1-.18.18" transform="translate(-8.6 0)"/><path class="cls-16" d="M44.38,16l-1.49-.86,0-.06,1.49.86,0,.06" transform="translate(-8.6 0)"/><path class="cls-18" d="M44.41,15.93l-1.49-.86L43,15l1.48.86a.08.08,0,0,1,0,0" transform="translate(-8.6 0)"/><path class="cls-19" d="M44.43,15.88,43,15s0,0,0,0l1.49.87,0,0" transform="translate(-8.6 0)"/><path class="cls-20" d="M44.45,15.84,43,15s0,0,0,0l1.48.86s0,0,0,.05" transform="translate(-8.6 0)"/><path class="cls-21" d="M44.46,15.79,43,14.93v0l1.49.86a.07.07,0,0,1,0,0" transform="translate(-8.6 0)"/><path class="cls-22" d="M44.47,15.74,43,14.88a.09.09,0,0,0,0-.05h0l1.48.86h0v0" transform="translate(-8.6 0)"/></g></g></g><g class="cls-3"><g class="cls-41"><g class="cls-3"><path class="cls-22" d="M44.47,15.74,43,14.88a.09.09,0,0,0,0-.05h0l1.48.86h0v0" transform="translate(-8.6 0)"/><path class="cls-33" d="M44.47,15.69,43,14.83a.23.23,0,0,0-.08-.17l1.48.86a.19.19,0,0,1,.08.17" transform="translate(-8.6 0)"/></g></g></g><g class="cls-3"><g class="cls-42"><g class="cls-3"><path class="cls-25" d="M38.73,25.05l-1.49-.86a4.52,4.52,0,0,1,.61-.49l1.49.87a4.42,4.42,0,0,0-.61.48" transform="translate(-8.6 0)"/><path class="cls-24" d="M39.34,24.57l-1.49-.87.07,0L38,23.6l1.49.87-.11.05-.07.05" transform="translate(-8.6 0)"/></g></g></g><g class="cls-3"><g class="cls-43"><g class="cls-3"><path class="cls-24" d="M44.19,15.54l-1.49-.86,0,0,1.49.87h0" transform="translate(-8.6 0)"/><path class="cls-26" d="M44.23,15.53l-1.49-.87h0l1.49.86,0,0" transform="translate(-8.6 0)"/><path class="cls-27" d="M44.27,15.51l-1.49-.86h0l1.49.87h0" transform="translate(-8.6 0)"/><path class="cls-28" d="M44.3,15.51l-1.49-.87h0l1.48.87h0" transform="translate(-8.6 0)"/><path class="cls-29" d="M44.33,15.51l-1.48-.87h0l1.49.86h0" transform="translate(-8.6 0)"/><path class="cls-30" d="M44.37,15.51l-1.49-.86h0l1.48.86h0" transform="translate(-8.6 0)"/></g></g></g><g class="cls-3"><g class="cls-44"><g class="cls-3"><path class="cls-8" d="M51.86,1.42,50.37.55c.18-.1.35-.18.52-.26l1.48.87a4.92,4.92,0,0,0-.51.26" transform="translate(-8.6 0)"/><path class="cls-10" d="M52.37,1.16,50.89.29A4.5,4.5,0,0,1,51.44.1L52.92,1a3.61,3.61,0,0,0-.55.19" transform="translate(-8.6 0)"/><path class="cls-11" d="M52.92,1,51.44.1,51.93,0l1.48.87a2.32,2.32,0,0,0-.49.09" transform="translate(-8.6 0)"/><path class="cls-12" d="M53.41.88,51.93,0h.46l1.49.86a2.48,2.48,0,0,0-.47,0" transform="translate(-8.6 0)"/><path class="cls-13" d="M53.88.87,52.39,0a1.71,1.71,0,0,1,.46.09L54.34,1a3.4,3.4,0,0,0-.46-.09" transform="translate(-8.6 0)"/><path class="cls-14" d="M54.34,1,52.85.1a2,2,0,0,1,.4.17l1.48.87A2.32,2.32,0,0,0,54.34,1" transform="translate(-8.6 0)"/></g></g></g><polygon class="cls-45" points="33.6 17.34 32.11 16.47 34.11 15.32 35.6 16.18 33.6 17.34"/><g class="cls-3"><g class="cls-46"><g class="cls-3"><path class="cls-16" d="M26.1,39.72l-1.49-.86.2-.1,4.26-2.45c.81-.46,3.58-2.05,4.43-2.55L38,31.16l1.48.86L35,34.63l-4.43,2.54L26.3,39.62a1.24,1.24,0,0,1-.2.1" transform="translate(-8.6 0)"/></g></g></g><g class="cls-3"><g class="cls-47"><g class="cls-3"><path class="cls-22" d="M42,17.35l-1.48-.86h0l1.48.87,0,0" transform="translate(-8.6 0)"/><path class="cls-21" d="M42,17.37l-1.48-.87h0l1.49.86h0" transform="translate(-8.6 0)"/><path class="cls-20" d="M42.06,17.37l-1.49-.86h0l1.49.86h0" transform="translate(-8.6 0)"/><path class="cls-19" d="M42.09,17.37l-1.49-.86h0l1.48.87h0" transform="translate(-8.6 0)"/><path class="cls-18" d="M42.12,17.37l-1.48-.87h0l1.49.86,0,0" transform="translate(-8.6 0)"/><path class="cls-16" d="M42.16,17.35l-1.49-.86,0,0,1.48.87h0" transform="translate(-8.6 0)"/></g></g></g><polygon class="cls-48" points="33.6 16.7 32.11 15.83 34.11 14.68 35.59 15.54 33.6 16.7"/><g class="cls-3"><g class="cls-49"><g class="cls-3"><path class="cls-50" d="M42,17.35l-1.48-.86a.19.19,0,0,1-.08-.17l1.48.86a.19.19,0,0,0,.08.17" transform="translate(-8.6 0)"/><path class="cls-30" d="M41.91,17.18l-1.48-.86h0v0l1.48.87v.05h0" transform="translate(-8.6 0)"/><path class="cls-29" d="M41.91,17.13l-1.48-.87a.06.06,0,0,1,0,0l1.48.86a.09.09,0,0,1,0,.05" transform="translate(-8.6 0)"/><path class="cls-28" d="M41.92,17.08l-1.48-.86s0,0,0,0l1.48.86a.06.06,0,0,1,0,0" transform="translate(-8.6 0)"/><path class="cls-27" d="M41.93,17l-1.48-.86s0,0,0-.05L42,17l0,.05" transform="translate(-8.6 0)"/><path class="cls-26" d="M42,17l-1.49-.86,0-.05L42,17s0,0,0,0" transform="translate(-8.6 0)"/><path class="cls-24" d="M42,17l-1.48-.87,0-.06,1.48.87L42,17" transform="translate(-8.6 0)"/><path class="cls-25" d="M42,16.89,40.52,16a.74.74,0,0,1,.17-.18l1.49.86a.66.66,0,0,0-.18.19" transform="translate(-8.6 0)"/><path class="cls-24" d="M42.18,16.7l-1.49-.86h0l1.48.87h0" transform="translate(-8.6 0)"/></g></g></g><path class="cls-51" d="M44.19,15.54c.15-.08.28,0,.28.16a.61.61,0,0,1-.28.48l-2,1.16c-.15.08-.28,0-.28-.16a.62.62,0,0,1,.28-.48Z" transform="translate(-8.6 0)"/><g class="cls-3"><g class="cls-52"><g class="cls-3"><path class="cls-24" d="M31.79,34.28l-1.48-.87v0l1.49.86,0,0" transform="translate(-8.6 0)"/><path class="cls-26" d="M31.81,34.25l-1.49-.86v0l1.49.86v0" transform="translate(-8.6 0)"/></g></g></g><polygon class="cls-53" points="23.2 34.27 21.71 33.4 21.74 33.36 23.22 34.22 23.2 34.27"/><g class="cls-3"><g class="cls-54"><g class="cls-3"><path class="cls-25" d="M31.74,34.35l-1.48-.87,0-.07,1.48.87-.05.07" transform="translate(-8.6 0)"/><polyline class="cls-24" points="23.2 34.28 21.71 33.41 21.71 33.41 23.2 34.28 23.2 34.28"/></g></g></g><g class="cls-3"><g class="cls-55"><g class="cls-3"><path class="cls-56" d="M31.74,34.35l-1.48-.87,0,0,1.48.86,0,.05" transform="translate(-8.6 0)"/><path class="cls-57" d="M31.77,34.3l-1.48-.86,0,0,1.48.87,0,0" transform="translate(-8.6 0)"/></g></g></g><polygon class="cls-58" points="23.22 34.22 21.74 33.36 25.73 26.44 27.22 27.3 23.22 34.22"/><g class="cls-3"><g class="cls-59"><g class="cls-3"><path class="cls-24" d="M31.56,34.5l-1.49-.87,0,0h0l1.49.86h0l0,0" transform="translate(-8.6 0)"/><path class="cls-25" d="M31.61,34.47l-1.49-.86a.86.86,0,0,0,.14-.13l1.48.87a.49.49,0,0,1-.13.12" transform="translate(-8.6 0)"/></g></g></g><g class="cls-3"><g class="cls-60"><g class="cls-3"><path class="cls-24" d="M31.56,34.5l-1.49-.87,0,0h0l1.49.86h0l0,0" transform="translate(-8.6 0)"/></g></g></g><g class="cls-3"><g class="cls-61"><g class="cls-3"><path class="cls-24" d="M31.56,34.5l-1.49-.87,0,0h0l1.49.86h0l0,0" transform="translate(-8.6 0)"/></g></g></g><g class="cls-3"><g class="cls-60"><g class="cls-3"><path class="cls-24" d="M31.56,34.5l-1.49-.87,0,0h0l1.49.86h0l0,0" transform="translate(-8.6 0)"/></g></g></g><g class="cls-3"><g class="cls-62"><g class="cls-3"><path class="cls-30" d="M45.43,11.78,44,10.91v0l1.48.86v0" transform="translate(-8.6 0)"/><path class="cls-50" d="M45.43,11.75,44,10.89a.71.71,0,0,0-.3-.63l1.49.87a.67.67,0,0,1,.29.62" transform="translate(-8.6 0)"/></g></g></g><g class="cls-3"><g class="cls-63"><g class="cls-3"><path class="cls-33" d="M38.73,25.05l-1.49-.86a2.16,2.16,0,0,0-1-1.31l1.49.86a2.22,2.22,0,0,1,1,1.31" transform="translate(-8.6 0)"/></g></g></g><g class="cls-3"><g class="cls-64"><g class="cls-3"><path class="cls-30" d="M31.4,34.5l-1.49-.86h0l1.48.86h0" transform="translate(-8.6 0)"/><path class="cls-29" d="M31.41,34.51l-1.48-.86h0l1.49.87h0" transform="translate(-8.6 0)"/><path class="cls-28" d="M31.45,34.52,30,33.65h0l1.48.87h0" transform="translate(-8.6 0)"/><path class="cls-27" d="M31.48,34.52,30,33.65h0l1.49.86h0" transform="translate(-8.6 0)"/><path class="cls-26" d="M31.52,34.51,30,33.65l0,0,1.49.87h0" transform="translate(-8.6 0)"/><path class="cls-24" d="M31.56,34.5l-1.49-.87,0,0h0l1.49.86h0l0,0" transform="translate(-8.6 0)"/></g></g></g><g class="cls-3"><g class="cls-65"><g class="cls-3"><path class="cls-66" d="M31.41,34.5l-1.48-.86h0l1.49.86h0" transform="translate(-8.6 0)"/><path class="cls-67" d="M31.44,34.51,30,33.65h0l1.48.86h0" transform="translate(-8.6 0)"/><path class="cls-68" d="M31.46,34.51,30,33.65h0l1.49.86a0,0,0,0,1,0,0" transform="translate(-8.6 0)"/><path class="cls-69" d="M31.49,34.51,30,33.65h0l1.49.87h0" transform="translate(-8.6 0)"/><path class="cls-70" d="M31.52,34.51,30,33.64h0l1.49.86,0,0" transform="translate(-8.6 0)"/><path class="cls-57" d="M31.56,34.49l-1.49-.86,0,0,1.49.87h0" transform="translate(-8.6 0)"/></g></g></g><g class="cls-3"><g class="cls-71"><g class="cls-3"><polyline class="cls-72" points="22.82 34.5 21.33 33.63 21.32 33.63 22.81 34.49 22.82 34.5"/></g></g></g><g class="cls-3"><g class="cls-73"><g class="cls-3"><path class="cls-24" d="M35.81,27.3l-1.48-.86,0,0,1.48.86,0,0" transform="translate(-8.6 0)"/><path class="cls-26" d="M35.83,27.26l-1.48-.86,0,0,1.49.86,0,.05" transform="translate(-8.6 0)"/><path class="cls-27" d="M35.86,27.21l-1.49-.86s0,0,0,0l1.48.86s0,0,0,0" transform="translate(-8.6 0)"/><path class="cls-28" d="M35.87,27.17l-1.48-.86s0,0,0,0l1.48.86a.09.09,0,0,1,0,.05" transform="translate(-8.6 0)"/><path class="cls-29" d="M35.88,27.12l-1.48-.86a.11.11,0,0,1,0-.05l1.48.87a.06.06,0,0,1,0,0" transform="translate(-8.6 0)"/><path class="cls-30" d="M35.89,27.08l-1.48-.87v-.05L35.9,27s0,0,0,.06" transform="translate(-8.6 0)"/><path class="cls-50" d="M35.9,27l-1.49-.86a.22.22,0,0,0-.08-.18l1.48.87a.21.21,0,0,1,.09.17" transform="translate(-8.6 0)"/></g></g></g><g class="cls-3"><g class="cls-74"><g class="cls-3"><path class="cls-16" d="M40.71,18.16l-1.49-.87h0l1.49.86h0" transform="translate(-8.6 0)"/><path class="cls-17" d="M40.72,18.15l-1.49-.86a.66.66,0,0,0,.18-.19l1.48.87a.49.49,0,0,1-.17.18" transform="translate(-8.6 0)"/><path class="cls-16" d="M40.89,18l-1.48-.87,0-.05,1.49.86,0,.06" transform="translate(-8.6 0)"/><path class="cls-18" d="M40.93,17.91l-1.49-.86a.17.17,0,0,0,0-.05l1.49.86s0,0,0,.05" transform="translate(-8.6 0)"/><path class="cls-19" d="M41,17.86,39.46,17l0-.05,1.48.87v0" transform="translate(-8.6 0)"/><path class="cls-20" d="M41,17.82,39.48,17s0,0,0,0l1.49.86,0,.05" transform="translate(-8.6 0)"/><path class="cls-21" d="M41,17.77l-1.49-.86s0,0,0-.05l1.48.87v0" transform="translate(-8.6 0)"/><path class="cls-22" d="M41,17.73l-1.48-.87v0h0l1.49.86h0a.09.09,0,0,1,0,.05" transform="translate(-8.6 0)"/></g></g></g><g class="cls-3"><g class="cls-75"><g class="cls-3"><path class="cls-57" d="M35.61,26.87,34.13,26l0,0,1.49.86,0,0" transform="translate(-8.6 0)"/><path class="cls-70" d="M35.66,26.85,34.17,26l0,0,1.49.87h0" transform="translate(-8.6 0)"/><path class="cls-69" d="M35.7,26.84,34.21,26h0l1.48.86h0" transform="translate(-8.6 0)"/><path class="cls-68" d="M35.73,26.83,34.25,26h0l1.48.86h0" transform="translate(-8.6 0)"/><path class="cls-67" d="M35.76,26.83,34.28,26h0l1.49.87h0" transform="translate(-8.6 0)"/><path class="cls-66" d="M35.79,26.84,34.3,26h0l1.48.87s0,0,0,0" transform="translate(-8.6 0)"/></g></g></g><g class="cls-3"><g class="cls-76"><g class="cls-3"><path class="cls-72" d="M31.4,34.49l-1.48-.86a.21.21,0,0,1-.09-.17l1.49.86a.19.19,0,0,0,.08.17" transform="translate(-8.6 0)"/><path class="cls-66" d="M31.32,34.32l-1.49-.86s0,0,0-.06l1.48.86v.06" transform="translate(-8.6 0)"/><path class="cls-67" d="M31.32,34.26l-1.48-.86a.09.09,0,0,1,0,0l1.48.87a.06.06,0,0,1,0,0" transform="translate(-8.6 0)"/><path class="cls-68" d="M31.33,34.22l-1.48-.87a.06.06,0,0,1,0,0l1.48.86a.09.09,0,0,1,0,0" transform="translate(-8.6 0)"/><path class="cls-69" d="M31.34,34.17l-1.48-.86s0,0,0-.05l1.49.86,0,.05" transform="translate(-8.6 0)"/><path class="cls-70" d="M31.36,34.12l-1.49-.86,0,0,1.48.87s0,0,0,0" transform="translate(-8.6 0)"/><path class="cls-57" d="M31.38,34.08l-1.48-.87,0,0L31.4,34l0,0" transform="translate(-8.6 0)"/></g></g></g><polygon class="cls-53" points="22.81 34.04 21.32 33.17 21.51 32.84 23 33.71 22.81 34.04"/><polygon class="cls-50" points="20.73 33.31 19.24 32.45 21.31 33.64 22.8 34.5 20.73 33.31"/><g class="cls-3"><g class="cls-77"><g class="cls-3"><path class="cls-22" d="M46,11.45l-1.49-.86v0l1.48.87v0" transform="translate(-8.6 0)"/><path class="cls-33" d="M46,11.42l-1.48-.87a1.06,1.06,0,0,0-.46-1l1.49.86a1.06,1.06,0,0,1,.45,1" transform="translate(-8.6 0)"/></g></g></g><polygon class="cls-53" points="23 33.71 21.51 32.84 25.34 26.21 26.82 27.08 23 33.71"/><g class="cls-3"><g class="cls-78"><g class="cls-3"><polyline class="cls-57" points="26.82 27.08 25.34 26.21 25.34 26.21 26.82 27.07 26.82 27.08"/><path class="cls-56" d="M35.42,27.07l-1.49-.86a.57.57,0,0,1,.19-.19l1.48.86a.66.66,0,0,0-.18.19" transform="translate(-8.6 0)"/><path class="cls-57" d="M35.6,26.88,34.12,26h0l1.48.86h0" transform="translate(-8.6 0)"/></g></g></g><g class="cls-3"><g class="cls-79"><g class="cls-3"><path class="cls-22" d="M41,17.73l-1.48-.87v0h0l1.49.86h0a.09.09,0,0,1,0,.05" transform="translate(-8.6 0)"/><path class="cls-33" d="M41,17.67l-1.49-.86c0-.09,0-.15-.08-.17l1.49.86a.25.25,0,0,1,.08.17" transform="translate(-8.6 0)"/></g></g></g><g class="cls-3"><g class="cls-80"><g class="cls-3"><path class="cls-16" d="M44.43,11.2l-1.49-.87.13-.06,1.49.86-.13.07" transform="translate(-8.6 0)"/><path class="cls-18" d="M44.56,11.13l-1.49-.86.14,0,1.48.86-.13.05" transform="translate(-8.6 0)"/><path class="cls-19" d="M44.69,11.08l-1.48-.86.12,0,1.48.86-.12,0" transform="translate(-8.6 0)"/><path class="cls-20" d="M44.81,11.06l-1.48-.86h.11l1.49.86h-.12" transform="translate(-8.6 0)"/><path class="cls-21" d="M44.93,11.06l-1.49-.86.11,0,1.49.86-.11,0" transform="translate(-8.6 0)"/><path class="cls-22" d="M45,11.08l-1.49-.86.1,0,1.49.87-.1-.05" transform="translate(-8.6 0)"/></g></g></g><g class="cls-3"><g class="cls-81"><g class="cls-3"><path class="cls-24" d="M40.7,17.52l-1.48-.86,0,0,1.49.86,0,0" transform="translate(-8.6 0)"/><path class="cls-26" d="M40.74,17.5l-1.49-.86,0,0,1.49.87h0" transform="translate(-8.6 0)"/><path class="cls-27" d="M40.78,17.49l-1.49-.87h0l1.48.86h0" transform="translate(-8.6 0)"/><path class="cls-28" d="M40.81,17.48l-1.48-.86h0l1.49.86h0" transform="translate(-8.6 0)"/><path class="cls-29" d="M40.85,17.48l-1.49-.86h0l1.49.87h0" transform="translate(-8.6 0)"/><path class="cls-30" d="M40.88,17.49l-1.49-.87,0,0,1.49.86h0" transform="translate(-8.6 0)"/></g></g></g><g class="cls-3"><g class="cls-82"><g class="cls-3"><path class="cls-24" d="M44.43,10.56l-1.49-.87.2-.1,1.49.87-.2.1" transform="translate(-8.6 0)"/><path class="cls-26" d="M44.63,10.46l-1.49-.87.21-.07,1.49.86-.21.08" transform="translate(-8.6 0)"/><path class="cls-27" d="M44.84,10.38l-1.49-.86.19,0,1.49.86-.19,0" transform="translate(-8.6 0)"/><path class="cls-28" d="M45,10.35l-1.49-.86h.18l1.49.87H45" transform="translate(-8.6 0)"/><path class="cls-29" d="M45.21,10.35l-1.49-.87.18,0,1.49.86a.57.57,0,0,0-.18,0" transform="translate(-8.6 0)"/><path class="cls-30" d="M45.39,10.38,43.9,9.52l.15.07,1.49.86-.15-.07" transform="translate(-8.6 0)"/></g></g></g><g class="cls-3"><g class="cls-83"><g class="cls-3"><path class="cls-16" d="M26.1,39.72l-1.49-.86.2-.1,4.26-2.45c.81-.46,3.58-2.05,4.43-2.55L38,31.16l1.48.86L35,34.63l-4.43,2.54L26.3,39.62a1.24,1.24,0,0,1-.2.1" transform="translate(-8.6 0)"/></g></g></g><polygon class="cls-84" points="21.12 32.64 19.63 31.77 21.51 32.84 23 33.71 21.12 32.64"/><g class="cls-3"><g class="cls-85"><g class="cls-3"><path class="cls-72" d="M29.32,33.31l-1.49-.86a.19.19,0,0,1-.08-.17l1.49.86a.19.19,0,0,0,.08.17" transform="translate(-8.6 0)"/><path class="cls-66" d="M29.24,33.14l-1.49-.86a.07.07,0,0,1,0-.05l1.48.86v0" transform="translate(-8.6 0)"/><path class="cls-67" d="M29.24,33.09l-1.48-.86v0l1.49.86a.43.43,0,0,1,0,.05" transform="translate(-8.6 0)"/><path class="cls-68" d="M29.25,33l-1.49-.86s0,0,0,0l1.48.86v0" transform="translate(-8.6 0)"/><path class="cls-69" d="M29.26,33l-1.48-.86s0,0,0,0l1.49.86,0,0" transform="translate(-8.6 0)"/><path class="cls-70" d="M29.28,33l-1.49-.86s0,0,0-.05l1.49.86a.17.17,0,0,0,0,.05" transform="translate(-8.6 0)"/><path class="cls-57" d="M29.3,32.9,27.81,32l0,0,1.49.87,0,0" transform="translate(-8.6 0)"/></g></g></g><g class="cls-3"><g class="cls-86"><g class="cls-3"><path class="cls-57" d="M29.32,32.87,27.83,32l0,0,1.49.86,0,0" transform="translate(-8.6 0)"/><path class="cls-56" d="M29.34,32.83,27.85,32A.69.69,0,0,1,28,31.8l1.49.86a.69.69,0,0,0-.17.17" transform="translate(-8.6 0)"/><path class="cls-57" d="M29.51,32.66,28,31.8h0l0,0,1.48.87,0,0h0" transform="translate(-8.6 0)"/><path class="cls-70" d="M29.55,32.64l-1.48-.87h0l1.49.87h0" transform="translate(-8.6 0)"/><path class="cls-69" d="M29.59,32.63l-1.49-.87h0l1.48.86h0" transform="translate(-8.6 0)"/><path class="cls-68" d="M29.62,32.62l-1.48-.86a0,0,0,0,1,0,0l1.49.86h0" transform="translate(-8.6 0)"/><path class="cls-67" d="M29.66,32.62l-1.49-.86h0l1.49.87h0" transform="translate(-8.6 0)"/><path class="cls-66" d="M29.69,32.63l-1.49-.87h0l1.49.87h0" transform="translate(-8.6 0)"/></g></g></g><polygon class="cls-45" points="12.95 46.07 11.46 45.21 34.41 31.96 35.89 32.82 12.95 46.07"/><polygon class="cls-48" points="12.95 45.43 11.46 44.57 34.41 31.32 35.89 32.19 12.95 45.43"/><g class="cls-3"><g class="cls-87"><g class="cls-3"><path class="cls-24" d="M32.06,27.19l-1.49-.86c.1-.19.21-.37.32-.55l1.49.87c-.11.17-.22.36-.32.54" transform="translate(-8.6 0)"/><path class="cls-25" d="M32.38,26.65l-1.49-.87a7.91,7.91,0,0,1,2.42-2.52l1.49.86a7.94,7.94,0,0,0-2.42,2.53" transform="translate(-8.6 0)"/><path class="cls-24" d="M34.8,24.12l-1.49-.86.16-.1c.18-.1.35-.18.52-.26l1.48.87A4.92,4.92,0,0,0,35,24l-.16.09" transform="translate(-8.6 0)"/><path class="cls-26" d="M35.47,23.77,34,22.9a2.85,2.85,0,0,1,.54-.18l1.48.86a5,5,0,0,0-.54.19" transform="translate(-8.6 0)"/><path class="cls-27" d="M36,23.58l-1.48-.86a2,2,0,0,1,.47-.09l1.49.86-.48.09" transform="translate(-8.6 0)"/><path class="cls-28" d="M36.49,23.49,35,22.63a1.69,1.69,0,0,1,.45,0l1.49.86h-.45" transform="translate(-8.6 0)"/><path class="cls-29" d="M36.94,23.49l-1.49-.86a2.11,2.11,0,0,1,.45.08l1.48.87a1.64,1.64,0,0,0-.44-.09" transform="translate(-8.6 0)"/><path class="cls-30" d="M37.38,23.58l-1.48-.87a2.59,2.59,0,0,1,.38.17l1.48.86a1.61,1.61,0,0,0-.38-.16" transform="translate(-8.6 0)"/></g></g></g><g class="cls-3"><g class="cls-88"><g class="cls-3"><path class="cls-22" d="M24.76,39.65l-1.48-.86a1.69,1.69,0,0,0,.31.13l1.48.87a2.12,2.12,0,0,1-.31-.14" transform="translate(-8.6 0)"/><path class="cls-21" d="M25.07,39.79l-1.48-.87a1.33,1.33,0,0,0,.3.06l1.48.87a1.59,1.59,0,0,1-.3-.06" transform="translate(-8.6 0)"/><path class="cls-20" d="M25.37,39.85,23.89,39a1,1,0,0,0,.25,0l1.49.87h-.26" transform="translate(-8.6 0)"/><path class="cls-19" d="M25.63,39.85,24.14,39a1,1,0,0,0,.24,0l1.48.86a1,1,0,0,1-.23.05" transform="translate(-8.6 0)"/><path class="cls-18" d="M25.86,39.8l-1.48-.86.23-.08,1.49.86a1.13,1.13,0,0,1-.24.08" transform="translate(-8.6 0)"/><path class="cls-16" d="M26.1,39.72l-1.49-.86.2-.1,4.26-2.45c.81-.46,3.58-2.05,4.43-2.55L38,31.16l1.48.86L35,34.63l-4.43,2.54L26.3,39.62a1.24,1.24,0,0,1-.2.1" transform="translate(-8.6 0)"/></g></g></g><g class="cls-3"><g class="cls-89"><g class="cls-3"><path class="cls-16" d="M37.87,16.58l-1.49-.86,0,0h0l1.49.87h0l0,0" transform="translate(-8.6 0)"/><path class="cls-17" d="M37.92,16.56l-1.49-.87a.62.62,0,0,0,.18-.18l1.49.86a.66.66,0,0,1-.18.19" transform="translate(-8.6 0)"/><path class="cls-16" d="M38.1,16.37l-1.49-.86,0-.06,1.49.86,0,.06" transform="translate(-8.6 0)"/><path class="cls-18" d="M38.13,16.31l-1.49-.86s0,0,0,0l1.49.87s0,0,0,0" transform="translate(-8.6 0)"/><path class="cls-19" d="M38.15,16.27l-1.49-.87s0,0,0,0l1.49.86,0,.05" transform="translate(-8.6 0)"/><path class="cls-20" d="M38.17,16.22l-1.49-.86s0,0,0,0l1.49.87a.06.06,0,0,0,0,0" transform="translate(-8.6 0)"/><path class="cls-21" d="M38.18,16.18l-1.49-.87v0l1.48.86v.05" transform="translate(-8.6 0)"/><path class="cls-22" d="M38.18,16.13l-1.48-.86v0l1.49.87a.06.06,0,0,1,0,0" transform="translate(-8.6 0)"/></g></g></g><g class="cls-3"><g class="cls-90"><g class="cls-3"><path class="cls-22" d="M37.71,16.58l-1.49-.86h0l1.49.86h0" transform="translate(-8.6 0)"/><path class="cls-21" d="M37.74,16.59l-1.49-.86h0l1.49.86h0" transform="translate(-8.6 0)"/><path class="cls-20" d="M37.77,16.6l-1.49-.86h0l1.49.86h0" transform="translate(-8.6 0)"/><path class="cls-19" d="M37.8,16.6l-1.49-.86h0l1.48.86h0" transform="translate(-8.6 0)"/><path class="cls-18" d="M37.83,16.59l-1.48-.86h0l1.49.86h0" transform="translate(-8.6 0)"/><path class="cls-16" d="M37.87,16.58l-1.49-.86,0,0h0l1.49.87h0l0,0" transform="translate(-8.6 0)"/></g></g></g><g class="cls-3"><g class="cls-91"><g class="cls-3"><path class="cls-30" d="M20.83,45.5l-1.49-.86.1,0,1.49.87-.1,0" transform="translate(-8.6 0)"/><path class="cls-29" d="M20.93,45.55l-1.49-.87.12,0,1.48.87-.11,0" transform="translate(-8.6 0)"/><path class="cls-28" d="M21,45.57l-1.48-.87h.11l1.49.87H21" transform="translate(-8.6 0)"/><path class="cls-27" d="M21.16,45.57l-1.49-.87.12,0,1.49.87-.12,0" transform="translate(-8.6 0)"/><path class="cls-26" d="M21.28,45.55l-1.49-.87.14,0,1.48.87-.13,0" transform="translate(-8.6 0)"/><path class="cls-24" d="M21.41,45.5l-1.48-.87.12-.06,1.49.86-.13.07" transform="translate(-8.6 0)"/></g></g></g><g class="cls-3"><g class="cls-92"><g class="cls-3"><path class="cls-22" d="M20.43,46.18l-1.49-.86a.76.76,0,0,0,.16.06l1.48.87-.15-.07" transform="translate(-8.6 0)"/><path class="cls-21" d="M20.58,46.25l-1.48-.87.18,0,1.48.86a.57.57,0,0,1-.18,0" transform="translate(-8.6 0)"/><path class="cls-20" d="M20.76,46.28l-1.48-.86h.18l1.48.86h-.18" transform="translate(-8.6 0)"/><path class="cls-19" d="M20.94,46.28l-1.48-.86.18,0,1.49.87-.19,0" transform="translate(-8.6 0)"/><path class="cls-18" d="M21.13,46.25l-1.49-.87.22-.07,1.48.86-.21.08" transform="translate(-8.6 0)"/><path class="cls-16" d="M21.34,46.17l-1.48-.86.2-.1,1.48.86-.2.1" transform="translate(-8.6 0)"/></g></g></g><g class="cls-3"><g class="cls-93"><g class="cls-3"><path class="cls-50" d="M37.71,16.58l-1.49-.86a.21.21,0,0,1-.07-.17l1.48.86c0,.09,0,.15.08.17" transform="translate(-8.6 0)"/><polyline class="cls-30" points="29.04 16.41 27.55 15.55 27.55 15.54 29.04 16.41 29.04 16.41"/></g></g></g><polygon class="cls-39" points="29.59 16.09 28.11 15.22 28.1 13.94 29.59 14.8 29.59 16.09"/><polygon class="cls-45" points="29.59 14.8 28.1 13.94 34.34 10.33 35.83 11.2 29.59 14.8"/><g class="cls-3"><g class="cls-94"><g class="cls-3"><path class="cls-33" d="M20.83,45.5l-1.49-.86a.72.72,0,0,1-.29-.63l1.49.87a.67.67,0,0,0,.29.62" transform="translate(-8.6 0)"/><path class="cls-22" d="M20.54,44.88,19.05,44v0l1.49.86v0" transform="translate(-8.6 0)"/></g></g></g><polygon class="cls-28" points="29.04 16.41 27.55 15.54 27.55 14.26 29.03 15.12 29.04 16.41"/><polygon class="cls-48" points="29.59 14.16 28.1 13.3 34.34 9.69 35.83 10.56 29.59 14.16"/><polygon class="cls-28" points="29.59 14.8 28.1 13.94 28.1 13.3 29.59 14.16 29.59 14.8"/><g class="cls-3"><g class="cls-95"><g class="cls-3"><path class="cls-50" d="M20.43,46.18l-1.49-.86a1.1,1.1,0,0,1-.45-1l1.48.86a1.09,1.09,0,0,0,.46,1" transform="translate(-8.6 0)"/><path class="cls-30" d="M20,45.21l-1.48-.86v0l1.48.87v0" transform="translate(-8.6 0)"/></g></g></g><polygon class="cls-28" points="29.03 15.12 27.55 14.26 27.54 13.62 29.03 14.48 29.03 15.12"/><polygon class="cls-39" points="29.59 14.16 28.1 13.3 28.09 11.85 29.58 12.72 29.59 14.16"/><g class="cls-3"><g class="cls-96"><g class="cls-3"><path class="cls-27" d="M27.44,31.71,26,30.85l.15-.43,1.49.87a3.52,3.52,0,0,0-.15.42" transform="translate(-8.6 0)"/><path class="cls-26" d="M27.59,31.29l-1.49-.87.27-.6,1.49.87a6.46,6.46,0,0,0-.27.6" transform="translate(-8.6 0)"/><path class="cls-24" d="M27.86,30.69l-1.49-.87c.13-.24.26-.48.41-.72l1.48.87c-.14.23-.28.47-.4.72" transform="translate(-8.6 0)"/><path class="cls-25" d="M28.26,30l-1.48-.87a7.13,7.13,0,0,1,2.12-2.21l1.48.87A7,7,0,0,0,28.26,30" transform="translate(-8.6 0)"/><path class="cls-24" d="M30.38,27.76l-1.48-.87.14-.08a3.94,3.94,0,0,1,.46-.23l1.49.86a3.94,3.94,0,0,0-.46.23l-.15.09" transform="translate(-8.6 0)"/><path class="cls-26" d="M31,27.44l-1.49-.86a3.36,3.36,0,0,1,.47-.17l1.48.87a3.16,3.16,0,0,0-.46.16" transform="translate(-8.6 0)"/><path class="cls-27" d="M31.45,27.28,30,26.41a3.07,3.07,0,0,1,.42-.07l1.49.86a3.58,3.58,0,0,0-.43.08" transform="translate(-8.6 0)"/><path class="cls-28" d="M31.88,27.2l-1.49-.86h.18l1.49.86h-.18" transform="translate(-8.6 0)"/></g></g></g><g class="cls-3"><g class="cls-97"><g class="cls-3"><polyline class="cls-22" points="29.58 12.72 28.09 11.85 28.09 11.85 29.58 12.71 29.58 12.72"/><path class="cls-33" d="M38.18,12.71l-1.49-.86a.19.19,0,0,0-.08-.17l1.49.86a.19.19,0,0,1,.08.17" transform="translate(-8.6 0)"/></g></g></g><polygon class="cls-28" points="29.03 14.48 27.54 13.62 27.54 12.18 29.03 13.04 29.03 14.48"/><g class="cls-3"><g class="cls-98"><g class="cls-3"><path class="cls-24" d="M37.9,12.56l-1.49-.86,0,0,1.48.87h0" transform="translate(-8.6 0)"/><path class="cls-26" d="M37.93,12.55l-1.48-.87h0l1.48.86,0,0" transform="translate(-8.6 0)"/><path class="cls-27" d="M38,12.53l-1.48-.86h0l1.49.87h0" transform="translate(-8.6 0)"/><path class="cls-28" d="M38,12.53l-1.49-.87h0l1.49.87h0" transform="translate(-8.6 0)"/><path class="cls-29" d="M38,12.53l-1.49-.87h0l1.49.86h0" transform="translate(-8.6 0)"/><path class="cls-30" d="M38.07,12.53l-1.49-.86h0l1.49.86h0" transform="translate(-8.6 0)"/></g></g></g><g class="cls-3"><g class="cls-99"><g class="cls-3"><path class="cls-30" d="M37.62,13l-1.48-.87v0l1.48.86v0" transform="translate(-8.6 0)"/><path class="cls-29" d="M37.62,13l-1.48-.86a.07.07,0,0,1,0-.05l1.48.86a.09.09,0,0,1,0,.05" transform="translate(-8.6 0)"/><path class="cls-28" d="M37.63,12.94l-1.48-.86a.09.09,0,0,1,0-.05l1.48.87a.06.06,0,0,1,0,0" transform="translate(-8.6 0)"/><path class="cls-27" d="M37.64,12.9,36.16,12v0l1.49.86,0,.05" transform="translate(-8.6 0)"/><path class="cls-26" d="M37.66,12.85,36.17,12l0-.05,1.48.86s0,0,0,0" transform="translate(-8.6 0)"/><path class="cls-24" d="M37.68,12.8l-1.48-.86,0-.06,1.48.87,0,.05" transform="translate(-8.6 0)"/><path class="cls-25" d="M37.71,12.75l-1.48-.87a.46.46,0,0,1,.17-.17l1.48.86a.74.74,0,0,0-.17.18" transform="translate(-8.6 0)"/><path class="cls-24" d="M37.88,12.57l-1.48-.86h0l1.49.86h0" transform="translate(-8.6 0)"/></g></g></g><polygon class="cls-6" points="5.96 52.36 4.47 51.49 41.47 30.13 42.95 31 5.96 52.36"/><g class="cls-3"><g class="cls-100"><g class="cls-3"><path class="cls-50" d="M24.76,39.65l-1.48-.86a2.76,2.76,0,0,1-1.18-2.31l1.48.86a2.77,2.77,0,0,0,1.18,2.31" transform="translate(-8.6 0)"/><path class="cls-30" d="M23.58,37.34l-1.48-.86v-.07c0-.19,0-.39,0-.59l1.49.86a4.08,4.08,0,0,0,0,.59v.07" transform="translate(-8.6 0)"/><path class="cls-29" d="M23.62,36.68l-1.49-.86c0-.2.06-.4.1-.6l1.49.86a4.69,4.69,0,0,0-.1.6" transform="translate(-8.6 0)"/><path class="cls-28" d="M23.72,36.08l-1.49-.86q.06-.28.15-.57l1.49.86q-.09.29-.15.57" transform="translate(-8.6 0)"/><path class="cls-27" d="M23.87,35.51l-1.49-.86c.06-.19.13-.38.2-.56l1.49.86c-.08.19-.14.37-.2.56" transform="translate(-8.6 0)"/><path class="cls-26" d="M24.07,35l-1.49-.86c.08-.19.16-.38.25-.57l1.49.87a5.62,5.62,0,0,0-.25.56" transform="translate(-8.6 0)"/><path class="cls-24" d="M24.32,34.39l-1.49-.87c.11-.21.22-.41.35-.61l1.48.86a6.14,6.14,0,0,0-.34.62" transform="translate(-8.6 0)"/><path class="cls-25" d="M24.66,33.77l-1.48-.86a5.35,5.35,0,0,1,1.33-1.5l.16-.11,1.49.86-.16.11a5.7,5.7,0,0,0-1.34,1.5" transform="translate(-8.6 0)"/><path class="cls-24" d="M26.16,32.16l-1.49-.86.08-.05a3,3,0,0,1,.36-.18l1.48.87-.35.17-.08,0" transform="translate(-8.6 0)"/><path class="cls-26" d="M26.59,31.94l-1.48-.87a3.27,3.27,0,0,1,.47-.16l1.48.86a3.89,3.89,0,0,0-.47.17" transform="translate(-8.6 0)"/><path class="cls-27" d="M27.06,31.77l-1.48-.86.29-.06,1.48.87a2,2,0,0,0-.29.05" transform="translate(-8.6 0)"/><path class="cls-28" d="M27.35,31.72l-1.48-.87H26l1.49.86h-.09" transform="translate(-8.6 0)"/></g></g></g><g class="cls-3"><g class="cls-101"><g class="cls-3"><path class="cls-14" d="M12.82,52.53l-1.48-.87a1,1,0,0,0,.23.11l1.49.86-.24-.1" transform="translate(-8.6 0)"/><path class="cls-13" d="M13.06,52.63l-1.49-.86.28,0,1.49.87a1.27,1.27,0,0,1-.28-.06" transform="translate(-8.6 0)"/><path class="cls-12" d="M13.34,52.69l-1.49-.87h.28l1.48.86h-.27" transform="translate(-8.6 0)"/><path class="cls-11" d="M13.61,52.68l-1.48-.86.29,0,1.49.86a1.57,1.57,0,0,1-.3,0" transform="translate(-8.6 0)"/><path class="cls-10" d="M13.91,52.63l-1.49-.86a2.19,2.19,0,0,0,.33-.12l1.49.86a2.19,2.19,0,0,1-.33.12" transform="translate(-8.6 0)"/><path class="cls-8" d="M14.24,52.51l-1.49-.86a1.82,1.82,0,0,0,.31-.16l1.49.87a2.2,2.2,0,0,1-.31.15" transform="translate(-8.6 0)"/></g></g></g><g class="cls-3"><g class="cls-102"><g class="cls-3"><path class="cls-33" d="M12.82,52.53l-1.48-.87a1.65,1.65,0,0,1-.71-1.49l1.49.86a1.68,1.68,0,0,0,.7,1.5" transform="translate(-8.6 0)"/><path class="cls-22" d="M12.12,51l-1.49-.86v-.06l1.49.87V51" transform="translate(-8.6 0)"/></g></g></g><g class="cls-3"><g class="cls-103"><g class="cls-3"><path class="cls-16" d="M28,22.29l-1.48-.86,0,0h0l1.48.86H28" transform="translate(-8.6 0)"/><path class="cls-17" d="M28,22.27l-1.48-.86a1,1,0,0,0,.17-.18l1.48.86a.49.49,0,0,1-.17.18" transform="translate(-8.6 0)"/><path class="cls-16" d="M28.19,22.09l-1.48-.86,0-.06,1.48.87s0,0,0,.05" transform="translate(-8.6 0)"/><path class="cls-18" d="M28.22,22l-1.48-.87s0,0,0-.05l1.49.87,0,.05" transform="translate(-8.6 0)"/><path class="cls-19" d="M28.25,22l-1.49-.87s0,0,0,0l1.48.86s0,0,0,0" transform="translate(-8.6 0)"/><path class="cls-20" d="M28.26,21.94l-1.48-.86a.09.09,0,0,1,0,0l1.48.87a.06.06,0,0,1,0,0" transform="translate(-8.6 0)"/><path class="cls-21" d="M28.27,21.9,26.79,21a.06.06,0,0,1,0,0l1.48.86a.09.09,0,0,1,0,0" transform="translate(-8.6 0)"/><path class="cls-22" d="M28.28,21.85,26.8,21v0l1.48.86v.05" transform="translate(-8.6 0)"/></g></g></g><g class="cls-3"><g class="cls-104"><g class="cls-3"><path class="cls-22" d="M27.81,22.3l-1.49-.87h0l1.49.87h0" transform="translate(-8.6 0)"/><path class="cls-21" d="M27.84,22.31l-1.49-.87h0l1.49.86h0" transform="translate(-8.6 0)"/><path class="cls-20" d="M27.87,22.31l-1.49-.86h0l1.49.86a0,0,0,0,1,0,0" transform="translate(-8.6 0)"/><path class="cls-19" d="M27.9,22.31l-1.49-.86h0l1.49.87h0" transform="translate(-8.6 0)"/><path class="cls-18" d="M27.94,22.31l-1.49-.87h0l1.48.86,0,0" transform="translate(-8.6 0)"/><path class="cls-16" d="M28,22.29l-1.48-.86,0,0h0l1.48.86H28" transform="translate(-8.6 0)"/></g></g></g><g class="cls-3"><g class="cls-105"><g class="cls-3"><path class="cls-50" d="M27.81,22.3l-1.49-.87a.16.16,0,0,1-.08-.16l1.49.86a.19.19,0,0,0,.08.17" transform="translate(-8.6 0)"/><polyline class="cls-30" points="19.13 22.13 17.65 21.27 17.65 21.26 19.13 22.12 19.13 22.13"/></g></g></g><g class="cls-3"><g class="cls-106"><g class="cls-3"><path class="cls-35" d="M11.32,55,9.84,54.1a2.78,2.78,0,0,1-1.18-2.5l1.49.87A2.75,2.75,0,0,0,11.32,55" transform="translate(-8.6 0)"/><path class="cls-14" d="M10.15,52.47,8.66,51.6v-.09l1.49.86v.1" transform="translate(-8.6 0)"/></g></g></g><polygon class="cls-39" points="19.69 21.8 18.2 20.94 18.2 19.66 19.68 20.52 19.69 21.8"/><polygon class="cls-45" points="19.68 20.52 18.2 19.66 27.55 14.26 29.03 15.12 19.68 20.52"/><polygon class="cls-28" points="19.13 22.12 17.65 21.26 17.64 19.98 19.13 20.84 19.13 22.12"/><polygon class="cls-48" points="19.68 19.88 18.2 19.02 27.54 13.62 29.03 14.48 19.68 19.88"/><polygon class="cls-51" points="29.03 14.48 29.03 15.12 19.68 20.52 19.68 19.88 29.03 14.48"/><polygon class="cls-28" points="19.68 20.52 18.2 19.66 18.2 19.02 19.68 19.88 19.68 20.52"/><polygon class="cls-28" points="19.13 20.84 17.64 19.98 17.64 19.34 19.13 20.2 19.13 20.84"/><polygon class="cls-39" points="19.68 19.88 18.2 19.02 18.19 17.57 19.68 18.43 19.68 19.88"/><g class="cls-3"><g class="cls-107"><g class="cls-3"><polyline class="cls-22" points="19.68 18.43 18.19 17.57 18.19 17.57 19.68 18.43 19.68 18.43"/><path class="cls-33" d="M28.27,18.43l-1.48-.87a.19.19,0,0,0-.08-.17l1.49.87a.2.2,0,0,1,.07.17" transform="translate(-8.6 0)"/></g></g></g><g class="cls-3"><g class="cls-108"><g class="cls-3"><path class="cls-24" d="M28,18.28l-1.49-.87h0l1.49.86a.05.05,0,0,0,0,0" transform="translate(-8.6 0)"/><path class="cls-26" d="M28,18.26l-1.49-.86,0,0,1.48.87h0" transform="translate(-8.6 0)"/><path class="cls-27" d="M28.07,18.25l-1.48-.87h0l1.49.86h0" transform="translate(-8.6 0)"/><path class="cls-28" d="M28.11,18.24l-1.49-.86h0l1.49.86h0" transform="translate(-8.6 0)"/><path class="cls-29" d="M28.14,18.24l-1.49-.86h0l1.49.87h0" transform="translate(-8.6 0)"/><path class="cls-30" d="M28.17,18.25l-1.49-.87h0l1.49.87h0" transform="translate(-8.6 0)"/></g></g></g><polygon class="cls-28" points="19.13 20.2 17.64 19.34 17.64 17.89 19.12 18.76 19.13 20.2"/><g class="cls-3"><g class="cls-109"><g class="cls-3"><path class="cls-30" d="M27.72,18.76l-1.49-.87a.06.06,0,0,1,0,0l1.48.86v.05" transform="translate(-8.6 0)"/><path class="cls-29" d="M27.72,18.71l-1.48-.86V17.8l1.49.86s0,0,0,.05" transform="translate(-8.6 0)"/><path class="cls-28" d="M27.73,18.66l-1.49-.86s0,0,0,0l1.48.86s0,0,0,0" transform="translate(-8.6 0)"/><path class="cls-27" d="M27.74,18.62l-1.48-.86s0,0,0-.05l1.49.86,0,.05" transform="translate(-8.6 0)"/><path class="cls-26" d="M27.76,18.57l-1.49-.86,0-.05,1.49.87a.08.08,0,0,0,0,0" transform="translate(-8.6 0)"/><path class="cls-24" d="M27.78,18.53l-1.49-.87a.21.21,0,0,1,0-.06l1.48.87,0,.06" transform="translate(-8.6 0)"/><path class="cls-25" d="M27.81,18.47l-1.48-.87a.49.49,0,0,1,.17-.18l1.49.87a.52.52,0,0,0-.18.18" transform="translate(-8.6 0)"/><path class="cls-24" d="M28,18.29l-1.49-.87h0l1.49.87h0" transform="translate(-8.6 0)"/></g></g></g><polygon class="cls-45" points="11.9 29.83 10.41 28.96 30.62 17.29 32.11 18.16 11.9 29.83"/><polygon class="cls-39" points="11.94 44.85 10.45 43.99 10.41 28.96 11.9 29.83 11.94 44.85"/><polygon class="cls-48" points="11.76 29.91 10.27 29.05 10.41 28.96 11.9 29.83 11.76 29.91"/><g class="cls-3"><g class="cls-110"><g class="cls-3"><path class="cls-30" d="M20.15,29.93l-1.49-.86h0l1.49.86h0" transform="translate(-8.6 0)"/><path class="cls-29" d="M20.18,29.94l-1.49-.86h0l1.49.87h0" transform="translate(-8.6 0)"/><path class="cls-28" d="M20.21,30l-1.49-.87s0,0,0,0l1.48.87h0" transform="translate(-8.6 0)"/><path class="cls-27" d="M20.24,30l-1.48-.87h0l1.49.86h0" transform="translate(-8.6 0)"/><path class="cls-26" d="M20.28,29.94l-1.49-.86,0,0,1.49.87h0" transform="translate(-8.6 0)"/><path class="cls-24" d="M20.32,29.93l-1.49-.87h0l1.48.86,0,0" transform="translate(-8.6 0)"/></g></g></g><polygon class="cls-48" points="11.89 29.19 10.41 28.33 30.62 16.66 32.11 17.52 11.89 29.19"/><polygon class="cls-48" points="11.75 29.27 10.27 28.41 10.41 28.33 11.89 29.19 11.75 29.27"/><g class="cls-3"><g class="cls-111"><g class="cls-3"><path class="cls-50" d="M20.15,29.93l-1.49-.86a.25.25,0,0,1-.08-.17l1.49.86a.19.19,0,0,0,.08.17" transform="translate(-8.6 0)"/><path class="cls-30" d="M20.07,29.76l-1.49-.86h0a.11.11,0,0,1,0-.05l1.48.87v.05h0" transform="translate(-8.6 0)"/><path class="cls-29" d="M20.07,29.71l-1.48-.87v-.05l1.49.87a.43.43,0,0,0,0,.05" transform="translate(-8.6 0)"/><path class="cls-28" d="M20.08,29.66l-1.49-.87s0,0,0,0l1.48.86s0,0,0,.05" transform="translate(-8.6 0)"/><path class="cls-27" d="M20.09,29.61l-1.48-.86s0,0,0-.05l1.49.87s0,0,0,0" transform="translate(-8.6 0)"/><path class="cls-26" d="M20.11,29.57l-1.49-.87a.08.08,0,0,0,0-.05l1.49.87s0,0,0,.05" transform="translate(-8.6 0)"/><path class="cls-24" d="M20.13,29.52l-1.49-.87,0,0,1.48.86,0,.06" transform="translate(-8.6 0)"/><path class="cls-25" d="M20.16,29.46l-1.48-.86a.63.63,0,0,1,.17-.19l1.49.87a.52.52,0,0,0-.18.18" transform="translate(-8.6 0)"/><path class="cls-24" d="M20.34,29.28l-1.49-.87h0l1.49.86h0" transform="translate(-8.6 0)"/></g></g></g><polygon class="cls-39" points="11.89 29.19 10.41 28.33 10.4 25.32 11.89 26.18 11.89 29.19"/><path class="cls-51" d="M28,18.28c.15-.09.27,0,.27.15V21.8a.59.59,0,0,1-.27.48c-.15.08-.28,0-.28-.16V18.76A.62.62,0,0,1,28,18.28Z" transform="translate(-8.6 0)"/><polygon class="cls-28" points="11.38 45.18 9.89 44.31 9.84 25.64 11.32 26.51 11.38 45.18"/><path class="cls-51" d="M44.43,10.56c.86-.5,1.56-.1,1.57.89l0,18.67a3.44,3.44,0,0,1-1.56,2.7l-23,13.25c-.86.5-1.56.1-1.57-.89l0-18.67a3.44,3.44,0,0,1,1.56-2.7l6.24-3.61v.64l-6.25,3.6a2.23,2.23,0,0,0-1,1.74v3l-.14.08a.62.62,0,0,0-.28.49c0,.17.13.24.28.15l.14-.08.05,15c0,.64.45.9,1,.58l23-13.24a2.23,2.23,0,0,0,1-1.74l-.06-18.67c0-.64-.45-.9-1-.58l-6.25,3.6v-.64Z" transform="translate(-8.6 0)"/><path class="cls-51" d="M40.7,17.52c.16-.09.29,0,.29.16a.62.62,0,0,1-.28.48L20.49,29.83l-.14.08c-.15.09-.28,0-.28-.15a.62.62,0,0,1,.28-.49l.14-.08Z" transform="translate(-8.6 0)"/><g class="cls-3"><g class="cls-112"><g class="cls-3"><path class="cls-22" d="M20.48,26.18,19,25.32a1.09,1.09,0,0,1,0-.18l1.48.87c0,.06,0,.11,0,.17" transform="translate(-8.6 0)"/><path class="cls-21" d="M20.49,26,19,25.14A1.11,1.11,0,0,1,19,25l1.49.86,0,.18" transform="translate(-8.6 0)"/><path class="cls-20" d="M20.52,25.83,19,25s0-.11,0-.16l1.48.86s0,.11,0,.16" transform="translate(-8.6 0)"/><path class="cls-19" d="M20.56,25.67l-1.48-.86.06-.17,1.48.86-.06.17" transform="translate(-8.6 0)"/><path class="cls-18" d="M20.62,25.5l-1.48-.86a1.42,1.42,0,0,1,.08-.18l1.48.86-.08.18" transform="translate(-8.6 0)"/><path class="cls-16" d="M20.7,25.32l-1.48-.86a1.13,1.13,0,0,1,.12-.21l1.48.86-.12.21" transform="translate(-8.6 0)"/><path class="cls-17" d="M20.82,25.11l-1.48-.86a1.88,1.88,0,0,1,.61-.64l1.49.86a2.11,2.11,0,0,0-.62.64" transform="translate(-8.6 0)"/><path class="cls-16" d="M21.44,24.47,20,23.61l0,0,1.49.86,0,0" transform="translate(-8.6 0)"/></g></g></g><polygon class="cls-48" points="12.88 23.81 11.4 22.94 17.64 19.34 19.13 20.2 12.88 23.81"/><g class="cls-3"><g class="cls-113"><g class="cls-3"><path class="cls-30" d="M19.92,26.51l-1.49-.87a2.45,2.45,0,0,1,0-.27l1.49.87a2.45,2.45,0,0,0,0,.27" transform="translate(-8.6 0)"/><path class="cls-29" d="M19.94,26.24l-1.49-.87c0-.08,0-.17,0-.26L20,26a2.51,2.51,0,0,0,0,.27" transform="translate(-8.6 0)"/><path class="cls-28" d="M20,26l-1.49-.86a2.5,2.5,0,0,1,.07-.26l1.49.87A2.33,2.33,0,0,0,20,26" transform="translate(-8.6 0)"/><path class="cls-27" d="M20.05,25.72l-1.49-.87.09-.25,1.49.86a1.34,1.34,0,0,0-.09.26" transform="translate(-8.6 0)"/><path class="cls-26" d="M20.14,25.46l-1.49-.86a2.39,2.39,0,0,1,.13-.28l1.48.86-.12.28" transform="translate(-8.6 0)"/><path class="cls-24" d="M20.26,25.18l-1.48-.86A1.74,1.74,0,0,1,19,24l1.49.86c-.07.11-.13.22-.19.33" transform="translate(-8.6 0)"/><path class="cls-25" d="M20.45,24.85,19,24a3.14,3.14,0,0,1,1-1l1.48.87a3.18,3.18,0,0,0-1,1" transform="translate(-8.6 0)"/><path class="cls-24" d="M21.41,23.85,19.93,23l.06,0,1.49.87-.07,0" transform="translate(-8.6 0)"/></g></g></g><path class="cls-114" d="M53.9,5.15c0-1.54-1.09-2.16-2.43-1.39l-37,21.36a5.29,5.29,0,0,0-2.41,4.19L12.12,51c0,1.53,1.09,2.15,2.43,1.38L51.55,31A5.33,5.33,0,0,0,54,26.82ZM44.49,32.82l-23,13.25c-.86.5-1.56.1-1.57-.89l0-18.67a3.44,3.44,0,0,1,1.56-2.7l6.24-3.61V18.76a.62.62,0,0,1,.28-.48c.15-.09.27,0,.27.15v1.45l9.35-5.4V13a.6.6,0,0,1,.28-.48c.15-.08.28,0,.28.16v1.44l6.25-3.6c.86-.5,1.56-.1,1.57.89l0,18.67a3.44,3.44,0,0,1-1.56,2.7" transform="translate(-8.6 0)"/><path class="cls-51" d="M39.52,24.47l-.11.05a4.17,4.17,0,0,0-.68.53c-.48-1.57-2-2.06-3.77-1a8,8,0,0,0-2.9,3.16,3.25,3.25,0,0,0-1.53.48,7.55,7.55,0,0,0-3.09,4,3.07,3.07,0,0,0-1.2.4,2.5,2.5,0,0,0-.24.16,6.82,6.82,0,0,0-2.42,5c0,1.65,1.28,3.17,2.72,2.35l4.26-2.45L35,34.63,39.52,32c1.43-.82,2.88-3.85,2.89-5.5S41.7,23.34,39.52,24.47ZM35.81,27.3l-4,6.92,0,.06-.05.07a.47.47,0,0,1-.15.13.19.19,0,0,1-.19,0l-2.08-1.19c-.11-.06-.11-.26,0-.44a.51.51,0,0,1,.2-.21.21.21,0,0,1,.2,0l1.87,1.07,3.83-6.63a.49.49,0,0,1,.19-.21.21.21,0,0,1,.2,0c.11.07.11.26,0,.45" transform="translate(-8.6 0)"/><polygon class="cls-39" points="3.52 50.98 2.04 50.11 1.97 28.44 3.46 29.3 3.52 50.98"/><polygon class="cls-45" points="5.88 25.12 4.39 24.25 41.39 2.89 42.88 3.75 5.88 25.12"/><g class="cls-3"><g class="cls-115"><g class="cls-3"><path class="cls-22" d="M12.06,29.31l-1.49-.87c0-.14,0-.28,0-.42l1.49.86a3.17,3.17,0,0,0,0,.43" transform="translate(-8.6 0)"/><path class="cls-21" d="M12.08,28.88,10.59,28c0-.14,0-.27.07-.41l1.49.86c0,.14-.05.28-.07.41" transform="translate(-8.6 0)"/><path class="cls-20" d="M12.15,28.47l-1.49-.86c0-.13.07-.27.11-.4l1.48.87c0,.13-.07.26-.1.39" transform="translate(-8.6 0)"/><path class="cls-19" d="M12.25,28.08l-1.48-.87c0-.13.09-.26.14-.4l1.48.87c-.05.13-.1.26-.14.4" transform="translate(-8.6 0)"/><path class="cls-18" d="M12.39,27.68l-1.48-.87c.06-.14.12-.29.19-.43l1.49.87c-.07.14-.14.28-.2.43" transform="translate(-8.6 0)"/><path class="cls-16" d="M12.59,27.25l-1.49-.87a5,5,0,0,1,.29-.5l1.48.86a4.16,4.16,0,0,0-.28.51" transform="translate(-8.6 0)"/><path class="cls-17" d="M12.87,26.74l-1.48-.86a4.85,4.85,0,0,1,1.49-1.56l1.49.86a4.88,4.88,0,0,0-1.5,1.56" transform="translate(-8.6 0)"/><path class="cls-16" d="M14.37,25.18l-1.49-.86.11-.07,1.48.87-.1.06" transform="translate(-8.6 0)"/></g></g></g><path class="cls-4" d="M55.91,3.73c0-2.57-1.83-3.6-4-2.31L14.11,23.21a8.88,8.88,0,0,0-4,7l.07,22.18c0,2.56,1.82,3.6,4,2.31L52,32.88a8.88,8.88,0,0,0,4-7ZM51.55,31l-37,21.36c-1.34.77-2.43.15-2.43-1.38l-.06-21.67a5.29,5.29,0,0,1,2.41-4.19l37-21.36C52.81,3,53.9,3.61,53.9,5.15L54,26.82A5.33,5.33,0,0,1,51.55,31" transform="translate(-8.6 0)"/><path class="cls-116" d="M31.4,34.49c-.11-.06-.11-.26,0-.45l.19-.33-1.87-1.07a.21.21,0,0,0-.2,0,.51.51,0,0,0-.2.21c-.11.18-.11.38,0,.44L31.4,34.5a.21.21,0,0,0,.2,0h0C31.52,34.52,31.45,34.53,31.4,34.49Z" transform="translate(-8.6 0)"/><path class="cls-116" d="M35.89,27a.17.17,0,0,0-.08-.12s-.05,0-.09,0l-.11,0a.41.41,0,0,0-.1.09.62.62,0,0,0-.09.12l-3.83,6.63L31.4,34c-.11.19-.11.39,0,.45s.12,0,.2,0a.86.86,0,0,0,.14-.13.35.35,0,0,0,.05-.08l0-.05h0l4-6.92A.49.49,0,0,0,35.89,27Z" transform="translate(-8.6 0)"/><path class="cls-114" d="M40.71,18.16,20.49,29.83l.05,15c0,.64.45.9,1,.58l23-13.24a2.23,2.23,0,0,0,1-1.74l-.06-18.67c0-.64-.45-.9-1-.58l-6.25,3.6v1.29a.62.62,0,0,1-.28.47c-.16.09-.28,0-.28-.15V15.12l-9.35,5.4V21.8a.59.59,0,0,1-.27.48c-.15.08-.28,0-.28-.16V20.84l-6.25,3.6a2.23,2.23,0,0,0-1,1.74v3L40.7,17.52c.16-.09.29,0,.29.16A.62.62,0,0,1,40.71,18.16Zm1.48-1.46,2-1.16c.15-.08.28,0,.28.16a.61.61,0,0,1-.28.48l-2,1.16c-.15.08-.28,0-.28-.16a.62.62,0,0,1,.28-.48m.22,9.82c0,1.65-1.46,4.68-2.89,5.5L35,34.63l-4.43,2.54L26.3,39.62c-1.44.82-2.72-.7-2.72-2.35a6.82,6.82,0,0,1,2.42-5,2.5,2.5,0,0,1,.24-.16,3.07,3.07,0,0,1,1.2-.4,5.05,5.05,0,0,1,.23-.61,7.39,7.39,0,0,1,2.86-3.43h0a3.2,3.2,0,0,1,1.51-.47l.14-.25A7.91,7.91,0,0,1,35,24h0c1.71-1,3.17-.56,3.7.9a.78.78,0,0,1,0,.14,4.17,4.17,0,0,1,.68-.53l.11-.05c2.18-1.13,2.88.4,2.89,2.05" transform="translate(-8.6 0)"/><path class="cls-117" d="M31.74,34.35l.05-.07,0-.06,0,.05A.35.35,0,0,1,31.74,34.35Z" transform="translate(-8.6 0)"/><path class="cls-51" d="M37.9,12.56c.15-.08.28,0,.28.16v3.37a.62.62,0,0,1-.28.47c-.16.09-.28,0-.28-.15V13A.6.6,0,0,1,37.9,12.56Z" transform="translate(-8.6 0)"/><polygon class="cls-5" points="1.55 52.37 0.06 51.51 0 29.32 1.49 30.19 1.55 52.37"/><polygon class="cls-6" points="5.51 23.21 4.03 22.35 41.77 0.55 43.26 1.42 5.51 23.21"/><g class="cls-3"><g class="cls-118"><g class="cls-3"><path class="cls-14" d="M10.08,30.19,8.6,29.32a5.58,5.58,0,0,1,0-.7l1.48.86c0,.24,0,.48,0,.71" transform="translate(-8.6 0)"/><path class="cls-13" d="M10.12,29.48l-1.48-.86a5.5,5.5,0,0,1,.11-.69l1.49.87c-.05.23-.09.46-.12.68" transform="translate(-8.6 0)"/><path class="cls-12" d="M10.24,28.8l-1.49-.87c.05-.22.11-.43.18-.65l1.48.86c-.07.22-.12.44-.17.66" transform="translate(-8.6 0)"/><path class="cls-11" d="M10.41,28.14l-1.48-.86a5.3,5.3,0,0,1,.23-.67l1.49.86c-.09.22-.17.45-.24.67" transform="translate(-8.6 0)"/><path class="cls-10" d="M10.65,27.47l-1.49-.86c.1-.24.2-.48.32-.72l1.49.87a6.43,6.43,0,0,0-.32.71" transform="translate(-8.6 0)"/><path class="cls-8" d="M11,26.76l-1.49-.87c.14-.28.3-.57.47-.84l1.49.86c-.17.28-.33.56-.47.85" transform="translate(-8.6 0)"/><path class="cls-9" d="M11.44,25.91,10,25.05a8.2,8.2,0,0,1,2.5-2.6l1.48.87a8.36,8.36,0,0,0-2.49,2.59" transform="translate(-8.6 0)"/><path class="cls-8" d="M13.93,23.32l-1.48-.87.17-.1,1.49.86-.18.11" transform="translate(-8.6 0)"/></g></g></g></g></g></g></svg>