<svg xmlns="http://www.w3.org/2000/svg" viewBox="0 0 1017.16 578.76"><defs><style>.cls-1{fill:#7dc57e;opacity:0.62;}.cls-2,.cls-4{fill:#69af69;}.cls-3{fill:none;}.cls-3,.cls-4{stroke:#e4ebef;stroke-miterlimit:10;stroke-width:8px;}.cls-5{fill:#e4ebef;}.cls-6{opacity:0.2;}.cls-7{fill:#301f1a;}.cls-8{fill:#4d322a;}.cls-9{fill:#462d26;}.cls-10{fill:#1b7943;}.cls-11{fill:#13542f;}.cls-12{fill:#186e3d;}.cls-13{fill:#795548;}.cls-13,.cls-14,.cls-15,.cls-16,.cls-17{fill-rule:evenodd;}.cls-14{fill:#5a3f35;}.cls-15{fill:#1d7c45;}.cls-16{fill:#13532e;}.cls-17{fill:#26a65c;}</style></defs><g id="Layer_2" data-name="Layer 2"><g id="Layer_2-2" data-name="Layer 2"><path class="cls-1" d="M166,172C128.5,219.27.78,161.83.29,215.17c-.12,13.62-.29,46.18,0,61.91C2,369.25,97.48,340.84,143.36,400S179.52,532.5,405,544.46c120.54,6.4,125.13,52.55,261.64,26.28C847.23,536,780.4,478.79,882.78,432.81c69-31,134.73-51.91,134-95.62-.13-8.28,0-45.43,0-63.44,0-20.43-36-3.55-65.85-29.5C816,126.89,803.09,40.64,575.57,93.18S344.54-52.82,166,172Z"/><path class="cls-1" d="M166,133.25C130.51,178,.29,215.17.29,215.17S0,211.82,0,235c0,92.18,97.48,67.11,143.36,126.24S179.52,493.74,405,505.7c120.54,6.4,125.13,52.55,261.64,26.28,180.59-34.76,113.76-92,216.14-137.93,68.49-30.75,133.82-51.62,134-94.72,0-7.7,0-10.44,0-25.58,0-20.76-34.31-40.85-65.85-68.26C816,88.13,803.09,1.88,575.57,54.42S344.54-91.58,166,133.25Z"/><path class="cls-2" d="M166.37,109.91C121,167.11,7.12,123,.64,215S97.83,278.74,143.7,337.87,179.87,470.4,405.35,482.36c120.54,6.4,125.13,52.55,261.64,26.28,180.59-34.76,113.76-91.95,216.14-137.93,105.32-47.29,203.2-71.21,68.18-188.56S803.44-21.46,575.92,31.08,344.88-114.92,166.37,109.91Z"/><path class="cls-3" d="M504.83,177.81c-31.28,25.32-44.06,29.73-56,28.68-22.68-2-25.08-18.66-51-27.88-32.8-11.67-55.54,1.46-55.91,24.76-.33,20.66,35.29,26.23,35.92,44.14.61,17.51-51.95,43-79.29,47.32-46.62,7.29-84-24.9-92.66-32.75"/><path class="cls-3" d="M346.34,277.52l63.71,36.81a2.7,2.7,0,0,1,.05,4.66l-36.94,22.14"/><path class="cls-3" d="M410.1,319s70.2-45.8,96.5-54.54c18.41-6.12,55.93-9.95,45.59,26.32-3.72,13.05-11.75,31.78-4.52,48.58,4.22,9.8,13.82,22.11,37.85,23.82,24.27,1.73,42.13-15.1,42.13-15.1"/><path class="cls-4" d="M551.4,174.82s35.36,19.16,64.8,37c22.42,13.55,46.08-34.69,73.52-21.12,17.69,8.74,64,37.73,64,37.73"/><circle class="cls-5" cx="205.86" cy="262.08" r="4"/><circle class="cls-5" cx="504.83" cy="177.81" r="4"/><circle class="cls-5" cx="551.4" cy="174.82" r="4"/><circle class="cls-5" cx="753.74" cy="228.39" r="4"/><circle class="cls-5" cx="627.65" cy="348.17" r="4"/><circle class="cls-5" cx="373.11" cy="341.13" r="4"/><g class="cls-6"><path d="M375.78,200c2.26,1.3,2.28,3.42,0,4.72a9,9,0,0,1-8.16,0c-2.26-1.3-2.27-3.42,0-4.72A9,9,0,0,1,375.78,200Z"/></g><g id="Layer-1"><path class="cls-7" d="M371.56,203.71l-3-1.75-.06-23.23,3,1.75Z"/><path class="cls-8" d="M371.49,180.48l-3-1.75,3-1.75,3,1.75Z"/><path class="cls-9" d="M374.52,178.73l.07,23.23-3,1.75-.07-23.23Z"/><path class="cls-10" d="M371.55,178.7l13.61,13.89-8,4.63Z"/><path class="cls-11" d="M371.55,178.7l-5.64,18.52-8-4.63Z"/><path class="cls-12" d="M371.55,178.7l5.65,18.52H365.91Z"/><path class="cls-10" d="M371.55,173.57l11.52,11.75-6.74,3.92Z"/><path class="cls-11" d="M371.55,173.57l-4.77,15.67L360,185.33Z"/><path class="cls-12" d="M371.55,173.57l4.78,15.67h-9.55Z"/><path class="cls-10" d="M371.54,169.08l8.38,8.55-4.9,2.85Z"/><path class="cls-11" d="M371.54,169.08l-3.47,11.4-4.93-2.85Z"/><path class="cls-12" d="M371.54,169.08l3.48,11.4h-6.95Z"/></g><g class="cls-6"><path d="M617.65,193.37c2.26,1.31,2.27,3.42,0,4.73a9,9,0,0,1-8.16,0c-2.26-1.31-2.26-3.42,0-4.72A9,9,0,0,1,617.65,193.37Z"/></g><g id="Layer-1-2" data-name="Layer-1"><path class="cls-7" d="M613.42,197.1l-3-1.75-.07-23.23,3,1.75Z"/><path class="cls-8" d="M613.35,173.87l-3-1.75,3-1.75,3,1.75Z"/><path class="cls-9" d="M616.39,172.12l.06,23.23-3,1.75-.07-23.23Z"/><path class="cls-10" d="M613.41,172.09,627,186l-8,4.63Z"/><path class="cls-11" d="M613.41,172.09l-5.63,18.52-8-4.63Z"/><path class="cls-12" d="M613.41,172.09l5.66,18.52H607.78Z"/><path class="cls-10" d="M613.41,167l11.52,11.75-6.73,3.92Z"/><path class="cls-11" d="M613.41,167l-4.77,15.67-6.78-3.92Z"/><path class="cls-12" d="M613.41,167l4.79,15.67h-9.56Z"/><path class="cls-10" d="M613.41,162.47l8.37,8.55-4.89,2.85Z"/><path class="cls-11" d="M613.41,162.47l-3.47,11.4L605,171Z"/><path class="cls-12" d="M613.41,162.47l3.48,11.4h-6.95Z"/></g><g class="cls-6"><path d="M635.48,196.77c2.26,1.3,2.26,3.42,0,4.72a9,9,0,0,1-8.15,0c-2.26-1.3-2.26-3.42,0-4.72A9,9,0,0,1,635.48,196.77Z"/></g><g id="Layer-1-3" data-name="Layer-1"><path class="cls-7" d="M631.25,200.49l-3-1.75-.07-23.23,3,1.75Z"/><path class="cls-8" d="M631.18,177.26l-3-1.75,3-1.75,3,1.75Z"/><path class="cls-9" d="M634.21,175.51l.07,23.23-3,1.75-.07-23.23Z"/><path class="cls-10" d="M631.24,175.48l13.62,13.89-8,4.63Z"/><path class="cls-11" d="M631.24,175.48,625.61,194l-8-4.63Z"/><path class="cls-12" d="M631.24,175.48,636.9,194H625.61Z"/><path class="cls-10" d="M631.24,170.35l11.52,11.75L636,186Z"/><path class="cls-11" d="M631.24,170.35,626.47,186l-6.78-3.92Z"/><path class="cls-12" d="M631.24,170.35,636,186h-9.55Z"/><path class="cls-10" d="M631.23,165.86l8.38,8.55-4.89,2.85Z"/><path class="cls-11" d="M631.23,165.86l-3.46,11.4-4.93-2.85Z"/><path class="cls-12" d="M631.23,165.86l3.49,11.4h-7Z"/></g><g class="cls-6"><path d="M290.9,36.54c2.26,1.3,2.27,3.42,0,4.72a9,9,0,0,1-8.16,0c-2.26-1.3-2.27-3.42,0-4.72A9,9,0,0,1,290.9,36.54Z"/></g><g id="Layer-1-4" data-name="Layer-1"><path class="cls-7" d="M286.67,40.26l-3-1.75-.06-23.23,3,1.76Z"/><path class="cls-8" d="M286.6,17l-3-1.76,3-1.75,3,1.75Z"/><path class="cls-9" d="M289.63,15.28l.07,23.23-3,1.75L286.6,17Z"/><path class="cls-10" d="M286.66,15.25l13.61,13.9-8,4.62Z"/><path class="cls-11" d="M286.66,15.25,281,33.77l-8-4.62Z"/><path class="cls-12" d="M286.66,15.25l5.65,18.52H281Z"/><path class="cls-10" d="M286.66,10.12l11.52,11.76-6.74,3.91Z"/><path class="cls-11" d="M286.66,10.12l-4.77,15.67-6.78-3.91Z"/><path class="cls-12" d="M286.66,10.12l4.78,15.67h-9.55Z"/><path class="cls-10" d="M286.65,5.63,295,14.19,290.13,17Z"/><path class="cls-11" d="M286.65,5.63,283.18,17l-4.92-2.84Z"/><path class="cls-12" d="M286.65,5.63,290.13,17h-6.95Z"/></g><g class="cls-6"><path d="M313,32.25c2.26,1.31,2.27,3.42,0,4.72a8.94,8.94,0,0,1-8.15,0c-2.26-1.3-2.28-3.41,0-4.72A9,9,0,0,1,313,32.25Z"/></g><g id="Layer-1-5" data-name="Layer-1"><path class="cls-7" d="M308.78,36l-3-1.75L305.7,11l3,1.75Z"/><path class="cls-8" d="M308.71,12.75l-3-1.75,3-1.75,3,1.75Z"/><path class="cls-9" d="M311.75,11l.06,23.22-3,1.75-.07-23.22Z"/><path class="cls-10" d="M308.77,11l13.62,13.9-8,4.62Z"/><path class="cls-11" d="M308.77,11l-5.63,18.52-8-4.62Z"/><path class="cls-12" d="M308.77,11l5.66,18.52H303.14Z"/><path class="cls-10" d="M308.77,5.83l11.52,11.76-6.73,3.91Z"/><path class="cls-11" d="M308.77,5.83,304,21.5l-6.78-3.91Z"/><path class="cls-12" d="M308.77,5.83l4.79,15.67H304Z"/><path class="cls-10" d="M308.77,1.35l8.38,8.55-4.9,2.84Z"/><path class="cls-11" d="M308.77,1.35,305.3,12.74,300.37,9.9Z"/><path class="cls-12" d="M308.77,1.35l3.48,11.39H305.3Z"/></g><g class="cls-6"><path d="M273.78,57.22c2.26,1.31,2.26,3.42,0,4.73a9,9,0,0,1-8.15,0c-2.26-1.31-2.26-3.42,0-4.72A9,9,0,0,1,273.78,57.22Z"/></g><g id="Layer-1-6" data-name="Layer-1"><path class="cls-7" d="M269.55,61l-3-1.75L266.47,36l3,1.75Z"/><path class="cls-8" d="M269.48,37.72l-3-1.75,3-1.75,3,1.75Z"/><path class="cls-9" d="M272.51,36l.07,23.23-3,1.75-.07-23.23Z"/><path class="cls-10" d="M269.54,35.94l13.61,13.89-7.95,4.63Z"/><path class="cls-11" d="M269.54,35.94,263.9,54.46l-8-4.63Z"/><path class="cls-12" d="M269.54,35.94l5.66,18.52H263.9Z"/><path class="cls-10" d="M269.54,30.81l11.52,11.75-6.74,3.92Z"/><path class="cls-11" d="M269.54,30.81l-4.77,15.67L258,42.56Z"/><path class="cls-12" d="M269.54,30.81l4.78,15.67h-9.55Z"/><path class="cls-10" d="M269.53,26.32l8.38,8.55L273,37.72Z"/><path class="cls-11" d="M269.53,26.32l-3.46,11.4-4.93-2.85Z"/><path class="cls-12" d="M269.53,26.32,273,37.72h-6.94Z"/></g><g class="cls-6"><path d="M322.89,49.82c2.25,1.3,2.27,3.41,0,4.72a9,9,0,0,1-8.15,0c-2.26-1.31-2.27-3.42,0-4.72A8.94,8.94,0,0,1,322.89,49.82Z"/></g><g id="Layer-1-7" data-name="Layer-1"><path class="cls-7" d="M318.66,53.54l-3-1.75-.07-23.23,3,1.75Z"/><path class="cls-8" d="M318.59,30.31l-3-1.75,3-1.75,3,1.75Z"/><path class="cls-9" d="M321.62,28.56l.07,23.23-3,1.75-.07-23.23Z"/><path class="cls-10" d="M318.65,28.53l13.62,13.9-8,4.62Z"/><path class="cls-11" d="M318.65,28.53,313,47.05l-8-4.62Z"/><path class="cls-12" d="M318.65,28.53l5.66,18.52H313Z"/><path class="cls-10" d="M318.65,23.4l11.52,11.76-6.74,3.91Z"/><path class="cls-11" d="M318.65,23.4l-4.77,15.67-6.78-3.91Z"/><path class="cls-12" d="M318.65,23.4l4.78,15.67h-9.55Z"/><path class="cls-10" d="M318.64,18.91,327,27.46l-4.89,2.85Z"/><path class="cls-11" d="M318.64,18.91l-3.46,11.4-4.93-2.85Z"/><path class="cls-12" d="M318.64,18.91l3.49,11.4h-6.95Z"/></g><g class="cls-6"><ellipse cx="298.15" cy="55.97" rx="3.34" ry="5.76" transform="translate(241.34 353.96) rotate(-89.84)"/></g><g id="Layer-1-8" data-name="Layer-1"><path class="cls-7" d="M298,57.33l-3-1.75-.06-23.23,3,1.75Z"/><path class="cls-8" d="M297.92,34.1l-3-1.75,3-1.75,3,1.75Z"/><path class="cls-9" d="M301,32.35,301,55.58l-3,1.75-.07-23.23Z"/><path class="cls-10" d="M298,32.32l13.61,13.9-7.95,4.62Z"/><path class="cls-11" d="M298,32.32l-5.64,18.52-8-4.62Z"/><path class="cls-12" d="M298,32.32l5.66,18.52h-11.3Z"/><path class="cls-10" d="M298,27.19,309.5,39l-6.74,3.91Z"/><path class="cls-11" d="M298,27.19l-4.77,15.67L286.43,39Z"/><path class="cls-12" d="M298,27.19l4.78,15.67h-9.55Z"/><path class="cls-10" d="M298,22.7l8.38,8.55-4.9,2.85Z"/><path class="cls-11" d="M298,22.7l-3.46,11.4-4.93-2.85Z"/><path class="cls-12" d="M298,22.7l3.48,11.4h-6.94Z"/></g><g class="cls-6"><path d="M339.85,48.07c2.26,1.3,2.27,3.42,0,4.72a9,9,0,0,1-8.15,0c-2.26-1.3-2.27-3.41,0-4.72A9,9,0,0,1,339.85,48.07Z"/></g><g id="Layer-1-9" data-name="Layer-1"><path class="cls-7" d="M335.62,51.79l-3-1.75-.06-23.23,3,1.75Z"/><path class="cls-8" d="M335.56,28.56l-3-1.75,3-1.75,3,1.75Z"/><path class="cls-9" d="M338.59,26.81,338.66,50l-3,1.75-.06-23.23Z"/><path class="cls-10" d="M335.62,26.78l13.61,13.89-8,4.63Z"/><path class="cls-11" d="M335.62,26.78,330,45.3l-8-4.63Z"/><path class="cls-12" d="M335.62,26.78l5.65,18.52H330Z"/><path class="cls-10" d="M335.61,21.65l11.52,11.76-6.73,3.91Z"/><path class="cls-11" d="M335.61,21.65l-4.76,15.67-6.78-3.91Z"/><path class="cls-12" d="M335.61,21.65l4.79,15.67h-9.55Z"/><path class="cls-10" d="M335.61,17.16,344,25.71l-4.9,2.85Z"/><path class="cls-11" d="M335.61,17.16l-3.47,11.4-4.93-2.85Z"/><path class="cls-12" d="M335.61,17.16l3.48,11.4h-6.95Z"/></g><g class="cls-6"><path d="M287.77,63.57c2.26,1.31,2.28,3.42,0,4.72a8.94,8.94,0,0,1-8.15,0c-2.25-1.3-2.27-3.41,0-4.72A9,9,0,0,1,287.77,63.57Z"/></g><g id="Layer-1-10" data-name="Layer-1"><path class="cls-7" d="M283.54,67.29l-3-1.75-.06-23.22,3,1.75Z"/><path class="cls-8" d="M283.48,44.07l-3-1.75,3-1.75,3,1.75Z"/><path class="cls-9" d="M286.51,42.32l.07,23.22-3,1.75-.06-23.22Z"/><path class="cls-10" d="M283.54,42.28l13.61,13.9-8,4.62Z"/><path class="cls-11" d="M283.54,42.28,277.9,60.8l-8-4.62Z"/><path class="cls-12" d="M283.54,42.28l5.65,18.52H277.9Z"/><path class="cls-10" d="M283.53,37.15l11.52,11.76-6.73,3.91Z"/><path class="cls-11" d="M283.53,37.15l-4.76,15.67L272,48.91Z"/><path class="cls-12" d="M283.53,37.15l4.79,15.67h-9.55Z"/><path class="cls-10" d="M283.53,32.67l8.38,8.55L287,44.06Z"/><path class="cls-11" d="M283.53,32.67l-3.47,11.39-4.93-2.84Z"/><path class="cls-12" d="M283.53,32.67,287,44.06h-6.95Z"/></g><g class="cls-6"><path d="M330.7,66.15c2.25,1.3,2.27,3.42,0,4.72a8.94,8.94,0,0,1-8.15,0c-2.26-1.3-2.27-3.42,0-4.72A9,9,0,0,1,330.7,66.15Z"/></g><g id="Layer-1-11" data-name="Layer-1"><path class="cls-7" d="M326.47,69.87l-3-1.75-.07-23.22,3,1.75Z"/><path class="cls-8" d="M326.4,46.65l-3-1.75,3-1.76,3,1.76Z"/><path class="cls-9" d="M329.44,44.9l.06,23.22-3,1.75-.07-23.22Z"/><path class="cls-10" d="M326.46,44.86l13.62,13.9-8,4.62Z"/><path class="cls-11" d="M326.46,44.86l-5.63,18.52-8-4.62Z"/><path class="cls-12" d="M326.46,44.86l5.66,18.52H320.83Z"/><path class="cls-10" d="M326.46,39.73,338,51.49l-6.73,3.91Z"/><path class="cls-11" d="M326.46,39.73,321.69,55.4l-6.78-3.91Z"/><path class="cls-12" d="M326.46,39.73l4.79,15.67h-9.56Z"/><path class="cls-10" d="M326.46,35.25l8.37,8.55-4.89,2.84Z"/><path class="cls-11" d="M326.46,35.25,323,46.64l-4.93-2.84Z"/><path class="cls-12" d="M326.46,35.25l3.48,11.39H323Z"/></g><g class="cls-6"><path d="M312.27,73.32c2.26,1.31,2.27,3.42,0,4.72a9,9,0,0,1-8.16,0c-2.26-1.31-2.26-3.42,0-4.73A9,9,0,0,1,312.27,73.32Z"/></g><g id="Layer-1-12" data-name="Layer-1"><path class="cls-7" d="M308,77l-3-1.75L305,52.07l3,1.75Z"/><path class="cls-8" d="M308,53.82l-3-1.75,3-1.75,3,1.75Z"/><path class="cls-9" d="M311,52.07l.06,23.22L308,77,308,53.82Z"/><path class="cls-10" d="M308,52l13.62,13.9-8,4.62Z"/><path class="cls-11" d="M308,52,302.4,70.55l-8-4.62Z"/><path class="cls-12" d="M308,52l5.66,18.52H302.4Z"/><path class="cls-10" d="M308,46.9l11.52,11.76-6.73,3.91Z"/><path class="cls-11" d="M308,46.9l-4.77,15.67-6.78-3.91Z"/><path class="cls-12" d="M308,46.9l4.79,15.67h-9.56Z"/><path class="cls-10" d="M308,42.42,316.41,51l-4.9,2.84Z"/><path class="cls-11" d="M308,42.42l-3.47,11.39L299.63,51Z"/><path class="cls-12" d="M308,42.42l3.48,11.39h-6.95Z"/></g><g class="cls-6"><path d="M296.47,84.28c2.26,1.3,2.27,3.42,0,4.72a9,9,0,0,1-8.15,0c-2.25-1.3-2.26-3.42,0-4.72A9,9,0,0,1,296.47,84.28Z"/></g><g id="Layer-1-13" data-name="Layer-1"><path class="cls-7" d="M292.24,88l-3-1.75L289.16,63l3,1.75Z"/><path class="cls-8" d="M292.17,64.77l-3-1.75,3-1.75,3,1.75Z"/><path class="cls-9" d="M295.21,63l.06,23.23-3,1.75-.07-23.23Z"/><path class="cls-10" d="M292.23,63l13.62,13.9-8,4.62Z"/><path class="cls-11" d="M292.23,63,286.6,81.51l-8-4.62Z"/><path class="cls-12" d="M292.23,63l5.66,18.52H286.6Z"/><path class="cls-10" d="M292.23,57.86l11.52,11.76L297,73.53Z"/><path class="cls-11" d="M292.23,57.86l-4.77,15.67-6.78-3.91Z"/><path class="cls-12" d="M292.23,57.86,297,73.53h-9.56Z"/><path class="cls-10" d="M292.23,53.37l8.37,8.56-4.89,2.84Z"/><path class="cls-11" d="M292.23,53.37l-3.47,11.4-4.93-2.84Z"/><path class="cls-12" d="M292.23,53.37l3.48,11.4h-6.95Z"/></g><g class="cls-6"><path d="M503.63,280.35c2.26,1.31,2.26,3.42,0,4.72a9,9,0,0,1-8.15,0c-2.26-1.3-2.26-3.41,0-4.72A9,9,0,0,1,503.63,280.35Z"/></g><g id="Layer-1-14" data-name="Layer-1"><path class="cls-13" d="M501.3,256.67l-1.73,1v25.86l1.73-1Z"/><path class="cls-14" d="M497.83,256.67l1.74,1v25.86l-1.74-1Z"/><path class="cls-15" d="M499.57,247.39c-2.46,0-6.32,26.43-4.69,27.78a7.34,7.34,0,0,0,9.37,0c1.63-1.35-2.23-27.78-4.68-27.78"/><path class="cls-16" d="M499.57,247.39c-2.46,0-7.36,15.48-7.36,22.11a7.35,7.35,0,0,0,2.67,5.67Z"/><path class="cls-17" d="M499.57,247.39c2.45,0,7.35,15.48,7.35,22.11a7.35,7.35,0,0,1-2.67,5.67Z"/></g><g class="cls-6"><path d="M708.15,68.49c2.26,1.3,2.27,3.42,0,4.72a8.94,8.94,0,0,1-8.15,0c-2.26-1.3-2.28-3.42,0-4.72A9,9,0,0,1,708.15,68.49Z"/></g><g id="Layer-1-15" data-name="Layer-1"><path class="cls-7" d="M703.92,72.21l-3-1.75-.07-23.23,3,1.75Z"/><path class="cls-8" d="M703.85,49l-3-1.75,3-1.75,3,1.75Z"/><path class="cls-9" d="M706.89,47.23,707,70.46l-3,1.75L703.85,49Z"/><path class="cls-10" d="M703.91,47.2l13.62,13.89-8,4.63Z"/><path class="cls-11" d="M703.91,47.2l-5.63,18.52-8-4.63Z"/><path class="cls-12" d="M703.91,47.2l5.66,18.52H698.28Z"/><path class="cls-10" d="M703.91,42.07l11.52,11.76-6.73,3.91Z"/><path class="cls-11" d="M703.91,42.07l-4.77,15.67-6.78-3.91Z"/><path class="cls-12" d="M703.91,42.07l4.79,15.67h-9.56Z"/><path class="cls-10" d="M703.91,37.58l8.37,8.55L707.39,49Z"/><path class="cls-11" d="M703.91,37.58,700.44,49l-4.93-2.85Z"/><path class="cls-12" d="M703.91,37.58,707.39,49h-6.95Z"/></g><g class="cls-6"><path d="M725.27,47.8c2.25,1.3,2.26,3.42,0,4.72a8.94,8.94,0,0,1-8.15,0c-2.26-1.3-2.27-3.42,0-4.72A9,9,0,0,1,725.27,47.8Z"/></g><g id="Layer-1-16" data-name="Layer-1"><path class="cls-7" d="M721,51.52l-3-1.75L718,26.55l3,1.75Z"/><path class="cls-8" d="M721,28.3l-3-1.75,3-1.75,3,1.75Z"/><path class="cls-9" d="M724,26.55l.06,23.22-3,1.75L721,28.3Z"/><path class="cls-10" d="M721,26.51l13.62,13.9-8,4.62Z"/><path class="cls-11" d="M721,26.51,715.4,45l-8-4.62Z"/><path class="cls-12" d="M721,26.51,726.69,45H715.4Z"/><path class="cls-10" d="M721,21.38l11.52,11.76-6.74,3.91Z"/><path class="cls-11" d="M721,21.38l-4.77,15.67-6.78-3.91Z"/><path class="cls-12" d="M721,21.38l4.78,15.67h-9.55Z"/><path class="cls-10" d="M721,16.9l8.37,8.55-4.89,2.84Z"/><path class="cls-11" d="M721,16.9l-3.47,11.39-4.93-2.84Z"/><path class="cls-12" d="M721,16.9l3.48,11.39h-7Z"/></g><g class="cls-6"><path d="M747.38,43.52c2.26,1.3,2.27,3.41,0,4.71a9,9,0,0,1-8.15,0c-2.26-1.31-2.27-3.42,0-4.72A8.92,8.92,0,0,1,747.38,43.52Z"/></g><g id="Layer-1-17" data-name="Layer-1"><path class="cls-7" d="M743.15,47.24l-3-1.75-.07-23.23,3,1.75Z"/><path class="cls-8" d="M743.09,24l-3-1.75,3-1.75,3,1.75Z"/><path class="cls-9" d="M746.12,22.26l.07,23.23-3,1.75L743.09,24Z"/><path class="cls-10" d="M743.15,22.22l13.61,13.9-8,4.63Z"/><path class="cls-11" d="M743.15,22.22l-5.64,18.53-8-4.63Z"/><path class="cls-12" d="M743.15,22.22l5.65,18.53H737.51Z"/><path class="cls-10" d="M743.14,17.09l11.52,11.76-6.73,3.92Z"/><path class="cls-11" d="M743.14,17.09l-4.77,15.68-6.77-3.92Z"/><path class="cls-12" d="M743.14,17.09l4.79,15.68h-9.56Z"/><path class="cls-10" d="M743.14,12.61l8.38,8.55L746.62,24Z"/><path class="cls-11" d="M743.14,12.61,739.67,24l-4.93-2.85Z"/><path class="cls-12" d="M743.14,12.61,746.62,24h-7Z"/></g><g class="cls-6"><path d="M757.26,61.08c2.26,1.31,2.27,3.42,0,4.72a9,9,0,0,1-8.16,0c-2.25-1.3-2.26-3.41,0-4.72A9,9,0,0,1,757.26,61.08Z"/></g><g id="Layer-1-18" data-name="Layer-1"><path class="cls-7" d="M753,64.8l-3-1.75L750,39.83l3,1.75Z"/><path class="cls-8" d="M753,41.58l-3-1.75,3-1.76,3,1.76Z"/><path class="cls-9" d="M756,39.83l.06,23.22-3,1.75L753,41.58Z"/><path class="cls-10" d="M753,39.79l13.62,13.9-8,4.62Z"/><path class="cls-11" d="M753,39.79l-5.63,18.52-8-4.62Z"/><path class="cls-12" d="M753,39.79l5.66,18.52H747.39Z"/><path class="cls-10" d="M753,34.66l11.52,11.76-6.73,3.91Z"/><path class="cls-11" d="M753,34.66l-4.77,15.67-6.78-3.91Z"/><path class="cls-12" d="M753,34.66l4.79,15.67h-9.56Z"/><path class="cls-10" d="M753,30.18l8.38,8.55-4.9,2.84Z"/><path class="cls-11" d="M753,30.18l-3.47,11.39-4.93-2.84Z"/><path class="cls-12" d="M753,30.18l3.48,11.39h-7Z"/></g><g class="cls-6"><path d="M736.59,64.87c2.26,1.31,2.27,3.42,0,4.72a9,9,0,0,1-8.15,0c-2.26-1.31-2.28-3.42,0-4.73A9,9,0,0,1,736.59,64.87Z"/></g><g id="Layer-1-19" data-name="Layer-1"><path class="cls-7" d="M732.36,68.59l-3-1.75-.07-23.23,3,1.76Z"/><path class="cls-8" d="M732.29,45.37l-3-1.76,3-1.75,3,1.75Z"/><path class="cls-9" d="M735.33,43.61l.06,23.23-3,1.75-.07-23.22Z"/><path class="cls-10" d="M732.35,43.58,746,57.48l-8,4.62Z"/><path class="cls-11" d="M732.35,43.58,726.72,62.1l-8-4.62Z"/><path class="cls-12" d="M732.35,43.58,738,62.1H726.72Z"/><path class="cls-10" d="M732.35,38.45l11.52,11.76-6.74,3.91Z"/><path class="cls-11" d="M732.35,38.45l-4.77,15.67-6.78-3.91Z"/><path class="cls-12" d="M732.35,38.45l4.78,15.67h-9.55Z"/><path class="cls-10" d="M732.35,34l8.37,8.56-4.89,2.84Z"/><path class="cls-11" d="M732.35,34l-3.47,11.4L724,42.52Z"/><path class="cls-12" d="M732.35,34l3.48,11.4h-7Z"/></g><g class="cls-6"><path d="M765.07,77.41c2.26,1.31,2.28,3.42,0,4.73a9,9,0,0,1-8.15,0c-2.26-1.3-2.27-3.41,0-4.72A9,9,0,0,1,765.07,77.41Z"/></g><g id="Layer-1-20" data-name="Layer-1"><path class="cls-7" d="M760.84,81.14l-3-1.76-.07-23.22,3,1.75Z"/><path class="cls-8" d="M760.78,57.91l-3-1.75,3-1.75,3,1.75Z"/><path class="cls-9" d="M763.81,56.16l.06,23.22-3,1.76-.06-23.23Z"/><path class="cls-10" d="M760.83,56.12,774.45,70l-8,4.62Z"/><path class="cls-11" d="M760.83,56.12,755.2,74.64l-8-4.62Z"/><path class="cls-12" d="M760.83,56.12l5.66,18.52H755.2Z"/><path class="cls-10" d="M760.83,51l11.52,11.76-6.73,3.91Z"/><path class="cls-11" d="M760.83,51l-4.77,15.67-6.77-3.91Z"/><path class="cls-12" d="M760.83,51l4.79,15.67h-9.56Z"/><path class="cls-10" d="M760.83,46.51l8.38,8.55-4.9,2.85Z"/><path class="cls-11" d="M760.83,46.51,757.36,57.9l-4.93-2.84Z"/><path class="cls-12" d="M760.83,46.51l3.48,11.4h-6.95Z"/></g><g class="cls-6"><path d="M722.15,74.84c2.25,1.3,2.26,3.41,0,4.72a9,9,0,0,1-8.15,0c-2.26-1.3-2.27-3.42,0-4.73A9,9,0,0,1,722.15,74.84Z"/></g><g id="Layer-1-21" data-name="Layer-1"><path class="cls-7" d="M717.92,78.56l-3-1.75-.06-23.23,3,1.75Z"/><path class="cls-8" d="M717.85,55.33l-3-1.75,3-1.75,3,1.75Z"/><path class="cls-9" d="M720.88,53.58,721,76.81l-3,1.75-.07-23.23Z"/><path class="cls-10" d="M717.91,53.55l13.61,13.89-8,4.63Z"/><path class="cls-11" d="M717.91,53.55l-5.64,18.52-8-4.63Z"/><path class="cls-12" d="M717.91,53.55l5.65,18.52H712.27Z"/><path class="cls-10" d="M717.91,48.42l11.52,11.75-6.74,3.92Z"/><path class="cls-11" d="M717.91,48.42l-4.77,15.67-6.78-3.92Z"/><path class="cls-12" d="M717.91,48.42l4.78,15.67h-9.55Z"/><path class="cls-10" d="M717.9,43.93l8.38,8.55-4.9,2.85Z"/><path class="cls-11" d="M717.9,43.93l-3.47,11.4-4.92-2.85Z"/><path class="cls-12" d="M717.9,43.93l3.48,11.4h-7Z"/></g><g class="cls-6"><path d="M746.64,84.58c2.26,1.31,2.27,3.42,0,4.73a9,9,0,0,1-8.14,0c-2.26-1.31-2.27-3.42,0-4.73A9,9,0,0,1,746.64,84.58Z"/></g><g id="Layer-1-22" data-name="Layer-1"><path class="cls-7" d="M742.41,88.31l-3-1.75-.07-23.23,3,1.75Z"/><path class="cls-8" d="M742.35,65.08l-3-1.75,3-1.75,3,1.75Z"/><path class="cls-9" d="M745.38,63.33l.07,23.23-3,1.75-.06-23.23Z"/><path class="cls-10" d="M742.41,63.3,756,77.19l-8,4.63Z"/><path class="cls-11" d="M742.41,63.3l-5.64,18.52-8-4.63Z"/><path class="cls-12" d="M742.41,63.3l5.65,18.52H736.77Z"/><path class="cls-10" d="M742.4,58.17l11.52,11.75-6.73,3.92Z"/><path class="cls-11" d="M742.4,58.17l-4.77,15.67-6.77-3.92Z"/><path class="cls-12" d="M742.4,58.17l4.79,15.67h-9.56Z"/><path class="cls-10" d="M742.4,53.68l8.38,8.55-4.9,2.85Z"/><path class="cls-11" d="M742.4,53.68l-3.47,11.4L734,62.23Z"/><path class="cls-12" d="M742.4,53.68l3.48,11.4h-7Z"/></g><g class="cls-6"><path d="M724.75,428c2.25,1.31,2.26,3.42,0,4.72a9,9,0,0,1-8.15,0c-2.26-1.31-2.27-3.42,0-4.73A9,9,0,0,1,724.75,428Z"/></g><g id="Layer-1-23" data-name="Layer-1"><path class="cls-7" d="M720.51,431.75l-3-1.75-.06-23.23,3,1.76Z"/><path class="cls-8" d="M720.45,408.53l-3-1.76,3-1.75,3,1.75Z"/><path class="cls-9" d="M723.48,406.77l.07,23.23-3,1.75-.06-23.22Z"/><path class="cls-10" d="M720.51,406.74l13.61,13.9-8,4.62Z"/><path class="cls-11" d="M720.51,406.74l-5.64,18.52-8-4.62Z"/><path class="cls-12" d="M720.51,406.74l5.65,18.52H714.87Z"/><path class="cls-10" d="M720.5,401.61,732,413.37l-6.73,3.91Z"/><path class="cls-11" d="M720.5,401.61l-4.76,15.67L709,413.37Z"/><path class="cls-12" d="M720.5,401.61l4.79,15.67h-9.55Z"/><path class="cls-10" d="M720.5,397.12l8.38,8.56-4.9,2.84Z"/><path class="cls-11" d="M720.5,397.12,717,408.52l-4.93-2.84Z"/><path class="cls-12" d="M720.5,397.12l3.48,11.4h-7Z"/></g><g class="cls-6"><path d="M715.19,451.23c2.26,1.3,2.26,3.41,0,4.72a9,9,0,0,1-8.15,0c-2.26-1.31-2.27-3.42,0-4.72A9,9,0,0,1,715.19,451.23Z"/></g><g id="Layer-1-24" data-name="Layer-1"><path class="cls-7" d="M711,455l-3-1.75L707.88,430l3,1.75Z"/><path class="cls-8" d="M710.89,431.72l-3-1.75,3-1.75,3,1.75Z"/><path class="cls-9" d="M713.93,430,714,453.2,711,455l-.07-23.23Z"/><path class="cls-10" d="M711,429.94l13.62,13.89-8,4.63Z"/><path class="cls-11" d="M711,429.94l-5.63,18.52-8-4.63Z"/><path class="cls-12" d="M711,429.94l5.66,18.52H705.32Z"/><path class="cls-10" d="M711,424.81l11.52,11.76-6.73,3.91Z"/><path class="cls-11" d="M711,424.81l-4.77,15.67-6.78-3.91Z"/><path class="cls-12" d="M711,424.81l4.79,15.67h-9.56Z"/><path class="cls-10" d="M711,420.32l8.37,8.55-4.89,2.85Z"/><path class="cls-11" d="M711,420.32l-3.47,11.4-4.93-2.85Z"/><path class="cls-12" d="M711,420.32l3.48,11.4h-6.95Z"/></g><g class="cls-6"><path d="M740.9,442.27c2.27,1.3,2.28,3.42,0,4.72a9,9,0,0,1-8.16,0c-2.25-1.3-2.27-3.42,0-4.72A9,9,0,0,1,740.9,442.27Z"/></g><g id="Layer-1-25" data-name="Layer-1"><path class="cls-7" d="M736.68,446l-3-1.75L733.6,421l3,1.75Z"/><path class="cls-8" d="M736.61,422.76l-3-1.75,3-1.75,3,1.75Z"/><path class="cls-9" d="M739.64,421l.07,23.23-3,1.75-.07-23.23Z"/><path class="cls-10" d="M736.67,421l13.61,13.9-7.95,4.62Z"/><path class="cls-11" d="M736.67,421,731,439.5l-8-4.62Z"/><path class="cls-12" d="M736.67,421l5.66,18.52H731Z"/><path class="cls-10" d="M736.67,415.85l11.52,11.76-6.74,3.91Z"/><path class="cls-11" d="M736.67,415.85l-4.77,15.67-6.78-3.91Z"/><path class="cls-12" d="M736.67,415.85l4.78,15.67H731.9Z"/><path class="cls-10" d="M736.66,411.36l8.38,8.56-4.9,2.84Z"/><path class="cls-11" d="M736.66,411.36l-3.46,11.4-4.93-2.84Z"/><path class="cls-12" d="M736.66,411.36l3.48,11.4H733.2Z"/></g><g class="cls-6"><path d="M684.84,458.4c2.26,1.3,2.27,3.42,0,4.72a9,9,0,0,1-8.15,0c-2.26-1.3-2.28-3.42,0-4.72A8.94,8.94,0,0,1,684.84,458.4Z"/></g><g id="Layer-1-26" data-name="Layer-1"><path class="cls-7" d="M680.61,462.12l-3-1.75-.07-23.23,3,1.75Z"/><path class="cls-8" d="M680.55,438.89l-3-1.75,3-1.75,3,1.75Z"/><path class="cls-9" d="M683.58,437.14l.06,23.23-3,1.75-.06-23.23Z"/><path class="cls-10" d="M680.6,437.11,694.22,451l-8,4.63Z"/><path class="cls-11" d="M680.6,437.11,675,455.63,667,451Z"/><path class="cls-12" d="M680.6,437.11l5.66,18.52H675Z"/><path class="cls-10" d="M680.6,432l11.52,11.76-6.73,3.91Z"/><path class="cls-11" d="M680.6,432l-4.77,15.67-6.78-3.91Z"/><path class="cls-12" d="M680.6,432l4.79,15.67h-9.56Z"/><path class="cls-10" d="M680.6,427.49,689,436l-4.9,2.85Z"/><path class="cls-11" d="M680.6,427.49l-3.47,11.4L672.2,436Z"/><path class="cls-12" d="M680.6,427.49l3.48,11.4h-7Z"/></g><g class="cls-6"><path d="M765.57,430.28c2.26,1.31,2.27,3.42,0,4.72a8.92,8.92,0,0,1-8.14,0c-2.26-1.3-2.27-3.41,0-4.71A9,9,0,0,1,765.57,430.28Z"/></g><g id="Layer-1-27" data-name="Layer-1"><path class="cls-7" d="M761.34,434l-3-1.76L758.26,409l3,1.75Z"/><path class="cls-8" d="M761.28,410.78l-3-1.75,3-1.75,3,1.75Z"/><path class="cls-9" d="M764.31,409l.06,23.22-3,1.76-.06-23.23Z"/><path class="cls-10" d="M761.33,409,775,422.89l-8,4.63Z"/><path class="cls-11" d="M761.33,409l-5.63,18.52-8-4.62Z"/><path class="cls-12" d="M761.33,409,767,427.52H755.7Z"/><path class="cls-10" d="M761.33,403.86l11.52,11.76-6.73,3.91Z"/><path class="cls-11" d="M761.33,403.86l-4.77,15.67-6.77-3.91Z"/><path class="cls-12" d="M761.33,403.86l4.79,15.67h-9.56Z"/><path class="cls-10" d="M761.33,399.38l8.38,8.55-4.9,2.85Z"/><path class="cls-11" d="M761.33,399.38l-3.47,11.39-4.93-2.84Z"/><path class="cls-12" d="M761.33,399.38l3.48,11.4h-6.95Z"/></g><g class="cls-6"><path d="M783.5,439.65c2.25,1.3,2.27,3.41,0,4.72a9,9,0,0,1-8.14,0c-2.26-1.31-2.28-3.42,0-4.72A9,9,0,0,1,783.5,439.65Z"/></g><g id="Layer-1-28" data-name="Layer-1"><path class="cls-7" d="M779.27,443.37l-3-1.75-.07-23.23,3,1.75Z"/><path class="cls-8" d="M779.2,420.14l-3-1.75,3-1.75,3,1.75Z"/><path class="cls-9" d="M782.24,418.39l.06,23.23-3,1.75-.07-23.23Z"/><path class="cls-10" d="M779.26,418.36l13.62,13.89-8,4.63Z"/><path class="cls-11" d="M779.26,418.36l-5.63,18.52-8-4.63Z"/><path class="cls-12" d="M779.26,418.36l5.66,18.52H773.63Z"/><path class="cls-10" d="M779.26,413.23,790.78,425,784,428.9Z"/><path class="cls-11" d="M779.26,413.23l-4.77,15.67L767.71,425Z"/><path class="cls-12" d="M779.26,413.23,784,428.9h-9.55Z"/><path class="cls-10" d="M779.26,408.74l8.37,8.55-4.89,2.85Z"/><path class="cls-11" d="M779.26,408.74l-3.47,11.4-4.93-2.85Z"/><path class="cls-12" d="M779.26,408.74l3.48,11.4h-7Z"/></g><g class="cls-6"><path d="M703.12,477.46c2.26,1.3,2.28,3.41,0,4.72a9,9,0,0,1-8.15,0c-2.25-1.3-2.27-3.41,0-4.71A8.94,8.94,0,0,1,703.12,477.46Z"/></g><g id="Layer-1-29" data-name="Layer-1"><path class="cls-7" d="M698.89,481.18l-3-1.75-.06-23.23,3,1.75Z"/><path class="cls-8" d="M698.83,458l-3-1.75,3-1.75,3,1.75Z"/><path class="cls-9" d="M701.86,456.2l.07,23.23-3,1.75L698.83,458Z"/><path class="cls-10" d="M698.89,456.17l13.61,13.89-8,4.63Z"/><path class="cls-11" d="M698.89,456.17l-5.64,18.52-8-4.63Z"/><path class="cls-12" d="M698.89,456.17l5.65,18.52H693.25Z"/><path class="cls-10" d="M698.88,451l11.52,11.76-6.73,3.92Z"/><path class="cls-11" d="M698.88,451l-4.76,15.68-6.78-3.92Z"/><path class="cls-12" d="M698.88,451l4.79,15.68h-9.55Z"/><path class="cls-10" d="M698.88,446.55l8.38,8.55-4.9,2.85Z"/><path class="cls-11" d="M698.88,446.55,695.41,458l-4.93-2.85Z"/><path class="cls-12" d="M698.88,446.55l3.48,11.4h-7Z"/></g><g class="cls-6"><path d="M728.79,469.47c2.26,1.3,2.27,3.42,0,4.72a9,9,0,0,1-8.15,0c-2.26-1.3-2.27-3.42,0-4.72A8.92,8.92,0,0,1,728.79,469.47Z"/></g><g id="Layer-1-30" data-name="Layer-1"><path class="cls-7" d="M724.56,473.19l-3-1.75-.06-23.23,3,1.75Z"/><path class="cls-8" d="M724.5,450l-3-1.75,3-1.75,3,1.75Z"/><path class="cls-9" d="M727.53,448.21l.07,23.23-3,1.75L724.5,450Z"/><path class="cls-10" d="M724.56,448.18l13.61,13.89-8,4.63Z"/><path class="cls-11" d="M724.56,448.18l-5.64,18.52-8-4.63Z"/><path class="cls-12" d="M724.56,448.18l5.65,18.52H718.92Z"/><path class="cls-10" d="M724.55,443.05l11.52,11.75-6.73,3.92Z"/><path class="cls-11" d="M724.55,443.05l-4.76,15.67L713,454.8Z"/><path class="cls-12" d="M724.55,443.05l4.79,15.67h-9.55Z"/><path class="cls-10" d="M724.55,438.56l8.38,8.55L728,450Z"/><path class="cls-11" d="M724.55,438.56,721.08,450l-4.93-2.85Z"/><path class="cls-12" d="M724.55,438.56,728,450h-6.95Z"/></g><g class="cls-6"><path d="M756.69,455.78c2.26,1.3,2.28,3.41,0,4.72a9,9,0,0,1-8.15,0c-2.26-1.31-2.27-3.42,0-4.73A9,9,0,0,1,756.69,455.78Z"/></g><g id="Layer-1-31" data-name="Layer-1"><path class="cls-7" d="M752.47,459.5l-3-1.75-.06-23.23,3,1.75Z"/><path class="cls-8" d="M752.4,436.27l-3-1.75,3-1.75,3,1.75Z"/><path class="cls-9" d="M755.43,434.52l.07,23.23-3,1.75-.07-23.23Z"/><path class="cls-10" d="M752.46,434.49l13.61,13.89-8,4.63Z"/><path class="cls-11" d="M752.46,434.49,746.82,453l-8-4.63Z"/><path class="cls-12" d="M752.46,434.49,758.11,453H746.82Z"/><path class="cls-10" d="M752.46,429.35,764,441.11,757.24,445Z"/><path class="cls-11" d="M752.46,429.35,747.69,445l-6.78-3.92Z"/><path class="cls-12" d="M752.46,429.35,757.24,445h-9.55Z"/><path class="cls-10" d="M752.45,424.87l8.38,8.55-4.9,2.85Z"/><path class="cls-11" d="M752.45,424.87,749,436.27l-4.92-2.85Z"/><path class="cls-12" d="M752.45,424.87l3.48,11.4H749Z"/></g><g class="cls-6"><path d="M73.88,184.33c2.26,1.31,2.27,3.42,0,4.73a9,9,0,0,1-8.15,0c-2.26-1.3-2.28-3.41,0-4.72A9,9,0,0,1,73.88,184.33Z"/></g><g id="Layer-1-32" data-name="Layer-1"><path class="cls-7" d="M69.65,188.06l-3-1.76-.07-23.22,3,1.75Z"/><path class="cls-8" d="M69.58,164.83l-3-1.75,3-1.75,3,1.75Z"/><path class="cls-9" d="M72.62,163.08l.06,23.22-3,1.76-.07-23.23Z"/><path class="cls-10" d="M69.64,163l13.62,13.9-8,4.63Z"/><path class="cls-11" d="M69.64,163,64,181.56l-8-4.62Z"/><path class="cls-12" d="M69.64,163l5.66,18.53H64Z"/><path class="cls-10" d="M69.64,157.91l11.52,11.76-6.73,3.91Z"/><path class="cls-11" d="M69.64,157.91l-4.77,15.67-6.78-3.91Z"/><path class="cls-12" d="M69.64,157.91l4.79,15.67H64.87Z"/><path class="cls-10" d="M69.64,153.43,78,162l-4.89,2.85Z"/><path class="cls-11" d="M69.64,153.43l-3.47,11.4L61.24,162Z"/><path class="cls-12" d="M69.64,153.43l3.48,11.4h-7Z"/></g><g class="cls-6"><path d="M53.2,188.12c2.26,1.31,2.28,3.42,0,4.73a9,9,0,0,1-8.16,0c-2.25-1.3-2.27-3.41,0-4.72A9,9,0,0,1,53.2,188.12Z"/></g><g id="Layer-1-33" data-name="Layer-1"><path class="cls-7" d="M49,191.84l-3-1.75-.06-23.22,3,1.75Z"/><path class="cls-8" d="M48.91,168.62l-3-1.75,3-1.75,3,1.75Z"/><path class="cls-9" d="M51.94,166.87,52,190.09l-3,1.75-.07-23.22Z"/><path class="cls-10" d="M49,166.83l13.61,13.9-7.95,4.62Z"/><path class="cls-11" d="M49,166.83l-5.64,18.52-8-4.62Z"/><path class="cls-12" d="M49,166.83l5.66,18.52H43.33Z"/><path class="cls-10" d="M49,161.7l11.52,11.76-6.74,3.91Z"/><path class="cls-11" d="M49,161.7,44.2,177.37l-6.78-3.91Z"/><path class="cls-12" d="M49,161.7l4.78,15.67H44.2Z"/><path class="cls-10" d="M49,157.22l8.38,8.55-4.9,2.84Z"/><path class="cls-11" d="M49,157.22,45.5,168.61l-4.93-2.84Z"/><path class="cls-12" d="M49,157.22l3.48,11.39H45.5Z"/></g><g class="cls-6"><path d="M38.76,198.09c2.26,1.3,2.28,3.41,0,4.72a9,9,0,0,1-8.15,0c-2.26-1.3-2.27-3.41,0-4.71A9,9,0,0,1,38.76,198.09Z"/></g><g id="Layer-1-34" data-name="Layer-1"><path class="cls-7" d="M34.53,201.81l-3-1.75-.06-23.23,3,1.75Z"/><path class="cls-8" d="M34.47,178.58l-3-1.75,3-1.75,3,1.75Z"/><path class="cls-9" d="M37.5,176.83l.07,23.23-3,1.75-.06-23.23Z"/><path class="cls-10" d="M34.53,176.8l13.61,13.89-8,4.63Z"/><path class="cls-11" d="M34.53,176.8l-5.64,18.52-8-4.63Z"/><path class="cls-12" d="M34.53,176.8l5.65,18.52H28.89Z"/><path class="cls-10" d="M34.52,171.67,46,183.43l-6.73,3.91Z"/><path class="cls-11" d="M34.52,171.67l-4.76,15.67L23,183.43Z"/><path class="cls-12" d="M34.52,171.67l4.79,15.67H29.76Z"/><path class="cls-10" d="M34.52,167.18l8.38,8.55L38,178.58Z"/><path class="cls-11" d="M34.52,167.18l-3.47,11.4-4.93-2.85Z"/><path class="cls-12" d="M34.52,167.18,38,178.58H31.05Z"/></g><g class="cls-6"><path d="M81.69,200.67c2.26,1.3,2.27,3.41,0,4.72a9,9,0,0,1-8.15,0c-2.26-1.31-2.26-3.42,0-4.72A8.94,8.94,0,0,1,81.69,200.67Z"/></g><g id="Layer-1-35" data-name="Layer-1"><path class="cls-7" d="M77.46,204.39l-3-1.75-.07-23.23,3,1.75Z"/><path class="cls-8" d="M77.39,181.16l-3-1.75,3-1.75,3,1.75Z"/><path class="cls-9" d="M80.43,179.41l.06,23.23-3,1.75-.07-23.23Z"/><path class="cls-10" d="M77.45,179.38l13.62,13.89-8,4.63Z"/><path class="cls-11" d="M77.45,179.38,71.82,197.9l-8-4.63Z"/><path class="cls-12" d="M77.45,179.38l5.66,18.52H71.82Z"/><path class="cls-10" d="M77.45,174.25,89,186l-6.73,3.92Z"/><path class="cls-11" d="M77.45,174.25l-4.77,15.67L65.9,186Z"/><path class="cls-12" d="M77.45,174.25l4.79,15.67H72.68Z"/><path class="cls-10" d="M77.45,169.76l8.38,8.55-4.9,2.85Z"/><path class="cls-11" d="M77.45,169.76,74,181.16l-4.93-2.85Z"/><path class="cls-12" d="M77.45,169.76l3.48,11.4H74Z"/></g><g class="cls-6"><path d="M63.26,207.84c2.26,1.3,2.27,3.42,0,4.72a9,9,0,0,1-8.16,0c-2.25-1.3-2.26-3.42,0-4.72A8.94,8.94,0,0,1,63.26,207.84Z"/></g><g id="Layer-1-36" data-name="Layer-1"><path class="cls-7" d="M59,211.56l-3-1.75L56,186.58l3,1.75Z"/><path class="cls-8" d="M59,188.33l-3-1.75,3-1.75,3,1.75Z"/><path class="cls-9" d="M62,186.58l.06,23.23-3,1.75L59,188.33Z"/><path class="cls-10" d="M59,186.55l13.62,13.89-8,4.63Z"/><path class="cls-11" d="M59,186.55l-5.63,18.52-8-4.63Z"/><path class="cls-12" d="M59,186.55l5.66,18.52H53.39Z"/><path class="cls-10" d="M59,181.42l11.52,11.76-6.73,3.91Z"/><path class="cls-11" d="M59,181.42l-4.77,15.67-6.77-3.91Z"/><path class="cls-12" d="M59,181.42l4.79,15.67H54.25Z"/><path class="cls-10" d="M59,176.93l8.38,8.55-4.9,2.85Z"/><path class="cls-11" d="M59,176.93l-3.47,11.4-4.93-2.85Z"/><path class="cls-12" d="M59,176.93l3.48,11.4h-7Z"/></g><g class="cls-6"><path d="M47.46,218.79c2.26,1.3,2.27,3.42,0,4.72a8.92,8.92,0,0,1-8.14,0c-2.26-1.3-2.28-3.41,0-4.72A9,9,0,0,1,47.46,218.79Z"/></g><g id="Layer-1-37" data-name="Layer-1"><path class="cls-7" d="M43.23,222.52l-3-1.75-.07-23.23,3,1.75Z"/><path class="cls-8" d="M43.16,199.29l-3-1.75,3-1.75,3,1.75Z"/><path class="cls-9" d="M46.2,197.54l.06,23.23-3,1.75-.07-23.23Z"/><path class="cls-10" d="M43.22,197.51,56.84,211.4l-8,4.63Z"/><path class="cls-11" d="M43.22,197.51,37.59,216l-8-4.63Z"/><path class="cls-12" d="M43.22,197.51,48.88,216H37.59Z"/><path class="cls-10" d="M43.22,192.37l11.52,11.76L48,208.05Z"/><path class="cls-11" d="M43.22,192.37l-4.77,15.68-6.78-3.92Z"/><path class="cls-12" d="M43.22,192.37,48,208.05H38.45Z"/><path class="cls-10" d="M43.22,187.89l8.37,8.55-4.89,2.85Z"/><path class="cls-11" d="M43.22,187.89l-3.47,11.4-4.93-2.85Z"/><path class="cls-12" d="M43.22,187.89l3.48,11.4h-7Z"/></g><g class="cls-6"><path d="M525.11,271.72c2.26,1.3,2.27,3.42,0,4.72a8.94,8.94,0,0,1-8.15,0c-2.26-1.3-2.27-3.42,0-4.72A9,9,0,0,1,525.11,271.72Z"/></g><g id="Layer-1-38" data-name="Layer-1"><path class="cls-13" d="M522.79,248l-1.74,1v25.86l1.74-1Z"/><path class="cls-14" d="M519.31,248l1.74,1v25.86l-1.74-1Z"/><path class="cls-15" d="M521.05,238.76c-2.45,0-6.32,26.43-4.68,27.78a7.36,7.36,0,0,0,9.36,0c1.63-1.35-2.23-27.78-4.68-27.78"/><path class="cls-16" d="M521.05,238.76c-2.45,0-7.36,15.47-7.36,22.1a7.33,7.33,0,0,0,2.68,5.68Z"/><path class="cls-17" d="M521.05,238.76c2.45,0,7.36,15.47,7.36,22.1a7.36,7.36,0,0,1-2.68,5.68Z"/></g><g class="cls-6"><path d="M542.76,285.72c2.26,1.3,2.28,3.42,0,4.72a9,9,0,0,1-8.15,0c-2.26-1.3-2.27-3.42,0-4.72A9,9,0,0,1,542.76,285.72Z"/></g><g id="Layer-1-39" data-name="Layer-1"><path class="cls-13" d="M540.44,262l-1.74,1V288.9l1.74-1Z"/><path class="cls-14" d="M537,262l1.74,1V288.9l-1.74-1Z"/><path class="cls-15" d="M538.7,252.76c-2.45,0-6.32,26.43-4.68,27.78a7.36,7.36,0,0,0,9.36,0c1.63-1.35-2.23-27.78-4.68-27.78"/><path class="cls-16" d="M538.7,252.76c-2.45,0-7.36,15.48-7.36,22.11a7.32,7.32,0,0,0,2.68,5.67Z"/><path class="cls-17" d="M538.7,252.76c2.45,0,7.36,15.48,7.36,22.11a7.36,7.36,0,0,1-2.68,5.67Z"/></g></g></g></svg>