<svg xmlns="http://www.w3.org/2000/svg" xmlns:xlink="http://www.w3.org/1999/xlink" viewBox="0 0 156.73 110.42"><defs><style>.cls-1{opacity:0.2;}.cls-2{fill:#22a6f0;}.cls-11,.cls-20,.cls-3{fill:none;}.cls-3{stroke:#603813;stroke-linecap:round;stroke-linejoin:round;stroke-width:0.08px;}.cls-4{fill:#218bc7;}.cls-5{fill:#176b9a;}.cls-6{fill:#1e2c35;}.cls-7{fill:#195877;}.cls-8{fill:#864201;}.cls-9{fill:#5a2600;}.cls-10{fill:#9c4e1e;}.cls-11,.cls-20{stroke:#7c3c19;}.cls-11,.cls-20,.cls-23{stroke-miterlimit:10;}.cls-11{stroke-width:0.04px;}.cls-12{fill:#6b3519;}.cls-13{fill:#533014;}.cls-14{fill:url(#linear-gradient);}.cls-15{fill:url(#linear-gradient-2);}.cls-16{fill:#68340c;}.cls-17{fill:#914120;}.cls-18{fill:#733411;}.cls-19{fill:#57250c;}.cls-20{stroke-width:0.06px;}.cls-21{fill:url(#linear-gradient-3);}.cls-22{fill:url(#linear-gradient-4);}.cls-23{fill:#5f1009;stroke:#340900;stroke-width:0.02px;}.cls-24{fill:#df4a08;}.cls-25{fill:#eb8f14;}.cls-26{fill:#fbcf26;}</style><linearGradient id="linear-gradient" x1="-1049.91" y1="200.65" x2="-1046.47" y2="200.65" gradientTransform="translate(-1002.75 292.61) rotate(180)" gradientUnits="userSpaceOnUse"><stop offset="0" stop-color="#6f3800"/><stop offset="1" stop-color="#3f2001"/></linearGradient><linearGradient id="linear-gradient-2" x1="-1032.78" y1="209.82" x2="-1029.34" y2="209.82" xlink:href="#linear-gradient"/><linearGradient id="linear-gradient-3" x1="-1029.13" y1="189.84" x2="-1025.69" y2="189.84" xlink:href="#linear-gradient"/><linearGradient id="linear-gradient-4" x1="-1012" y1="199.02" x2="-1008.56" y2="199.02" xlink:href="#linear-gradient"/></defs><g id="Layer_2" data-name="Layer 2"><g id="Layer_2-2" data-name="Layer 2"><path class="cls-1" d="M50.19,70.11,87.05,48.83a2.74,2.74,0,0,0,0-4.75L55.32,25.9a2.74,2.74,0,0,0-2.73,0L14.8,47.72a2.75,2.75,0,0,0,0,4.75L45.36,70.11A4.8,4.8,0,0,0,50.19,70.11Z"/><polygon class="cls-2" points="69.94 0 31.28 22.48 49.56 63.66 88.22 40.97 69.94 0"/><path class="cls-3" d="M18.4,40.21s-2.3.83-3,1a13.88,13.88,0,0,1-3.55.31"/><polygon class="cls-4" points="13 42.65 14.26 44.12 31.28 25.84 48.3 64.3 49.56 63.66 31.28 22.48 13 42.65"/><polygon class="cls-5" points="48.09 67.87 48.3 64.3 31.71 26.82 17.41 42.44 17.41 50.22 48.09 67.87"/><path class="cls-6" d="M31.39,32s.63,8.83.84,10.72,1.26,8.61,1.68,10.5,2,7.59,2,7.59L23,53.45s2.47-4.6,3.31-6.7,3.15-8.61,3.57-10.09S31.39,32,31.39,32Z"/><polygon class="cls-7" points="31.18 25.74 31.81 26.79 17.52 42.34 14.37 44.02 31.18 25.74"/><polygon class="cls-7" points="84.84 42.96 84.84 46.75 48.2 67.76 48.41 64.19 84.84 42.96"/><path class="cls-3" d="M55.55,67.24s-2.27-.93-2.93-1.3a14,14,0,0,1-2.84-2.16"/><path class="cls-8" d="M55.55,67.24v3a1,1,0,0,0,1.68,0v-3c0,.17-.38.31-.84.31S55.55,67.41,55.55,67.24Z"/><path class="cls-9" d="M55.55,67.24c0,.17.38.31.84.31s.84-.14.84-.31a.16.16,0,0,0,0-.11,1.21,1.21,0,0,0-.79-.21,1.23,1.23,0,0,0-.79.21A.16.16,0,0,0,55.55,67.24Z"/><path class="cls-8" d="M10.17,40.55V43.6A.91.91,0,0,0,11,44a.91.91,0,0,0,.84-.42V40.55c0,.18-.38.32-.84.32S10.17,40.73,10.17,40.55Z"/><path class="cls-9" d="M10.17,40.55c0,.18.37.32.84.32s.84-.14.84-.32a.12.12,0,0,0,0-.1,1.25,1.25,0,0,0-.79-.21,1.21,1.21,0,0,0-.79.21A.12.12,0,0,0,10.17,40.55Z"/><path class="cls-8" d="M89.32,47v3A1.05,1.05,0,0,0,91,50V47c0,.18-.38.32-.84.32S89.32,47.14,89.32,47Z"/><path class="cls-9" d="M89.32,47c0,.18.38.32.84.32S91,47.14,91,47a.12.12,0,0,0,0-.1,1.59,1.59,0,0,0-1.58,0A.12.12,0,0,0,89.32,47Z"/><path class="cls-3" d="M89.32,47.07a14.83,14.83,0,0,1-2.43-1.39,10,10,0,0,1-2-2.72"/><path class="cls-1" d="M115.91,90.37l36.86-21.28a2.75,2.75,0,0,0,0-4.76L121.05,46.16a2.76,2.76,0,0,0-2.74,0L80.53,68a2.74,2.74,0,0,0,0,4.75l30.55,17.64A4.84,4.84,0,0,0,115.91,90.37Z"/><polygon class="cls-2" points="135.67 20.26 97.01 42.74 115.29 83.92 153.95 61.23 135.67 20.26"/><path class="cls-3" d="M84.13,60.46s-2.31.84-3,1a14.34,14.34,0,0,1-3.55.32"/><polygon class="cls-4" points="78.73 62.91 79.99 64.38 97.01 46.1 114.03 84.55 115.29 83.92 97.01 42.74 78.73 62.91"/><polygon class="cls-5" points="113.82 88.12 114.03 84.55 97.44 47.07 83.14 62.7 83.14 70.47 113.82 88.12"/><path class="cls-6" d="M97.11,52.3S97.74,61.12,98,63s1.26,8.62,1.68,10.51,2,7.59,2,7.59l-12.86-7.4s2.47-4.6,3.31-6.7,3.15-8.62,3.57-10.09S97.11,52.3,97.11,52.3Z"/><polygon class="cls-7" points="96.9 45.99 97.53 47.05 83.25 62.59 80.09 64.28 96.9 45.99"/><polygon class="cls-7" points="150.57 63.21 150.57 67.01 113.92 88.02 114.13 84.45 150.57 63.21"/><path class="cls-3" d="M121.28,87.49s-2.27-.93-2.94-1.29A14.62,14.62,0,0,1,115.51,84"/><path class="cls-8" d="M121.28,87.49v3.05a1.05,1.05,0,0,0,1.68,0V87.49c0,.18-.38.32-.84.32S121.28,87.66,121.28,87.49Z"/><path class="cls-9" d="M121.28,87.49c0,.18.37.32.84.32s.84-.15.84-.32a.14.14,0,0,0,0-.1,1.25,1.25,0,0,0-.79-.21,1.26,1.26,0,0,0-.8.21A.13.13,0,0,0,121.28,87.49Z"/><path class="cls-8" d="M75.89,60.81v3a1,1,0,0,0,1.68,0v-3c0,.17-.37.31-.84.31S75.89,61,75.89,60.81Z"/><path class="cls-9" d="M75.89,60.81c0,.17.38.31.84.31s.84-.14.84-.31a.16.16,0,0,0,0-.11,1.21,1.21,0,0,0-.79-.21,1.23,1.23,0,0,0-.79.21A.16.16,0,0,0,75.89,60.81Z"/><path class="cls-8" d="M155.05,67.22v3a1.05,1.05,0,0,0,1.68,0v-3c0,.17-.38.31-.84.31S155.05,67.4,155.05,67.22Z"/><path class="cls-9" d="M155.05,67.22c0,.17.37.31.84.31s.84-.14.84-.31a.16.16,0,0,0,0-.11,1.25,1.25,0,0,0-.79-.21,1.26,1.26,0,0,0-.8.21A.15.15,0,0,0,155.05,67.22Z"/><path class="cls-3" d="M155.05,67.33a14,14,0,0,1-2.43-1.4,9.8,9.8,0,0,1-2.05-2.72"/><path class="cls-1" d="M28.48,108,50.16,95.46a2.22,2.22,0,0,0,.08-3.8L27.34,77.15a2.22,2.22,0,0,0-2.28-.05L1.13,90.65a2.22,2.22,0,0,0,0,3.86L24.42,108A4.09,4.09,0,0,0,28.48,108Z"/><polygon class="cls-10" points="50.04 87.59 29.19 75.34 23.79 78.55 44.79 90.51 50.04 87.59"/><line class="cls-11" x1="47.56" y1="89.05" x2="26.56" y2="76.94"/><polygon class="cls-12" points="50.04 87.59 50.04 88.18 44.8 91.14 44.79 90.51 50.04 87.59"/><polygon class="cls-13" points="44.8 91.14 23.79 79.13 23.79 78.55 44.79 90.51 44.8 91.14"/><path class="cls-14" d="M47.16,89.81v3.52a2.41,2.41,0,0,1-1.83.79,1.75,1.75,0,0,1-1.61-.77V90.53l1.08.61Z"/><path class="cls-15" d="M30,82.7v1.18a2.29,2.29,0,0,1-1.83,1,1.72,1.72,0,0,1-1.61-.94V80.73Z"/><polygon class="cls-16" points="16.55 78.15 9.64 90.26 8.85 89.72 15.07 79.03 16.55 78.15"/><polygon class="cls-17" points="8.85 89.72 8.05 89.44 13.52 79.95 15.07 79.03 8.85 89.72"/><polygon class="cls-10" points="44.52 85.5 20.82 72.19 5.82 80.82 29.31 94.53 44.52 85.5"/><polygon class="cls-18" points="44.52 85.5 29.31 94.53 29.31 95.21 44.52 86.2 44.52 85.5"/><polygon class="cls-19" points="29.31 94.53 5.82 80.82 5.82 81.69 29.31 95.21 29.31 94.53"/><polygon class="cls-16" points="38.99 89.48 32.08 101.59 31.28 101.04 37.51 90.35 38.99 89.48"/><polygon class="cls-17" points="31.28 101.04 30.49 100.77 35.96 91.27 37.51 90.35 31.28 101.04"/><polygon class="cls-16" points="33.53 92.71 40.52 96.72 41.46 95.53 36.31 92.42 35.13 91.76 33.53 92.71"/><line class="cls-11" x1="41.46" y1="87.31" x2="17.86" y2="73.89"/><line class="cls-20" x1="38.34" y1="89.17" x2="14.85" y2="75.62"/><line class="cls-20" x1="35.13" y1="91.07" x2="11.86" y2="77.34"/><line class="cls-20" x1="32.25" y1="92.78" x2="8.9" y2="79.05"/><polygon class="cls-10" points="29.27 98.39 8.41 86.14 3.01 89.35 24.02 101.31 29.27 98.39"/><line class="cls-11" x1="26.79" y1="99.85" x2="5.78" y2="87.75"/><polygon class="cls-12" points="29.27 98.39 29.27 98.98 24.02 101.95 24.02 101.31 29.27 98.39"/><polygon class="cls-13" points="24.02 101.95 3.01 89.94 3.01 89.35 24.02 101.31 24.02 101.95"/><path class="cls-21" d="M26.38,100.61v3.52a2.38,2.38,0,0,1-1.83.79,1.73,1.73,0,0,1-1.6-.76v-2.83L24,102Z"/><path class="cls-22" d="M9.25,93.5v1.19a2.27,2.27,0,0,1-1.83,1,1.7,1.7,0,0,1-1.6-.94V91.54Z"/><path class="cls-23" d="M55,108.51s-.06.74.16,1,.39.42.67.42a2.31,2.31,0,0,0,.81-.36l9.88-4.73-1.18-1.2Z"/><path class="cls-23" d="M59.76,109.89v-4.48h1.9v4.48a1.37,1.37,0,0,1-.93.52A1.51,1.51,0,0,1,59.76,109.89Z"/><path class="cls-23" d="M66,108s.06.74-.16,1-.39.42-.67.42a2.31,2.31,0,0,1-.81-.36l-9.88-4.73,1.18-1.2Z"/><path class="cls-24" d="M60.42,91.91a6.22,6.22,0,0,0-1.33,2c-.48,1.19-1,2.69-1,2.69a1.05,1.05,0,0,1-.27-.34c-.14-.24,0-.29,0-.57a1.42,1.42,0,0,0-.19-.6,4.59,4.59,0,0,1-.28,1.25c-.24.61-1,1.12-1.75,2.63a6.22,6.22,0,0,0-.71,3.72,6.71,6.71,0,0,0,1.71,3.43,5.12,5.12,0,0,0,4.26,1.61,6.24,6.24,0,0,0,4.52-2.58,7.54,7.54,0,0,0,.78-4.88,11.78,11.78,0,0,0-2.32-4.48,9.56,9.56,0,0,1,.36,1.44c0,.32-.17.66-.17,1a3.39,3.39,0,0,0,.06.64,1.67,1.67,0,0,1-.45-.76,9.06,9.06,0,0,0-.16-1.28,4.24,4.24,0,0,0-.73-1.21l-1.24-1a5.57,5.57,0,0,1-1-1.85A2.53,2.53,0,0,0,60.42,91.91Z"/><path class="cls-25" d="M59.89,94.81s-1.28,3-1.51,3.41S57.19,100,56.79,101s-.74,2.85-.26,3.71a6.38,6.38,0,0,0,3,2.38c1.19.43,3.48-.44,4.52-1.48a4.48,4.48,0,0,0,.8-4.36c-.51-1.25-1.59-1.77-2.68-3.07s-1.07-1.72-1.07-1.72a3.37,3.37,0,0,0,.21,1.36,22.41,22.41,0,0,1,1.32,2.39,5.41,5.41,0,0,1,0,2.42,5.86,5.86,0,0,0-.32-2c-.34-.76-.69-1.15-1.61-2.92A5.79,5.79,0,0,1,59.89,94.81Z"/><path class="cls-26" d="M59.69,98.28a22.8,22.8,0,0,0-1.49,4c-.18,1.22-.23,2.74.59,3.55a2.43,2.43,0,0,0,2.81.5,2.1,2.1,0,0,0,1.15-1.78,3.38,3.38,0,0,0-.8-2.12,15.63,15.63,0,0,1-1.28-1.64,2.48,2.48,0,0,0-.06.54,2.24,2.24,0,0,0,.21.74,3.94,3.94,0,0,1-.92-1.51A10.66,10.66,0,0,1,59.69,98.28Z"/></g></g></svg>