<svg xmlns="http://www.w3.org/2000/svg" viewBox="0 0 146.05 105.89"><defs><style>.cls-1{opacity:0.2;}.cls-2{fill:#ccc;}.cls-3{fill:#1b4481;}.cls-4{fill:#389dd2;}.cls-5{fill:#d7b0a6;}.cls-6{fill:#878787;}.cls-7{fill:#fbcdc2;}.cls-8{fill:#adadad;}.cls-9{fill:gray;}.cls-10{fill:#e9f8f9;}</style></defs><g id="Layer_2" data-name="Layer 2"><g id="Layer_2-2" data-name="Layer 2"><path class="cls-1" d="M54.26,52.44,77.34,39.11a2.65,2.65,0,0,0,0-4.59l-24-13.87a2.67,2.67,0,0,0-2.65,0L27.15,34.22a2.65,2.65,0,0,0,0,4.57L49.74,52.4A4.46,4.46,0,0,0,54.26,52.44Z"/><polyline class="cls-2" points="30.58 12.37 52 24.73 73.39 12.37 51.99 0"/><polyline class="cls-3" points="30.57 12.36 30.58 37.08 51.98 49.44 51.98 24.72"/><polyline class="cls-4" points="73.39 12.36 73.39 37.08 51.99 49.44 51.99 24.72"/><polyline class="cls-5" points="51.98 29.33 51.98 32.21 29.25 19.08 29.25 16.21"/><polyline class="cls-6" points="30.57 15.46 29.25 16.21 51.98 29.33 51.98 27.81"/><polyline class="cls-7" points="74.71 19.09 74.71 16.21 51.98 29.34 51.98 32.21"/><polyline class="cls-8" points="73.39 15.46 74.71 16.21 51.98 29.33 51.98 27.81"/><polyline class="cls-8" points="51.98 2.01 69.92 12.37 51.99 22.72 34.05 12.37"/><polygon class="cls-9" points="35.93 13.49 51.98 4.12 68.04 13.46 69.92 12.37 51.98 2.01 34.05 12.37 35.93 13.49"/><polyline class="cls-8" points="54.66 47.9 54.66 33.99 62.69 29.33 62.69 43.26"/><polygon class="cls-2" points="54.66 33.99 54.66 46.48 61.46 42.55 61.33 30.12 54.66 33.99"/><polygon class="cls-10" points="65.4 29.33 65.36 35.54 69.92 32.91 69.92 26.73 65.4 29.33"/><polygon class="cls-10" points="33.25 26.28 33.25 32.45 36.89 34.55 36.89 28.37 33.25 26.28"/><polygon class="cls-10" points="39.04 29.61 39.04 35.77 42.68 37.87 42.68 31.69 39.04 29.61"/><polygon class="cls-10" points="44.82 32.95 44.82 39.12 48.46 41.22 48.46 35.04 44.82 32.95"/><path class="cls-1" d="M28.43,97.07,51.52,83.74a2.66,2.66,0,0,0,0-4.59l-24-13.87a2.62,2.62,0,0,0-2.65,0L1.32,78.85a2.66,2.66,0,0,0,0,4.57L23.92,97A4.47,4.47,0,0,0,28.43,97.07Z"/><polyline class="cls-2" points="4.75 57 26.17 69.35 47.57 57 26.16 44.63"/><polyline class="cls-3" points="4.75 56.99 4.76 81.71 26.16 94.07 26.16 69.35"/><polyline class="cls-4" points="47.57 56.99 47.57 81.71 26.16 94.07 26.16 69.35"/><polyline class="cls-5" points="26.16 73.96 26.16 76.83 3.43 63.71 3.43 60.84"/><polyline class="cls-6" points="4.75 60.08 3.43 60.84 26.16 73.96 26.16 72.44"/><polyline class="cls-7" points="48.89 63.71 48.89 60.84 26.16 73.96 26.16 76.83"/><polyline class="cls-8" points="47.57 60.08 48.89 60.84 26.16 73.96 26.16 72.44"/><polyline class="cls-8" points="26.16 46.63 44.09 57 26.17 67.35 8.22 57"/><polygon class="cls-9" points="10.1 58.12 26.16 48.75 42.21 58.08 44.09 57 26.16 46.63 8.22 57 10.1 58.12"/><polyline class="cls-8" points="28.84 92.53 28.84 78.62 36.86 73.96 36.87 87.89"/><polygon class="cls-2" points="28.84 78.62 28.84 91.1 35.63 87.18 35.51 74.75 28.84 78.62"/><polygon class="cls-10" points="39.58 73.96 39.54 80.16 44.09 77.53 44.09 71.35 39.58 73.96"/><polygon class="cls-10" points="7.43 70.91 7.43 77.07 11.07 79.17 11.07 73 7.43 70.91"/><polygon class="cls-10" points="13.21 74.23 13.21 80.4 16.85 82.5 16.85 76.32 13.21 74.23"/><polygon class="cls-10" points="19 77.58 19 83.74 22.64 85.84 22.64 79.66 19 77.58"/><path class="cls-1" d="M117.62,62,94.54,48.63a2.65,2.65,0,0,1,0-4.59l24-13.87a2.67,2.67,0,0,1,2.65,0l23.51,13.58a2.65,2.65,0,0,1,0,4.56L122.13,61.92A4.44,4.44,0,0,1,117.62,62Z"/><polyline class="cls-2" points="141.3 21.89 119.88 34.25 98.48 21.89 119.89 9.52"/><polyline class="cls-4" points="141.3 21.88 141.3 46.6 119.89 58.96 119.89 34.24"/><polyline class="cls-3" points="98.48 21.88 98.48 46.6 119.89 58.96 119.89 34.24"/><polyline class="cls-5" points="119.89 38.85 119.89 41.73 142.62 28.6 142.62 25.73"/><polyline class="cls-6" points="141.3 24.98 142.62 25.73 119.89 38.85 119.89 37.33"/><polyline class="cls-7" points="97.16 28.61 97.16 25.73 119.89 38.86 119.89 41.73"/><polyline class="cls-8" points="98.48 24.98 97.16 25.73 119.89 38.85 119.89 37.33"/><polyline class="cls-8" points="119.89 11.53 101.96 21.89 119.89 32.24 137.83 21.89"/><polygon class="cls-9" points="135.95 23.01 119.89 13.64 103.84 22.98 101.96 21.89 119.89 11.53 137.83 21.89 135.95 23.01"/><polyline class="cls-8" points="117.22 57.42 117.22 43.51 109.19 38.85 109.19 52.78"/><polygon class="cls-2" points="117.22 43.51 117.22 56 110.42 52.07 110.54 39.64 117.22 43.51"/><polygon class="cls-10" points="106.47 38.85 106.51 45.06 101.96 42.43 101.96 36.25 106.47 38.85"/><polygon class="cls-10" points="138.62 35.8 138.62 41.97 134.98 44.07 134.98 37.89 138.62 35.8"/><polygon class="cls-10" points="132.84 39.13 132.84 45.29 129.2 47.4 129.2 41.22 132.84 39.13"/><polygon class="cls-10" points="127.06 42.47 127.06 48.63 123.41 50.74 123.41 44.56 127.06 42.47"/><path class="cls-1" d="M92.4,105.29,69.32,92a2.64,2.64,0,0,1,0-4.58l24-13.88a2.67,2.67,0,0,1,2.65,0l23.51,13.58a2.64,2.64,0,0,1,0,4.56L96.92,105.25A4.44,4.44,0,0,1,92.4,105.29Z"/><polyline class="cls-2" points="116.08 65.23 94.66 77.58 73.27 65.23 94.67 52.85"/><polyline class="cls-4" points="116.09 65.22 116.08 89.94 94.68 102.3 94.68 77.58"/><polyline class="cls-3" points="73.27 65.22 73.27 89.94 94.67 102.29 94.67 77.58"/><polyline class="cls-5" points="94.68 82.19 94.68 85.06 117.41 71.94 117.41 69.06"/><polyline class="cls-6" points="116.09 68.31 117.41 69.06 94.68 82.19 94.68 80.66"/><polyline class="cls-7" points="71.95 71.94 71.95 69.06 94.68 82.19 94.68 85.06"/><polyline class="cls-8" points="73.27 68.31 71.95 69.06 94.68 82.19 94.68 80.66"/><polyline class="cls-8" points="94.68 54.86 76.74 65.22 94.67 75.57 112.61 65.22"/><polygon class="cls-9" points="110.73 66.34 94.68 56.98 78.62 66.31 76.74 65.22 94.68 54.86 112.61 65.22 110.73 66.34"/><polyline class="cls-8" points="92 100.75 92 86.84 83.97 82.19 83.97 96.12"/><polygon class="cls-2" points="92 86.84 92 99.33 85.2 95.4 85.33 82.97 92 86.84"/><polygon class="cls-10" points="81.26 82.19 81.3 88.39 76.74 85.76 76.74 79.58 81.26 82.19"/><polygon class="cls-10" points="113.41 79.13 113.41 85.3 109.77 87.4 109.77 81.22 113.41 79.13"/><polygon class="cls-10" points="107.62 82.46 107.62 88.63 103.98 90.73 103.98 84.55 107.62 82.46"/><polygon class="cls-10" points="101.84 85.8 101.84 91.97 98.2 94.07 98.2 87.89 101.84 85.8"/></g></g></svg>