<svg xmlns="http://www.w3.org/2000/svg" xmlns:xlink="http://www.w3.org/1999/xlink" viewBox="0 0 33.38 66"><defs><style>.cls-1{fill:none;}.cls-2{opacity:0.2;}.cls-3{isolation:isolate;}.cls-4{fill:#b6a38c;}.cls-5{fill:#726658;}.cls-6{fill:#8e7f6d;}.cls-7{clip-path:url(#clip-path);}.cls-8{fill:#7f7262;}.cls-9{fill:#837565;}.cls-10{fill:#7b6e5f;}.cls-11{fill:#776b5c;}.cls-12{fill:#736759;}.cls-13{fill:#6f6456;}.cls-14{fill:#6b6053;}.cls-15{fill:#a39b95;}.cls-16{fill:#89827d;}.cls-17{fill:#857f7a;}.cls-18{fill:#3b3b3b;}.cls-19{fill:#484848;}.cls-20{fill:#a59d97;}.cls-21{fill:#3c3c3c;}.cls-22{fill:#827c77;}.cls-23{fill:#494949;}.cls-24{fill:#a79f99;}.cls-25{fill:#393939;}.cls-26{clip-path:url(#clip-path-2);}.cls-27{fill:#434343;}.cls-28{clip-path:url(#clip-path-3);}.cls-29{fill:#353535;}.cls-30{clip-path:url(#clip-path-4);}.cls-31{fill:#7d7772;}.cls-32{fill:#79736e;}.cls-33{clip-path:url(#clip-path-5);}.cls-34{clip-path:url(#clip-path-6);}.cls-35{fill:#373737;}.cls-36{fill:#4a4a4a;}.cls-37{clip-path:url(#clip-path-7);}.cls-38{clip-path:url(#clip-path-8);}.cls-39{fill:#414141;}.cls-40{fill:#3f3f3f;}.cls-41{clip-path:url(#clip-path-9);}.cls-42{fill:#948d88;}.cls-43{fill:#99928c;}.cls-44{clip-path:url(#clip-path-10);}.cls-45{fill:#908983;}.cls-46{fill:#8b857f;}.cls-47{fill:#87807b;}.cls-48{clip-path:url(#clip-path-11);}.cls-49{fill:#675d50;}.cls-50{clip-path:url(#clip-path-12);}.cls-51{clip-path:url(#clip-path-13);}.cls-52{clip-path:url(#clip-path-14);}.cls-53{clip-path:url(#clip-path-15);}.cls-54{fill:#3d3d3d;}.cls-55{clip-path:url(#clip-path-16);}.cls-56{clip-path:url(#clip-path-17);}.cls-57{clip-path:url(#clip-path-18);}.cls-58{clip-path:url(#clip-path-19);}.cls-59{clip-path:url(#clip-path-20);}.cls-60{clip-path:url(#clip-path-21);}.cls-61{clip-path:url(#clip-path-22);}.cls-62{clip-path:url(#clip-path-23);}.cls-63{clip-path:url(#clip-path-24);}.cls-64{clip-path:url(#clip-path-25);}.cls-65{clip-path:url(#clip-path-26);}.cls-66{clip-path:url(#clip-path-27);}.cls-67{clip-path:url(#clip-path-28);}.cls-68{fill:#464646;}.cls-69{clip-path:url(#clip-path-29);}.cls-70{clip-path:url(#clip-path-30);}.cls-71{clip-path:url(#clip-path-31);}.cls-72{clip-path:url(#clip-path-32);}.cls-73{clip-path:url(#clip-path-33);}.cls-74{clip-path:url(#clip-path-34);}.cls-75{clip-path:url(#clip-path-35);}.cls-76{clip-path:url(#clip-path-36);}.cls-77{clip-path:url(#clip-path-37);}.cls-78{clip-path:url(#clip-path-38);}.cls-79{clip-path:url(#clip-path-39);}.cls-80{clip-path:url(#clip-path-40);}.cls-81{clip-path:url(#clip-path-41);}.cls-82{clip-path:url(#clip-path-42);}.cls-83{clip-path:url(#clip-path-43);}.cls-84{clip-path:url(#clip-path-44);}.cls-85{clip-path:url(#clip-path-45);}.cls-86{clip-path:url(#clip-path-46);}.cls-87{clip-path:url(#clip-path-47);}.cls-88{clip-path:url(#clip-path-48);}.cls-89{clip-path:url(#clip-path-49);}.cls-90{fill:#5d5d5d;}.cls-91{fill:#d4cac2;}.cls-92{clip-path:url(#clip-path-50);}.cls-93{clip-path:url(#clip-path-51);}.cls-94{clip-path:url(#clip-path-52);}.cls-95{clip-path:url(#clip-path-53);}.cls-96{clip-path:url(#clip-path-54);}.cls-97{clip-path:url(#clip-path-55);}</style><clipPath id="clip-path" transform="translate(-5.72 0)"><path class="cls-1" d="M35.52,35.91,34,35.05a4.82,4.82,0,0,0,2.19-3.78l1.48.86A4.79,4.79,0,0,1,35.52,35.91Z"/></clipPath><clipPath id="clip-path-2" transform="translate(-5.72 0)"><path class="cls-1" d="M31,22.08l-1.48-.86s0-.18.07-.43l1.49.86A3.67,3.67,0,0,1,31,22.08Z"/></clipPath><clipPath id="clip-path-3" transform="translate(-5.72 0)"><path class="cls-1" d="M29.11,23l-1.48-.87s0-.13,0-.22l1.48.86A1.11,1.11,0,0,1,29.11,23Z"/></clipPath><clipPath id="clip-path-4" transform="translate(-5.72 0)"><path class="cls-1" d="M29.57,20.79a9.42,9.42,0,0,0-.06-3.07l1.49.86a9.71,9.71,0,0,1,.06,3.07Z"/></clipPath><clipPath id="clip-path-5" transform="translate(-5.72 0)"><path class="cls-1" d="M29.43,17.35l1.48.86.09.37h0l-.36-.2-.19-.11-.19-.12-.2-.11-.19-.11-.36-.21h0C29.49,17.59,29.46,17.47,29.43,17.35Z"/></clipPath><clipPath id="clip-path-6" transform="translate(-5.72 0)"><path class="cls-1" d="M30.36,22.24l-1.48-.87,0-.2a8.64,8.64,0,0,0,0-2.94,3,3,0,0,0-.76-1.59l1.48.87a3,3,0,0,1,.77,1.59,8.85,8.85,0,0,1,0,2.93C30.38,22.16,30.36,22.23,30.36,22.24Z"/></clipPath><clipPath id="clip-path-7" transform="translate(-5.72 0)"><path class="cls-1" d="M29.43,17.35a3.29,3.29,0,0,0-.81-1.47c.43.26.87.51,1.31.76l.17.1a3.16,3.16,0,0,1,.81,1.47l-1.29-.75-.1-.05S29.45,17.38,29.43,17.35Z"/></clipPath><clipPath id="clip-path-8" transform="translate(-5.72 0)"><path class="cls-1" d="M28.62,15.88l1.48.86a2.62,2.62,0,0,1-.5.77l-1.48-.87A2.64,2.64,0,0,0,28.62,15.88Z"/></clipPath><clipPath id="clip-path-9" transform="translate(-5.72 0)"><path class="cls-1" d="M27.68,17a2.05,2.05,0,0,0,.44-.35l1.48.87a2,2,0,0,1-.43.35Z"/></clipPath><clipPath id="clip-path-10" transform="translate(-5.72 0)"><path class="cls-1" d="M28.62,15.88a2.17,2.17,0,0,0,.19-.84l1.49.86a2,2,0,0,1-.2.84Z"/></clipPath><clipPath id="clip-path-11" transform="translate(-5.72 0)"><path class="cls-1" d="M35.5,2.8,37,3.66a1.57,1.57,0,0,1,.64,1.41L36.14,4.2A1.53,1.53,0,0,0,35.5,2.8Z"/></clipPath><clipPath id="clip-path-12" transform="translate(-5.72 0)"><path class="cls-1" d="M27.6,21.93c-.12-.84-.48-3-1.26-3.46l1.49.87c.78.45,1.14,2.61,1.25,3.45Z"/></clipPath><clipPath id="clip-path-13" transform="translate(-5.72 0)"><path class="cls-1" d="M25.91,19.26l1.49.86c.46.27.86,1.79,1,3.05,0,.1,0,.2.05.3L27,22.61c0-.1,0-.2,0-.31C26.77,21.05,26.38,19.53,25.91,19.26Z"/></clipPath><clipPath id="clip-path-14" transform="translate(-5.72 0)"><path class="cls-1" d="M25.74,19.22a.27.27,0,0,1,.17,0l1.49.86a.3.3,0,0,0-.18,0Z"/></clipPath><clipPath id="clip-path-15" transform="translate(-5.72 0)"><path class="cls-1" d="M28.81,17.15l-1.48-.86a.35.35,0,0,0,.35,0l1.49.86A.37.37,0,0,1,28.81,17.15Z"/></clipPath><clipPath id="clip-path-16" transform="translate(-5.72 0)"><path class="cls-1" d="M28.81,15a.8.8,0,0,0-.33-.73l1.48.86a.82.82,0,0,1,.34.73Z"/></clipPath><clipPath id="clip-path-17" transform="translate(-5.72 0)"><path class="cls-1" d="M28,15.1l1.49.86a.36.36,0,0,1,.14.32,1.08,1.08,0,0,1-.48.83l-1.49-.86a1,1,0,0,0,.48-.84A.33.33,0,0,0,28,15.1Z"/></clipPath><clipPath id="clip-path-18" transform="translate(-5.72 0)"><path class="cls-1" d="M9.29,50.3,7.8,49.44a1.57,1.57,0,0,0,1.57-.15l1.49.86A1.55,1.55,0,0,1,9.29,50.3Z"/></clipPath><clipPath id="clip-path-19" transform="translate(-5.72 0)"><path class="cls-1" d="M27.33,16.29a.33.33,0,0,1-.14-.31l1.48.86a.35.35,0,0,0,.14.31Z"/></clipPath><clipPath id="clip-path-20" transform="translate(-5.72 0)"><path class="cls-1" d="M27.68,15.13a.31.31,0,0,1,.34,0l1.49.86a.35.35,0,0,0-.35,0Z"/></clipPath><clipPath id="clip-path-21" transform="translate(-5.72 0)"><path class="cls-1" d="M27.19,16a1.07,1.07,0,0,1,.49-.85l1.48.86a1.1,1.1,0,0,0-.49.85Z"/></clipPath><clipPath id="clip-path-22" transform="translate(-5.72 0)"><path class="cls-1" d="M26.34,18.47l1.49.87a.57.57,0,0,0-.36-.09,1.62,1.62,0,0,0-.61.22l-1.49-.86a1.66,1.66,0,0,1,.62-.22A.62.62,0,0,1,26.34,18.47Z"/></clipPath><clipPath id="clip-path-23" transform="translate(-5.72 0)"><path class="cls-1" d="M28.48,14.31l1.48.86a.79.79,0,0,0-.8.08l-1.48-.86A.79.79,0,0,1,28.48,14.31Z"/></clipPath><clipPath id="clip-path-24" transform="translate(-5.72 0)"><path class="cls-1" d="M35.5,2.8,37,3.66a1.55,1.55,0,0,0-1.56.15L33.94,3A1.55,1.55,0,0,1,35.5,2.8Z"/></clipPath><clipPath id="clip-path-25" transform="translate(-5.72 0)"><path class="cls-1" d="M28.36,17.93l-1.49-.86a.8.8,0,0,1-.33-.72,2.5,2.5,0,0,1,1.14-2l1.48.86a2.51,2.51,0,0,0-1.13,2A.77.77,0,0,0,28.36,17.93Z"/></clipPath><clipPath id="clip-path-26" transform="translate(-5.72 0)"><path class="cls-1" d="M9.29,50.3,7.8,49.44A1.53,1.53,0,0,1,7.17,48l1.48.86A1.52,1.52,0,0,0,9.29,50.3Z"/></clipPath><clipPath id="clip-path-27" transform="translate(-5.72 0)"><path class="cls-1" d="M23.43,21.2h0l1.49.87h0a11.29,11.29,0,0,1-2,1.87l0,0-1.48-.87,0,0A10.61,10.61,0,0,0,23.43,21.2Z"/></clipPath><clipPath id="clip-path-28" transform="translate(-5.72 0)"><path class="cls-1" d="M19.5,23.5a4.32,4.32,0,0,0,1.92-.41L22.9,24a4.55,4.55,0,0,1-1.92.41h0L19.5,23.5Z"/></clipPath><clipPath id="clip-path-29" transform="translate(-5.72 0)"><path class="cls-1" d="M15.88,29l1.49.87h0l-1.49-.86Z"/></clipPath><clipPath id="clip-path-30" transform="translate(-5.72 0)"><path class="cls-1" d="M15.93,28.67l1.49.86c0,.13,0,.26-.05.38L15.88,29C15.9,28.92,15.91,28.8,15.93,28.67Z"/></clipPath><clipPath id="clip-path-31" transform="translate(-5.72 0)"><path class="cls-1" d="M15.93,28.67h0l1.49.86h0Z"/></clipPath><clipPath id="clip-path-32" transform="translate(-5.72 0)"><path class="cls-1" d="M17.6,23.91a4.91,4.91,0,0,1,1.9-.41l1.48.87a4.69,4.69,0,0,0-1.89.4Z"/></clipPath><clipPath id="clip-path-33" transform="translate(-5.72 0)"><path class="cls-1" d="M15.93,28.66c.26-1.65.8-3.93,1.37-4.52l1.49.86c-.57.6-1.12,2.88-1.37,4.52l-.6-.34-.71-.42Z"/></clipPath><clipPath id="clip-path-34" transform="translate(-5.72 0)"><path class="cls-1" d="M16.73,30.15l-1.49-.86c0-.06,0-.15,0-.25.16-1.1.71-4.33,1.78-5.45a2.33,2.33,0,0,1,.53-.42,5.23,5.23,0,0,1,2.16-.5,4.16,4.16,0,0,0,1.69-.34,10,10,0,0,0,1.72-1.65,11.75,11.75,0,0,1,2.21-2.07l1.49.86a11.54,11.54,0,0,0-2.21,2.08,10.32,10.32,0,0,1-1.72,1.64,4.4,4.4,0,0,1-1.69.35,5.07,5.07,0,0,0-2.16.5,2.29,2.29,0,0,0-.53.41c-1.08,1.12-1.63,4.35-1.79,5.46Q16.74,30.06,16.73,30.15Z"/></clipPath><clipPath id="clip-path-35" transform="translate(-5.72 0)"><path class="cls-1" d="M23.12,20.07a8.56,8.56,0,0,0,.94-1.35l1.49.86a9.27,9.27,0,0,1-.94,1.35Z"/></clipPath><clipPath id="clip-path-36" transform="translate(-5.72 0)"><path class="cls-1" d="M25.4,17.78l.77.44a9.79,9.79,0,0,1-.62,1.36l-1.49-.86a8.27,8.27,0,0,0,.62-1.36Z"/></clipPath><clipPath id="clip-path-37" transform="translate(-5.72 0)"><path class="cls-1" d="M8.36,52.85,6.87,52A2.55,2.55,0,0,1,5.8,49.63l1.49.87A2.57,2.57,0,0,0,8.36,52.85Z"/></clipPath><clipPath id="clip-path-38" transform="translate(-5.72 0)"><path class="cls-1" d="M23.12,20.07l1.49.86a5.92,5.92,0,0,1-.41.45l-1.49-.86Z"/></clipPath><clipPath id="clip-path-39" transform="translate(-5.72 0)"><path class="cls-1" d="M24.68,17.36A6.9,6.9,0,0,0,25,16.22l1.49.87a8.3,8.3,0,0,1-.31,1.13Z"/></clipPath><clipPath id="clip-path-40" transform="translate(-5.72 0)"><path class="cls-1" d="M21.42,21.53a6.1,6.1,0,0,0,1.29-1l1.49.86a6.42,6.42,0,0,1-1.29,1,5.21,5.21,0,0,1-.64.3l-1.49-.86A4.15,4.15,0,0,0,21.42,21.53Z"/></clipPath><clipPath id="clip-path-41" transform="translate(-5.72 0)"><path class="cls-1" d="M20.56,21.91l.22-.07,1.49.86-.23.08Z"/></clipPath><clipPath id="clip-path-42" transform="translate(-5.72 0)"><path class="cls-1" d="M25.09,15.18a3.64,3.64,0,0,0-.24-1.34l1.49.87a3.57,3.57,0,0,1,.23,1.34,6.36,6.36,0,0,1-.09,1L25,16.22A6.2,6.2,0,0,0,25.09,15.18Z"/></clipPath><clipPath id="clip-path-43" transform="translate(-5.72 0)"><path class="cls-1" d="M19.72,22a2.58,2.58,0,0,0,.84-.12l1.48.87a3.15,3.15,0,0,1-.84.12Z"/></clipPath><clipPath id="clip-path-44" transform="translate(-5.72 0)"><path class="cls-1" d="M20.43,22.45l.77.45h0L19.71,22h0Z"/></clipPath><clipPath id="clip-path-45" transform="translate(-5.72 0)"><path class="cls-1" d="M24.67,13.48l1.49.86a2.12,2.12,0,0,1,.18.37l-1.49-.87A2,2,0,0,0,24.67,13.48Z"/></clipPath><clipPath id="clip-path-46" transform="translate(-5.72 0)"><path class="cls-1" d="M18.81,21.79a1.91,1.91,0,0,0,.9.24l1.49.87a2,2,0,0,1-.91-.25Z"/></clipPath><clipPath id="clip-path-47" transform="translate(-5.72 0)"><path class="cls-1" d="M23.56,13.61l1.48.87a2.09,2.09,0,0,1,.89,1.94,6.7,6.7,0,0,1-3,5.23l-1.49-.87a6.64,6.64,0,0,0,3-5.22A2.13,2.13,0,0,0,23.56,13.61Z"/></clipPath><clipPath id="clip-path-48" transform="translate(-5.72 0)"><path class="cls-1" d="M24.67,13.48a1.81,1.81,0,0,0-.66-.66l1.49.86a2.08,2.08,0,0,1,.66.66l-.25-.14-.54-.32L25,13.64l0,0h0l0,0A1.28,1.28,0,0,1,24.67,13.48Z"/></clipPath><clipPath id="clip-path-49" transform="translate(-5.72 0)"><path class="cls-1" d="M20.75,21.86,19.26,21a2.14,2.14,0,0,0,2.16-.21l1.49.87A2.16,2.16,0,0,1,20.75,21.86Z"/></clipPath><clipPath id="clip-path-50" transform="translate(-5.72 0)"><path class="cls-1" d="M20.75,21.86,19.26,21a2.1,2.1,0,0,1-.88-1.93,6.66,6.66,0,0,1,3-5.24,2.16,2.16,0,0,1,2.16-.21l1.48.87a2.09,2.09,0,0,0-2.15.21,6.66,6.66,0,0,0-3,5.23A2.13,2.13,0,0,0,20.75,21.86Z"/></clipPath><clipPath id="clip-path-51" transform="translate(-5.72 0)"><path class="cls-1" d="M24,12.82l1.49.86a2.6,2.6,0,0,0-2.62.26l-1.48-.87A2.58,2.58,0,0,1,24,12.82Z"/></clipPath><clipPath id="clip-path-52" transform="translate(-5.72 0)"><path class="cls-1" d="M20.29,22.65l-1.48-.86a2.6,2.6,0,0,1-1.08-2.36,8.14,8.14,0,0,1,3.67-6.36l1.48.87a8.07,8.07,0,0,0-3.66,6.35A2.56,2.56,0,0,0,20.29,22.65Z"/></clipPath><clipPath id="clip-path-53" transform="translate(-5.72 0)"><path class="cls-1" d="M8.58,21.84,7.09,21a4.82,4.82,0,0,1,2.19-3.78l1.48.86A4.81,4.81,0,0,0,8.58,21.84Z"/></clipPath><clipPath id="clip-path-54" transform="translate(-5.72 0)"><path class="cls-1" d="M36.47.25,38,1.11a2.58,2.58,0,0,0-2.61.26L33.86.5A2.6,2.6,0,0,1,36.47.25Z"/></clipPath><clipPath id="clip-path-55" transform="translate(-5.72 0)"><path class="cls-1" d="M7.21,21.82,5.72,21a8,8,0,0,1,3.64-6.31l1.49.86A8,8,0,0,0,7.21,21.82Z"/></clipPath></defs><g id="Layer_2" data-name="Layer 2"><g id="Layer_2-2" data-name="Layer 2"><path class="cls-2" d="M7.1,64.64l1.42.93a2.65,2.65,0,0,0,2.78.08L36.7,51a1.41,1.41,0,0,0,.07-2.41L34.42,47a1.41,1.41,0,0,0-1.49,0L7.15,62.23A1.42,1.42,0,0,0,7.1,64.64Z" transform="translate(-5.72 0)"/><g class="cls-3"><polygon class="cls-4" points="10.01 49.84 10.04 60.7 6.71 62.62 6.68 51.76 10.01 49.84"/><polygon class="cls-5" points="6.71 62.62 5.22 61.76 5.2 50.89 6.68 51.76 6.71 62.62"/><polygon class="cls-6" points="6.68 51.76 5.2 50.89 8.52 48.97 10.01 49.84 6.68 51.76"/></g><g class="cls-3"><polygon class="cls-4" points="28.09 39.39 28.13 50.26 24.79 52.18 24.76 41.32 28.09 39.39"/><polygon class="cls-5" points="24.79 52.18 23.31 51.32 23.28 40.45 24.76 41.32 24.79 52.18"/><polygon class="cls-6" points="24.76 41.32 23.28 40.45 26.61 38.53 28.09 39.39 24.76 41.32"/></g><g class="cls-3"><g class="cls-3"><g class="cls-7"><g class="cls-3"><path class="cls-8" d="M35.52,35.91,34,35.05l.1-.06,1.49.86-.1.06" transform="translate(-5.72 0)"/><path class="cls-9" d="M35.62,35.85,34.13,35a4.45,4.45,0,0,0,1.35-1.41l1.49.87a4.64,4.64,0,0,1-1.35,1.4" transform="translate(-5.72 0)"/><path class="cls-8" d="M37,34.45l-1.49-.87c.09-.15.18-.3.26-.45l1.48.86c-.08.16-.16.31-.25.46" transform="translate(-5.72 0)"/><path class="cls-10" d="M37.22,34l-1.48-.86c.06-.13.12-.26.17-.39l1.49.86c-.06.13-.11.26-.18.39" transform="translate(-5.72 0)"/><path class="cls-11" d="M37.4,33.6l-1.49-.86c.05-.12.09-.24.13-.37l1.48.87c0,.12-.08.24-.12.36" transform="translate(-5.72 0)"/><path class="cls-12" d="M37.52,33.24,36,32.37a3.58,3.58,0,0,0,.09-.35l1.49.86c0,.12-.06.24-.1.36" transform="translate(-5.72 0)"/><path class="cls-13" d="M37.62,32.88,36.13,32a2.58,2.58,0,0,0,.06-.37l1.49.86c0,.12,0,.25-.06.37" transform="translate(-5.72 0)"/><path class="cls-14" d="M37.68,32.51l-1.49-.86a2.53,2.53,0,0,0,0-.38l1.48.86c0,.12,0,.25,0,.38" transform="translate(-5.72 0)"/></g></g></g><polygon class="cls-15" points="24 37.05 22.51 36.19 23.15 35.87 24.64 36.73 24 37.05"/><polygon class="cls-16" points="24.64 36.73 23.15 35.87 23.81 24.04 25.3 24.91 24.64 36.73"/><polygon class="cls-17" points="27.95 23.36 26.46 22.49 26.45 19.29 27.94 20.15 27.95 23.36"/><polygon class="cls-18" points="27.3 22.98 25.81 22.12 25.81 20.4 27.3 21.26 27.3 22.98"/><polygon class="cls-19" points="25.02 25.05 23.54 24.18 23.81 24.04 25.3 24.91 25.02 25.05"/><polygon class="cls-20" points="25.02 25.05 23.54 24.18 26.46 22.49 27.95 23.36 25.02 25.05"/><polygon class="cls-21" points="24 37.05 22.51 36.19 23.16 24.39 24.65 25.26 24 37.05"/><polygon class="cls-19" points="24.65 25.23 23.17 24.36 23.54 24.18 25.02 25.05 24.65 25.23"/><polygon class="cls-21" points="24.65 25.26 23.16 24.39 23.17 24.36 24.65 25.23 24.65 25.26"/><polygon class="cls-20" points="9.97 33.73 8.48 32.87 23.16 24.39 24.65 25.26 9.97 33.73"/><polygon class="cls-22" points="10.7 44.73 9.21 43.86 8.48 32.87 9.97 33.73 10.7 44.73"/><polygon class="cls-23" points="9.6 33.95 8.11 33.09 8.48 32.84 9.97 33.71 9.6 33.95"/><polygon class="cls-23" points="9.32 34.13 7.84 33.27 8.11 33.09 9.6 33.95 9.32 34.13"/><polygon class="cls-24" points="10.04 45.16 8.56 44.29 9.21 43.86 10.7 44.73 10.04 45.16"/><polygon class="cls-25" points="10.04 45.16 8.56 44.29 7.84 33.27 9.32 34.13 10.04 45.16"/><polygon class="cls-6" points="5.13 50.15 3.65 49.29 28.31 35.05 29.8 35.91 5.13 50.15"/><polygon class="cls-20" points="6.52 35.73 5.03 34.86 8.11 33.09 9.6 33.95 6.52 35.73"/><polygon class="cls-23" points="7.17 34.6 5.68 33.74 25.81 22.12 27.3 22.98 7.17 34.6"/><polygon class="cls-20" points="7.17 32.89 5.68 32.02 25.81 20.4 27.3 21.26 7.17 32.89"/><polygon class="cls-23" points="25.34 21.65 23.85 20.79 26.45 19.29 27.94 20.15 25.34 21.65"/><g class="cls-3"><g class="cls-26"><g class="cls-3"><path class="cls-25" d="M31,22.08l-1.48-.86s0-.18.07-.43l1.49.86a3.67,3.67,0,0,1-.08.43" transform="translate(-5.72 0)"/></g></g></g><polygon class="cls-27" points="24.64 22.23 23.16 21.37 23.78 21.22 25.26 22.08 24.64 22.23"/><g class="cls-3"><g class="cls-28"><g class="cls-3"><path class="cls-29" d="M29.11,23l-1.48-.87s0-.13,0-.22l1.48.86a1.11,1.11,0,0,1,0,.23" transform="translate(-5.72 0)"/></g></g></g><g class="cls-3"><g class="cls-30"><g class="cls-3"><path class="cls-22" d="M31.06,21.65l-1.49-.86,0-.23,1.49.86c0,.09,0,.16,0,.23" transform="translate(-5.72 0)"/><path class="cls-31" d="M31.09,21.42l-1.49-.86a10.19,10.19,0,0,0,.07-1.35l1.48.86a10.41,10.41,0,0,1-.06,1.35" transform="translate(-5.72 0)"/><path class="cls-32" d="M31.15,20.07l-1.48-.86a8.05,8.05,0,0,0-.16-1.49,3.39,3.39,0,0,0-.89-1.84l1.48.86a3.43,3.43,0,0,1,.9,1.84,9,9,0,0,1,.15,1.49" transform="translate(-5.72 0)"/></g></g></g><g class="cls-3"><g class="cls-33"><g class="cls-3"><path class="cls-32" d="M31.15,20.07l-1.48-.86a8.05,8.05,0,0,0-.16-1.49,3.39,3.39,0,0,0-.89-1.84l1.48.86a3.43,3.43,0,0,1,.9,1.84,9,9,0,0,1,.15,1.49" transform="translate(-5.72 0)"/></g></g></g><g class="cls-3"><g class="cls-34"><g class="cls-3"><polyline class="cls-35" points="24.64 22.23 23.16 21.37 23.16 21.37 24.64 22.23 24.64 22.23"/><path class="cls-25" d="M30.36,22.23l-1.48-.86s0-.08,0-.2,0-.21.05-.34l1.49.86c0,.14,0,.25-.05.34a.82.82,0,0,1,0,.2" transform="translate(-5.72 0)"/><path class="cls-35" d="M30.45,21.69,29,20.83A8.82,8.82,0,0,0,29,19.58l1.49.87a10.56,10.56,0,0,1-.06,1.24" transform="translate(-5.72 0)"/><path class="cls-29" d="M30.51,20.45,29,19.58a8.37,8.37,0,0,0-.14-1.35,3,3,0,0,0-.76-1.59l1.48.87a3,3,0,0,1,.77,1.59,8.26,8.26,0,0,1,.14,1.35" transform="translate(-5.72 0)"/></g></g></g><polygon class="cls-23" points="23.36 22.79 21.88 21.93 23.19 21.17 24.68 22.03 23.36 22.79"/><polygon class="cls-36" points="22.75 23.47 21.27 22.61 21.91 22.15 23.39 23.02 22.75 23.47"/><polygon class="cls-5" points="31.98 32.13 30.5 31.27 30.42 4.2 31.91 5.07 31.98 32.13"/><g class="cls-3"><g class="cls-37"><g class="cls-3"><path class="cls-32" d="M31.15,20.07l-1.48-.86a8.05,8.05,0,0,0-.16-1.49,3.39,3.39,0,0,0-.89-1.84l1.48.86a3.43,3.43,0,0,1,.9,1.84,9,9,0,0,1,.15,1.49" transform="translate(-5.72 0)"/></g></g></g><g class="cls-3"><g class="cls-38"><g class="cls-3"><path class="cls-27" d="M29.6,17.51l-1.48-.87a2.59,2.59,0,0,0,.31-.41l1.49.87a3.22,3.22,0,0,1-.32.41" transform="translate(-5.72 0)"/><path class="cls-39" d="M29.92,17.1l-1.49-.87a1.71,1.71,0,0,0,.13-.23l1.49.86-.13.24" transform="translate(-5.72 0)"/><path class="cls-40" d="M30.05,16.86,28.56,16l.06-.12,1.48.86a.61.61,0,0,1-.05.12" transform="translate(-5.72 0)"/></g></g></g><g class="cls-3"><g class="cls-41"><g class="cls-3"><path class="cls-42" d="M29,17.93l-1.48-.86.14-.08.05,0,1.49.87,0,0-.15.07" transform="translate(-5.72 0)"/><path class="cls-43" d="M29.22,17.83,27.73,17a1.66,1.66,0,0,0,.39-.32l1.48.87a2.8,2.8,0,0,1-.38.32" transform="translate(-5.72 0)"/></g></g></g><g class="cls-3"><g class="cls-44"><g class="cls-3"><path class="cls-45" d="M30.1,16.74l-1.48-.86,0-.08,1.49.86a.2.2,0,0,1,0,.08" transform="translate(-5.72 0)"/><path class="cls-46" d="M30.14,16.66l-1.49-.86a1.07,1.07,0,0,0,.07-.19l1.48.87-.06.18" transform="translate(-5.72 0)"/><path class="cls-47" d="M30.2,16.48l-1.48-.87c0-.06,0-.12.05-.18l1.48.86a1.05,1.05,0,0,1-.05.19" transform="translate(-5.72 0)"/><path class="cls-22" d="M30.25,16.29l-1.48-.86,0-.19,1.48.86a.58.58,0,0,1,0,.19" transform="translate(-5.72 0)"/><path class="cls-31" d="M30.28,16.1l-1.48-.86a1.34,1.34,0,0,0,0-.2v0l1.49.87v0a1.23,1.23,0,0,1,0,.2" transform="translate(-5.72 0)"/></g></g></g><g class="cls-3"><g class="cls-48"><g class="cls-3"><path class="cls-14" d="M37.63,5.07,36.14,4.2v0L37.62,5v.05" transform="translate(-5.72 0)"/><path class="cls-49" d="M37.62,5l-1.48-.87A1.5,1.5,0,0,0,35.5,2.8L37,3.66A1.51,1.51,0,0,1,37.62,5" transform="translate(-5.72 0)"/></g></g></g><g class="cls-3"><g class="cls-50"><g class="cls-3"><path class="cls-32" d="M29.08,22.79l-1.48-.86c-.12-.84-.48-3-1.26-3.46l1.49.87c.78.45,1.14,2.61,1.25,3.45" transform="translate(-5.72 0)"/></g></g></g><g class="cls-3"><g class="cls-51"><g class="cls-3"><path class="cls-29" d="M28.48,23.47,27,22.61c0-.1,0-.2,0-.31-.18-1.25-.57-2.77-1-3l1.49.86c.46.27.86,1.79,1,3.05,0,.1,0,.2.05.3" transform="translate(-5.72 0)"/></g></g></g><g class="cls-3"><g class="cls-52"><g class="cls-3"><polyline class="cls-46" points="21.5 20.08 20.02 19.22 20.02 19.22 21.5 20.08 21.5 20.08"/><path class="cls-47" d="M27.22,20.08l-1.48-.86h.05l1.48.86h-.05" transform="translate(-5.72 0)"/><path class="cls-22" d="M27.27,20.08l-1.48-.86h.06l1.48.86h-.06" transform="translate(-5.72 0)"/><path class="cls-31" d="M27.33,20.09l-1.48-.86.06,0,1.49.86-.07,0" transform="translate(-5.72 0)"/></g></g></g><g class="cls-3"><g class="cls-53"><g class="cls-3"><path class="cls-35" d="M28.81,17.15l-1.48-.86.05,0,1.48.86-.05,0" transform="translate(-5.72 0)"/><path class="cls-25" d="M28.86,17.17l-1.48-.86h.05l1.49.86h-.06" transform="translate(-5.72 0)"/><path class="cls-18" d="M28.92,17.18l-1.49-.86h.06l1.48.86h0" transform="translate(-5.72 0)"/><path class="cls-54" d="M29,17.18l-1.48-.86h.06l1.48.86H29" transform="translate(-5.72 0)"/><path class="cls-40" d="M29,17.17l-1.48-.86.07,0,1.48.87-.07,0" transform="translate(-5.72 0)"/><path class="cls-39" d="M29.1,17.15l-1.48-.87.06,0,1.49.86-.07,0" transform="translate(-5.72 0)"/></g></g></g><g class="cls-3"><g class="cls-55"><g class="cls-3"><path class="cls-31" d="M30.28,16.1l-1.48-.86a1.34,1.34,0,0,0,0-.2v0l1.49.87v0a1.23,1.23,0,0,1,0,.2" transform="translate(-5.72 0)"/><path class="cls-32" d="M30.3,15.88,28.81,15a.79.79,0,0,0-.33-.7l1.48.86a.8.8,0,0,1,.34.71" transform="translate(-5.72 0)"/></g></g></g><g class="cls-3"><g class="cls-56"><g class="cls-3"><path class="cls-39" d="M29.17,17.11l-1.49-.86h0l1.49.86h0" transform="translate(-5.72 0)"/><path class="cls-27" d="M29.19,17.1l-1.49-.86a1,1,0,0,0,.3-.31l1.49.86a1,1,0,0,1-.3.31" transform="translate(-5.72 0)"/><path class="cls-39" d="M29.49,16.79,28,15.93l.06-.11,1.48.87a.47.47,0,0,1-.05.1" transform="translate(-5.72 0)"/><path class="cls-40" d="M29.54,16.69l-1.48-.87a.59.59,0,0,1,0-.08l1.48.86a.36.36,0,0,1,0,.09" transform="translate(-5.72 0)"/><path class="cls-54" d="M29.58,16.6l-1.48-.86a.24.24,0,0,0,0-.08l1.49.86,0,.08" transform="translate(-5.72 0)"/><path class="cls-18" d="M29.61,16.52l-1.49-.86,0-.08,1.48.86a.19.19,0,0,1,0,.08" transform="translate(-5.72 0)"/><path class="cls-25" d="M29.63,16.44l-1.48-.86s0-.06,0-.08l1.49.86s0,.06,0,.08" transform="translate(-5.72 0)"/><path class="cls-35" d="M29.65,16.36l-1.49-.86v-.09h0l1.49.87h0v.08" transform="translate(-5.72 0)"/><path class="cls-29" d="M29.65,16.27l-1.49-.87a.31.31,0,0,0-.14-.3l1.49.86a.35.35,0,0,1,.14.31" transform="translate(-5.72 0)"/></g></g></g><g class="cls-3"><g class="cls-57"><g class="cls-3"><path class="cls-14" d="M9.29,50.3,7.8,49.44a.85.85,0,0,0,.22.09l1.48.87-.21-.1" transform="translate(-5.72 0)"/><path class="cls-13" d="M9.5,50.4,8,49.53a.7.7,0,0,0,.25,0l1.49.87L9.5,50.4" transform="translate(-5.72 0)"/><path class="cls-12" d="M9.76,50.45l-1.49-.87a1,1,0,0,0,.25,0l1.49.87H9.76" transform="translate(-5.72 0)"/><path class="cls-11" d="M10,50.45l-1.49-.87a1.28,1.28,0,0,0,.27,0l1.48.87-.26.05" transform="translate(-5.72 0)"/><path class="cls-10" d="M10.27,50.4l-1.48-.87.3-.1,1.48.86a1.82,1.82,0,0,1-.3.11" transform="translate(-5.72 0)"/><path class="cls-8" d="M10.57,50.29l-1.48-.86.28-.14,1.49.86a1.92,1.92,0,0,1-.29.14" transform="translate(-5.72 0)"/></g></g></g><g class="cls-3"><g class="cls-58"><g class="cls-3"><path class="cls-32" d="M28.81,17.15l-1.48-.86a.33.33,0,0,1-.14-.3l1.48.86a.36.36,0,0,0,.14.3" transform="translate(-5.72 0)"/><path class="cls-31" d="M28.67,16.85,27.19,16h0v-.09l1.49.87s0,0,0,.08h0" transform="translate(-5.72 0)"/></g></g></g><g class="cls-3"><g class="cls-59"><g class="cls-3"><path class="cls-42" d="M29.16,16l-1.48-.86.06,0,1.48.86-.06,0" transform="translate(-5.72 0)"/><path class="cls-45" d="M29.22,16l-1.48-.86.06,0,1.49.87-.07,0" transform="translate(-5.72 0)"/><path class="cls-46" d="M29.29,15.94l-1.49-.87h.06l1.49.87h-.06" transform="translate(-5.72 0)"/><path class="cls-47" d="M29.35,15.93l-1.49-.87h.06l1.48.87h0" transform="translate(-5.72 0)"/><path class="cls-22" d="M29.4,15.93l-1.48-.87h0l1.49.87H29.4" transform="translate(-5.72 0)"/><path class="cls-31" d="M29.46,15.94,28,15.07l.05,0,1.49.86-.05,0" transform="translate(-5.72 0)"/></g></g></g><g class="cls-3"><g class="cls-60"><g class="cls-3"><path class="cls-31" d="M28.67,16.85,27.19,16h0v-.09l1.49.87s0,0,0,.08h0" transform="translate(-5.72 0)"/><path class="cls-22" d="M28.68,16.76l-1.49-.87s0-.05,0-.08l1.48.86s0,.06,0,.09" transform="translate(-5.72 0)"/><path class="cls-47" d="M28.69,16.67l-1.48-.86a.24.24,0,0,1,0-.08l1.48.86a.19.19,0,0,1,0,.08" transform="translate(-5.72 0)"/><path class="cls-46" d="M28.71,16.59l-1.48-.86,0-.08,1.48.86,0,.08" transform="translate(-5.72 0)"/><path class="cls-45" d="M28.74,16.51l-1.48-.86a.36.36,0,0,1,0-.09l1.48.86,0,.09" transform="translate(-5.72 0)"/><path class="cls-42" d="M28.78,16.42l-1.48-.86a.31.31,0,0,1,.05-.1l1.49.86-.06.1" transform="translate(-5.72 0)"/><path class="cls-43" d="M28.84,16.32l-1.49-.86a1,1,0,0,1,.31-.32l1.48.86a1.15,1.15,0,0,0-.3.32" transform="translate(-5.72 0)"/><path class="cls-42" d="M29.14,16l-1.48-.86h0l1.48.86h0" transform="translate(-5.72 0)"/></g></g></g><g class="cls-3"><g class="cls-61"><g class="cls-3"><path class="cls-39" d="M26.86,19.47l-1.49-.86.23-.12,1.49.87-.23.11" transform="translate(-5.72 0)"/><path class="cls-40" d="M27.09,19.36l-1.49-.87.21-.07,1.49.87a.86.86,0,0,0-.21.07" transform="translate(-5.72 0)"/><path class="cls-54" d="M27.3,19.29l-1.49-.87.18,0h0l1.49.86h0l-.17,0" transform="translate(-5.72 0)"/><path class="cls-18" d="M27.48,19.25,26,18.39h.11l1.48.86h-.1" transform="translate(-5.72 0)"/><path class="cls-25" d="M27.58,19.25l-1.48-.86a.27.27,0,0,1,.12,0l1.49.86-.13,0" transform="translate(-5.72 0)"/><path class="cls-35" d="M27.71,19.28l-1.49-.86.12,0,1.49.87a.34.34,0,0,0-.12-.06" transform="translate(-5.72 0)"/></g></g></g><g class="cls-3"><g class="cls-62"><g class="cls-3"><path class="cls-39" d="M29.16,15.25l-1.48-.86.14-.08,1.49.87-.15.07" transform="translate(-5.72 0)"/><path class="cls-40" d="M29.31,15.18l-1.49-.87.15-.05,1.49.86-.15.06" transform="translate(-5.72 0)"/><path class="cls-54" d="M29.46,15.12,28,14.26l.14,0,1.48.86-.13,0" transform="translate(-5.72 0)"/><path class="cls-18" d="M29.59,15.1l-1.48-.86h.13l1.48.86h-.13" transform="translate(-5.72 0)"/><path class="cls-25" d="M29.72,15.1l-1.48-.86.13,0,1.48.86-.13,0" transform="translate(-5.72 0)"/><path class="cls-35" d="M29.85,15.12l-1.48-.86.11.05,1.48.86-.11-.05" transform="translate(-5.72 0)"/></g></g></g><g class="cls-3"><g class="cls-63"><g class="cls-3"><path class="cls-42" d="M35.43,3.81,33.94,3l.28-.14,1.49.86-.28.14" transform="translate(-5.72 0)"/><path class="cls-45" d="M35.71,3.67l-1.49-.86.3-.11L36,3.57a1.76,1.76,0,0,0-.3.1" transform="translate(-5.72 0)"/><path class="cls-46" d="M36,3.57,34.52,2.7a1.26,1.26,0,0,1,.27,0l1.48.86a1.32,1.32,0,0,0-.26,0" transform="translate(-5.72 0)"/><path class="cls-47" d="M36.27,3.52l-1.48-.86H35l1.48.87a1,1,0,0,0-.25,0" transform="translate(-5.72 0)"/><path class="cls-22" d="M36.52,3.52,35,2.65l.25.05,1.48.87a1,1,0,0,0-.25,0" transform="translate(-5.72 0)"/><path class="cls-31" d="M36.77,3.57,35.29,2.7l.21.1L37,3.66a.85.85,0,0,0-.22-.09" transform="translate(-5.72 0)"/></g></g></g><g class="cls-3"><g class="cls-64"><g class="cls-3"><path class="cls-29" d="M28.36,17.93l-1.49-.86a.77.77,0,0,1-.33-.7l1.49.87a.76.76,0,0,0,.33.69" transform="translate(-5.72 0)"/><path class="cls-35" d="M28,17.24l-1.49-.87v0c0-.07,0-.13,0-.2L28,17a1.21,1.21,0,0,0,0,.19v0" transform="translate(-5.72 0)"/><path class="cls-25" d="M28,17l-1.49-.87a1.62,1.62,0,0,1,0-.19l1.48.87L28,17" transform="translate(-5.72 0)"/><path class="cls-18" d="M28.07,16.83,26.59,16c0-.06,0-.12,0-.18l1.49.86c0,.06,0,.12-.05.19" transform="translate(-5.72 0)"/><path class="cls-54" d="M28.12,16.64l-1.49-.86c0-.07.05-.13.07-.19l1.49.86a1.46,1.46,0,0,0-.07.19" transform="translate(-5.72 0)"/><path class="cls-40" d="M28.19,16.45l-1.49-.86.09-.2,1.49.86a.88.88,0,0,0-.09.2" transform="translate(-5.72 0)"/><path class="cls-39" d="M28.28,16.25l-1.49-.86a1.38,1.38,0,0,1,.14-.24l1.48.86c-.05.08-.09.16-.13.24" transform="translate(-5.72 0)"/><path class="cls-27" d="M28.41,16l-1.48-.86a2.14,2.14,0,0,1,.7-.73l1.48.86a2.33,2.33,0,0,0-.7.73" transform="translate(-5.72 0)"/><path class="cls-39" d="M29.11,15.28l-1.48-.86.05,0,1.48.86-.05,0" transform="translate(-5.72 0)"/></g></g></g><g class="cls-3"><g class="cls-65"><g class="cls-3"><path class="cls-32" d="M9.29,50.3,7.8,49.44a1.5,1.5,0,0,1-.63-1.35L8.65,49a1.53,1.53,0,0,0,.64,1.35" transform="translate(-5.72 0)"/><path class="cls-31" d="M8.65,49l-1.48-.86V48l1.48.86V49" transform="translate(-5.72 0)"/></g></g></g><g class="cls-3"><g class="cls-66"><g class="cls-3"><path class="cls-42" d="M22.9,24l-1.48-.87,0,0,.05,0,1.48.87,0,0,0,0" transform="translate(-5.72 0)"/><path class="cls-43" d="M23,23.91,21.5,23a11,11,0,0,0,1.93-1.84,11.46,11.46,0,0,1,1.89-1.81l1.49.86a11.57,11.57,0,0,0-1.89,1.82A11.34,11.34,0,0,1,23,23.91" transform="translate(-5.72 0)"/></g></g></g><g class="cls-3"><g class="cls-67"><g class="cls-3"><path class="cls-47" d="M20.59,24.4l-1.49-.86.4,0,.57,0,1.48.86-.57.05-.39,0" transform="translate(-5.72 0)"/><path class="cls-46" d="M21.55,24.32l-1.48-.86a4.52,4.52,0,0,0,.75-.13l1.48.87a4.52,4.52,0,0,1-.75.12" transform="translate(-5.72 0)"/><path class="cls-45" d="M22.3,24.2l-1.48-.87a2.53,2.53,0,0,0,.36-.12l1.49.86a2.32,2.32,0,0,1-.37.13" transform="translate(-5.72 0)"/><path class="cls-42" d="M22.67,24.07l-1.49-.86.24-.12L22.9,24l-.23.11" transform="translate(-5.72 0)"/></g></g></g><polygon class="cls-68" points="11.01 30.15 9.52 29.29 10.16 29.05 11.65 29.91 11.01 30.15"/><g class="cls-3"><g class="cls-69"><g class="cls-3"><path class="cls-25" d="M17.37,29.91l-1.49-.86c0-.13,0-.26,0-.39l1.49.86c0,.14,0,.27-.05.39" transform="translate(-5.72 0)"/></g></g></g><g class="cls-3"><g class="cls-70"><g class="cls-3"><path class="cls-25" d="M17.37,29.91l-1.49-.86c0-.13,0-.26,0-.39l1.49.86c0,.14,0,.27-.05.39" transform="translate(-5.72 0)"/></g></g></g><polygon class="cls-23" points="11.7 29.52 10.21 28.66 21.23 22.3 22.71 23.17 11.7 29.52"/><g class="cls-3"><g class="cls-71"><g class="cls-3"><path class="cls-25" d="M17.37,29.91l-1.49-.86c0-.13,0-.26,0-.39l1.49.86c0,.14,0,.27-.05.39" transform="translate(-5.72 0)"/></g></g></g><g class="cls-3"><g class="cls-72"><g class="cls-3"><path class="cls-42" d="M19,24.8l-1.49-.86.05,0,.19-.1,1.49.87-.19.09-.05,0" transform="translate(-5.72 0)"/><path class="cls-45" d="M19.28,24.68l-1.49-.87a2.29,2.29,0,0,1,.37-.12l1.49.86a3.19,3.19,0,0,0-.37.13" transform="translate(-5.72 0)"/><path class="cls-46" d="M19.65,24.55l-1.49-.86a5.76,5.76,0,0,1,.94-.15l1.49.86a6.84,6.84,0,0,0-.94.15" transform="translate(-5.72 0)"/><path class="cls-47" d="M20.59,24.4l-1.49-.86.4,0,.57,0,1.48.86-.57.05-.39,0" transform="translate(-5.72 0)"/></g></g></g><g class="cls-3"><g class="cls-73"><g class="cls-3"><path class="cls-22" d="M17.42,29.52l-1.49-.86c.08-.46.17-1,.28-1.49L17.7,28c-.11.51-.21,1-.28,1.49" transform="translate(-5.72 0)"/><path class="cls-47" d="M17.7,28l-1.49-.86c.11-.52.25-1,.39-1.5l1.48.87c-.14.46-.27,1-.38,1.49" transform="translate(-5.72 0)"/><path class="cls-46" d="M18.08,26.54l-1.48-.87c.07-.25.16-.49.24-.7l1.49.87a7,7,0,0,0-.25.7" transform="translate(-5.72 0)"/><path class="cls-45" d="M18.33,25.84,16.84,25c.05-.13.11-.26.16-.37l1.49.86c0,.11-.11.24-.16.38" transform="translate(-5.72 0)"/><path class="cls-42" d="M18.49,25.46,17,24.6a2.55,2.55,0,0,1,.14-.24l1.48.86-.13.24" transform="translate(-5.72 0)"/><path class="cls-43" d="M18.62,25.22l-1.48-.86a1,1,0,0,1,.16-.22,1.16,1.16,0,0,1,.25-.2L19,24.8a1.22,1.22,0,0,0-.25.2,2.46,2.46,0,0,0-.17.22" transform="translate(-5.72 0)"/></g></g></g><g class="cls-3"><g class="cls-74"><g class="cls-3"><path class="cls-25" d="M16.73,30.15l-1.49-.86c0-.06,0-.15,0-.25.05-.39.16-1.05.32-1.78l1.49.86c-.17.74-.27,1.39-.33,1.79q0,.15,0,.24" transform="translate(-5.72 0)"/><path class="cls-18" d="M17.09,28.12l-1.49-.86c.1-.48.23-1,.38-1.48l1.49.86c-.15.5-.28,1-.38,1.48" transform="translate(-5.72 0)"/><path class="cls-54" d="M17.47,26.64,16,25.78c.09-.28.18-.56.29-.82l1.48.86c-.1.27-.2.54-.28.82" transform="translate(-5.72 0)"/><path class="cls-40" d="M17.75,25.82,16.27,25c.07-.19.15-.36.23-.53l1.49.86c-.09.17-.16.35-.24.53" transform="translate(-5.72 0)"/><path class="cls-39" d="M18,25.29l-1.49-.86c.07-.14.15-.28.22-.4l1.49.86c-.08.13-.15.26-.22.4" transform="translate(-5.72 0)"/><path class="cls-27" d="M18.21,24.89,16.72,24a2.68,2.68,0,0,1,.34-.44,2.26,2.26,0,0,1,.46-.37l1.48.86a2.21,2.21,0,0,0-.45.37,2.68,2.68,0,0,0-.34.44" transform="translate(-5.72 0)"/><path class="cls-39" d="M19,24.08l-1.48-.86.07,0,.29-.14,1.48.86a2.49,2.49,0,0,0-.28.15l-.08,0" transform="translate(-5.72 0)"/><path class="cls-40" d="M19.36,23.89,17.88,23a3.57,3.57,0,0,1,.46-.16l1.49.87a3.68,3.68,0,0,0-.47.15" transform="translate(-5.72 0)"/><path class="cls-54" d="M19.83,23.74l-1.49-.87a6.85,6.85,0,0,1,1-.16l1.49.86a6.87,6.87,0,0,0-1,.17" transform="translate(-5.72 0)"/><path class="cls-18" d="M20.84,23.57l-1.49-.86.4,0,.42,0,1.49.86-.42,0-.4,0" transform="translate(-5.72 0)"/><path class="cls-54" d="M21.66,23.5l-1.49-.86a6.24,6.24,0,0,0,.81-.13l1.49.86a4.15,4.15,0,0,1-.81.13" transform="translate(-5.72 0)"/><path class="cls-40" d="M22.47,23.37,21,22.51a1.63,1.63,0,0,0,.31-.11l1.48.87-.3.1" transform="translate(-5.72 0)"/><path class="cls-39" d="M22.77,23.27l-1.48-.87.15-.07,0,0,1.49.86-.05,0-.16.08" transform="translate(-5.72 0)"/><path class="cls-27" d="M23,23.16l-1.49-.86a10.6,10.6,0,0,0,1.67-1.62,12.25,12.25,0,0,1,2.13-2l1.48.87a11.83,11.83,0,0,0-2.12,2A11.38,11.38,0,0,1,23,23.16" transform="translate(-5.72 0)"/><path class="cls-39" d="M26.77,19.53l-1.48-.87.08-.05,1.49.86-.09.06" transform="translate(-5.72 0)"/></g></g></g><g class="cls-3"><g class="cls-75"><g class="cls-3"><path class="cls-43" d="M23.07,22.3l-1.49-.86a7.59,7.59,0,0,0,2.27-2.37l1.48.87a7.31,7.31,0,0,1-2.26,2.36" transform="translate(-5.72 0)"/><path class="cls-42" d="M25.33,19.94l-1.48-.87c.15-.25.3-.51.43-.77l1.49.86a7.44,7.44,0,0,1-.44.78" transform="translate(-5.72 0)"/></g></g></g><g class="cls-3"><g class="cls-76"><g class="cls-3"><path class="cls-42" d="M25.33,19.94l-1.48-.87c.15-.25.3-.51.43-.77l1.49.86a7.44,7.44,0,0,1-.44.78" transform="translate(-5.72 0)"/><path class="cls-45" d="M25.77,19.16l-1.49-.86a5.37,5.37,0,0,0,.29-.65l1.49.86c-.09.22-.19.44-.29.65" transform="translate(-5.72 0)"/><path class="cls-46" d="M26.06,18.51l-1.49-.86c.08-.21.16-.41.22-.61l1.49.86c-.07.21-.14.41-.22.61" transform="translate(-5.72 0)"/></g></g></g><g class="cls-3"><g class="cls-77"><g class="cls-3"><path class="cls-49" d="M8.36,52.85,6.87,52A2.51,2.51,0,0,1,5.8,49.72l1.49.86a2.52,2.52,0,0,0,1.07,2.27" transform="translate(-5.72 0)"/><path class="cls-14" d="M7.29,50.58,5.8,49.72v-.09l1.49.87v.08" transform="translate(-5.72 0)"/></g></g></g><g class="cls-3"><g class="cls-78"><g class="cls-3"><path class="cls-43" d="M23.07,22.3l-1.49-.86a7.59,7.59,0,0,0,2.27-2.37l1.48.87a7.31,7.31,0,0,1-2.26,2.36" transform="translate(-5.72 0)"/></g></g></g><g class="cls-3"><g class="cls-79"><g class="cls-3"><path class="cls-46" d="M26.06,18.51l-1.49-.86c.08-.21.16-.41.22-.61l1.49.86c-.07.21-.14.41-.22.61" transform="translate(-5.72 0)"/><path class="cls-47" d="M26.28,17.9,24.79,17c.06-.2.11-.4.16-.6l1.48.86q-.06.3-.15.6" transform="translate(-5.72 0)"/><path class="cls-22" d="M26.43,17.3,25,16.44c0-.21.08-.42.1-.62l1.49.86c0,.21-.06.41-.11.62" transform="translate(-5.72 0)"/></g></g></g><g class="cls-3"><g class="cls-80"><g class="cls-3"><path class="cls-45" d="M21.94,22.81l-1.49-.87a3.69,3.69,0,0,0,.5-.17l1.49.86a3.79,3.79,0,0,1-.5.18" transform="translate(-5.72 0)"/><path class="cls-42" d="M22.44,22.63,21,21.77a5.21,5.21,0,0,0,.47-.24l.16-.09,1.49.86-.16.1a4,4,0,0,1-.47.23" transform="translate(-5.72 0)"/><path class="cls-43" d="M23.07,22.3l-1.49-.86a7.59,7.59,0,0,0,2.27-2.37l1.48.87a7.31,7.31,0,0,1-2.26,2.36" transform="translate(-5.72 0)"/></g></g></g><g class="cls-3"><g class="cls-81"><g class="cls-3"><path class="cls-45" d="M21.94,22.81l-1.49-.87a3.69,3.69,0,0,0,.5-.17l1.49.86a3.79,3.79,0,0,1-.5.18" transform="translate(-5.72 0)"/></g></g></g><g class="cls-3"><g class="cls-82"><g class="cls-3"><path class="cls-22" d="M26.43,17.3,25,16.44c0-.21.08-.42.1-.62l1.49.86c0,.21-.06.41-.11.62" transform="translate(-5.72 0)"/><path class="cls-31" d="M26.54,16.68l-1.49-.86a4.68,4.68,0,0,0,0-.64V15.1l1.48.86v.09c0,.2,0,.42,0,.63" transform="translate(-5.72 0)"/><path class="cls-32" d="M26.57,16l-1.48-.86A2.54,2.54,0,0,0,24,12.82l1.49.86A2.56,2.56,0,0,1,26.57,16" transform="translate(-5.72 0)"/></g></g></g><g class="cls-3"><g class="cls-83"><g class="cls-3"><path class="cls-47" d="M21.07,22.89,19.59,22A2,2,0,0,0,20,22l1.48.87h-.42" transform="translate(-5.72 0)"/><path class="cls-46" d="M21.49,22.89,20,22a2.41,2.41,0,0,0,.44-.08l1.49.87a3.54,3.54,0,0,1-.45.08" transform="translate(-5.72 0)"/><path class="cls-45" d="M21.94,22.81l-1.49-.87a3.69,3.69,0,0,0,.5-.17l1.49.86a3.79,3.79,0,0,1-.5.18" transform="translate(-5.72 0)"/></g></g></g><g class="cls-3"><g class="cls-84"><g class="cls-3"><path class="cls-47" d="M21.07,22.89,19.59,22A2,2,0,0,0,20,22l1.48.87h-.42" transform="translate(-5.72 0)"/></g></g></g><g class="cls-3"><g class="cls-85"><g class="cls-3"><path class="cls-32" d="M26.57,16l-1.48-.86A2.54,2.54,0,0,0,24,12.82l1.49.86A2.56,2.56,0,0,1,26.57,16" transform="translate(-5.72 0)"/></g></g></g><g class="cls-3"><g class="cls-86"><g class="cls-3"><path class="cls-31" d="M20.29,22.65l-1.48-.86a1.94,1.94,0,0,0,.36.15l1.48.87a2.83,2.83,0,0,1-.36-.16" transform="translate(-5.72 0)"/><path class="cls-22" d="M20.65,22.81l-1.48-.87a1.84,1.84,0,0,0,.42.09l1.48.86a2,2,0,0,1-.42-.08" transform="translate(-5.72 0)"/><path class="cls-47" d="M21.07,22.89,19.59,22A2,2,0,0,0,20,22l1.48.87h-.42" transform="translate(-5.72 0)"/></g></g></g><g class="cls-3"><g class="cls-87"><g class="cls-3"><path class="cls-39" d="M22.91,21.65l-1.49-.87.13-.08,1.49.87-.13.08" transform="translate(-5.72 0)"/><path class="cls-27" d="M23,21.57l-1.49-.87a5.94,5.94,0,0,0,1.87-1.95l1.49.87A6.25,6.25,0,0,1,23,21.57" transform="translate(-5.72 0)"/><path class="cls-39" d="M24.91,19.62l-1.49-.87c.13-.2.25-.42.36-.63l1.49.86c-.11.22-.23.43-.36.64" transform="translate(-5.72 0)"/><path class="cls-40" d="M25.27,19l-1.49-.86q.13-.27.24-.54l1.49.86-.24.54" transform="translate(-5.72 0)"/><path class="cls-54" d="M25.51,18.44,24,17.58a5,5,0,0,0,.18-.5l1.48.86c-.05.17-.11.34-.17.5" transform="translate(-5.72 0)"/><path class="cls-18" d="M25.68,17.94l-1.48-.86c.05-.17.09-.33.13-.49l1.48.86a4.43,4.43,0,0,1-.13.49" transform="translate(-5.72 0)"/><path class="cls-25" d="M25.81,17.45l-1.48-.86c0-.17.06-.35.08-.51l1.49.86a4.54,4.54,0,0,1-.09.51" transform="translate(-5.72 0)"/><path class="cls-35" d="M25.9,16.94l-1.49-.86a4.67,4.67,0,0,0,0-.52v-.07l1.49.86v.07a4.67,4.67,0,0,1,0,.52" transform="translate(-5.72 0)"/><path class="cls-29" d="M25.93,16.35l-1.49-.86a2.1,2.1,0,0,0-.88-1.88l1.48.87a2.08,2.08,0,0,1,.89,1.87" transform="translate(-5.72 0)"/></g></g></g><g class="cls-3"><g class="cls-88"><g class="cls-3"><path class="cls-32" d="M26.57,16l-1.48-.86A2.54,2.54,0,0,0,24,12.82l1.49.86A2.56,2.56,0,0,1,26.57,16" transform="translate(-5.72 0)"/></g></g></g><g class="cls-3"><g class="cls-89"><g class="cls-3"><path class="cls-35" d="M20.75,21.86,19.26,21a1,1,0,0,0,.3.13L21,22l-.29-.13" transform="translate(-5.72 0)"/><path class="cls-25" d="M21,22l-1.48-.87a1.28,1.28,0,0,0,.34.07l1.49.87A2,2,0,0,1,21,22" transform="translate(-5.72 0)"/><path class="cls-18" d="M21.39,22.06l-1.49-.87h.35l1.49.86a2.08,2.08,0,0,1-.35,0" transform="translate(-5.72 0)"/><path class="cls-54" d="M21.74,22.05l-1.49-.86a1.72,1.72,0,0,0,.37-.07l1.49.87-.37.06" transform="translate(-5.72 0)"/><path class="cls-40" d="M22.11,22l-1.49-.87A2.49,2.49,0,0,0,21,21l1.49.86-.41.15" transform="translate(-5.72 0)"/><path class="cls-39" d="M22.52,21.84,21,21a3.6,3.6,0,0,0,.39-.2l1.49.87c-.14.07-.26.14-.39.19" transform="translate(-5.72 0)"/></g></g></g><path class="cls-90" d="M26.86,19.47a1.62,1.62,0,0,1,.61-.22c1-.1,1.48,2.58,1.61,3.54a1.11,1.11,0,0,1,0,.23l-.63.45c0-.1,0-.2-.05-.3-.19-1.41-.66-3.14-1.21-3.09a1,1,0,0,0-.35.13,10.9,10.9,0,0,0-1.95,1.86,11.29,11.29,0,0,1-2,1.87l0,0a4.55,4.55,0,0,1-1.92.41,4.69,4.69,0,0,0-1.89.4,1.7,1.7,0,0,0-.3.23c-.57.6-1.12,2.88-1.37,4.52,0,.14,0,.27-.05.39l-.64.24q0-.09,0-.24c.16-1.11.71-4.34,1.79-5.46a2.29,2.29,0,0,1,.53-.41,5.07,5.07,0,0,1,2.16-.5,4.4,4.4,0,0,0,1.69-.35,10.32,10.32,0,0,0,1.72-1.64A11.54,11.54,0,0,1,26.86,19.47Z" transform="translate(-5.72 0)"/><path class="cls-91" d="M27.22,20.08c.55,0,1,1.68,1.21,3.09l-11,6.35c.25-1.64.8-3.92,1.37-4.52a1.7,1.7,0,0,1,.3-.23,4.69,4.69,0,0,1,1.89-.4A4.55,4.55,0,0,0,22.9,24l0,0a11.29,11.29,0,0,0,2-1.87,10.9,10.9,0,0,1,1.95-1.86A1,1,0,0,1,27.22,20.08Z" transform="translate(-5.72 0)"/><polygon class="cls-17" points="7.17 34.6 5.68 33.74 5.68 32.02 7.17 32.89 7.17 34.6"/><polygon class="cls-91" points="7.17 34.6 7.17 32.89 27.3 21.26 27.3 22.98 7.17 34.6"/><polygon class="cls-18" points="6.52 35.73 5.03 34.86 5.03 31.66 6.51 32.52 6.52 35.73"/><polygon class="cls-23" points="6.51 32.52 5.03 31.66 9.55 29.04 11.04 29.91 6.51 32.52"/><g class="cls-3"><g class="cls-92"><g class="cls-3"><path class="cls-32" d="M20.75,21.86,19.26,21a2.07,2.07,0,0,1-.88-1.86l1.48.86a2.1,2.1,0,0,0,.89,1.87" transform="translate(-5.72 0)"/><path class="cls-31" d="M19.86,20l-1.48-.86v-.07a4.84,4.84,0,0,1,0-.53l1.48.87a4.53,4.53,0,0,0,0,.52V20" transform="translate(-5.72 0)"/><path class="cls-22" d="M19.89,19.4l-1.48-.87c0-.17.05-.34.08-.51l1.49.86a5.16,5.16,0,0,0-.09.52" transform="translate(-5.72 0)"/><path class="cls-47" d="M20,18.88,18.49,18c0-.17.08-.33.13-.49l1.49.86c-.05.16-.09.33-.13.49" transform="translate(-5.72 0)"/><path class="cls-46" d="M20.11,18.39l-1.49-.86c.06-.17.11-.34.18-.5l1.49.86a4.24,4.24,0,0,0-.18.5" transform="translate(-5.72 0)"/><path class="cls-45" d="M20.29,17.89,18.8,17a4.41,4.41,0,0,1,.24-.54l1.49.86q-.13.27-.24.54" transform="translate(-5.72 0)"/><path class="cls-42" d="M20.53,17.35,19,16.49c.11-.22.23-.43.36-.64l1.48.86c-.12.21-.24.42-.35.64" transform="translate(-5.72 0)"/><path class="cls-43" d="M20.88,16.71l-1.48-.86a6.14,6.14,0,0,1,1.87-1.95l1.48.86a6.36,6.36,0,0,0-1.87,2" transform="translate(-5.72 0)"/><path class="cls-42" d="M22.75,14.76l-1.48-.86.13-.08a3.49,3.49,0,0,1,.39-.19l1.48.86a2.81,2.81,0,0,0-.38.2l-.14.07" transform="translate(-5.72 0)"/><path class="cls-45" d="M23.27,14.49l-1.48-.86.41-.15,1.49.87a2.3,2.3,0,0,0-.42.14" transform="translate(-5.72 0)"/><path class="cls-46" d="M23.69,14.35l-1.49-.87.37-.06,1.48.86a1.53,1.53,0,0,0-.36.07" transform="translate(-5.72 0)"/><path class="cls-47" d="M24.05,14.28l-1.48-.86a1.3,1.3,0,0,1,.34,0l1.49.87h-.35" transform="translate(-5.72 0)"/><path class="cls-22" d="M24.4,14.28l-1.49-.87a1.81,1.81,0,0,1,.35.07l1.49.86a2,2,0,0,0-.35-.06" transform="translate(-5.72 0)"/><path class="cls-31" d="M24.75,14.34l-1.49-.86a1.6,1.6,0,0,1,.3.13l1.48.87a1.55,1.55,0,0,0-.29-.14" transform="translate(-5.72 0)"/></g></g></g><g class="cls-3"><g class="cls-93"><g class="cls-3"><path class="cls-39" d="M22.88,13.94l-1.48-.87a3.39,3.39,0,0,1,.47-.23l1.48.86a4.19,4.19,0,0,0-.47.24" transform="translate(-5.72 0)"/><path class="cls-40" d="M23.35,13.7l-1.48-.86a3.34,3.34,0,0,1,.5-.18l1.48.87a3.69,3.69,0,0,0-.5.17" transform="translate(-5.72 0)"/><path class="cls-54" d="M23.85,13.53l-1.48-.87a3.73,3.73,0,0,1,.44-.08l1.49.87a2.51,2.51,0,0,0-.45.08" transform="translate(-5.72 0)"/><path class="cls-18" d="M24.3,13.45l-1.49-.87h.42l1.49.86a2,2,0,0,0-.42,0" transform="translate(-5.72 0)"/><path class="cls-25" d="M24.72,13.44l-1.49-.86a1.84,1.84,0,0,1,.42.08l1.49.86a1.84,1.84,0,0,0-.42-.08" transform="translate(-5.72 0)"/><path class="cls-35" d="M25.14,13.52l-1.49-.86a1.46,1.46,0,0,1,.36.16l1.49.86a2,2,0,0,0-.36-.16" transform="translate(-5.72 0)"/></g></g></g><path class="cls-91" d="M22.91,21.65c-1.68,1-3,.19-3.05-1.73a6.66,6.66,0,0,1,3-5.23c1.67-1,3-.19,3,1.73A6.7,6.7,0,0,1,22.91,21.65Z" transform="translate(-5.72 0)"/><g class="cls-3"><g class="cls-94"><g class="cls-3"><path class="cls-29" d="M20.29,22.65l-1.48-.86a2.57,2.57,0,0,1-1.08-2.28l1.49.87a2.54,2.54,0,0,0,1.07,2.27" transform="translate(-5.72 0)"/><path class="cls-35" d="M19.22,20.38l-1.49-.87v-.08a4.68,4.68,0,0,1,0-.64l1.49.87a4.44,4.44,0,0,0,0,.63v.09" transform="translate(-5.72 0)"/><path class="cls-25" d="M19.26,19.66l-1.49-.87c0-.2.06-.41.1-.62l1.49.86a4.58,4.58,0,0,0-.1.63" transform="translate(-5.72 0)"/><path class="cls-18" d="M19.36,19l-1.49-.86c.05-.2.1-.4.16-.6l1.49.86c-.06.2-.12.4-.16.6" transform="translate(-5.72 0)"/><path class="cls-54" d="M19.52,18.43,18,17.57a6.32,6.32,0,0,1,.22-.61l1.48.86c-.08.2-.15.41-.21.61" transform="translate(-5.72 0)"/><path class="cls-40" d="M19.73,17.82,18.25,17c.09-.22.18-.44.29-.66l1.49.87c-.11.21-.21.43-.3.65" transform="translate(-5.72 0)"/><path class="cls-39" d="M20,17.17l-1.49-.87c.13-.26.28-.52.43-.77l1.49.86a7.37,7.37,0,0,0-.43.78" transform="translate(-5.72 0)"/><path class="cls-27" d="M20.46,16.39,19,15.53a7.45,7.45,0,0,1,2.27-2.36l1.48.86a7.64,7.64,0,0,0-2.26,2.36" transform="translate(-5.72 0)"/><path class="cls-39" d="M22.72,14l-1.48-.86.16-.1,1.48.87-.16.09" transform="translate(-5.72 0)"/></g></g></g><path class="cls-90" d="M22.88,13.94c2-1.18,3.69-.23,3.69,2.11a8.1,8.1,0,0,1-3.66,6.35c-2,1.17-3.68.22-3.69-2.11A8.07,8.07,0,0,1,22.88,13.94Zm0,7.71a6.7,6.7,0,0,0,3-5.23c0-1.92-1.37-2.7-3-1.73a6.66,6.66,0,0,0-3,5.23c0,1.92,1.37,2.69,3.05,1.73" transform="translate(-5.72 0)"/><polygon class="cls-17" points="2.93 48.9 1.45 48.04 1.37 20.97 2.85 21.84 2.93 48.9"/><polygon class="cls-20" points="5.04 18.05 3.56 17.19 28.22 2.95 29.71 3.81 5.04 18.05"/><g class="cls-3"><g class="cls-95"><g class="cls-3"><path class="cls-31" d="M8.58,21.84,7.09,21c0-.12,0-.25,0-.37l1.49.86a1.62,1.62,0,0,0,0,.38" transform="translate(-5.72 0)"/><path class="cls-22" d="M8.6,21.46,7.11,20.6c0-.13,0-.25.06-.37l1.49.86a2.38,2.38,0,0,0-.06.37" transform="translate(-5.72 0)"/><path class="cls-47" d="M8.66,21.09l-1.49-.86c0-.12.06-.24.1-.36l1.48.86c0,.12-.07.24-.09.36" transform="translate(-5.72 0)"/><path class="cls-46" d="M8.75,20.73l-1.48-.86c0-.12.08-.24.12-.36l1.49.86c-.05.12-.09.24-.13.36" transform="translate(-5.72 0)"/><path class="cls-45" d="M8.88,20.37l-1.49-.86c.06-.13.11-.26.18-.39L9.05,20c-.06.13-.12.26-.17.39" transform="translate(-5.72 0)"/><path class="cls-42" d="M9.05,20l-1.48-.86a4.17,4.17,0,0,1,.26-.46l1.48.86L9.05,20" transform="translate(-5.72 0)"/><path class="cls-43" d="M9.31,19.52l-1.48-.86a4.35,4.35,0,0,1,1.35-1.41l1.49.86a4.59,4.59,0,0,0-1.36,1.41" transform="translate(-5.72 0)"/><path class="cls-42" d="M10.67,18.11l-1.49-.86.1-.06,1.48.86-.09.06" transform="translate(-5.72 0)"/></g></g></g><path class="cls-4" d="M35.35,1.37C37.37.2,39,1.13,39,3.45l.08,28.68a8,8,0,0,1-3.64,6.32l-1.64.94-3.34,1.93L15.73,49.84,12.4,51.76,11,52.59c-2,1.17-3.66.23-3.66-2.09L7.21,21.82a8,8,0,0,1,3.64-6.31ZM37.7,32.13,37.63,5.07c0-1.39-1-2-2.2-1.26L10.76,18.05a4.81,4.81,0,0,0-2.18,3.79L8.65,48.9c0,1.39,1,2,2.21,1.25L35.52,35.91a4.79,4.79,0,0,0,2.18-3.78" transform="translate(-5.72 0)"/><polygon class="cls-90" points="9.97 33.71 9.97 33.73 10.7 44.73 10.04 45.16 9.32 34.13 9.6 33.95 9.97 33.71"/><path class="cls-90" d="M31.06,21.65l2.6-1.5v3.21l-2.93,1.69-.37.18L15.69,33.74l-.37.21-3.08,1.78V32.52l4.53-2.61q0,.15,0,.24l.64-.24c0-.12,0-.25.05-.39l11-6.35c0,.1,0,.2.05.3l.63-.45a1.11,1.11,0,0,0,0-.23L30.4,22c0,.13,0,.2,0,.21l.62-.16A3.67,3.67,0,0,0,31.06,21.65ZM33,23V21.26L12.88,32.89V34.6L33,23" transform="translate(-5.72 0)"/><path class="cls-90" d="M30.1,16.74a2.62,2.62,0,0,1-.5.77,3,3,0,0,1,.77,1.59,8.85,8.85,0,0,1,0,2.93c0,.13,0,.2,0,.21l.62-.16a3.67,3.67,0,0,0,.08-.43A9.71,9.71,0,0,0,31,18.58,3.43,3.43,0,0,0,30.1,16.74Z" transform="translate(-5.72 0)"/><path class="cls-91" d="M29.16,16a1.1,1.1,0,0,0-.49.85c0,.31.22.43.5.27a1.08,1.08,0,0,0,.48-.83C29.65,16,29.43,15.84,29.16,16Z" transform="translate(-5.72 0)"/><path class="cls-91" d="M37.63,5.07c0-1.39-1-2-2.2-1.26L10.76,18.05a4.81,4.81,0,0,0-2.18,3.79L8.65,48.9c0,1.39,1,2,2.21,1.25L35.52,35.91a4.79,4.79,0,0,0,2.18-3.78ZM22.88,13.94c2-1.18,3.69-.23,3.69,2.11a8.1,8.1,0,0,1-3.66,6.35c-2,1.17-3.68.22-3.69-2.11a8.07,8.07,0,0,1,3.66-6.35m8.14,11-.66,11.82-.64.32.65-11.79L15.69,33.74l.73,11-.65.43-.73-11,.28-.18-3.08,1.78V32.52l4.53-2.61c0-.32.12-.79.23-1.35a1.16,1.16,0,0,0,0-.18c0-.13,0-.26.08-.39a8.37,8.37,0,0,1,1.44-3.54l.12-.12.27-.21.14-.08.24-.13.26-.1.27-.08a9,9,0,0,1,1.39-.19,4.4,4.4,0,0,0,1.69-.35,6.69,6.69,0,0,0,1.25-1.14l.22-.24,0,0,.23-.24c.28-.31.56-.63.85-.92a1.85,1.85,0,0,1,.14-.14l.28-.28a5.82,5.82,0,0,1,.94-.74,1.62,1.62,0,0,1,.61-.22h.1a.75.75,0,0,1,.5.29l.07.09c.05.06.09.13.14.2l.06.12.12.25c.06.14.11.28.16.42s.17.6.24.9l.06.3L29,22c.06.32.11.61.13.81L30.4,22c0-.17.06-.45.09-.8,0-.17,0-.36,0-.56s0-.28,0-.42a6.64,6.64,0,0,0-.13-1.15.75.75,0,0,0,0-.16,2.45,2.45,0,0,0-.08-.29,2.9,2.9,0,0,0-.24-.58.78.78,0,0,0-.11-.18,1,1,0,0,0-.1-.15l-.15-.19,0,0a2,2,0,0,1-.43.35c-.63.36-1.14.07-1.14-.65a2.51,2.51,0,0,1,1.13-2c.63-.36,1.13-.06,1.14.65a2,2,0,0,1-.2.84l.24.27a2.51,2.51,0,0,1,.24.38l.06.12c0,.08.08.16.12.26a4.09,4.09,0,0,1,.16.46,3.59,3.59,0,0,1,.08.35,2,2,0,0,1,0,.24,3.56,3.56,0,0,1,.06.44v0l0,.42c0,.08,0,.15,0,.22a10.85,10.85,0,0,1-.09,1.7l2.6-1.5v3.21l-2.93,1.69.28-.14" transform="translate(-5.72 0)"/><polygon class="cls-90" points="24.65 25.23 25.02 25.05 25.3 24.91 24.64 36.73 24 37.05 24.65 25.26 24.65 25.23"/><path class="cls-90" d="M29.16,15.25c.63-.36,1.13-.06,1.14.65a2,2,0,0,1-.2.84,2.62,2.62,0,0,1-.5.77,2,2,0,0,1-.43.35c-.63.36-1.14.07-1.14-.65A2.51,2.51,0,0,1,29.16,15.25Zm0,1.86a1.08,1.08,0,0,0,.48-.83c0-.31-.22-.44-.49-.29a1.1,1.1,0,0,0-.49.85c0,.31.22.43.5.27" transform="translate(-5.72 0)"/><g class="cls-3"><g class="cls-96"><g class="cls-3"><path class="cls-8" d="M35.35,1.37,33.86.5a3.49,3.49,0,0,1,.48-.23l1.48.86-.47.24" transform="translate(-5.72 0)"/><path class="cls-10" d="M35.82,1.13,34.34.27a2.51,2.51,0,0,1,.5-.18L36.32,1a3.69,3.69,0,0,0-.5.17" transform="translate(-5.72 0)"/><path class="cls-11" d="M36.32,1,34.84.09A3.73,3.73,0,0,1,35.28,0l1.49.87a2.36,2.36,0,0,0-.45.08" transform="translate(-5.72 0)"/><path class="cls-12" d="M36.77.88,35.28,0h.42l1.49.86a2,2,0,0,0-.42,0" transform="translate(-5.72 0)"/><path class="cls-13" d="M37.19.87,35.7,0a2.07,2.07,0,0,1,.42.08L37.6,1a1.86,1.86,0,0,0-.41-.08" transform="translate(-5.72 0)"/><path class="cls-14" d="M37.6,1,36.12.09a1.58,1.58,0,0,1,.35.16L38,1.11A2,2,0,0,0,37.6,1" transform="translate(-5.72 0)"/></g></g></g><polygon class="cls-5" points="1.57 50.5 0.08 49.63 0 20.96 1.49 21.82 1.57 50.5"/><polygon class="cls-6" points="5.13 15.52 3.64 14.65 28.14 0.5 29.63 1.37 5.13 15.52"/><g class="cls-3"><g class="cls-97"><g class="cls-3"><path class="cls-14" d="M7.21,21.82,5.72,21a4.68,4.68,0,0,1,0-.64l1.48.87q0,.31,0,.63" transform="translate(-5.72 0)"/><path class="cls-13" d="M7.24,21.19l-1.48-.87c0-.2.06-.41.1-.62l1.49.87a6.17,6.17,0,0,0-.11.62" transform="translate(-5.72 0)"/><path class="cls-12" d="M7.35,20.57,5.86,19.7c0-.2.1-.39.16-.59L7.5,20q-.09.3-.15.6" transform="translate(-5.72 0)"/><path class="cls-11" d="M7.5,20,6,19.11q.09-.3.21-.6l1.49.86c-.08.2-.15.4-.22.6" transform="translate(-5.72 0)"/><path class="cls-10" d="M7.72,19.37l-1.49-.86c.09-.22.18-.44.29-.65L8,18.72a5.37,5.37,0,0,0-.29.65" transform="translate(-5.72 0)"/><path class="cls-8" d="M8,18.72l-1.49-.86A8.35,8.35,0,0,1,7,17.09L8.43,18c-.15.24-.29.5-.42.76" transform="translate(-5.72 0)"/><path class="cls-9" d="M8.43,18,7,17.09A7.42,7.42,0,0,1,9.2,14.75l1.49.86A7.38,7.38,0,0,0,8.43,18" transform="translate(-5.72 0)"/><path class="cls-8" d="M10.69,15.61,9.2,14.75l.16-.1,1.49.86-.16.1" transform="translate(-5.72 0)"/></g></g></g></g></g></g></svg>