<svg xmlns="http://www.w3.org/2000/svg" xmlns:xlink="http://www.w3.org/1999/xlink" viewBox="0 0 216.87 107.49"><defs><style>.cls-1{opacity:0.2;}.cls-18,.cls-2{fill:#e6e7e8;}.cls-3{fill:#939997;}.cls-21,.cls-4{fill:#fff;}.cls-4{stroke:#231f20;}.cls-10,.cls-11,.cls-12,.cls-13,.cls-14,.cls-15,.cls-16,.cls-18,.cls-19,.cls-4,.cls-5,.cls-58,.cls-59,.cls-6,.cls-67,.cls-68,.cls-69,.cls-70,.cls-71,.cls-72,.cls-73,.cls-74,.cls-75{stroke-miterlimit:10;}.cls-10,.cls-11,.cls-12,.cls-13,.cls-14,.cls-15,.cls-16,.cls-18,.cls-19,.cls-4,.cls-5,.cls-6{stroke-width:0.1px;}.cls-5{fill:#231f49;}.cls-10,.cls-5,.cls-6{stroke:#84b7d4;}.cls-6{fill:#1c183f;}.cls-7{fill:#f1f1f2;}.cls-19,.cls-8{fill:#d7d5d6;}.cls-9{fill:#808184;}.cls-10,.cls-23{fill:#262261;}.cls-11,.cls-12,.cls-13,.cls-14,.cls-15,.cls-16{stroke:#8abbd6;}.cls-11{fill:url(#linear-gradient);}.cls-12{fill:url(#linear-gradient-2);}.cls-13{fill:url(#linear-gradient-3);}.cls-14{fill:url(#linear-gradient-4);}.cls-15{fill:url(#linear-gradient-5);}.cls-16{fill:url(#linear-gradient-6);}.cls-17{fill:url(#radial-gradient);}.cls-18,.cls-19{stroke:#a6a8ab;}.cls-20{fill:#ada391;}.cls-22{fill:#a6a8ab;}.cls-24{fill:#99b9d3;}.cls-25{fill:#5085a3;}.cls-26{fill:#c1cadb;}.cls-27{fill:#1d5979;}.cls-28{fill:#68a3d5;}.cls-29{fill:#d87086;}.cls-30{fill:#f8ada3;}.cls-31{fill:#ffe3bc;}.cls-32{fill:#fdd357;}.cls-33{fill:#e4d0ab;}.cls-34{fill:#ad842d;}.cls-35{fill:#d0d2d3;}.cls-36{fill:#acd1ee;}.cls-37{fill:#b2cbd8;opacity:0.72;}.cls-38{fill:#9abdcb;}.cls-39{fill:#404041;}.cls-40{fill:#58595b;}.cls-41{fill:#6d6e70;}.cls-42{fill:#929497;}.cls-43{fill:#bbbdbf;}.cls-44{fill:#e4f5fd;}.cls-45{fill:url(#linear-gradient-7);}.cls-46{fill:url(#linear-gradient-8);}.cls-47{fill:url(#linear-gradient-9);}.cls-48{fill:url(#linear-gradient-10);}.cls-49{fill:#2896cd;}.cls-50,.cls-51,.cls-52,.cls-64,.cls-65,.cls-66,.cls-76{fill:#96cff0;}.cls-51{opacity:0.85;}.cls-52{opacity:0.31;}.cls-53{fill:url(#linear-gradient-11);}.cls-54{fill:url(#linear-gradient-12);}.cls-55{fill:url(#linear-gradient-13);}.cls-56{fill:url(#linear-gradient-14);}.cls-57{fill:url(#linear-gradient-15);}.cls-58,.cls-59,.cls-67,.cls-68,.cls-69,.cls-70,.cls-71,.cls-72,.cls-73,.cls-74,.cls-75{fill:none;stroke:#96cff0;stroke-linecap:round;stroke-width:1.02px;}.cls-58{opacity:0.48;}.cls-59{opacity:0.54;}.cls-60{fill:url(#linear-gradient-16);}.cls-61{fill:url(#linear-gradient-17);}.cls-62{fill:url(#linear-gradient-18);}.cls-63{fill:url(#linear-gradient-19);}.cls-64{opacity:0.52;}.cls-65{opacity:0.69;}.cls-66,.cls-73{opacity:0.33;}.cls-67{opacity:0.65;}.cls-68{opacity:0.29;}.cls-69{opacity:0.67;}.cls-70{opacity:0.45;}.cls-71{opacity:0.58;}.cls-72,.cls-76{opacity:0.73;}.cls-74{opacity:0.39;}.cls-75{opacity:0.44;}.cls-77{fill:#603917;}.cls-78{fill:#8b6339;}.cls-79{fill:#c49a6c;}.cls-80{fill:#a67d52;}.cls-81{fill:#dfb78b;}</style><linearGradient id="linear-gradient" x1="55.63" y1="74.39" x2="73.26" y2="41.11" gradientUnits="userSpaceOnUse"><stop offset="0" stop-color="#fff" stop-opacity="0"/><stop offset="1" stop-color="#fff" stop-opacity="0.7"/></linearGradient><linearGradient id="linear-gradient-2" x1="43.84" y1="80.21" x2="55.83" y2="57.58" xlink:href="#linear-gradient"/><linearGradient id="linear-gradient-3" x1="61.21" y1="70.45" x2="73.2" y2="47.83" xlink:href="#linear-gradient"/><linearGradient id="linear-gradient-4" x1="66.9" y1="67" x2="78.88" y2="44.38" xlink:href="#linear-gradient"/><linearGradient id="linear-gradient-5" x1="72.71" y1="63.69" x2="84.7" y2="41.07" xlink:href="#linear-gradient"/><linearGradient id="linear-gradient-6" x1="55.46" y1="73.63" x2="67.45" y2="51" xlink:href="#linear-gradient"/><radialGradient id="radial-gradient" cx="59.52" cy="79.68" r="3.85" gradientUnits="userSpaceOnUse"><stop offset="0" stop-color="#fff" stop-opacity="0"/><stop offset="1" stop-color="#fff" stop-opacity="0.25"/></radialGradient><linearGradient id="linear-gradient-7" x1="119.89" y1="89.72" x2="119.92" y2="89.72" gradientUnits="userSpaceOnUse"><stop offset="0" stop-color="#404041"/><stop offset="1" stop-color="#a6a8ab"/></linearGradient><linearGradient id="linear-gradient-8" x1="94.82" y1="96.73" x2="119.77" y2="96.73" xlink:href="#linear-gradient-7"/><linearGradient id="linear-gradient-9" x1="94.69" y1="89.64" x2="94.69" y2="89.64" xlink:href="#linear-gradient-7"/><linearGradient id="linear-gradient-10" x1="94.21" y1="89.68" x2="120.17" y2="89.68" gradientUnits="userSpaceOnUse"><stop offset="0" stop-color="#404041"/><stop offset="1" stop-color="#6d6e70"/></linearGradient><linearGradient id="linear-gradient-11" x1="106.01" y1="85.11" x2="108.5" y2="85.11" xlink:href="#linear-gradient-7"/><linearGradient id="linear-gradient-12" x1="110.07" y1="82.52" x2="110.07" y2="82.52" xlink:href="#linear-gradient-7"/><linearGradient id="linear-gradient-13" x1="104.49" y1="84.24" x2="110.04" y2="84.24" xlink:href="#linear-gradient-7"/><linearGradient id="linear-gradient-14" x1="104.46" y1="82.5" x2="104.46" y2="82.5" xlink:href="#linear-gradient-7"/><linearGradient id="linear-gradient-15" x1="104.35" y1="82.51" x2="110.13" y2="82.51" xlink:href="#linear-gradient-10"/><linearGradient id="linear-gradient-16" x1="111.86" y1="80.31" x2="111.87" y2="80.31" xlink:href="#linear-gradient-7"/><linearGradient id="linear-gradient-17" x1="102.61" y1="82.43" x2="111.82" y2="82.43" xlink:href="#linear-gradient-7"/><linearGradient id="linear-gradient-18" x1="102.57" y1="80.28" x2="102.57" y2="80.28" xlink:href="#linear-gradient-7"/><linearGradient id="linear-gradient-19" x1="102.39" y1="80.29" x2="111.97" y2="80.29" xlink:href="#linear-gradient-10"/></defs><g id="Layer_2" data-name="Layer 2"><g id="Layer_2-2" data-name="Layer 2"><path class="cls-1" d="M40.23,102.16l-38-21.93a4.46,4.46,0,0,1,0-7.72L59.66,39.2a8.63,8.63,0,0,1,8.64,0L105,60.4a5.4,5.4,0,0,1,0,9.33L48.85,102.16A8.62,8.62,0,0,1,40.23,102.16Z"/><polygon class="cls-2" points="80.72 78.13 99.68 67.14 99.67 68.07 80.76 78.92 80.72 78.13"/><polygon class="cls-3" points="61.98 14.92 8.68 45.71 36.91 62.01 90.2 31.22 61.98 14.92"/><polygon class="cls-4" points="90.2 31.22 36.89 61.87 36.89 90.84 90.2 60.19 90.2 31.22"/><polygon class="cls-5" points="78.71 37.88 72.95 41.2 72.95 70.17 78.71 66.85 78.71 37.88"/><polygon class="cls-5" points="72.96 41.21 67.21 44.53 67.21 73.5 72.96 70.18 72.96 41.21"/><polygon class="cls-5" points="67.21 44.51 61.46 47.83 61.46 76.8 67.21 73.48 67.21 44.51"/><polygon class="cls-5" points="61.37 47.8 55.61 51.13 55.61 80.1 61.37 76.78 61.37 47.8"/><polygon class="cls-5" points="84.46 34.57 78.71 37.89 78.71 66.86 84.46 63.54 84.46 34.57"/><polygon class="cls-4" points="90.2 31.22 84.45 34.54 84.45 63.51 90.2 60.19 90.2 31.22"/><polygon class="cls-6" points="8.68 45.7 36.91 62 36.91 90.97 8.68 74.67 8.68 45.7"/><polygon class="cls-6" points="20.19 52.4 25.94 55.72 25.94 84.69 20.19 81.37 20.19 52.4"/><polygon class="cls-6" points="8.68 45.7 14.44 49.02 14.44 78 8.68 74.67 8.68 45.7"/><polygon class="cls-7" points="61.76 13.49 60.32 14.33 88.57 30.6 90.2 29.66 61.76 13.49"/><polygon class="cls-8" points="60.32 14.33 60.32 15.9 88.57 32.14 88.57 30.6 60.32 14.33"/><polygon class="cls-4" points="90.2 29.66 88.57 30.6 88.57 32.14 90.2 31.18 90.2 29.66"/><polygon class="cls-6" points="82.71 34.36 83.45 34.84 36.79 61.6 35.65 60.94 82.71 34.36"/><polygon class="cls-4" points="35.65 60.94 36.79 61.6 36.79 61.91 35.65 61.26 35.65 60.94"/><polygon class="cls-9" points="36.79 61.6 36.79 61.91 83.54 35.17 83.54 34.79 36.79 61.6"/><polygon class="cls-8" points="80.26 25.79 80.27 27.37 86.12 30.79 87.57 29.95 80.26 25.79"/><polygon class="cls-8" points="8.68 44.12 8.68 45.72 9.98 46.48 9.99 44.87 8.68 44.12"/><path class="cls-7" d="M8.68,44.12C9.43,43.18,51,19.69,51,19.69l1.36.78L10,44.87Z"/><polygon class="cls-2" points="9.99 44.87 52.3 20.45 52.3 22.03 9.98 46.48 9.99 44.87"/><polygon class="cls-2" points="95.46 30.69 95.46 32.26 87.3 36.97 87.32 35.34 95.46 30.69"/><polygon class="cls-6" points="9.99 46.07 11.37 45.3 37.15 60.21 35.82 60.96 9.99 46.07"/><polygon class="cls-9" points="9.99 46.06 9.98 46.45 35.79 61.28 35.79 60.96 9.99 46.06"/><polygon class="cls-7" points="63.43 9.6 44.58 20.46 57.15 27.69 76.01 16.83 63.43 9.6"/><polygon class="cls-8" points="44.58 20.46 57.15 27.69 57.15 29.52 49.33 24.98 49.32 32.23 44.58 29.51 44.58 20.46"/><polygon class="cls-2" points="76.01 16.83 57.15 27.69 57.15 29.52 73.45 20.12 73.51 27.15 76.06 25.67 76.01 16.83"/><polygon class="cls-2" points="49.32 32.23 51.23 31.13 51.23 26.08 49.33 24.98 49.32 32.23"/><polygon class="cls-4" points="51.23 26.08 57.15 29.5 57.15 34.49 51.23 31.13 51.23 26.08"/><polygon class="cls-4" points="71.79 21.08 57.16 29.5 57.16 34.49 71.79 26.1 71.79 21.08"/><polygon class="cls-3" points="63.44 9.89 45.17 20.43 57.19 27.33 75.47 16.8 63.44 9.89"/><polygon class="cls-2" points="63.44 9.89 63.44 10.46 45.63 20.69 45.17 20.43 63.44 9.89"/><polygon class="cls-8" points="63.44 9.89 63.44 10.46 74.91 17.12 75.47 16.8 63.44 9.89"/><polygon class="cls-6" points="51.23 26.08 54.19 27.8 54.19 32.82 51.23 31.13 51.23 26.08"/><polygon class="cls-6" points="54.19 27.77 57.15 29.49 57.15 34.51 54.19 32.82 54.19 27.77"/><polygon class="cls-5" points="60.12 27.79 57.16 29.51 57.16 34.48 60.12 32.79 60.12 27.79"/><polygon class="cls-5" points="63.07 26.11 60.11 27.83 60.11 32.8 63.07 31.11 63.07 26.11"/><polygon class="cls-5" points="66.03 24.41 63.07 26.13 63.07 31.1 66.03 29.41 66.03 24.41"/><polygon class="cls-5" points="69 22.73 66.03 24.44 66.03 29.41 68.99 27.72 69 22.73"/><polygon class="cls-5" points="71.96 21 69 22.72 69 27.69 71.96 26 71.96 21"/><polygon class="cls-8" points="73.45 20.14 71.79 21.1 71.79 26.12 73.52 27.12 73.45 20.14"/><polygon class="cls-5" points="49.83 54.41 44.08 57.73 44.08 86.7 49.83 83.38 49.83 54.41"/><polygon class="cls-5" points="55.59 51.13 49.83 54.46 49.83 83.43 55.59 80.11 55.59 51.13"/><line class="cls-10" x1="83.67" y1="46.62" x2="45.22" y2="68.88"/><polygon class="cls-2" points="45.23 58.91 45.23 60.41 37.07 65.28 37.09 63.65 45.23 58.91"/><line class="cls-6" x1="8.66" y1="57.15" x2="26.03" y2="67.19"/><line class="cls-11" x1="45.22" y1="68.88" x2="83.67" y2="46.62"/><line class="cls-12" x1="49.83" y1="54.41" x2="49.83" y2="83.38"/><line class="cls-13" x1="67.2" y1="44.66" x2="67.2" y2="73.63"/><line class="cls-14" x1="72.89" y1="41.21" x2="72.89" y2="70.18"/><line class="cls-15" x1="78.71" y1="37.89" x2="78.71" y2="66.87"/><line class="cls-16" x1="61.46" y1="47.83" x2="61.46" y2="76.8"/><polygon class="cls-17" points="56.42 75.22 62.63 78.79 62.63 84.15 56.44 80.59 56.42 75.22"/><polygon class="cls-8" points="82.72 32.57 87.32 35.35 87.3 36.98 82.72 34.36 82.72 32.57"/><polygon class="cls-7" points="80.26 25.77 87.57 29.94 82.73 32.59 87.33 35.33 95.47 30.77 83.67 23.83 80.26 25.77"/><polygon class="cls-2" points="95.46 30.69 87.3 35.41 87.34 66.16 95.5 61.55 95.46 30.69"/><polygon class="cls-8" points="83.54 34.84 87.3 36.96 87.34 66.14 83.58 64.01 83.54 34.84"/><line class="cls-18" x1="87.31" y1="55.32" x2="95.54" y2="50.57"/><line class="cls-18" x1="87.27" y1="48.76" x2="95.49" y2="44.01"/><line class="cls-18" x1="87.31" y1="42.08" x2="95.54" y2="37.33"/><line class="cls-18" x1="87.27" y1="37.02" x2="95.49" y2="32.27"/><line class="cls-18" x1="87.27" y1="61.91" x2="95.49" y2="57.16"/><line class="cls-19" x1="83.56" y1="59.78" x2="87.32" y2="61.91"/><line class="cls-19" x1="83.56" y1="53.19" x2="87.32" y2="55.32"/><line class="cls-19" x1="83.56" y1="46.62" x2="87.32" y2="48.76"/><line class="cls-19" x1="83.56" y1="39.95" x2="87.32" y2="42.08"/><line class="cls-19" x1="83.56" y1="34.88" x2="87.32" y2="37.02"/><polygon class="cls-20" points="84.39 80.84 76.34 76.16 65.73 82.25 65.76 82.27 65.77 82.65 73.88 87.34 73.88 87.35 83.92 81.5 83.91 81.12 84.39 80.84"/><polygon class="cls-9" points="56.42 73.95 55.61 73.48 55.61 80.12 56.44 80.6 56.42 73.95"/><polygon class="cls-21" points="56.42 73.95 56.94 73.65 56.94 80.31 56.44 80.6 56.42 73.95"/><polygon class="cls-21" points="55.61 73.48 56.11 73.17 56.94 73.65 56.42 73.95 55.61 73.48"/><polygon class="cls-9" points="74.73 71.46 73.92 70.99 73.92 77.64 74.74 78.11 74.73 71.46"/><polygon class="cls-22" points="74.73 71.46 75.25 71.16 75.25 77.82 74.74 78.11 74.73 71.46"/><polygon class="cls-4" points="73.92 70.99 74.41 70.68 75.25 71.16 74.73 71.46 73.92 70.99"/><polygon class="cls-23" points="68.24 76.49 68.24 80.87 63.96 83.28 63.96 78.96 68.24 76.49"/><polygon class="cls-23" points="73.92 73.22 73.92 77.64 69.57 80.06 69.57 75.72 73.92 73.22"/><polygon class="cls-23" points="79.55 69.97 79.55 74.39 75.25 76.8 75.25 72.45 79.55 69.97"/><polygon class="cls-22" points="69.05 74.7 69.57 74.4 69.57 81.06 69.07 81.35 69.05 74.7"/><polygon class="cls-4" points="68.24 74.23 68.74 73.92 69.57 74.4 69.05 74.7 68.24 74.23"/><polygon class="cls-9" points="69.05 74.7 68.24 74.23 68.24 80.87 69.07 81.35 69.05 74.7"/><polygon class="cls-23" points="56.42 75.22 62.63 78.79 62.63 84.15 56.44 80.59 56.42 75.22"/><polygon class="cls-7" points="65.99 81.93 63.16 83.53 71.08 88.22 73.91 86.57 65.99 81.93"/><polygon class="cls-9" points="63.44 77.99 62.63 77.52 62.63 84.16 63.46 84.64 63.44 77.99"/><polygon class="cls-22" points="63.44 77.99 63.96 77.69 63.96 84.35 63.46 84.64 63.44 77.99"/><polygon class="cls-21" points="62.63 77.52 63.13 77.2 63.96 77.69 63.44 77.99 62.63 77.52"/><polygon class="cls-8" points="68.34 87.36 68.34 86.58 71.05 88.19 71.05 88.99 68.34 87.36"/><polygon class="cls-2" points="86.95 78.85 86.96 79.72 83.83 81.56 83.82 80.69 86.95 78.85"/><polygon class="cls-2" points="73.89 86.55 73.89 87.35 71.04 89.01 71.04 88.21 73.89 86.55"/><polygon class="cls-7" points="75.79 76.02 79.17 74.03 80.31 74.89 80.81 74.6 80.81 73.46 90.57 67.79 87.32 66.16 92.58 63.21 99.74 67.1 83.2 76.72 86.95 78.86 83.81 80.7 75.79 76.02"/><polygon class="cls-7" points="30.51 54.6 36.78 58.22 40.43 56.15 45.15 58.87 36.97 63.6 25.98 57.27 30.51 54.6"/><polygon class="cls-2" points="37.03 94.86 45.19 90.14 45.16 58.9 37 63.63 37.03 94.86"/><polygon class="cls-8" points="25.98 57.27 37 63.63 37 94.87 25.99 88.53 25.98 57.27"/><line class="cls-19" x1="25.98" y1="77.19" x2="37.02" y2="83.56"/><line class="cls-19" x1="25.99" y1="83.97" x2="36.99" y2="90.31"/><line class="cls-19" x1="25.94" y1="70.55" x2="37.01" y2="76.93"/><line class="cls-19" x1="25.95" y1="63.77" x2="37.01" y2="70.14"/><line class="cls-19" x1="25.94" y1="58.87" x2="37" y2="65.24"/><line class="cls-18" x1="36.97" y1="90.35" x2="45.19" y2="85.6"/><line class="cls-18" x1="36.91" y1="83.63" x2="45.14" y2="78.88"/><line class="cls-18" x1="37" y1="76.87" x2="45.22" y2="72.12"/><line class="cls-18" x1="36.97" y1="70.14" x2="45.19" y2="65.4"/><line class="cls-18" x1="36.97" y1="65.24" x2="45.19" y2="60.49"/><polygon class="cls-9" points="80.36 68.22 79.11 67.5 79.11 74.15 80.38 74.87 80.36 68.22"/><polygon class="cls-22" points="80.36 68.22 80.88 67.92 80.88 74.58 80.38 74.87 80.36 68.22"/><polygon class="cls-21" points="79.55 67.75 80.05 67.43 80.88 67.92 80.36 68.22 79.55 67.75"/><polygon class="cls-7" points="73 63.45 55.6 73.5 63.48 77.98 80.88 67.94 73 63.45"/><polygon class="cls-2" points="80.88 67.94 63.48 77.98 63.47 79.27 80.88 69.2 80.88 67.94"/><polygon class="cls-8" points="55.59 73.47 63.48 77.98 63.47 79.27 55.6 74.75 55.59 73.47"/><polygon class="cls-3" points="72.89 63.82 56.03 73.45 63.38 77.63 80.25 68.01 72.89 63.82"/><polygon class="cls-8" points="72.89 63.82 80.25 68.01 79.94 68.19 72.89 64.2 72.89 63.82"/><polygon class="cls-2" points="72.89 63.82 56.06 73.44 56.35 73.61 72.89 64.19 72.89 63.82"/><polygon class="cls-8" points="75.78 76.02 83.83 80.7 83.83 81.11 75.78 76.45 75.78 76.02"/><polygon class="cls-7" points="63.02 83.78 63.36 83.98 63.95 83.63 68.34 86.58 49.38 97.57 40.3 92.33 45.27 89.46 49.23 91.86 63.02 83.78"/><polygon class="cls-8" points="40.3 92.33 49.38 97.57 49.43 98.21 40.4 92.99 40.3 92.33"/><polygon class="cls-2" points="49.38 97.57 68.34 86.58 68.34 87.36 49.43 98.21 49.38 97.57"/><path class="cls-1" d="M115.21,69.52l-5.42,2.87a.85.85,0,0,0,0,1.48l17.08,10a2.79,2.79,0,0,0,2.82,0l10.37-6a2,2,0,0,1,2,0l34.9,20a4.35,4.35,0,0,0,4.33,0l26.84-15.47,7.81-4.54a2,2,0,0,0,.07-3.39L165.27,42.2"/><polygon class="cls-24" points="202.96 80.04 202.96 80.28 202.18 79.73 202.18 79.48 202.96 80.04"/><polygon class="cls-25" points="130.17 76.85 118.63 70.19 118.63 25.17 130.17 31.84 130.17 76.85"/><polygon class="cls-26" points="174.02 51.72 130.17 76.89 130.17 31.88 174.02 6.71 174.02 51.72"/><polygon class="cls-27" points="130.17 80.31 115.21 71.67 118.63 70.09 130.17 76.75 130.17 80.31"/><polygon class="cls-24" points="174.02 6.71 130.17 31.88 118.63 25.17 162.48 0 174.02 6.71"/><polygon class="cls-25" points="178.64 52.16 130.17 80.31 130.17 76.9 174.02 51.73 178.64 52.16"/><path class="cls-26" d="M124.4,23l6.49,3.8L138,22.76,131.48,19Z"/><polygon class="cls-25" points="130.9 26.84 124.4 23.04 124.42 24.66 130.9 28.43 130.9 26.84"/><polygon class="cls-28" points="137.97 22.76 130.9 26.84 130.9 28.43 137.97 24.38 137.97 22.76"/><polygon class="cls-27" points="130.17 58.73 118.63 52.06 118.63 49.55 130.17 56.21 130.17 58.73"/><polygon class="cls-25" points="174.02 33.59 130.17 58.77 130.17 56.25 174.02 31.08 174.02 33.59"/><polygon class="cls-24" points="125.54 75.85 120.95 73.19 120.95 72.38 125.54 75.03 125.54 75.85"/><polygon class="cls-26" points="126.29 74.55 125.54 75.05 120.95 72.38 121.69 71.88 126.29 74.55"/><path class="cls-26" d="M141.06,14.87l5,3,5.5-3.17-5-3Z"/><polygon class="cls-25" points="146.1 17.83 141.06 14.88 141.07 16.14 146.1 19.07 146.1 17.83"/><polygon class="cls-28" points="151.6 14.66 146.1 17.83 146.1 19.07 151.6 15.92 151.6 14.66"/><path class="cls-26" d="M154.75,6.05l6.49,3.8,7.08-4.08L161.83,2Z"/><polygon class="cls-25" points="161.24 9.85 154.75 6.05 154.77 7.67 161.24 11.45 161.24 9.85"/><polygon class="cls-28" points="168.32 5.77 161.24 9.85 161.24 11.45 168.32 7.39 168.32 5.77"/><polygon class="cls-24" points="124.8 77.07 120.21 74.42 120.21 73.6 124.8 76.25 124.8 77.07"/><polygon class="cls-26" points="125.54 75.77 124.8 76.27 120.21 73.6 120.95 73.1 125.54 75.77"/><polygon class="cls-29" points="113.41 45.25 112.25 44.65 112.25 32.6 113.41 33.2 113.41 45.25"/><polygon class="cls-30" points="118.02 42.54 113.41 45.27 113.41 33.22 118.02 30.49 118.02 42.54"/><polygon class="cls-31" points="118.02 30.49 113.41 33.22 112.25 32.6 116.87 29.87 118.02 30.49"/><polygon class="cls-32" points="119.57 31.69 117.16 33.06 117.66 33.35 120.11 32 119.57 31.69"/><polygon class="cls-33" points="120.11 32 117.66 33.35 117.66 33.95 120.11 32.54 120.11 32"/><polygon class="cls-34" points="117.16 33.06 117.66 33.35 117.66 33.95 117.16 33.65 117.16 33.06"/><polygon class="cls-32" points="119.57 38.55 117.16 39.93 117.66 40.22 120.1 38.87 119.57 38.55"/><polygon class="cls-33" points="120.1 38.87 117.66 40.22 117.66 40.81 120.11 39.41 120.1 38.87"/><polygon class="cls-34" points="117.16 39.93 117.66 40.22 117.66 40.81 117.16 40.51 117.16 39.93"/><polygon class="cls-27" points="127.42 75.3 121.11 71.47 121.11 65.29 127.42 69.12 127.42 75.3"/><polygon class="cls-7" points="125.97 70.8 119.37 67 122 64.54 128.6 68.36 125.97 70.8"/><polygon class="cls-24" points="125.97 72.04 119.37 68.24 119.39 67.01 125.99 70.82 125.97 72.04"/><polygon class="cls-26" points="128.6 70.31 125.97 72.03 125.98 70.8 128.6 68.36 128.6 70.31"/><polygon class="cls-27" points="177.84 94.78 141.06 73.38 142.28 69.76 177.84 90.42 177.84 94.78"/><polygon class="cls-25" points="212.79 74.6 177.84 94.78 177.84 90.58 209.41 72.51 212.79 74.6"/><polygon class="cls-35" points="209.41 72.51 177.84 90.49 142.28 69.78 174.02 51.67 209.41 72.51"/><path class="cls-36" d="M175.82,71.88l2.08,1.22,2.27-1.31-2.08-1.22Z"/><polygon class="cls-25" points="177.9 73.1 175.82 71.88 175.79 89.34 177.87 90.56 177.9 73.1"/><polygon class="cls-28" points="180.17 71.79 177.9 73.1 177.87 90.56 180.07 89.29 180.17 71.79"/><path class="cls-36" d="M205.16,55.1l2.08,1.22L209.51,55l-2.08-1.22Z"/><polygon class="cls-25" points="207.25 56.32 205.16 55.1 205.13 72.56 207.21 73.78 207.25 56.32"/><polygon class="cls-28" points="209.51 55.01 207.25 56.32 207.21 73.78 209.41 72.51 209.51 55.01"/><polygon class="cls-27" points="174.07 51.81 142.33 69.93 142.33 54.21 174.07 36.09 174.07 51.81"/><polygon class="cls-24" points="177.84 78.46 142.28 57.8 142.28 42.08 177.84 62.74 177.84 78.46"/><polygon class="cls-26" points="209.58 60.38 177.84 78.5 177.84 62.78 209.58 44.66 209.58 60.38"/><polygon class="cls-2" points="209.58 44.66 177.84 62.78 142.28 42.08 174.02 23.96 209.58 44.66"/><path class="cls-26" d="M149.41,39.44l3.6,2.07,7.08-4.08-3.6-2.08Z"/><polygon class="cls-25" points="153.01 41.51 149.41 39.44 149.42 43.98 153 46.03 153.01 41.51"/><polygon class="cls-28" points="160.09 37.43 153.01 41.51 153 46.03 160.08 41.98 160.09 37.43"/><polygon class="cls-37" points="177.87 90.56 142.33 69.93 142.31 57.04 177.87 77.7 177.87 90.56"/><polygon class="cls-38" points="207.21 73.78 180.07 89.29 180.14 77.28 207.28 61.58 207.21 73.78"/><polygon class="cls-39" points="210.5 75.93 202.96 80.28 199.8 78.1 207.21 73.78 210.5 75.93"/><polygon class="cls-40" points="210.5 75.93 207.22 77.82 207.21 73.78 210.5 75.93 210.5 75.93"/><polygon class="cls-40" points="200.64 78.69 201.27 79.11 204.37 77.49 203.84 77.11 200.64 78.69"/><polygon class="cls-41" points="201.02 78.94 201.65 79.37 205.25 77.45 204.72 77.07 201.02 78.94"/><polygon class="cls-42" points="201.47 79.26 202.18 79.73 206.33 77.44 205.63 76.97 201.47 79.26"/><polygon class="cls-24" points="202.18 79.73 206.56 77.91 206.56 77 202.18 79.53 202.18 79.73"/><polygon class="cls-22" points="202.18 79.52 202.96 80.04 207.27 77.44 206.56 76.97 202.18 79.52"/><polygon class="cls-24" points="202.96 80.31 207.35 77.77 207.35 76.86 202.96 79.31 202.96 80.31"/><polygon class="cls-43" points="202.96 79.31 203.75 79.85 208.05 77.24 207.35 76.76 202.96 79.31"/><polygon class="cls-24" points="203.76 79.85 208.04 77.3 208.04 76.54 203.76 79.01 203.76 79.85"/><polygon class="cls-35" points="203.76 79.01 204.43 79.47 208.71 76.98 208.02 76.51 203.76 79.01"/><polyline class="cls-32" points="209.35 63.89 211.76 65.26 211.26 65.55 208.82 64.2"/><polyline class="cls-33" points="208.82 64.2 211.26 65.55 211.26 66.15 208.81 64.74"/><polygon class="cls-34" points="211.76 65.26 211.26 65.55 211.26 66.14 211.76 65.84 211.76 65.26"/><polygon class="cls-39" points="215.59 70.71 209.99 67.54 209.99 62.82 215.59 66.32 215.59 70.71"/><polygon class="cls-22" points="216.25 70.21 215.59 70.72 215.59 66.33 216.25 65.82 216.25 70.21"/><polygon class="cls-42" points="216.25 65.82 215.59 66.33 209.99 62.82 210.65 62.31 216.25 65.82"/><ellipse class="cls-21" cx="177.74" cy="24.84" rx="14.22" ry="8.21"/><path class="cls-24" d="M173.4,32.53a17.82,17.82,0,0,1-5.71-2c-2.45-1.41-3.81-3.21-4.11-5.05v15c-.37,2.35,1,4.77,4.11,6.56a18.08,18.08,0,0,0,5.71,2Z"/><path class="cls-26" d="M183.65,32.05a23.93,23.93,0,0,1-10.39.39v16.5a24.24,24.24,0,0,0,10.39-.39Z"/><path class="cls-7" d="M192.16,40.81v-16c-.11,2-1.5,4-4.16,5.55a17.47,17.47,0,0,1-4.21,1.68v16.5A17.09,17.09,0,0,0,188,46.87c2.66-1.53,4.05-3.53,4.16-5.55h0A4.34,4.34,0,0,0,192.16,40.81Z"/><ellipse class="cls-44" cx="177.85" cy="19.78" rx="7.84" ry="4.53"/><path class="cls-24" d="M175.46,24a9.72,9.72,0,0,1-3.15-1.11A4.2,4.2,0,0,1,170,20.13v1.73c-.2,1.29.55,2.62,2.27,3.61a9.72,9.72,0,0,0,3.15,1.11Z"/><path class="cls-26" d="M181.1,23.75a13.28,13.28,0,0,1-5.72.22v2.56a13.13,13.13,0,0,0,5.72-.21Z"/><path class="cls-7" d="M185.79,22.06V19.77a4,4,0,0,1-2.29,3.06,9.38,9.38,0,0,1-2.32.93v2.56a9,9,0,0,0,2.32-.92,4,4,0,0,0,2.29-3.06h0A1.31,1.31,0,0,0,185.79,22.06Z"/><polygon class="cls-1" points="87.05 100.8 98.16 107.49 105.11 102.73 94 96.43 87.05 100.8"/><polygon class="cls-1" points="126.76 100.64 115.64 107.33 108.69 102.57 119.81 96.26 126.76 100.64"/><ellipse class="cls-1" cx="107.15" cy="96.31" rx="13.38" ry="8.6"/><path class="cls-45" d="M119.89,89.82l0-.19h0A1.28,1.28,0,0,1,119.89,89.82Z"/><path class="cls-46" d="M116.21,94.79c-4.93,2.84-12.91,2.84-17.83,0a7,7,0,0,1-3.56-4.1l.68,5.4h.1c0,1.71,1.16,3.42,3.42,4.72,4.57,2.64,12,2.64,16.54,0,2.27-1.3,3.41-3,3.42-4.73h0l.77-5.44A7,7,0,0,1,116.21,94.79Z"/><path class="cls-47" d="M94.69,89.63h0v0Z"/><path class="cls-48" d="M120.17,88.26h-.49a7.27,7.27,0,0,0-3.45-3.73c-4.92-2.84-12.9-2.84-17.82,0A7.19,7.19,0,0,0,95,88.26h-.75l.61,2.94h0a7.83,7.83,0,0,0,3.59,3.63c4.92,2.84,12.9,2.84,17.82,0A7.17,7.17,0,0,0,119.71,91"/><ellipse class="cls-9" cx="107.17" cy="88.26" rx="12.95" ry="7.48"/><ellipse class="cls-40" cx="107.25" cy="88.18" rx="11.48" ry="6.54"/><path class="cls-49" d="M115.37,92.8c-4.47,2.4-11.59,2.57-16.24,0-5.35-3-2.74-7.31.85-9.12a18.86,18.86,0,0,1,15.42.16C120.07,85.92,119.54,90.55,115.37,92.8Z"/><path class="cls-50" d="M113.19,90.71c3-1.61,1.81-4.07-.14-5.26l.08,0c2.15,1.09,3.75,3.75.51,5.47-2.7,1.43-7.11,1.54-9.73,0l0,0A11.31,11.31,0,0,0,113.19,90.71Z"/><path class="cls-51" d="M104.64,87a5.71,5.71,0,0,1,4.67-.74,2.56,2.56,0,0,1,1,.67,2.5,2.5,0,0,0-.93-.55,5.44,5.44,0,0,0-4.5.71c-1.28.82-1,2.09.41,2.67a4.1,4.1,0,0,0,1.78.27,4.48,4.48,0,0,1-2.06-.27C103.61,89.19,103.33,87.88,104.64,87Z"/><path class="cls-52" d="M100.68,84.69a13.3,13.3,0,0,1,12,0c.24.15.47.29.68.45a6.51,6.51,0,0,0-1.18-.85,13.3,13.3,0,0,0-12,0c-3.07,1.77-3.3,4.57-.68,6.5C97.42,88.89,97.81,86.35,100.68,84.69Z"/><path class="cls-53" d="M108.47,88.57V81.06H106V88.6c0,.15.07.3.35.42a2.79,2.79,0,0,0,1.76,0C108.44,88.89,108.56,88.72,108.47,88.57Z"/><path class="cls-54" d="M110.07,82.55v-.06h0Z"/><path class="cls-55" d="M110,82.8a2,2,0,0,1-.79,1.23,3.41,3.41,0,0,1-4,0,2,2,0,0,1-.79-1.22c0,.23.08.48.14.74a3.81,3.81,0,0,0,.14.44,1.66,1.66,0,0,0,.15.33,2.17,2.17,0,0,0,.21.32,3.15,3.15,0,0,0,.37.38,2.87,2.87,0,0,0,3.6.06,2.84,2.84,0,0,0,.83-1.51"/><polygon class="cls-56" points="104.46 82.49 104.46 82.49 104.46 82.5 104.46 82.49"/><path class="cls-57" d="M110.13,82.08H110a2.07,2.07,0,0,0-.77-1.11,3.39,3.39,0,0,0-4,0,2.07,2.07,0,0,0-.77,1.11h-.17l.14.88h0a2.17,2.17,0,0,0,.8,1.09,3.39,3.39,0,0,0,4,0A2.09,2.09,0,0,0,110,82.9"/><ellipse class="cls-9" cx="107.24" cy="82.09" rx="2.88" ry="2.23"/><ellipse class="cls-40" cx="107.25" cy="82.06" rx="2.56" ry="1.95"/><path class="cls-58" d="M103.05,81.32c0,.59-.22,1.62-.23,2.29"/><path class="cls-59" d="M112.06,84.5c-.15-1-.36-2.17-.5-3"/><path class="cls-60" d="M111.86,80.34v-.07h0A.15.15,0,0,1,111.86,80.34Z"/><path class="cls-61" d="M111.82,80.65a2.49,2.49,0,0,1-1.32,1.52,7.25,7.25,0,0,1-6.57,0,2.54,2.54,0,0,1-1.32-1.51c.06.28.14.59.24.92a4.38,4.38,0,0,0,.23.54,2.14,2.14,0,0,0,.25.41,2.35,2.35,0,0,0,.35.39,4.09,4.09,0,0,0,.61.47,6.08,6.08,0,0,0,6,.08,3.32,3.32,0,0,0,1.38-1.87"/><polygon class="cls-62" points="102.57 80.27 102.56 80.27 102.57 80.28 102.57 80.27"/><path class="cls-63" d="M112,79.77h-.18a2.69,2.69,0,0,0-1.28-1.38,7.25,7.25,0,0,0-6.57,0,2.69,2.69,0,0,0-1.28,1.38h-.27l.23,1.08h0a2.86,2.86,0,0,0,1.32,1.34,7.25,7.25,0,0,0,6.57,0,2.63,2.63,0,0,0,1.29-1.41"/><ellipse class="cls-9" cx="107.17" cy="79.77" rx="4.78" ry="2.76"/><ellipse class="cls-40" cx="107.2" cy="79.74" rx="4.24" ry="2.41"/><path class="cls-49" d="M110.19,81.44a6.84,6.84,0,0,1-6,0c-2-1-1-2.69.32-3.36a6.92,6.92,0,0,1,5.69.06C111.93,78.9,111.82,80.49,110.19,81.44Z"/><path class="cls-64" d="M109.36,80.76a1.16,1.16,0,0,0,0-2.19,3.43,3.43,0,0,0-1.39-.42,3.68,3.68,0,0,1,1.55.44,1.15,1.15,0,0,1,0,2.18,4.05,4.05,0,0,1-2.39.43A4,4,0,0,0,109.36,80.76Z"/><path class="cls-65" d="M103.89,79.23a3.33,3.33,0,0,1,3-1.32l.23,0a1.56,1.56,0,0,0-.4-.1,3.3,3.3,0,0,0-3,1.31,1.09,1.09,0,0,0,.6,1.83A1.08,1.08,0,0,1,103.89,79.23Z"/><path class="cls-66" d="M105,78.9a5.15,5.15,0,0,1,4.63-.38c1.19.56,1.4,1.57.58,2.38,1-.83.89-2-.38-2.55a5.11,5.11,0,0,0-4.64.38,2.17,2.17,0,0,0-.36.29Z"/><path class="cls-67" d="M107.17,79.77c-3.12-3.78-4.31-2.94-4.82-2.5s-.79,3.27.14,9.65"/><path class="cls-68" d="M107.17,79.77c-2.29-2.11-3.36-1.26-3.83-1.09-1.94.7-2.66,4.37-1,10.43"/><path class="cls-69" d="M107.26,79.82c1.77-3,3.15-3.43,3.95-3.3,1.06.17,3.72,1.27,1.91,9.51"/><path class="cls-70" d="M107.61,80.05A4.09,4.09,0,0,1,111.38,78c1.59.37,1,2.63.82,11"/><path class="cls-71" d="M107.2,80.26a1.62,1.62,0,0,0-1.91,0C104,80.91,103,83,104.75,90"/><path class="cls-72" d="M110.66,90.06c.48-7.66-.27-10.08-.85-10.53a1.63,1.63,0,0,0-2.2.52"/><path class="cls-73" d="M107.89,91.25a18,18,0,0,0,.45-11.14c-.48-.61-.75-.12-.94.22"/><path class="cls-74" d="M110.73,77.68c-.31-1.12-.67-1.29-1.2-1.43-1.67-.44-1.64,1.83-2.08,3.19"/><path class="cls-75" d="M107.13,79.51c-.64-1.15-1.36-3.8-2.38-3.84s-1.06.45-1.31,2.19"/><path class="cls-76" d="M108.35,80.52c.44-.26.44-.67,0-.92a1.41,1.41,0,0,0-.59-.18,1.59,1.59,0,0,1,.66.19.48.48,0,0,1,0,.91,1.72,1.72,0,0,1-1,.18A1.63,1.63,0,0,0,108.35,80.52Z"/><polygon class="cls-77" points="122.78 98.06 122.78 101.02 123.29 101.32 123.29 98.36 122.78 98.06"/><polygon class="cls-78" points="123.81 98.06 123.29 98.36 123.29 101.32 123.81 101.02 123.81 98.06"/><polygon class="cls-77" points="119.07 96.11 119.07 99.07 119.58 99.37 119.58 96.4 119.07 96.11"/><polygon class="cls-78" points="120.09 96.11 119.58 96.4 119.58 99.37 120.09 99.07 120.09 96.11"/><polygon class="cls-77" points="115.78 102.16 115.78 105.13 116.29 105.42 116.29 102.46 115.78 102.16"/><polygon class="cls-78" points="116.81 102.16 116.29 102.46 116.29 105.42 116.81 105.13 116.81 102.16"/><polygon class="cls-77" points="112.07 100.21 112.07 103.17 112.58 103.47 112.58 100.51 112.07 100.21"/><polygon class="cls-78" points="113.09 100.21 112.58 100.51 112.58 103.47 113.09 103.17 113.09 100.21"/><polygon class="cls-79" points="111.5 99.42 119.41 94.84 120.85 95.67 112.94 100.25 111.5 99.42"/><polygon class="cls-80" points="111.5 99.42 111.5 100.24 112.94 101.08 112.94 100.25 111.5 99.42"/><polygon class="cls-81" points="120.85 95.67 112.94 100.25 112.94 101.08 120.85 96.51 120.85 95.67"/><polygon class="cls-79" points="113.05 100.34 120.96 95.77 122.4 96.6 114.49 101.17 113.05 100.34"/><polygon class="cls-80" points="113.05 100.34 113.05 101.17 114.49 102 114.49 101.17 113.05 100.34"/><polygon class="cls-81" points="122.4 96.6 114.49 101.17 114.49 102 122.4 97.43 122.4 96.6"/><polygon class="cls-79" points="114.64 101.27 122.56 96.7 123.99 97.53 116.08 102.1 114.64 101.27"/><polygon class="cls-80" points="114.64 101.27 114.64 102.1 116.08 102.93 116.08 102.1 114.64 101.27"/><polygon class="cls-81" points="123.99 97.53 116.08 102.1 116.08 102.93 124 98.36 123.99 97.53"/><polygon class="cls-77" points="91.24 97.86 91.25 100.82 90.73 101.11 90.73 98.15 91.24 97.86"/><polygon class="cls-78" points="90.22 97.86 90.73 98.15 90.73 101.11 90.22 100.82 90.22 97.86"/><polygon class="cls-77" points="94.96 95.9 94.96 98.86 94.44 99.16 94.44 96.2 94.96 95.9"/><polygon class="cls-78" points="93.93 95.9 94.44 96.2 94.44 99.16 93.93 98.86 93.93 95.9"/><polygon class="cls-77" points="98.24 101.96 98.24 104.92 97.73 105.22 97.73 102.25 98.24 101.96"/><polygon class="cls-78" points="97.22 101.96 97.73 102.25 97.73 105.22 97.22 104.92 97.22 101.96"/><polygon class="cls-77" points="101.96 100.01 101.96 102.97 101.44 103.27 101.44 100.3 101.96 100.01"/><polygon class="cls-78" points="100.93 100.01 101.44 100.3 101.44 103.27 100.93 102.97 100.93 100.01"/><polygon class="cls-79" points="102.53 99.21 94.61 94.64 93.18 95.47 101.09 100.04 102.53 99.21"/><polygon class="cls-80" points="102.53 99.21 102.53 100.04 101.09 100.87 101.09 100.04 102.53 99.21"/><polygon class="cls-81" points="93.18 95.47 101.09 100.04 101.09 100.87 93.17 96.3 93.18 95.47"/><polygon class="cls-79" points="100.97 100.13 93.06 95.56 91.62 96.39 99.53 100.96 100.97 100.13"/><polygon class="cls-80" points="100.97 100.13 100.97 100.96 99.53 101.79 99.53 100.96 100.97 100.13"/><polygon class="cls-81" points="91.62 96.39 99.53 100.96 99.53 101.79 91.62 97.22 91.62 96.39"/><polygon class="cls-79" points="99.38 101.06 91.47 96.49 90.03 97.32 97.94 101.89 99.38 101.06"/><polygon class="cls-80" points="99.38 101.06 99.38 101.89 97.94 102.72 97.94 101.89 99.38 101.06"/><polygon class="cls-81" points="90.03 97.32 97.94 101.89 97.94 102.72 90.03 98.15 90.03 97.32"/></g></g></svg>