<svg id="Layer_1" data-name="Layer 1" xmlns="http://www.w3.org/2000/svg" viewBox="0 0 381.89 385.61"><defs><style>.cls-1{fill:#a7a9ac;stroke:#a7a9ac;stroke-miterlimit:10;}.cls-2{fill:#d1d3d4;}.cls-3{fill:#b4b4b4;}.cls-4{fill:#818181;}.cls-5{fill:#ccc;}.cls-6{fill:#e6e6e5;}.cls-7{fill:#989898;}.cls-8{fill:#412312;}</style></defs><title>coffeechat</title><ellipse class="cls-1" cx="190.95" cy="192.8" rx="190.45" ry="192.3"/><ellipse class="cls-2" cx="190.95" cy="192.8" rx="146.11" ry="147.53"/><g id="Layer_1-2" data-name="Layer 1-2"><path class="cls-3" d="M370.29,297.62s3.32-3.6,15.44-3.6c23.86,0,45.95,28.14-26.05,91.43L363.55,364s48.68-46.52,22.82-54c-3.3-.95-8.25.14-12.34,2.63-1.94,1.24-2.27,1.47-5.11,3.15" transform="translate(-115.05 -152.36)"/><ellipse class="cls-4" cx="188.83" cy="273.7" rx="61.5" ry="35.79"/><path class="cls-5" d="M235,290.32s1.78,88,22.65,144.94a10,10,0,0,0,5.14,5.62c11.35,5.26,46.89,18.66,82.48.26a9.8,9.8,0,0,0,4.94-6.33c3.79-15.06,16.32-69.43,20.49-144.49" transform="translate(-115.05 -152.36)"/><ellipse class="cls-6" cx="187.8" cy="136.72" rx="67.87" ry="39.49"/><ellipse class="cls-7" cx="189.03" cy="136.1" rx="60.47" ry="32.7"/><path class="cls-8" d="M244.51,294c4.93,15.41,29.69,27.15,59.58,27.15s54.7-11.74,59.57-27.15c.14.41.25.83.36,1.23-3.9-16-29.23-28.38-59.93-28.38s-56,12.34-59.94,28.38C244.26,294.85,244.37,294.44,244.51,294Z" transform="translate(-115.05 -152.36)"/><path class="cls-3" d="M302.85,359.84c-31.19,0-57.45-12.34-65.4-29,2.74,30.49,8.43,72.34,20.18,104.4a10,10,0,0,0,5.14,5.62c11.35,5.26,46.89,18.66,82.48.26a9.77,9.77,0,0,0,4.94-6.33c3-12.06,11.67-49.36,17.14-102.23C358.5,348.38,333,359.84,302.85,359.84Z" transform="translate(-115.05 -152.36)"/><path class="cls-3" d="M306.89,214.23l-7.68,19.49a22.67,22.67,0,0,0-.06,15.37l4.63,11.61c1.59,3.9,1.23,8.28.71,13.64l-.81,9.87L310,267.67c2.74-7.21,3.7-14.73,1.06-21l-4-9.67a25.28,25.28,0,0,1-1.75-7.77,21.87,21.87,0,0,1,.15-4.43Z" transform="translate(-115.05 -152.36)"/></g></svg>