<?xml version="1.0" encoding="utf-8"?>
<!-- Generator: Adobe Illustrator 23.1.1, SVG Export Plug-In . SVG Version: 6.00 Build 0)  -->
<svg version="1.1" id="Layer_1" xmlns="http://www.w3.org/2000/svg" xmlns:xlink="http://www.w3.org/1999/xlink" x="0px" y="0px"
	 viewBox="0 0 612 792" style="enable-background:new 0 0 612 792;" xml:space="preserve">
<style type="text/css">
	.st0{fill:#A7A9AC;stroke:#A7A9AC;stroke-miterlimit:10;}
	.st1{fill:#D1D3D4;}
	.st2{fill:#AFE1F6;}
	.st3{fill:#F59598;}
</style>
<g>
	<ellipse class="st0" cx="306" cy="345.17" rx="190.45" ry="192.3"/>
	<ellipse class="st1" cx="306" cy="345.17" rx="146.11" ry="147.53"/>
</g>
<g>
	<g>
		<g id="Layer_1-2_1_">
			<ellipse class="st2" cx="306" cy="429.66" rx="74.68" ry="32.03"/>
			<path class="st3" d="M305.36,228.64c-32.13,0.03-58.17,26.08-58.17,58.22c0,32.13,58.17,142.81,58.17,142.81
				s58.22-110.68,58.22-142.81C363.57,254.7,337.51,228.64,305.36,228.64C305.36,228.64,305.36,228.64,305.36,228.64z
				 M305.36,316.16c-15.28-0.03-27.65-12.44-27.62-27.72c0.03-15.28,12.44-27.65,27.72-27.62c15.26,0.03,27.62,12.41,27.62,27.67
				c0,15.28-12.39,27.67-27.67,27.67C305.39,316.16,305.37,316.16,305.36,316.16z"/>
		</g>
	</g>
</g>
</svg>
