<svg id="Layer_1" data-name="Layer 1" xmlns="http://www.w3.org/2000/svg" viewBox="0 0 381.89 385.61"><defs><style>.cls-1{fill:#a7a9ac;stroke:#a7a9ac;stroke-miterlimit:10;}.cls-2{fill:#d1d3d4;}.cls-3{fill:#1c1c1c;}.cls-4{fill:#3a3b3a;}.cls-5{fill:#212121;}.cls-6{fill:#111;}.cls-7{fill:#2d2e2d;}.cls-8{fill:#fff;}.cls-9{fill:#4d4d4d;}</style></defs><title>minievents</title><ellipse class="cls-1" cx="190.95" cy="192.8" rx="190.45" ry="192.3"/><ellipse class="cls-2" cx="190.95" cy="192.8" rx="146.11" ry="147.53"/><polygon class="cls-3" points="127.34 295.2 187.14 329.81 187.14 124.91 127.34 90.41 127.34 295.2"/><polygon class="cls-4" points="136.14 103.81 177.44 127.61 177.44 171.81 136.14 148 136.14 103.81"/><polygon class="cls-5" points="156.74 120.81 173.94 130.81 173.94 143 156.74 133.1 156.74 120.81"/><polygon class="cls-6" points="246.94 295.2 187.14 329.81 187.14 124.91 246.94 90.41 246.94 295.2"/><polygon class="cls-3" points="219.84 185.71 219.84 238.41 194.94 252.81 194.94 200.1 219.84 185.71"/><polygon class="cls-4" points="216.84 191.1 216.84 236.41 197.94 247.41 197.94 202 216.84 191.1"/><polygon class="cls-7" points="187.14 124.91 246.94 90.41 187.14 55.8 127.34 90.41 187.14 124.91"/><polygon class="cls-6" points="139.54 146 139.54 110.91 156.74 120.81 156.74 133.1 139.54 146"/><polygon class="cls-7" points="139.54 146 156.74 133.1 173.94 143 173.94 165.91 139.54 146"/><path class="cls-8" d="M248.29,343.27c0,17.3,10.5,37.4,23.5,44.9s23.5-.5,23.5-17.8-10.5-37.4-23.5-44.9S248.29,326,248.29,343.27Z" transform="translate(-115.05 -152.36)"/><path class="cls-9" d="M250.89,344.47c0,15.8,9.6,34.2,21.5,41.1s21.5-.4,21.5-16.3-9.6-34.2-21.5-41.1S250.89,328.57,250.89,344.47Z" transform="translate(-115.05 -152.36)"/><path class="cls-7" d="M269.79,349.17c0,5.8,3.5,12.5,7.8,15s7.8-.2,7.8-5.9-3.5-12.5-7.8-15S269.79,343.47,269.79,349.17Z" transform="translate(-115.05 -152.36)"/><path class="cls-3" d="M271.79,351c0,3.6,2.2,7.8,4.9,9.3s4.9-.1,4.9-3.7-2.2-7.8-4.9-9.3S271.79,347.37,271.79,351Z" transform="translate(-115.05 -152.36)"/><path class="cls-6" d="M290.49,335.07c0,2.4,1.5,5.3,3.3,6.3s3.3-.1,3.3-2.5-1.5-5.3-3.3-6.3S290.49,332.57,290.49,335.07Z" transform="translate(-115.05 -152.36)"/><path class="cls-6" d="M246.59,309.47c0,2.4,1.5,5.3,3.3,6.3s3.3-.1,3.3-2.5-1.5-5.3-3.3-6.3S246.59,307.07,246.59,309.47Z" transform="translate(-115.05 -152.36)"/><path class="cls-8" d="M248.29,412.07c0,17.3,10.5,37.4,23.5,44.9s23.5-.5,23.5-17.8-10.5-37.4-23.5-44.9S248.29,394.77,248.29,412.07Z" transform="translate(-115.05 -152.36)"/><path class="cls-9" d="M250.89,413.17c0,15.8,9.6,34.2,21.5,41.1s21.5-.4,21.5-16.3-9.6-34.2-21.5-41.1S250.89,397.37,250.89,413.17Z" transform="translate(-115.05 -152.36)"/><path class="cls-7" d="M269.79,418c0,5.8,3.5,12.5,7.8,15s7.8-.2,7.8-5.9-3.5-12.5-7.8-15S269.79,412.17,269.79,418Z" transform="translate(-115.05 -152.36)"/><path class="cls-3" d="M271.79,419.67c0,3.6,2.2,7.8,4.9,9.3s4.9-.1,4.9-3.7-2.2-7.8-4.9-9.3S271.79,416.07,271.79,419.67Z" transform="translate(-115.05 -152.36)"/><path class="cls-6" d="M290.49,403.77c0,2.4,1.5,5.3,3.3,6.3s3.3-.1,3.3-2.5-1.5-5.3-3.3-6.3S290.49,401.37,290.49,403.77Z" transform="translate(-115.05 -152.36)"/><path class="cls-6" d="M246.59,378.27c0,2.4,1.5,5.3,3.3,6.3s3.3-.1,3.3-2.5-1.5-5.3-3.3-6.3S246.59,375.87,246.59,378.27Z" transform="translate(-115.05 -152.36)"/><path class="cls-6" d="M290.49,464.57c0,2.4,1.5,5.3,3.3,6.3s3.3-.1,3.3-2.5-1.5-5.3-3.3-6.3S290.49,462.17,290.49,464.57Z" transform="translate(-115.05 -152.36)"/><path class="cls-6" d="M246.59,439.07c0,2.4,1.5,5.3,3.3,6.3s3.3-.1,3.3-2.5-1.5-5.3-3.3-6.3S246.59,436.57,246.59,439.07Z" transform="translate(-115.05 -152.36)"/></svg>