<svg id="Layer_1" data-name="Layer 1" xmlns="http://www.w3.org/2000/svg" xmlns:xlink="http://www.w3.org/1999/xlink" viewBox="0 0 381.89 385.61"><defs><style>.cls-1{fill:#a7a9ac;stroke:#a7a9ac;}.cls-1,.cls-14,.cls-15{stroke-miterlimit:10;}.cls-2{fill:#d1d3d4;}.cls-3{fill:#292562;}.cls-4{fill:#939598;}.cls-5{fill:#818285;}.cls-6{fill:#595a5c;}.cls-7{fill:url(#linear-gradient);}.cls-8{fill:#f2f2f2;}.cls-9{fill:url(#linear-gradient-2);}.cls-10{fill:url(#linear-gradient-3);}.cls-11{fill:url(#linear-gradient-4);}.cls-12{fill:url(#linear-gradient-5);}.cls-13{fill:url(#linear-gradient-6);}.cls-14,.cls-15{fill:none;stroke:#2e3192;}.cls-14{stroke-width:6px;}.cls-15{stroke-width:5px;}</style><linearGradient id="linear-gradient" x1="288.22" y1="1155.47" x2="332.15" y2="1155.47" gradientTransform="matrix(1, 0, 0, -1, -115.05, 1431.64)" gradientUnits="userSpaceOnUse"><stop offset="0.02" stop-color="#6e6f72"/><stop offset="0.11" stop-color="#85878a"/><stop offset="0.22" stop-color="#9c9ea1"/><stop offset="0.33" stop-color="#aeb1b2"/><stop offset="0.44" stop-color="#b9babc"/><stop offset="0.53" stop-color="#bdbec0"/><stop offset="0.62" stop-color="#b9bbbd"/><stop offset="0.72" stop-color="#b0b1b4"/><stop offset="0.81" stop-color="#9ea0a3"/><stop offset="0.9" stop-color="#8a8b8e"/><stop offset="0.99" stop-color="#707174"/><stop offset="1" stop-color="#6e6f72"/></linearGradient><linearGradient id="linear-gradient-2" x1="248.36" y1="1334.65" x2="359.64" y2="1334.65" gradientTransform="matrix(1, 0, 0, -1, -115.05, 1431.64)" gradientUnits="userSpaceOnUse"><stop offset="0.02" stop-color="#a8aaad"/><stop offset="1" stop-color="#595a5c"/></linearGradient><linearGradient id="linear-gradient-3" x1="248.36" y1="1221.41" x2="252.75" y2="1221.41" xlink:href="#linear-gradient-2"/><linearGradient id="linear-gradient-4" x1="243.02" y1="1141.8" x2="243.02" y2="1312.03" xlink:href="#linear-gradient-2"/><linearGradient id="linear-gradient-5" x1="239.54" y1="1339.91" x2="353.15" y2="1339.91" gradientTransform="matrix(1, 0, 0, -1, 0, 1584)" xlink:href="#linear-gradient-2"/><linearGradient id="linear-gradient-6" x1="282.86" y1="1141.23" x2="288.22" y2="1141.23" gradientTransform="matrix(1, 0, 0, -1, 0, 1584)" gradientUnits="userSpaceOnUse"><stop offset="0.02" stop-color="#424143"/><stop offset="0.41" stop-color="#444345"/><stop offset="0.58" stop-color="#4b4b4c"/><stop offset="0.71" stop-color="#565659"/><stop offset="0.81" stop-color="#656668"/><stop offset="0.87" stop-color="#6e6f72"/></linearGradient></defs><title>socialmedia</title><ellipse class="cls-1" cx="190.95" cy="192.8" rx="190.45" ry="192.3"/><ellipse class="cls-2" cx="190.95" cy="192.8" rx="146.11" ry="147.53"/><g id="decors"><polygon class="cls-3" points="238.07 62.86 131.45 124.37 131.47 289.83 238.1 229.07 238.07 62.86"/><path class="cls-4" d="M262.19,454.71s61.81-39.29,64.92-37.49l32.52,18.71-65,37.52Z" transform="translate(-115.05 -152.36)"/><polygon class="cls-5" points="244.59 283.58 244.59 288.89 179.79 326.49 179.6 321.1 244.59 283.58"/><polygon class="cls-6" points="147.13 302.35 179.6 321.1 179.79 326.49 147.33 307.84 147.13 302.35"/><polygon class="cls-7" points="173.16 270.1 216.95 244.84 217.1 282.12 173.16 307.49 173.16 270.1"/><polygon class="cls-3" points="244.59 67.54 137.7 129.21 137.7 293.77 244.59 232.12 244.59 67.54"/><polygon class="cls-8" points="239.84 77.59 142.45 133.77 142.45 283.73 239.84 227.55 239.84 77.59"/><polygon class="cls-9" points="137.7 129.2 133.31 126.67 239.72 64.77 244.59 67.54 137.7 129.2"/><polygon class="cls-10" points="133.31 126.67 137.7 129.2 137.7 293.77 133.31 291.23 133.31 126.67"/><polygon class="cls-11" points="131.45 124.37 124.45 119.6 124.45 285.44 131.47 289.83 131.45 124.37"/><path class="cls-12" d="M239.54,271.92c1.47-.4,107.21-60.43,107.21-60.43l6.4,3.7-106.62,61.5Z" transform="translate(-115.05 -152.36)"/><path class="cls-13" d="M288.22,459.86a10.3,10.3,0,0,1-5.36-3.21V428.77l5.36-3.09Z" transform="translate(-115.05 -152.36)"/></g><line class="cls-14" x1="185.78" y1="139.01" x2="185.78" y2="216.3"/><line class="cls-15" x1="207.19" y1="133.87" x2="207.19" y2="209.08"/><line class="cls-14" x1="232.42" y1="149.94" x2="159.29" y2="174.94"/><line class="cls-14" x1="232.51" y1="168.42" x2="159.2" y2="192.9"/></svg>