<svg id="Layer_1" data-name="Layer 1" xmlns="http://www.w3.org/2000/svg" xmlns:xlink="http://www.w3.org/1999/xlink" viewBox="0 0 381.89 385.61"><defs><style>.cls-1{fill:none;}.cls-2{fill:#a7a9ac;stroke:#a7a9ac;stroke-miterlimit:10;}.cls-3{fill:#d1d3d4;}.cls-4{clip-path:url(#clip-path);}.cls-5{isolation:isolate;}.cls-6{clip-path:url(#clip-path-3);}.cls-7{clip-path:url(#clip-path-4);}.cls-8{clip-path:url(#clip-path-5);}.cls-9{fill:#414d5f;}.cls-10{fill:#414c5f;}.cls-11{fill:#414b5e;}.cls-12{fill:#404b5e;}.cls-13{fill:#404a5e;}.cls-14{fill:#404b5d;}.cls-15{fill:#3f4a5d;}.cls-16{fill:#3f495c;}.cls-17{fill:#3f495b;}.cls-18{fill:#3f485b;}.cls-19{fill:#3e485b;}.cls-20{fill:#3e485a;}.cls-21{fill:#3e475a;}.cls-22{fill:#3d4759;}.cls-23{fill:#3d4659;}.cls-24{fill:#3d4658;}.cls-25{fill:#3c4658;}.cls-26{fill:#3c4757;}.cls-27{fill:#3c4557;}.cls-28{fill:#3b4557;}.cls-29{fill:#3b4556;}.cls-30{fill:#3b4456;}.cls-31{fill:#3b4455;}.cls-32{fill:#3a4455;}.cls-33{fill:#3a4355;}.cls-34{fill:#3a4354;}.cls-35{fill:#394254;}.cls-36{fill:#394253;}.cls-37{fill:#384152;}.cls-38{fill:#384051;}.cls-39{fill:#374051;}.cls-40{fill:#364051;}.cls-41{fill:#363f50;}.cls-42{fill:#353f50;}.cls-43{fill:#353e4e;}.cls-44{fill:#343e4e;}.cls-45{fill:#343d4d;}.cls-46{clip-path:url(#clip-path-7);}.cls-47{clip-path:url(#clip-path-8);}.cls-48{fill:#282f3b;}.cls-49{fill:#29303c;}.cls-50{fill:#465166;}.cls-51{clip-path:url(#clip-path-10);}.cls-52{clip-path:url(#clip-path-11);}.cls-53{fill:#282f3c;}.cls-54{fill:#28303c;}.cls-55{fill:#29303d;}.cls-56{fill:#29313d;}.cls-57{fill:#2a313e;}.cls-58{fill:#2a323e;}.cls-59{fill:#2a323f;}.cls-60{fill:#2b323f;}.cls-61{fill:#2b3340;}.cls-62{fill:#2c3341;}.cls-63{fill:#2c3441;}.cls-64{fill:#2c3442;}.cls-65{fill:#2d3442;}.cls-66{fill:#2d3542;}.cls-67{fill:#2d3543;}.cls-68{fill:#2e3643;}.cls-69{fill:#2e3644;}.cls-70{fill:#2e3745;}.cls-71{fill:#2f3745;}.cls-72{fill:#2f3746;}.cls-73{fill:#2f3846;}.cls-74{fill:#303947;}.cls-75{fill:#303a47;}.cls-76{fill:#303948;}.cls-77{fill:#313948;}.cls-78{fill:#313a49;}.cls-79{fill:#323a49;}.cls-80{fill:#323b4a;}.cls-81{fill:#323b4b;}.cls-82{fill:#333c4b;}.cls-83{fill:#333c4c;}.cls-84{fill:#333d4c;}.cls-85{fill:#343d4c;}.cls-86{clip-path:url(#clip-path-13);}.cls-87{fill:#455165;}.cls-88{fill:#c6c6c5;}.cls-89{fill:#7c7c7c;}.cls-90{fill:#b3b3b3;}.cls-91{clip-path:url(#clip-path-14);}.cls-92{clip-path:url(#clip-path-15);}.cls-93{clip-path:url(#clip-path-16);}.cls-94{clip-path:url(#clip-path-18);}.cls-95{clip-path:url(#clip-path-19);}.cls-96{clip-path:url(#clip-path-21);}.cls-97{clip-path:url(#clip-path-22);}.cls-98{fill:#2089b5;}.cls-99{fill:#2085b0;}.cls-100{fill:#2082ac;}.cls-101{fill:#1f7fa7;}.cls-102{fill:#1f7ba3;}.cls-103{fill:#1d789f;}.cls-104{fill:#1b749b;}.cls-105{fill:#1c7195;}.cls-106{fill:#1b6d92;}.cls-107{fill:#1c6a8c;}.cls-108{clip-path:url(#clip-path-24);}.cls-109{clip-path:url(#clip-path-25);}.cls-110{clip-path:url(#clip-path-27);}.cls-111{clip-path:url(#clip-path-28);}.cls-112{clip-path:url(#clip-path-29);}.cls-113{fill:#155977;}.cls-114{fill:#165d7a;}.cls-115{fill:#196080;}.cls-116{fill:#196384;}.cls-117{fill:#1b6889;}.cls-118{fill:#2184af;}.cls-119{clip-path:url(#clip-path-30);}.cls-120{clip-path:url(#clip-path-31);}.cls-121{clip-path:url(#clip-path-33);}.cls-122{clip-path:url(#clip-path-34);}.cls-123{clip-path:url(#clip-path-35);}.cls-124{clip-path:url(#clip-path-37);}</style><clipPath id="clip-path" transform="translate(-115.05 -152.36)"><rect class="cls-1" x="129.83" y="176.61" width="337.12" height="337.12"/></clipPath><clipPath id="clip-path-3" transform="translate(-115.05 -152.36)"><rect class="cls-1" x="218.67" y="249.63" width="169.62" height="194.52"/></clipPath><clipPath id="clip-path-4" transform="translate(-115.05 -152.36)"><rect class="cls-1" x="352.58" y="249.63" width="33.78" height="18.05"/></clipPath><clipPath id="clip-path-5" transform="translate(-115.05 -152.36)"><path class="cls-1" d="M356.66,250l29.7,17.25a4.06,4.06,0,0,0-4.08.4l-29.7-17.26c1.59-.92,3-1,4.08-.39"/></clipPath><clipPath id="clip-path-7" transform="translate(-115.05 -152.36)"><rect class="cls-1" x="218.92" y="422.82" width="31.37" height="20.94"/></clipPath><clipPath id="clip-path-8" transform="translate(-115.05 -152.36)"><path class="cls-1" d="M250.29,443.76l-29.7-17.26a4,4,0,0,1-1.67-3.68l29.7,17.26a4,4,0,0,0,1.67,3.68"/></clipPath><clipPath id="clip-path-10" transform="translate(-115.05 -152.36)"><rect class="cls-1" x="218.67" y="324.42" width="35.42" height="27.17"/></clipPath><clipPath id="clip-path-11" transform="translate(-115.05 -152.36)"><path class="cls-1" d="M248.37,351.59l-29.7-17.26a12.61,12.61,0,0,1,5.72-9.91l29.7,17.26a12.61,12.61,0,0,0-5.72,9.91"/></clipPath><clipPath id="clip-path-13" transform="translate(-115.05 -152.36)"><rect class="cls-1" x="281.25" y="264.28" width="44.45" height="46.55"/></clipPath><clipPath id="clip-path-14" transform="translate(-115.05 -152.36)"><rect class="cls-1" x="291.06" y="312.31" width="71.63" height="79.55"/></clipPath><clipPath id="clip-path-15" transform="translate(-115.05 -152.36)"><rect class="cls-1" x="318.05" y="317.04" width="42.25" height="68.38"/></clipPath><clipPath id="clip-path-16" transform="translate(-115.05 -152.36)"><path class="cls-1" d="M335.32,317l17.82,10.36c4.4,2.56,7.14,8,7.16,15.71,0,15.53-10.92,34.51-24.43,42.31l-17.82-10.35c13.51-7.8,24.47-26.79,24.43-42.32,0-7.72-2.76-13.15-7.16-15.71"/></clipPath><clipPath id="clip-path-18" transform="translate(-115.05 -152.36)"><rect class="cls-1" x="300.61" y="375.07" width="35.25" height="13.71"/></clipPath><clipPath id="clip-path-19" transform="translate(-115.05 -152.36)"><path class="cls-1" d="M318.43,387.12l-17.82-10.36c4.46,2.59,10.64,2.24,17.44-1.69l17.82,10.35c-6.8,3.93-13,4.29-17.44,1.7"/></clipPath><clipPath id="clip-path-21" transform="translate(-115.05 -152.36)"><rect class="cls-1" x="317.89" y="315.38" width="35.25" height="13.71"/></clipPath><clipPath id="clip-path-22" transform="translate(-115.05 -152.36)"><path class="cls-1" d="M317.89,318.73c6.8-3.92,13-4.28,17.43-1.69l17.82,10.36c-4.46-2.59-10.63-2.24-17.43,1.69l-17.82-10.36"/></clipPath><clipPath id="clip-path-24" transform="translate(-115.05 -152.36)"><rect class="cls-1" x="317.88" y="312.31" width="36.96" height="14.04"/></clipPath><clipPath id="clip-path-25" transform="translate(-115.05 -152.36)"><path class="cls-1" d="M337,314.13l17.82,10.35c-4.9-2.84-11.67-2.45-19.14,1.86L317.88,316c7.47-4.31,14.24-4.71,19.14-1.86"/></clipPath><clipPath id="clip-path-27" transform="translate(-115.05 -152.36)"><rect class="cls-1" x="293.45" y="318.73" width="42.25" height="68.38"/></clipPath><clipPath id="clip-path-28" transform="translate(-115.05 -152.36)"><path class="cls-1" d="M293.45,361.06c0-15.54,10.92-34.52,24.44-42.33l17.82,10.36c-13.52,7.8-24.48,26.79-24.44,42.32,0,7.72,2.76,13.15,7.16,15.71l-17.82-10.36c-4.4-2.55-7.13-8-7.16-15.7"/></clipPath><clipPath id="clip-path-29" transform="translate(-115.05 -152.36)"><rect class="cls-1" x="293.45" y="318.73" width="42.25" height="68.38"/></clipPath><clipPath id="clip-path-30" transform="translate(-115.05 -152.36)"><rect class="cls-1" x="291.06" y="315.99" width="44.64" height="74.05"/></clipPath><clipPath id="clip-path-31" transform="translate(-115.05 -152.36)"><path class="cls-1" d="M316.74,390l-17.82-10.35c-4.83-2.81-7.83-8.78-7.86-17.24,0-17.05,12-37.89,26.82-46.45l17.82,10.35c-14.84,8.57-26.86,29.4-26.82,46.45,0,8.47,3,14.43,7.86,17.24"/></clipPath><clipPath id="clip-path-33" transform="translate(-115.05 -152.36)"><rect class="cls-1" x="244.78" y="313.58" width="19.9" height="15.64"/></clipPath><clipPath id="clip-path-34" transform="translate(-115.05 -152.36)"><rect class="cls-1" x="244.78" y="319.31" width="19.9" height="9.91"/></clipPath><clipPath id="clip-path-35" transform="translate(-115.05 -152.36)"><path class="cls-1" d="M264.69,319.37l0,4.12c0,1.47-1,2.93-2.88,4.05a15.54,15.54,0,0,1-14.07,0c-2-1.14-2.94-2.62-2.94-4.11l0-4.12c0,1.49,1,3,2.93,4.1a15.51,15.51,0,0,0,14.07,0c1.92-1.11,2.88-2.58,2.89-4"/></clipPath><clipPath id="clip-path-37" transform="translate(-115.05 -152.36)"><rect class="cls-1" x="361.2" y="275.64" width="20.35" height="24.1"/></clipPath></defs><title>strikepost</title><ellipse class="cls-2" cx="190.95" cy="192.8" rx="190.45" ry="192.3"/><ellipse class="cls-3" cx="190.95" cy="192.8" rx="146.11" ry="147.53"/><g class="cls-4"><g class="cls-4"><g class="cls-5"><g class="cls-6"><g class="cls-5"><g class="cls-7"><g class="cls-8"><g class="cls-5"><g class="cls-7"><path class="cls-9" d="M382.28,267.67l-29.7-17.26.36-.19,29.7,17.26-.36.19" transform="translate(-115.05 -152.36)"/><path class="cls-9" d="M382.64,267.48l-29.7-17.26.23-.11,29.7,17.26-.23.11" transform="translate(-115.05 -152.36)"/><path class="cls-10" d="M382.87,267.37l-29.7-17.26.16-.07L383,267.3l-.16.07" transform="translate(-115.05 -152.36)"/><path class="cls-10" d="M383,267.3,353.33,250l.15-.07,29.7,17.26-.15.07" transform="translate(-115.05 -152.36)"/><path class="cls-11" d="M383.18,267.23,353.48,250l.1,0,29.7,17.25-.1,0" transform="translate(-115.05 -152.36)"/><path class="cls-11" d="M383.28,267.19l-29.7-17.26.09,0,29.7,17.26-.09,0" transform="translate(-115.05 -152.36)"/><path class="cls-12" d="M383.37,267.16l-29.7-17.26.09,0,29.7,17.26-.09,0" transform="translate(-115.05 -152.36)"/><path class="cls-12" d="M383.46,267.13l-29.7-17.26.09,0,29.7,17.26-.09,0" transform="translate(-115.05 -152.36)"/><path class="cls-13" d="M383.55,267.1l-29.7-17.26.09,0,29.7,17.25-.09,0" transform="translate(-115.05 -152.36)"/><path class="cls-14" d="M383.64,267.07l-29.7-17.25.07,0,29.7,17.25-.07,0" transform="translate(-115.05 -152.36)"/><path class="cls-14" d="M383.71,267.05,354,249.8l.06,0L383.77,267h-.06" transform="translate(-115.05 -152.36)"/><path class="cls-14" d="M383.77,267l-29.7-17.26.06,0L383.83,267l-.06,0" transform="translate(-115.05 -152.36)"/><path class="cls-14" d="M383.83,267l-29.7-17.26h.07L383.9,267h-.07" transform="translate(-115.05 -152.36)"/><path class="cls-15" d="M383.9,267l-29.7-17.26.06,0L384,267l-.06,0" transform="translate(-115.05 -152.36)"/><path class="cls-16" d="M384,267l-29.7-17.26h.06L384,267H384" transform="translate(-115.05 -152.36)"/><path class="cls-16" d="M384,267l-29.7-17.26.06,0L384.08,267l-.06,0" transform="translate(-115.05 -152.36)"/><path class="cls-16" d="M384.08,267l-29.7-17.26h.06L384.14,267h-.06" transform="translate(-115.05 -152.36)"/><path class="cls-16" d="M384.14,267l-29.7-17.26h.05L384.19,267h-.05" transform="translate(-115.05 -152.36)"/><path class="cls-17" d="M384.19,267l-29.7-17.26h.05l29.69,17.26h0" transform="translate(-115.05 -152.36)"/><path class="cls-18" d="M384.24,266.94l-29.7-17.26h0l29.69,17.26h0" transform="translate(-115.05 -152.36)"/><path class="cls-19" d="M384.28,266.93l-29.7-17.26h.05l29.7,17.26h-.05" transform="translate(-115.05 -152.36)"/><path class="cls-19" d="M384.33,266.92l-29.7-17.26h.05l29.7,17.26h-.05" transform="translate(-115.05 -152.36)"/><path class="cls-19" d="M384.38,266.92l-29.7-17.26h.05l29.7,17.26h-.05" transform="translate(-115.05 -152.36)"/><path class="cls-20" d="M384.43,266.91l-29.7-17.26h0l29.7,17.26h-.05" transform="translate(-115.05 -152.36)"/><path class="cls-20" d="M384.48,266.91l-29.7-17.26h.05l29.7,17.26h0" transform="translate(-115.05 -152.36)"/><path class="cls-21" d="M384.53,266.9l-29.7-17.26h0l29.7,17.26h0" transform="translate(-115.05 -152.36)"/><polygon class="cls-21" points="269.51 114.53 239.81 97.28 239.86 97.27 269.56 114.53 269.51 114.53"/><path class="cls-22" d="M384.61,266.9l-29.7-17.26h0l29.7,17.26h0" transform="translate(-115.05 -152.36)"/><path class="cls-22" d="M384.65,266.89,355,249.63h0l29.7,17.26h0" transform="translate(-115.05 -152.36)"/><path class="cls-22" d="M384.69,266.89,355,249.63h0l29.7,17.26h0" transform="translate(-115.05 -152.36)"/><path class="cls-22" d="M384.73,266.89,355,249.63h0l29.7,17.26h0" transform="translate(-115.05 -152.36)"/><path class="cls-23" d="M384.77,266.89l-29.7-17.26h0l29.7,17.26h0" transform="translate(-115.05 -152.36)"/><path class="cls-24" d="M384.81,266.89l-29.7-17.26h0l29.7,17.26h0" transform="translate(-115.05 -152.36)"/><path class="cls-25" d="M384.85,266.89l-29.7-17.26h0l29.7,17.26h0" transform="translate(-115.05 -152.36)"/><path class="cls-25" d="M384.89,266.89l-29.7-17.26h0l29.7,17.26h0" transform="translate(-115.05 -152.36)"/><path class="cls-25" d="M384.93,266.89l-29.7-17.26h0L385,266.89h0" transform="translate(-115.05 -152.36)"/><path class="cls-26" d="M385,266.89l-29.7-17.26h0L385,266.89h0" transform="translate(-115.05 -152.36)"/><path class="cls-27" d="M385,266.89l-29.7-17.26h0L385,266.89h0" transform="translate(-115.05 -152.36)"/><path class="cls-27" d="M385,266.89l-29.7-17.26h0l29.7,17.25h0" transform="translate(-115.05 -152.36)"/><path class="cls-27" d="M385.07,266.89l-29.7-17.26h0l29.7,17.26h0" transform="translate(-115.05 -152.36)"/><path class="cls-28" d="M385.11,266.9l-29.7-17.26h0l29.7,17.26h0" transform="translate(-115.05 -152.36)"/><path class="cls-29" d="M385.14,266.9l-29.7-17.26h0l29.7,17.26h0" transform="translate(-115.05 -152.36)"/><path class="cls-30" d="M385.18,266.9l-29.7-17.26h0l29.7,17.26h0" transform="translate(-115.05 -152.36)"/><polygon class="cls-30" points="270.16 114.54 240.46 97.28 240.5 97.29 270.19 114.55 270.16 114.54"/><path class="cls-30" d="M385.25,266.91l-29.7-17.26h0l29.7,17.25h0" transform="translate(-115.05 -152.36)"/><path class="cls-31" d="M385.28,266.91l-29.7-17.25h0l29.7,17.26h0" transform="translate(-115.05 -152.36)"/><path class="cls-31" d="M385.32,266.92l-29.7-17.26h0l29.7,17.26h0" transform="translate(-115.05 -152.36)"/><path class="cls-32" d="M385.35,266.92l-29.7-17.26h0l29.7,17.26h0" transform="translate(-115.05 -152.36)"/><path class="cls-33" d="M385.38,266.93l-29.7-17.26h0l29.7,17.26h0" transform="translate(-115.05 -152.36)"/><path class="cls-33" d="M385.41,266.93l-29.7-17.26h0l29.7,17.26h0" transform="translate(-115.05 -152.36)"/><path class="cls-34" d="M385.44,266.94l-29.7-17.26h0L385.47,267h0" transform="translate(-115.05 -152.36)"/><path class="cls-34" d="M385.47,267l-29.7-17.26h0L385.5,267h0" transform="translate(-115.05 -152.36)"/><path class="cls-34" d="M385.5,267l-29.7-17.26h0L385.53,267h0" transform="translate(-115.05 -152.36)"/><path class="cls-34" d="M385.53,267l-29.7-17.26h0L385.57,267h0" transform="translate(-115.05 -152.36)"/><path class="cls-35" d="M385.57,267l-29.7-17.25h0L385.6,267h0" transform="translate(-115.05 -152.36)"/><path class="cls-36" d="M385.6,267l-29.7-17.26h0L385.63,267h0" transform="translate(-115.05 -152.36)"/><path class="cls-36" d="M385.63,267l-29.7-17.26h0L385.66,267h0" transform="translate(-115.05 -152.36)"/><path class="cls-36" d="M385.66,267,356,249.73h0L385.69,267h0" transform="translate(-115.05 -152.36)"/><path class="cls-36" d="M385.69,267,356,249.74h0L385.71,267h0" transform="translate(-115.05 -152.36)"/><path class="cls-36" d="M385.71,267,356,249.74h0L385.74,267h0" transform="translate(-115.05 -152.36)"/><path class="cls-37" d="M385.74,267,356,249.75h0L385.77,267h0" transform="translate(-115.05 -152.36)"/><path class="cls-37" d="M385.77,267l-29.7-17.26h0L385.8,267h0" transform="translate(-115.05 -152.36)"/><path class="cls-37" d="M385.8,267l-29.7-17.26h0L385.83,267h0" transform="translate(-115.05 -152.36)"/><path class="cls-37" d="M385.83,267l-29.7-17.26h0l29.7,17.26h0" transform="translate(-115.05 -152.36)"/><path class="cls-37" d="M385.86,267.05l-29.7-17.26h0l29.7,17.26h0" transform="translate(-115.05 -152.36)"/><polygon class="cls-38" points="270.83 114.69 241.13 97.43 241.16 97.44 270.86 114.7 270.83 114.69"/><path class="cls-38" d="M385.91,267.07l-29.7-17.26h0l29.7,17.26h0" transform="translate(-115.05 -152.36)"/><path class="cls-39" d="M385.94,267.08l-29.7-17.26h0L386,267.09h0" transform="translate(-115.05 -152.36)"/><path class="cls-40" d="M386,267.09l-29.7-17.26h0L386,267.1h0" transform="translate(-115.05 -152.36)"/><path class="cls-40" d="M386,267.1l-29.7-17.26h0L386,267.11h0" transform="translate(-115.05 -152.36)"/><path class="cls-40" d="M386,267.11l-29.7-17.26h0l29.7,17.26h0" transform="translate(-115.05 -152.36)"/><path class="cls-41" d="M386.05,267.12l-29.7-17.26h0l29.7,17.26h0" transform="translate(-115.05 -152.36)"/><path class="cls-41" d="M386.07,267.13l-29.7-17.26h0l29.7,17.26h0" transform="translate(-115.05 -152.36)"/><path class="cls-41" d="M386.1,267.14l-29.7-17.26h0l29.7,17.26h0" transform="translate(-115.05 -152.36)"/><path class="cls-42" d="M386.12,267.15l-29.7-17.26,0,0,29.7,17.26,0,0" transform="translate(-115.05 -152.36)"/><path class="cls-42" d="M386.15,267.17l-29.7-17.26h0l29.7,17.26h0" transform="translate(-115.05 -152.36)"/><path class="cls-42" d="M386.18,267.18l-29.7-17.26h0l29.7,17.26h0" transform="translate(-115.05 -152.36)"/><path class="cls-43" d="M386.2,267.19l-29.7-17.26h0l29.7,17.26h0" transform="translate(-115.05 -152.36)"/><path class="cls-43" d="M386.23,267.2l-29.7-17.26,0,0,29.7,17.26,0,0" transform="translate(-115.05 -152.36)"/><path class="cls-43" d="M386.25,267.22,356.55,250h0l29.7,17.26h0" transform="translate(-115.05 -152.36)"/><path class="cls-43" d="M386.28,267.23,356.58,250h0l29.7,17.26h0" transform="translate(-115.05 -152.36)"/><polygon class="cls-44" points="271.25 114.88 241.55 97.62 241.57 97.63 271.27 114.89 271.25 114.88"/><path class="cls-45" d="M386.33,267.26,356.63,250h0l29.7,17.26h0" transform="translate(-115.05 -152.36)"/><polyline class="cls-45" points="271.3 114.91 241.6 97.65 241.6 97.65 271.3 114.91 271.3 114.91"/></g></g></g></g></g><g class="cls-5"><g class="cls-46"><g class="cls-47"><g class="cls-5"><g class="cls-46"><path class="cls-48" d="M250.29,443.76l-29.7-17.26a4,4,0,0,1-1.67-3.68l29.7,17.26a4,4,0,0,0,1.67,3.68" transform="translate(-115.05 -152.36)"/></g></g></g></g></g><polygon class="cls-49" points="133.56 287.71 103.86 270.45 103.61 181.97 133.31 199.23 133.56 287.71"/><polygon class="cls-50" points="139.03 189.32 109.33 172.06 237.52 98.05 267.22 115.31 139.03 189.32"/><g class="cls-5"><g class="cls-51"><g class="cls-52"><g class="cls-5"><g class="cls-51"><path class="cls-48" d="M248.37,351.59l-29.7-17.26a5.72,5.72,0,0,1,0-.58L248.39,351a5.72,5.72,0,0,0,0,.58" transform="translate(-115.05 -152.36)"/><path class="cls-48" d="M248.39,351l-29.7-17.26c0-.06,0-.12,0-.19l29.7,17.26c0,.07,0,.13,0,.19" transform="translate(-115.05 -152.36)"/><path class="cls-48" d="M248.4,350.82l-29.7-17.26c0-.06,0-.12,0-.18l29.7,17.25c0,.07,0,.13,0,.19" transform="translate(-115.05 -152.36)"/><path class="cls-48" d="M248.42,350.63l-29.7-17.25c0-.06,0-.12,0-.18l29.7,17.26c0,.06,0,.12,0,.17" transform="translate(-115.05 -152.36)"/><path class="cls-53" d="M248.44,350.46l-29.7-17.26,0-.11,29.7,17.26s0,.07,0,.11" transform="translate(-115.05 -152.36)"/><path class="cls-54" d="M248.46,350.35l-29.7-17.26s0-.08,0-.12l29.7,17.26s0,.08,0,.12" transform="translate(-115.05 -152.36)"/><path class="cls-49" d="M248.47,350.23,218.77,333a.36.36,0,0,0,0-.11l29.7,17.26,0,.11" transform="translate(-115.05 -152.36)"/><path class="cls-49" d="M248.49,350.12l-29.7-17.26a.43.43,0,0,0,0-.11L248.51,350s0,.07,0,.11" transform="translate(-115.05 -152.36)"/><path class="cls-49" d="M248.51,350l-29.7-17.26s0-.08,0-.11l29.7,17.26s0,.07,0,.11" transform="translate(-115.05 -152.36)"/><path class="cls-55" d="M248.53,349.9l-29.7-17.26,0-.08,29.7,17.26s0,.05,0,.08" transform="translate(-115.05 -152.36)"/><path class="cls-55" d="M248.55,349.82l-29.7-17.26v-.09l29.7,17.26v.09" transform="translate(-115.05 -152.36)"/><path class="cls-56" d="M248.56,349.73l-29.7-17.26,0-.08,29.7,17.26,0,.08" transform="translate(-115.05 -152.36)"/><path class="cls-56" d="M248.58,349.65l-29.7-17.26,0-.08,29.7,17.26,0,.08" transform="translate(-115.05 -152.36)"/><path class="cls-57" d="M248.6,349.57l-29.7-17.26s0-.06,0-.09l29.7,17.26,0,.09" transform="translate(-115.05 -152.36)"/><path class="cls-57" d="M248.62,349.48l-29.7-17.26,0-.08,29.7,17.26,0,.08" transform="translate(-115.05 -152.36)"/><path class="cls-57" d="M248.64,349.4l-29.7-17.26,0-.08,29.7,17.26,0,.08" transform="translate(-115.05 -152.36)"/><path class="cls-57" d="M248.66,349.32,219,332.06l0-.07,29.7,17.26,0,.07" transform="translate(-115.05 -152.36)"/><path class="cls-58" d="M248.68,349.25,219,332s0,0,0-.06l29.7,17.26v.06" transform="translate(-115.05 -152.36)"/><path class="cls-59" d="M248.69,349.19,219,331.93l0-.07,29.7,17.26,0,.07" transform="translate(-115.05 -152.36)"/><path class="cls-59" d="M248.71,349.12,219,331.86l0-.07,29.7,17.26,0,.07" transform="translate(-115.05 -152.36)"/><path class="cls-60" d="M248.73,349.05,219,331.79l0-.07L248.75,349l0,.07" transform="translate(-115.05 -152.36)"/><path class="cls-60" d="M248.75,349l-29.7-17.26a.14.14,0,0,1,0-.06l29.7,17.26,0,.06" transform="translate(-115.05 -152.36)"/><path class="cls-61" d="M248.77,348.92l-29.7-17.26,0-.07,29.7,17.26,0,.07" transform="translate(-115.05 -152.36)"/><path class="cls-61" d="M248.79,348.85l-29.7-17.26,0-.07,29.7,17.26,0,.07" transform="translate(-115.05 -152.36)"/><path class="cls-61" d="M248.81,348.78l-29.7-17.26v-.06l29.7,17.26v.06" transform="translate(-115.05 -152.36)"/><path class="cls-61" d="M248.82,348.72l-29.7-17.26,0-.06,29.7,17.26,0,.06" transform="translate(-115.05 -152.36)"/><path class="cls-61" d="M248.84,348.66l-29.7-17.26s0,0,0-.06l29.7,17.26,0,.06" transform="translate(-115.05 -152.36)"/><path class="cls-62" d="M248.86,348.6l-29.7-17.26,0,0,29.7,17.26,0,.05" transform="translate(-115.05 -152.36)"/><path class="cls-63" d="M248.88,348.55l-29.7-17.26,0-.06,29.7,17.26,0,.06" transform="translate(-115.05 -152.36)"/><path class="cls-63" d="M248.9,348.49l-29.7-17.26,0-.06,29.7,17.26,0,.06" transform="translate(-115.05 -152.36)"/><path class="cls-63" d="M248.92,348.43l-29.7-17.26,0-.06,29.7,17.26,0,.06" transform="translate(-115.05 -152.36)"/><path class="cls-64" d="M248.94,348.37l-29.7-17.26,0-.06L249,348.31l0,.06" transform="translate(-115.05 -152.36)"/><path class="cls-64" d="M249,348.31l-29.7-17.26,0-.05L249,348.26l0,.05" transform="translate(-115.05 -152.36)"/><path class="cls-65" d="M249,348.26,219.28,331l0-.06L249,348.2l0,.06" transform="translate(-115.05 -152.36)"/><path class="cls-66" d="M249,348.2l-29.7-17.26,0-.05L249,348.15l0,.05" transform="translate(-115.05 -152.36)"/><path class="cls-66" d="M249,348.15l-29.7-17.26v-.06L249,348.09v.06" transform="translate(-115.05 -152.36)"/><path class="cls-67" d="M249,348.09l-29.7-17.26,0-.05L249.05,348l0,0" transform="translate(-115.05 -152.36)"/><path class="cls-67" d="M249.05,348l-29.7-17.26,0,0L249.07,348l0,.05" transform="translate(-115.05 -152.36)"/><path class="cls-67" d="M249.07,348l-29.7-17.26,0-.05,29.7,17.26,0,.05" transform="translate(-115.05 -152.36)"/><path class="cls-67" d="M249.09,347.94l-29.7-17.26,0-.05,29.7,17.26,0,.05" transform="translate(-115.05 -152.36)"/><path class="cls-68" d="M249.11,347.89l-29.7-17.26,0-.05,29.7,17.26,0,.05" transform="translate(-115.05 -152.36)"/><path class="cls-69" d="M249.13,347.84l-29.7-17.26,0-.06,29.7,17.26,0,.06" transform="translate(-115.05 -152.36)"/><path class="cls-69" d="M249.15,347.78l-29.7-17.26,0,0,29.7,17.26,0,0" transform="translate(-115.05 -152.36)"/><path class="cls-69" d="M249.17,347.73l-29.7-17.26,0-.05,29.7,17.26,0,.05" transform="translate(-115.05 -152.36)"/><path class="cls-69" d="M249.19,347.68l-29.7-17.26,0-.05,29.7,17.26,0,.05" transform="translate(-115.05 -152.36)"/><path class="cls-70" d="M249.21,347.63l-29.7-17.26,0-.05,29.7,17.26,0,.05" transform="translate(-115.05 -152.36)"/><path class="cls-70" d="M249.23,347.58l-29.7-17.26,0-.05,29.7,17.26,0,.05" transform="translate(-115.05 -152.36)"/><path class="cls-71" d="M249.25,347.53l-29.7-17.26,0,0,29.7,17.25,0,0" transform="translate(-115.05 -152.36)"/><path class="cls-71" d="M249.27,347.48l-29.7-17.26,0,0,29.7,17.26,0,0" transform="translate(-115.05 -152.36)"/><path class="cls-71" d="M249.29,347.44l-29.7-17.26,0-.05,29.7,17.26,0,.05" transform="translate(-115.05 -152.36)"/><path class="cls-72" d="M249.32,347.39l-29.7-17.26,0-.05,29.7,17.26,0,.05" transform="translate(-115.05 -152.36)"/><path class="cls-73" d="M249.34,347.34l-29.7-17.26,0-.05,29.7,17.26,0,0" transform="translate(-115.05 -152.36)"/><path class="cls-73" d="M249.36,347.29,219.66,330l0,0,29.7,17.26,0,0" transform="translate(-115.05 -152.36)"/><path class="cls-73" d="M249.38,347.25,219.68,330l0-.05,29.7,17.26,0,.05" transform="translate(-115.05 -152.36)"/><path class="cls-74" d="M249.4,347.2l-29.7-17.26,0-.05,29.7,17.26,0,.05" transform="translate(-115.05 -152.36)"/><path class="cls-74" d="M249.42,347.15l-29.7-17.26,0-.05,29.7,17.26,0,0" transform="translate(-115.05 -152.36)"/><path class="cls-74" d="M249.44,347.1l-29.7-17.26,0,0,29.7,17.26,0,0" transform="translate(-115.05 -152.36)"/><path class="cls-75" d="M249.46,347.06l-29.7-17.26,0-.05L249.48,347l0,.05" transform="translate(-115.05 -152.36)"/><path class="cls-75" d="M249.48,347l-29.7-17.26,0,0L249.51,347l0,0" transform="translate(-115.05 -152.36)"/><path class="cls-76" d="M249.51,347l-29.7-17.26,0,0,29.7,17.26,0,.05" transform="translate(-115.05 -152.36)"/><path class="cls-77" d="M249.53,346.92l-29.7-17.26,0,0,29.7,17.26,0,0" transform="translate(-115.05 -152.36)"/><path class="cls-77" d="M249.55,346.88l-29.7-17.26,0-.05,29.7,17.26,0,.05" transform="translate(-115.05 -152.36)"/><path class="cls-77" d="M249.57,346.83l-29.7-17.26,0,0,29.7,17.26,0,0" transform="translate(-115.05 -152.36)"/><path class="cls-78" d="M249.59,346.79l-29.7-17.26,0,0,29.7,17.26,0,.05" transform="translate(-115.05 -152.36)"/><path class="cls-78" d="M249.61,346.74l-29.7-17.26,0,0,29.7,17.26,0,0" transform="translate(-115.05 -152.36)"/><path class="cls-78" d="M249.64,346.7l-29.7-17.26,0-.05,29.7,17.26,0,.05" transform="translate(-115.05 -152.36)"/><path class="cls-78" d="M249.66,346.65,220,329.39l0,0,29.7,17.26,0,0" transform="translate(-115.05 -152.36)"/><path class="cls-79" d="M249.68,346.61,220,329.35l0,0,29.7,17.25,0,.05" transform="translate(-115.05 -152.36)"/><path class="cls-80" d="M249.7,346.56,220,329.31l0-.05,29.7,17.26,0,0" transform="translate(-115.05 -152.36)"/><path class="cls-80" d="M249.73,346.52,220,329.26l0,0,29.7,17.26,0,0" transform="translate(-115.05 -152.36)"/><path class="cls-80" d="M249.75,346.48l-29.7-17.26,0-.05,29.7,17.26,0,.05" transform="translate(-115.05 -152.36)"/><path class="cls-80" d="M249.77,346.43l-29.7-17.26,0,0,29.7,17.26,0,0" transform="translate(-115.05 -152.36)"/><path class="cls-81" d="M249.8,346.39l-29.7-17.26,0,0,29.7,17.26,0,0" transform="translate(-115.05 -152.36)"/><path class="cls-81" d="M249.82,346.35l-29.7-17.26,0,0,29.7,17.26,0,.05" transform="translate(-115.05 -152.36)"/><path class="cls-82" d="M249.84,346.3,220.14,329l0,0,29.7,17.26,0,0" transform="translate(-115.05 -152.36)"/><path class="cls-82" d="M249.86,346.26,220.16,329l0,0,29.7,17.26,0,0" transform="translate(-115.05 -152.36)"/><path class="cls-82" d="M249.89,346.22,220.19,329l0,0,29.7,17.26,0,0" transform="translate(-115.05 -152.36)"/><path class="cls-83" d="M249.91,346.18l-29.7-17.26,0-.05,29.7,17.26,0,.05" transform="translate(-115.05 -152.36)"/><path class="cls-83" d="M249.94,346.13l-29.7-17.26,0,0L250,346.09l0,0" transform="translate(-115.05 -152.36)"/><path class="cls-83" d="M250,346.09l-29.7-17.26,0,0L250,346.05l0,0" transform="translate(-115.05 -152.36)"/><path class="cls-84" d="M250,346.05l-29.7-17.26,0,0L250,346l0,0" transform="translate(-115.05 -152.36)"/><path class="cls-85" d="M250,346l-29.7-17.26,0-.05L250,346l0,.05" transform="translate(-115.05 -152.36)"/><path class="cls-45" d="M250,346l-29.7-17.26,0,0,29.7,17.26,0,0" transform="translate(-115.05 -152.36)"/><path class="cls-45" d="M250.06,345.92l-29.7-17.26,0,0,29.7,17.26,0,0" transform="translate(-115.05 -152.36)"/><path class="cls-45" d="M250.08,345.88l-29.7-17.26,0,0,29.7,17.26,0,0" transform="translate(-115.05 -152.36)"/><path class="cls-45" d="M250.11,345.84l-29.7-17.26,0,0,29.7,17.26,0,0" transform="translate(-115.05 -152.36)"/><path class="cls-44" d="M250.13,345.8l-29.7-17.26,0-.05,29.7,17.26,0,.05" transform="translate(-115.05 -152.36)"/><path class="cls-43" d="M250.16,345.75l-29.7-17.26,0,0,29.7,17.26,0,0" transform="translate(-115.05 -152.36)"/><path class="cls-43" d="M250.18,345.71l-29.7-17.26,0,0,29.7,17.26,0,0" transform="translate(-115.05 -152.36)"/><path class="cls-43" d="M250.21,345.67l-29.7-17.26,0,0,29.7,17.26,0,0" transform="translate(-115.05 -152.36)"/><path class="cls-43" d="M250.23,345.63l-29.7-17.26,0,0,29.7,17.26,0,0" transform="translate(-115.05 -152.36)"/><path class="cls-42" d="M250.26,345.59l-29.7-17.26,0,0,29.7,17.26,0,0" transform="translate(-115.05 -152.36)"/><path class="cls-42" d="M250.28,345.55l-29.7-17.26,0,0,29.7,17.25,0,.05" transform="translate(-115.05 -152.36)"/><path class="cls-42" d="M250.31,345.5l-29.7-17.25,0-.05,29.7,17.26,0,0" transform="translate(-115.05 -152.36)"/><path class="cls-41" d="M250.33,345.46l-29.7-17.26,0,0,29.7,17.26,0,0" transform="translate(-115.05 -152.36)"/><path class="cls-41" d="M250.36,345.42l-29.7-17.26,0,0,29.7,17.26,0,0" transform="translate(-115.05 -152.36)"/><path class="cls-41" d="M250.39,345.38l-29.7-17.26,0,0,29.7,17.26,0,0" transform="translate(-115.05 -152.36)"/><path class="cls-40" d="M250.41,345.34l-29.7-17.26,0,0,29.7,17.26,0,0" transform="translate(-115.05 -152.36)"/><path class="cls-40" d="M250.44,345.3,220.74,328l0,0,29.7,17.26,0,0" transform="translate(-115.05 -152.36)"/><path class="cls-40" d="M250.47,345.26,220.77,328l0,0,29.7,17.26,0,0" transform="translate(-115.05 -152.36)"/><path class="cls-39" d="M250.5,345.22,220.8,328l0,0,29.7,17.26,0,.05" transform="translate(-115.05 -152.36)"/><path class="cls-38" d="M250.52,345.17l-29.7-17.26,0,0,29.7,17.26,0,0" transform="translate(-115.05 -152.36)"/><path class="cls-38" d="M250.55,345.13l-29.7-17.26,0,0,29.7,17.26,0,0" transform="translate(-115.05 -152.36)"/><path class="cls-37" d="M250.58,345.09l-29.7-17.26,0,0,29.7,17.26,0,0" transform="translate(-115.05 -152.36)"/><path class="cls-37" d="M250.61,345.05l-29.7-17.26,0,0L250.63,345l0,0" transform="translate(-115.05 -152.36)"/><path class="cls-37" d="M250.63,345l-29.7-17.26,0,0L250.66,345l0,0" transform="translate(-115.05 -152.36)"/><path class="cls-37" d="M250.66,345,221,327.71l0,0,29.7,17.26,0,0" transform="translate(-115.05 -152.36)"/><path class="cls-37" d="M250.69,344.93,221,327.67l0,0,29.7,17.26,0,0" transform="translate(-115.05 -152.36)"/><path class="cls-36" d="M250.72,344.89,221,327.63l0,0,29.7,17.26,0,0" transform="translate(-115.05 -152.36)"/><path class="cls-36" d="M250.75,344.85l-29.7-17.26,0,0,29.7,17.25,0,.05" transform="translate(-115.05 -152.36)"/><path class="cls-36" d="M250.78,344.8l-29.7-17.25,0-.05,29.7,17.26,0,0" transform="translate(-115.05 -152.36)"/><path class="cls-36" d="M250.81,344.76l-29.7-17.26,0,0,29.7,17.26,0,0" transform="translate(-115.05 -152.36)"/><path class="cls-36" d="M250.84,344.72l-29.7-17.26,0,0,29.7,17.26,0,0" transform="translate(-115.05 -152.36)"/><path class="cls-35" d="M250.87,344.68l-29.7-17.26,0,0,29.7,17.26,0,0" transform="translate(-115.05 -152.36)"/><path class="cls-34" d="M250.9,344.64l-29.7-17.26,0,0,29.7,17.26,0,0" transform="translate(-115.05 -152.36)"/><path class="cls-34" d="M250.93,344.6l-29.7-17.26,0,0L251,344.56l0,0" transform="translate(-115.05 -152.36)"/><path class="cls-34" d="M251,344.56l-29.7-17.26,0,0L251,344.52l0,0" transform="translate(-115.05 -152.36)"/><path class="cls-34" d="M251,344.52l-29.7-17.26,0,0L251,344.48l0,0" transform="translate(-115.05 -152.36)"/><path class="cls-33" d="M251,344.48l-29.7-17.26,0,0,29.7,17.26,0,0" transform="translate(-115.05 -152.36)"/><path class="cls-33" d="M251.05,344.44l-29.7-17.26,0-.05,29.7,17.26,0,.05" transform="translate(-115.05 -152.36)"/><path class="cls-32" d="M251.09,344.39l-29.7-17.26,0,0,29.7,17.26,0,0" transform="translate(-115.05 -152.36)"/><path class="cls-31" d="M251.12,344.35l-29.7-17.26,0,0,29.7,17.26,0,0" transform="translate(-115.05 -152.36)"/><path class="cls-31" d="M251.15,344.31l-29.7-17.26,0,0,29.7,17.26,0,0" transform="translate(-115.05 -152.36)"/><path class="cls-30" d="M251.19,344.27,221.49,327l0-.05,29.7,17.26,0,0" transform="translate(-115.05 -152.36)"/><path class="cls-30" d="M251.22,344.22,221.52,327l0,0,29.7,17.26,0,0" transform="translate(-115.05 -152.36)"/><path class="cls-30" d="M251.25,344.18l-29.7-17.26,0,0,29.7,17.26,0,0" transform="translate(-115.05 -152.36)"/><path class="cls-29" d="M251.29,344.14l-29.7-17.26,0,0,29.7,17.26,0,0" transform="translate(-115.05 -152.36)"/><path class="cls-28" d="M251.32,344.1l-29.7-17.26,0,0,29.7,17.26,0,0" transform="translate(-115.05 -152.36)"/><path class="cls-27" d="M251.36,344.06l-29.7-17.26,0-.05L251.39,344l0,.05" transform="translate(-115.05 -152.36)"/><path class="cls-27" d="M251.39,344l-29.7-17.26,0,0L251.43,344l0,0" transform="translate(-115.05 -152.36)"/><path class="cls-27" d="M251.43,344l-29.7-17.26,0,0,29.7,17.26,0,0" transform="translate(-115.05 -152.36)"/><path class="cls-26" d="M251.46,343.93l-29.7-17.26,0,0,29.7,17.26,0,0" transform="translate(-115.05 -152.36)"/><path class="cls-25" d="M251.5,343.89l-29.7-17.26,0-.05,29.7,17.26,0,.05" transform="translate(-115.05 -152.36)"/><path class="cls-25" d="M251.54,343.84l-29.7-17.26,0,0,29.7,17.26,0,0" transform="translate(-115.05 -152.36)"/><path class="cls-25" d="M251.58,343.8l-29.7-17.26,0-.05,29.7,17.26,0,.05" transform="translate(-115.05 -152.36)"/><path class="cls-24" d="M251.62,343.75l-29.7-17.26,0,0,29.7,17.26,0,0" transform="translate(-115.05 -152.36)"/><polygon class="cls-23" points="136.6 191.34 106.9 174.08 106.94 174.04 136.64 191.3 136.6 191.34"/><path class="cls-22" d="M251.7,343.66,222,326.4l0,0,29.7,17.26,0,0" transform="translate(-115.05 -152.36)"/><path class="cls-22" d="M251.74,343.62,222,326.36l0,0,29.7,17.26,0,0" transform="translate(-115.05 -152.36)"/><path class="cls-22" d="M251.78,343.58l-29.7-17.26,0-.05,29.7,17.26,0,.05" transform="translate(-115.05 -152.36)"/><path class="cls-22" d="M251.82,343.53l-29.7-17.26,0,0,29.7,17.26,0,0" transform="translate(-115.05 -152.36)"/><path class="cls-21" d="M251.86,343.49l-29.7-17.26,0-.05,29.7,17.26,0,.05" transform="translate(-115.05 -152.36)"/><path class="cls-21" d="M251.9,343.44l-29.7-17.26.05-.05L252,343.39l0,.05" transform="translate(-115.05 -152.36)"/><path class="cls-20" d="M252,343.39l-29.7-17.26.05-.05L252,343.34l-.05.05" transform="translate(-115.05 -152.36)"/><path class="cls-20" d="M252,343.34l-29.7-17.26,0,0L252,343.3l0,0" transform="translate(-115.05 -152.36)"/><path class="cls-19" d="M252,343.3,222.34,326l0-.05,29.7,17.26-.05.05" transform="translate(-115.05 -152.36)"/><path class="cls-19" d="M252.09,343.25,222.39,326l.05-.05,29.7,17.26,0,.05" transform="translate(-115.05 -152.36)"/><path class="cls-19" d="M252.14,343.2l-29.7-17.26.05-.05,29.69,17.26,0,.05" transform="translate(-115.05 -152.36)"/><path class="cls-18" d="M252.18,343.15l-29.7-17.26.05,0,29.7,17.26,0,0" transform="translate(-115.05 -152.36)"/><path class="cls-17" d="M252.23,343.11l-29.7-17.26.05-.05,29.7,17.26-.05.05" transform="translate(-115.05 -152.36)"/><path class="cls-16" d="M252.28,343.06l-29.7-17.26.06-.06L252.34,343l-.06.06" transform="translate(-115.05 -152.36)"/><path class="cls-16" d="M252.34,343l-29.7-17.26.06-.05L252.4,343l-.06.05" transform="translate(-115.05 -152.36)"/><path class="cls-16" d="M252.4,343l-29.7-17.26.06-.05,29.7,17.26-.06.05" transform="translate(-115.05 -152.36)"/><path class="cls-16" d="M252.46,342.89l-29.7-17.25.06-.06,29.7,17.26-.06.05" transform="translate(-115.05 -152.36)"/><path class="cls-15" d="M252.52,342.84l-29.7-17.26.06-.05,29.7,17.26-.06,0" transform="translate(-115.05 -152.36)"/><path class="cls-14" d="M252.58,342.79l-29.7-17.26.06,0,29.7,17.25-.06.06" transform="translate(-115.05 -152.36)"/><path class="cls-14" d="M252.64,342.73l-29.7-17.25.06-.06,29.7,17.26-.06.05" transform="translate(-115.05 -152.36)"/><path class="cls-14" d="M252.7,342.68,223,325.42l.07-.06,29.7,17.26-.07.06" transform="translate(-115.05 -152.36)"/><path class="cls-14" d="M252.77,342.62l-29.7-17.26.08-.07,29.7,17.26-.08.07" transform="translate(-115.05 -152.36)"/><path class="cls-13" d="M252.85,342.55l-29.7-17.26.08-.07,29.7,17.26-.08.07" transform="translate(-115.05 -152.36)"/><path class="cls-12" d="M252.93,342.48l-29.7-17.26.08-.06L253,342.42l-.08.06" transform="translate(-115.05 -152.36)"/><path class="cls-12" d="M253,342.42l-29.7-17.26.09-.07,29.7,17.26-.09.07" transform="translate(-115.05 -152.36)"/><path class="cls-11" d="M253.1,342.35l-29.7-17.26.09-.07,29.7,17.26-.09.07" transform="translate(-115.05 -152.36)"/><path class="cls-11" d="M253.19,342.28,223.49,325l.13-.09,29.7,17.25-.13.1" transform="translate(-115.05 -152.36)"/><path class="cls-10" d="M253.32,342.18l-29.7-17.26.13-.09,29.7,17.26-.13.09" transform="translate(-115.05 -152.36)"/><path class="cls-10" d="M253.45,342.09l-29.7-17.26.13-.09L253.58,342l-.13.09" transform="translate(-115.05 -152.36)"/><path class="cls-9" d="M253.58,342l-29.7-17.26.29-.19,29.7,17.26-.29.19" transform="translate(-115.05 -152.36)"/><path class="cls-9" d="M253.87,341.81l-29.7-17.26.22-.13,29.7,17.26-.22.13" transform="translate(-115.05 -152.36)"/></g></g></g></g></g><path class="cls-25" d="M382.28,267.67c3.16-1.83,5.74-.36,5.75,3.29l.25,88.48a12.6,12.6,0,0,1-5.72,9.91l-128.18,74c-3.17,1.83-5.75.36-5.76-3.28l-.25-88.49a12.61,12.61,0,0,1,5.72-9.91Z" transform="translate(-115.05 -152.36)"/></g></g><g class="cls-5"><g class="cls-86"><polygon class="cls-59" points="208.25 136.27 199.93 131.44 199.89 116.05 208.21 120.88 208.25 136.27"/><polygon class="cls-87" points="176.96 154.34 168.64 149.5 199.93 131.44 208.25 136.27 176.96 154.34"/><polygon class="cls-88" points="176.91 138.95 168.6 134.12 199.89 116.05 208.21 120.88 176.91 138.95"/><polygon class="cls-89" points="176.96 154.34 168.64 149.5 168.6 134.12 176.91 138.95 176.96 154.34"/><polygon class="cls-90" points="208.21 120.88 208.25 136.27 176.96 154.34 176.91 138.95 208.21 120.88"/><polygon class="cls-59" points="174.57 158.47 166.26 153.63 166.2 132.75 174.51 137.58 174.57 158.47"/><polygon class="cls-87" points="174.51 137.58 166.2 132.75 202.28 111.92 210.59 116.75 174.51 137.58"/><path class="cls-20" d="M289.57,289.94l36.07-20.83L325.7,290l-36.07,20.83Zm33.73-1.31,0-15.39L292,291.31l0,15.39,31.29-18.07" transform="translate(-115.05 -152.36)"/></g></g><g class="cls-5"><g class="cls-91"><g class="cls-5"><g class="cls-92"><g class="cls-93"><g class="cls-5"><g class="cls-92"><path class="cls-13" d="M335.87,385.42l-17.82-10.35a41,41,0,0,0,8.16-6.33L344,379.1a41.32,41.32,0,0,1-8.17,6.32" transform="translate(-115.05 -152.36)"/><path class="cls-17" d="M344,379.1l-17.82-10.36c.91-.91,1.81-1.86,2.67-2.85l17.82,10.35c-.86,1-1.76,1.95-2.67,2.86" transform="translate(-115.05 -152.36)"/><path class="cls-22" d="M346.71,376.24l-17.82-10.35c.68-.79,1.35-1.6,2-2.43l17.82,10.36c-.64.83-1.31,1.64-2,2.42" transform="translate(-115.05 -152.36)"/><path class="cls-28" d="M348.7,373.82l-17.82-10.36c.56-.72,1.11-1.46,1.64-2.22l17.82,10.36c-.53.76-1.08,1.5-1.64,2.22" transform="translate(-115.05 -152.36)"/><path class="cls-34" d="M350.34,371.6l-17.82-10.36c.49-.69,1-1.4,1.42-2.12l17.82,10.36c-.46.72-.93,1.42-1.42,2.12" transform="translate(-115.05 -152.36)"/><path class="cls-37" d="M351.76,369.48l-17.82-10.36c.44-.68.86-1.38,1.27-2.08L353,367.4c-.41.7-.83,1.39-1.27,2.08" transform="translate(-115.05 -152.36)"/><path class="cls-41" d="M353,367.4,335.21,357c.4-.68.78-1.37,1.16-2.07l17.82,10.36c-.38.69-.76,1.39-1.16,2.07" transform="translate(-115.05 -152.36)"/><path class="cls-45" d="M354.19,365.33,336.37,355c.36-.69.72-1.39,1.05-2.09l17.82,10.36c-.33.7-.69,1.4-1.05,2.09" transform="translate(-115.05 -152.36)"/><path class="cls-82" d="M355.24,363.24l-17.82-10.36c.35-.7.67-1.42,1-2.13l17.82,10.36c-.31.71-.63,1.42-1,2.13" transform="translate(-115.05 -152.36)"/><path class="cls-78" d="M356.22,361.11,338.4,350.75c.32-.73.62-1.47.9-2.2l17.82,10.35c-.28.74-.58,1.47-.9,2.21" transform="translate(-115.05 -152.36)"/><path class="cls-73" d="M357.12,358.9,339.3,348.55c.3-.77.58-1.55.83-2.32L358,356.59c-.26.77-.53,1.54-.83,2.31" transform="translate(-115.05 -152.36)"/><path class="cls-69" d="M358,356.59l-17.82-10.36c.28-.83.53-1.67.77-2.5l17.82,10.36c-.24.83-.49,1.66-.77,2.5" transform="translate(-115.05 -152.36)"/><path class="cls-64" d="M358.72,354.09,340.9,343.73c.26-.94.49-1.88.68-2.81l17.82,10.36c-.19.93-.42,1.87-.68,2.81" transform="translate(-115.05 -152.36)"/><path class="cls-60" d="M359.4,351.28l-17.82-10.36c.25-1.14.44-2.27.59-3.39L360,347.89c-.15,1.12-.34,2.25-.59,3.39" transform="translate(-115.05 -152.36)"/><path class="cls-55" d="M360,347.89l-17.82-10.36a37.22,37.22,0,0,0,.31-4.78c0-7.72-2.76-13.15-7.16-15.71l17.82,10.36c4.4,2.56,7.14,8,7.16,15.71a37.22,37.22,0,0,1-.31,4.78" transform="translate(-115.05 -152.36)"/></g></g></g></g></g><g class="cls-5"><g class="cls-94"><g class="cls-95"><g class="cls-5"><g class="cls-94"><path class="cls-78" d="M318.43,387.12l-17.82-10.36.14.08,17.82,10.35-.14-.07" transform="translate(-115.05 -152.36)"/><path class="cls-82" d="M318.57,387.19l-17.82-10.35q.6.33,1.23.6L319.8,387.8a11.72,11.72,0,0,1-1.23-.61" transform="translate(-115.05 -152.36)"/><path class="cls-45" d="M319.8,387.8,302,377.44a11.79,11.79,0,0,0,1.3.46l17.82,10.36c-.44-.13-.88-.29-1.3-.46" transform="translate(-115.05 -152.36)"/><path class="cls-41" d="M321.1,388.26,303.28,377.9a12.58,12.58,0,0,0,1.38.32l17.82,10.35a12.55,12.55,0,0,1-1.38-.31" transform="translate(-115.05 -152.36)"/><path class="cls-37" d="M322.48,388.57l-17.82-10.35a14.25,14.25,0,0,0,1.48.17L324,388.75a12,12,0,0,1-1.48-.18" transform="translate(-115.05 -152.36)"/><path class="cls-34" d="M324,388.75l-17.82-10.36a14.72,14.72,0,0,0,1.63,0l17.82,10.36a14.72,14.72,0,0,1-1.63,0" transform="translate(-115.05 -152.36)"/><path class="cls-28" d="M325.59,388.76,307.77,378.4a14.55,14.55,0,0,0,1.82-.18l17.82,10.36c-.62.09-1.23.15-1.82.18" transform="translate(-115.05 -152.36)"/><path class="cls-22" d="M327.41,388.58l-17.82-10.36a19.4,19.4,0,0,0,2.16-.46l17.82,10.36a19.4,19.4,0,0,1-2.16.46" transform="translate(-115.05 -152.36)"/><path class="cls-17" d="M329.57,388.12l-17.82-10.36a22.37,22.37,0,0,0,2.88-1l17.82,10.35a24.11,24.11,0,0,1-2.88,1" transform="translate(-115.05 -152.36)"/><path class="cls-13" d="M332.45,387.12l-17.82-10.35a30.16,30.16,0,0,0,3.42-1.7l17.82,10.35a28.57,28.57,0,0,1-3.42,1.7" transform="translate(-115.05 -152.36)"/></g></g></g></g></g><g class="cls-5"><g class="cls-96"><g class="cls-97"><g class="cls-5"><g class="cls-96"><path class="cls-98" d="M335.71,329.09l-17.82-10.36a30,30,0,0,1,3.42-1.69l17.82,10.35a30.16,30.16,0,0,0-3.42,1.7" transform="translate(-115.05 -152.36)"/><path class="cls-99" d="M339.13,327.39,321.31,317a23.51,23.51,0,0,1,2.88-1L342,326.4a21.86,21.86,0,0,0-2.88,1" transform="translate(-115.05 -152.36)"/><path class="cls-100" d="M342,326.4,324.19,316a19.73,19.73,0,0,1,2.15-.46l17.82,10.36a19.73,19.73,0,0,0-2.15.46" transform="translate(-115.05 -152.36)"/><path class="cls-101" d="M344.16,325.94l-17.82-10.36q.93-.13,1.83-.18L346,325.75a16.71,16.71,0,0,0-1.83.19" transform="translate(-115.05 -152.36)"/><path class="cls-102" d="M346,325.75,328.17,315.4a14.56,14.56,0,0,1,1.62,0l17.82,10.36a14.53,14.53,0,0,0-1.62,0" transform="translate(-115.05 -152.36)"/><path class="cls-103" d="M347.61,325.77l-17.82-10.36a11.74,11.74,0,0,1,1.48.18l17.82,10.35a13.94,13.94,0,0,0-1.48-.17" transform="translate(-115.05 -152.36)"/><path class="cls-104" d="M349.09,325.94l-17.81-10.35a11.88,11.88,0,0,1,1.37.31l17.82,10.36a11.59,11.59,0,0,0-1.38-.32" transform="translate(-115.05 -152.36)"/><path class="cls-105" d="M350.47,326.26,332.65,315.9a13.29,13.29,0,0,1,1.3.46l17.82,10.36a11.1,11.1,0,0,0-1.3-.46" transform="translate(-115.05 -152.36)"/><path class="cls-106" d="M351.77,326.72,334,316.36a12.9,12.9,0,0,1,1.24.6L353,327.32a10.9,10.9,0,0,0-1.24-.6" transform="translate(-115.05 -152.36)"/><path class="cls-107" d="M353,327.32,335.19,317l.13.08,17.82,10.36-.13-.08" transform="translate(-115.05 -152.36)"/></g></g></g></g></g><g class="cls-5"><g class="cls-108"><g class="cls-109"><g class="cls-5"><g class="cls-108"><path class="cls-13" d="M335.7,326.34,317.88,316a31.91,31.91,0,0,1,3.75-1.87l17.82,10.36a32.59,32.59,0,0,0-3.75,1.86" transform="translate(-115.05 -152.36)"/><path class="cls-17" d="M339.45,324.48l-17.82-10.36a25.81,25.81,0,0,1,3.16-1.09l17.82,10.36a25.81,25.81,0,0,0-3.16,1.09" transform="translate(-115.05 -152.36)"/><path class="cls-22" d="M342.61,323.39,324.79,313a19.69,19.69,0,0,1,2.37-.5L345,322.88a21.93,21.93,0,0,0-2.37.51" transform="translate(-115.05 -152.36)"/><path class="cls-28" d="M345,322.88l-17.82-10.35a17.65,17.65,0,0,1,2-.21L347,322.68c-.65,0-1.32.1-2,.2" transform="translate(-115.05 -152.36)"/><path class="cls-34" d="M347,322.68l-17.82-10.36a17.71,17.71,0,0,1,1.79,0l17.82,10.36a15.2,15.2,0,0,0-1.79,0" transform="translate(-115.05 -152.36)"/><path class="cls-37" d="M348.77,322.7,331,312.34a14.79,14.79,0,0,1,1.63.19l17.82,10.36a12.51,12.51,0,0,0-1.63-.19" transform="translate(-115.05 -152.36)"/><path class="cls-41" d="M350.4,322.89l-17.82-10.36a15.06,15.06,0,0,1,1.51.35l17.82,10.35a15,15,0,0,0-1.51-.34" transform="translate(-115.05 -152.36)"/><path class="cls-45" d="M351.91,323.23l-17.82-10.35a13.23,13.23,0,0,1,1.42.5l17.82,10.36a13.28,13.28,0,0,0-1.42-.51" transform="translate(-115.05 -152.36)"/><path class="cls-82" d="M353.33,323.74l-17.82-10.36c.47.2.92.42,1.36.66l17.82,10.36a11.37,11.37,0,0,0-1.36-.66" transform="translate(-115.05 -152.36)"/><path class="cls-78" d="M354.69,324.4,336.87,314l.15.09,17.82,10.35-.15-.08" transform="translate(-115.05 -152.36)"/></g></g></g></g></g><g class="cls-5"><g class="cls-110"><g class="cls-111"><g class="cls-5"><g class="cls-112"><path class="cls-113" d="M318.43,387.12l-17.82-10.36c-4.4-2.56-7.13-8-7.16-15.7a37,37,0,0,1,.32-4.78l17.82,10.35a37.26,37.26,0,0,0-.32,4.78c0,7.72,2.76,13.15,7.16,15.71" transform="translate(-115.05 -152.36)"/><path class="cls-114" d="M311.59,366.63l-17.82-10.35c.14-1.13.34-2.26.58-3.4l17.82,10.36c-.24,1.14-.44,2.27-.58,3.39" transform="translate(-115.05 -152.36)"/><path class="cls-115" d="M312.17,363.24l-17.82-10.36c.2-.93.43-1.87.69-2.81l17.82,10.36c-.26.94-.49,1.88-.69,2.81" transform="translate(-115.05 -152.36)"/><path class="cls-116" d="M312.86,360.43,295,350.07c.23-.83.48-1.66.76-2.5l17.82,10.36c-.28.83-.53,1.67-.76,2.5" transform="translate(-115.05 -152.36)"/><path class="cls-117" d="M313.62,357.93,295.8,347.57c.26-.77.54-1.54.83-2.31l17.82,10.35c-.29.77-.57,1.55-.83,2.32" transform="translate(-115.05 -152.36)"/><path class="cls-107" d="M314.45,355.61l-17.82-10.35c.29-.74.59-1.47.9-2.21l17.82,10.36c-.31.73-.61,1.47-.9,2.2" transform="translate(-115.05 -152.36)"/><path class="cls-106" d="M315.35,353.41l-17.82-10.36c.31-.71.64-1.42,1-2.13l17.82,10.36c-.34.7-.67,1.42-1,2.13" transform="translate(-115.05 -152.36)"/><path class="cls-105" d="M316.33,351.28l-17.82-10.36c.34-.7.69-1.4,1.06-2.09l17.82,10.36c-.37.69-.72,1.39-1.06,2.09" transform="translate(-115.05 -152.36)"/><path class="cls-104" d="M317.39,349.19l-17.82-10.36c.37-.7.75-1.39,1.15-2.07l17.82,10.36c-.4.68-.78,1.37-1.15,2.07" transform="translate(-115.05 -152.36)"/><path class="cls-103" d="M318.54,347.12l-17.82-10.36c.41-.7.84-1.39,1.27-2.08L319.81,345c-.43.68-.86,1.38-1.27,2.08" transform="translate(-115.05 -152.36)"/><path class="cls-102" d="M319.81,345,302,334.68c.46-.72.94-1.42,1.42-2.12l17.83,10.35c-.49.7-1,1.41-1.43,2.13" transform="translate(-115.05 -152.36)"/><path class="cls-101" d="M321.24,342.91l-17.82-10.35c.52-.76,1.07-1.5,1.63-2.22l17.82,10.36c-.56.72-1.11,1.46-1.63,2.21" transform="translate(-115.05 -152.36)"/><path class="cls-100" d="M322.87,340.7l-17.82-10.36c.65-.83,1.31-1.64,2-2.42l17.82,10.35c-.68.79-1.34,1.6-2,2.43" transform="translate(-115.05 -152.36)"/><path class="cls-99" d="M324.86,338.27,307,327.92c.87-1,1.76-1.95,2.68-2.86l17.82,10.36c-.92.9-1.81,1.86-2.68,2.85" transform="translate(-115.05 -152.36)"/><path class="cls-98" d="M327.54,335.42l-17.82-10.36a40.8,40.8,0,0,1,8.17-6.33l17.82,10.36a40.44,40.44,0,0,0-8.17,6.33" transform="translate(-115.05 -152.36)"/></g></g></g></g></g><path class="cls-118" d="M335.71,329.09c13.51-7.8,24.55-1.52,24.59,14s-10.92,34.51-24.43,42.31-24.55,1.52-24.6-14,10.92-34.52,24.44-42.32" transform="translate(-115.05 -152.36)"/><g class="cls-5"><g class="cls-119"><g class="cls-120"><g class="cls-5"><g class="cls-119"><path class="cls-55" d="M316.74,390l-17.82-10.35c-4.83-2.81-7.83-8.78-7.86-17.24a41,41,0,0,1,.35-5.25l17.82,10.35a41.08,41.08,0,0,0-.35,5.25c0,8.47,3,14.43,7.86,17.24" transform="translate(-115.05 -152.36)"/><path class="cls-60" d="M309.23,367.54l-17.82-10.35c.16-1.23.37-2.48.64-3.72l17.82,10.35c-.27,1.25-.48,2.49-.64,3.72" transform="translate(-115.05 -152.36)"/><path class="cls-64" d="M309.87,363.82l-17.82-10.35c.21-1,.47-2.06.75-3.09l17.82,10.36c-.28,1-.54,2.06-.75,3.08" transform="translate(-115.05 -152.36)"/><path class="cls-69" d="M310.62,360.74,292.8,350.38c.26-.91.54-1.83.84-2.74L311.46,358c-.3.92-.58,1.83-.84,2.75" transform="translate(-115.05 -152.36)"/><path class="cls-73" d="M311.46,358l-17.82-10.35c.28-.85.59-1.7.91-2.54l17.82,10.35c-.32.85-.63,1.69-.91,2.54" transform="translate(-115.05 -152.36)"/><path class="cls-78" d="M312.37,355.45,294.55,345.1c.31-.81.64-1.62,1-2.42L313.36,353c-.35.81-.68,1.61-1,2.42" transform="translate(-115.05 -152.36)"/><path class="cls-82" d="M313.36,353l-17.82-10.35c.34-.79.7-1.57,1.07-2.34l17.82,10.35c-.37.78-.73,1.56-1.07,2.34" transform="translate(-115.05 -152.36)"/><path class="cls-45" d="M314.43,350.69l-17.82-10.35c.37-.77.76-1.54,1.16-2.3l17.82,10.36c-.4.76-.79,1.52-1.16,2.29" transform="translate(-115.05 -152.36)"/><path class="cls-41" d="M315.59,348.4,297.77,338c.41-.76.83-1.52,1.27-2.27l17.82,10.36c-.44.75-.86,1.51-1.27,2.27" transform="translate(-115.05 -152.36)"/><path class="cls-37" d="M316.86,346.13,299,335.77c.45-.77.91-1.53,1.39-2.28l17.82,10.36c-.48.75-.94,1.51-1.39,2.28" transform="translate(-115.05 -152.36)"/><path class="cls-34" d="M318.25,343.85l-17.82-10.36c.51-.79,1-1.57,1.57-2.33l17.81,10.36c-.53.76-1.05,1.54-1.56,2.33" transform="translate(-115.05 -152.36)"/><path class="cls-28" d="M319.81,341.52,302,331.16c.58-.83,1.17-1.64,1.79-2.43l17.82,10.35c-.62.8-1.21,1.61-1.8,2.44" transform="translate(-115.05 -152.36)"/><path class="cls-22" d="M321.61,339.08l-17.82-10.35q1.06-1.38,2.19-2.67l17.82,10.36c-.75.86-1.48,1.75-2.19,2.66" transform="translate(-115.05 -152.36)"/><path class="cls-17" d="M323.8,336.42,306,326.06q1.42-1.63,2.93-3.13l17.82,10.36c-1,1-2,2-2.93,3.13" transform="translate(-115.05 -152.36)"/><path class="cls-13" d="M326.73,333.29l-17.82-10.36a45.13,45.13,0,0,1,9-6.94l17.82,10.35a45.19,45.19,0,0,0-9,7" transform="translate(-115.05 -152.36)"/></g></g></g></g></g><path class="cls-20" d="M335.7,326.34c14.83-8.56,26.94-1.66,27,15.38s-12,37.89-26.81,46.45-26.95,1.67-27-15.38,12-37.88,26.82-46.45m.17,59.08c13.51-7.8,24.47-26.78,24.43-42.31s-11.08-21.82-24.59-14-24.48,26.79-24.44,42.32,11.08,21.82,24.6,14" transform="translate(-115.05 -152.36)"/></g></g><g class="cls-5"><g class="cls-121"><g class="cls-5"><g class="cls-122"><g class="cls-123"><g class="cls-5"><g class="cls-122"><path class="cls-69" d="M264.69,319.37l0,4.12v-4s0-.06,0-.09" transform="translate(-115.05 -152.36)"/><path class="cls-73" d="M264.68,319.46v4.12a2.76,2.76,0,0,1-.06.57V320a2.76,2.76,0,0,0,.06-.57" transform="translate(-115.05 -152.36)"/><path class="cls-78" d="M264.62,320v4.12a3.92,3.92,0,0,1-.16.56v-4.12a3.92,3.92,0,0,0,.16-.56" transform="translate(-115.05 -152.36)"/><path class="cls-82" d="M264.46,320.59v4.12a3.67,3.67,0,0,1-.27.57v-4.13a3.2,3.2,0,0,0,.27-.56" transform="translate(-115.05 -152.36)"/><path class="cls-45" d="M264.19,321.15v4.13a5.12,5.12,0,0,1-.4.59v-4.12a4.17,4.17,0,0,0,.4-.6" transform="translate(-115.05 -152.36)"/><path class="cls-41" d="M263.79,321.75v4.12a5.36,5.36,0,0,1-.61.66v-4.12a6.19,6.19,0,0,0,.61-.66" transform="translate(-115.05 -152.36)"/><path class="cls-37" d="M263.18,322.41v4.12a7.91,7.91,0,0,1-1.26.93v-4.12a7.91,7.91,0,0,0,1.26-.93" transform="translate(-115.05 -152.36)"/><path class="cls-34" d="M261.92,323.34v4.12l-.12.08a11.58,11.58,0,0,1-2.18.95v-4.12a11,11,0,0,0,2.18-1l.12-.07" transform="translate(-115.05 -152.36)"/><path class="cls-37" d="M259.62,324.37v4.12a13.05,13.05,0,0,1-1.89.47v-4.12a14.5,14.5,0,0,0,1.89-.47" transform="translate(-115.05 -152.36)"/><path class="cls-41" d="M257.73,324.84V329c-.41.08-.84.14-1.27.18l0-4.12c.42,0,.85-.1,1.26-.18" transform="translate(-115.05 -152.36)"/><path class="cls-45" d="M256.47,325l0,4.12c-.36,0-.73.06-1.1.07v-4.12c.37,0,.74,0,1.11-.07" transform="translate(-115.05 -152.36)"/><path class="cls-82" d="M255.36,325.09v4.12c-.34,0-.68,0-1,0V325.1h1" transform="translate(-115.05 -152.36)"/><path class="cls-78" d="M254.34,325.1v4.12l-1-.05,0-4.13c.32,0,.65,0,1,.06" transform="translate(-115.05 -152.36)"/><path class="cls-73" d="M253.37,325l0,4.13-1-.11v-4.12c.32,0,.64.08,1,.1" transform="translate(-115.05 -152.36)"/><path class="cls-69" d="M252.4,324.94v4.12l-1-.17v-4.13l1,.18" transform="translate(-115.05 -152.36)"/><path class="cls-64" d="M251.41,324.76v4.13c-.35-.08-.7-.16-1-.26v-4.12c.34.1.69.18,1,.25" transform="translate(-115.05 -152.36)"/><path class="cls-60" d="M250.37,324.51v4.12a11.28,11.28,0,0,1-1.2-.41V324.1a12.1,12.1,0,0,0,1.2.41" transform="translate(-115.05 -152.36)"/><path class="cls-55" d="M249.17,324.1v4.12a11.94,11.94,0,0,1-1.44-.68c-2-1.14-2.94-2.62-2.94-4.11l0-4.12c0,1.49,1,3,2.93,4.1a10.63,10.63,0,0,0,1.44.69" transform="translate(-115.05 -152.36)"/></g></g></g></g></g><path class="cls-87" d="M261.75,315.27c3.89,2.25,3.92,5.89.05,8.14a15.51,15.51,0,0,1-14.07,0c-3.89-2.25-3.92-5.89,0-8.14a15.49,15.49,0,0,1,14.06,0" transform="translate(-115.05 -152.36)"/></g></g><g class="cls-5"><g class="cls-124"><polygon class="cls-89" points="248.56 147.38 246.19 146 246.15 133.63 248.53 135.01 248.56 147.38"/><polygon class="cls-88" points="248.53 135.01 246.15 133.63 264.09 123.27 266.46 124.66 248.53 135.01"/><polygon class="cls-90" points="266.46 124.66 266.5 137.02 248.56 147.38 248.53 135.01 266.46 124.66"/></g></g></g></g></svg>