<svg id="Layer_1" data-name="Layer 1" xmlns="http://www.w3.org/2000/svg" viewBox="0 0 381.89 385.61"><defs><style>.cls-1{fill:#a7a9ac;stroke:#a7a9ac;}.cls-1,.cls-7{stroke-miterlimit:10;}.cls-2{fill:#d1d3d4;}.cls-3{fill:#edeae8;}.cls-4{fill:#f0efef;}.cls-5{fill:#f4efea;}.cls-6{fill:#f4f3f2;}.cls-7{fill:none;stroke:#ccc;stroke-width:0.5px;}</style></defs><title>trackcounter</title><ellipse class="cls-1" cx="190.95" cy="192.8" rx="190.45" ry="192.3"/><ellipse class="cls-2" cx="190.95" cy="192.8" rx="146.11" ry="147.53"/><g id="Layer_1-2" data-name="Layer 1-2"><polygon class="cls-3" points="178.86 120.9 65.14 231.72 197.8 287.13 311.52 176.31 178.86 120.9"/><polygon class="cls-4" points="178.86 115.23 65.14 226.05 197.8 281.46 311.52 170.64 178.86 115.23"/><polyline class="cls-5" points="205.93 123.62 56.9 209.67 176.14 278.51 325.16 192.46"/><polyline class="cls-6" points="207.19 117.97 58.15 204.01 177.4 272.85 326.41 186.8"/><line class="cls-7" x1="162.48" y1="247.04" x2="102.87" y2="212.62"/><line class="cls-7" x1="102.4" y1="195.41" x2="192.27" y2="247.04"/><line class="cls-7" x1="107.45" y1="191.95" x2="197.33" y2="243.57"/><line class="cls-7" x1="112.42" y1="188.66" x2="202.3" y2="240.27"/><line class="cls-7" x1="117.78" y1="185.11" x2="207.66" y2="236.74"/><line class="cls-7" x1="122.82" y1="181.65" x2="212.69" y2="233.27"/><line class="cls-7" x1="127.79" y1="178.36" x2="217.66" y2="229.99"/><line class="cls-7" x1="222.1" y1="226.37" x2="162.48" y2="191.95"/></g></svg>