<svg id="Layer_1" data-name="Layer 1" xmlns="http://www.w3.org/2000/svg" viewBox="0 0 381.89 385.61"><defs><style>.cls-1{fill:#a7a9ac;stroke:#a7a9ac;stroke-miterlimit:10;}.cls-2{fill:#d1d3d4;}.cls-3{fill:#589ebc;}.cls-4{fill:none;stroke:#603a17;stroke-linecap:round;stroke-linejoin:round;}.cls-5{fill:#4792ae;}.cls-6{fill:#38849a;}.cls-7{fill:#183a40;}.cls-8{fill:#357787;}.cls-9{fill:#4b8699;}.cls-10{fill:#86451e;}.cls-11{fill:#592a0d;}</style></defs><title>company</title><ellipse class="cls-1" cx="190.95" cy="192.8" rx="190.45" ry="192.3"/><ellipse class="cls-2" cx="190.95" cy="192.8" rx="146.11" ry="147.53"/><polygon class="cls-3" points="135.44 75.59 253.58 150.62 197.72 288.06 79.58 212.33 135.44 75.59"/><path class="cls-4" d="M408,362.13s7,2.8,9.3,3.37a39.2,39.2,0,0,0,10.85,1" transform="translate(-115.05 -152.36)"/><polygon class="cls-5" points="309.44 217.94 305.59 222.84 253.58 161.84 201.57 290.16 197.72 288.06 253.58 150.62 309.44 217.94"/><polygon class="cls-6" points="202.22 302.08 201.57 290.16 252.27 165.09 295.96 217.23 295.96 243.18 202.22 302.08"/><path class="cls-7" d="M368.32,334.89s-1.93,29.44-2.58,35.76-3.85,28.75-5.13,35.06S354.53,431,354.53,431l39.31-24.7S386.3,391,383.73,384s-9.63-28.75-10.92-33.66S368.32,334.89,368.32,334.89Z" transform="translate(-115.05 -152.36)"/><polygon class="cls-8" points="253.91 161.49 251.98 164.99 295.64 216.88 305.27 222.49 253.91 161.49"/><polygon class="cls-9" points="89.92 218.95 89.92 231.61 201.9 301.73 201.25 289.81 89.92 218.95"/><path class="cls-4" d="M294.47,452.34s6.94-3.1,9-4.33a43.07,43.07,0,0,0,8.67-7.2" transform="translate(-115.05 -152.36)"/><path class="cls-10" d="M294.47,452.34v10.17a3.06,3.06,0,0,1-5.14,0V452.34c0,.58,1.16,1.05,2.57,1.05S294.47,452.92,294.47,452.34Z" transform="translate(-115.05 -152.36)"/><path class="cls-11" d="M294.47,452.34c0,.58-1.15,1.05-2.57,1.05s-2.57-.47-2.57-1.05a.56.56,0,0,1,.15-.35,3.52,3.52,0,0,1,2.42-.7,3.56,3.56,0,0,1,2.43.7A.55.55,0,0,1,294.47,452.34Z" transform="translate(-115.05 -152.36)"/><path class="cls-10" d="M433.17,363.29v10.17a3.06,3.06,0,0,1-5.14,0V363.29c0,.58,1.15,1,2.57,1S433.17,363.87,433.17,363.29Z" transform="translate(-115.05 -152.36)"/><path class="cls-11" d="M433.17,363.29c0,.58-1.15,1-2.57,1s-2.57-.47-2.57-1a.51.51,0,0,1,.15-.36,3.53,3.53,0,0,1,2.42-.7,3.59,3.59,0,0,1,2.42.7A.58.58,0,0,1,433.17,363.29Z" transform="translate(-115.05 -152.36)"/><path class="cls-10" d="M194.31,380.81V391a3,3,0,0,1-5.13,0V380.81c0,.58,1.15,1.05,2.57,1.05S194.31,381.4,194.31,380.81Z" transform="translate(-115.05 -152.36)"/><path class="cls-11" d="M194.31,380.81c0,.58-1.15,1.05-2.56,1.05s-2.57-.47-2.57-1.05a.52.52,0,0,1,.14-.36,4.55,4.55,0,0,1,4.85,0A.51.51,0,0,1,194.31,380.81Z" transform="translate(-115.05 -152.36)"/><path class="cls-4" d="M194.31,381.17a33.4,33.4,0,0,0,5.14-2.81,20.33,20.33,0,0,0,5.53-5.31" transform="translate(-115.05 -152.36)"/></svg>