<svg id="Layer_1" data-name="Layer 1" xmlns="http://www.w3.org/2000/svg" viewBox="0 0 381.89 385.61"><defs><style>.cls-1{fill:#a7a9ac;stroke:#a7a9ac;stroke-miterlimit:10;}.cls-2{fill:#d1d3d4;}.cls-3{fill:#fff;}.cls-4{fill:#96ceef;}.cls-5{fill:#afe1f6;}</style></defs><title>hackweek</title><ellipse class="cls-1" cx="190.95" cy="192.8" rx="190.45" ry="192.3"/><ellipse class="cls-2" cx="190.95" cy="192.8" rx="146.11" ry="147.53"/><g id="Layer_1-2" data-name="Layer 1-2"><rect class="cls-3" x="83.41" y="118.21" width="218.36" height="157.51" rx="12.99"/><path class="cls-4" d="M211.46,270.57H403.83a13,13,0,0,1,12.92,13v33.29H198.47V283.57A13,13,0,0,1,211.46,270.57Z" transform="translate(-115.05 -152.36)"/><rect class="cls-5" x="105.14" y="182.02" width="35.95" height="6.24" rx="1.84"/><rect class="cls-5" x="174.61" y="182.02" width="35.95" height="6.24" rx="1.84"/><rect class="cls-5" x="244.47" y="182.02" width="35.95" height="6.24" rx="1.84"/><rect class="cls-5" x="104.97" y="215.62" width="35.95" height="6.24" rx="1.84"/><rect class="cls-5" x="174.44" y="215.62" width="35.95" height="6.24" rx="1.84"/><rect class="cls-5" x="244.3" y="215.62" width="35.95" height="6.24" rx="1.84"/><rect class="cls-5" x="104.97" y="249.21" width="35.95" height="6.24" rx="1.84"/><rect class="cls-5" x="174.44" y="249.21" width="35.95" height="6.24" rx="1.84"/><rect class="cls-5" x="244.3" y="249.21" width="35.95" height="6.24" rx="1.84"/></g></svg>