<svg id="Layer_1" data-name="Layer 1" xmlns="http://www.w3.org/2000/svg" xmlns:xlink="http://www.w3.org/1999/xlink" viewBox="0 0 381.89 385.61"><defs><style>.cls-1{fill:none;}.cls-2{fill:#a7a9ac;stroke:#a7a9ac;stroke-miterlimit:10;}.cls-3{fill:#d1d3d4;}.cls-4{fill:#97ceef;}.cls-5{clip-path:url(#clip-path);}.cls-6{fill:#3ba949;}.cls-7{clip-path:url(#clip-path-2);}</style><clipPath id="clip-path" transform="translate(-115.05 -152.36)"><path class="cls-1" d="M186.34,345a77.14,77.14,0,0,1,.5-10.64c.36-2.87.74-6.69,1.24-9.56s1.41-7.17,2.2-10.18,1.82-6.31,2.75-9,2.68-6.74,3.87-9.56a79.67,79.67,0,0,1,4.78-9.56c2.77-4.66,6.81-10.63,10-15a77.22,77.22,0,0,1,7.17-8.37c1.86-1.84,4.25-4.37,6.19-6.12,2.74-2.39,6.52-5.52,9.41-7.76a119.81,119.81,0,0,1,13.62-8.8,101.52,101.52,0,0,1,12.36-5.92c2.39-1,5.83-2.23,8.39-3.06s6.09-1.8,8.74-2.39a118,118,0,0,1,29.23-3.49,121.07,121.07,0,0,1,31.74,4.54,113.34,113.34,0,0,1,14.08,5c3.77,1.57,8.62,4.13,12.23,6,29.18,16.56,48.49,49.33,48.32,89.55,0,63.4-48.22,121.26-107.54,129.24,59.27-8,107.4-65.84,107.54-129.24,0-40.17-19.11-72.94-48.32-89.52a106.19,106.19,0,0,1,9.25,5.88c2,1.45,4.78,3.37,6.6,4.92,2.39,2,5.61,4.59,7.79,6.81s4.37,4.35,6.14,6.31a100.34,100.34,0,0,1,6.52,7.89,116.84,116.84,0,0,1,10.33,16.13,118.44,118.44,0,0,1,7.69,17.68,158.12,158.12,0,0,1,4.59,18.31,120.52,120.52,0,0,1,1,32c-.36,2.87-.81,6.67-1.34,9.56s-1.5,7.17-2.39,10.13a107.53,107.53,0,0,1-6.71,18.41,89.74,89.74,0,0,1-4.18,8.17c-1.58,2.75-3.87,6.28-5.57,9a92.36,92.36,0,0,1-6.81,9.15,126.83,126.83,0,0,1-12.09,12.55c-2.78,2.39-6.62,5.52-9.56,7.77-1.94,1.46-4.64,3.2-6.67,4.52a131.3,131.3,0,0,1-13.46,7.16,111.66,111.66,0,0,1-17.71,6.55,119.41,119.41,0,0,1-53.26,2.66,117.64,117.64,0,0,1-25.86-7.68,119.1,119.1,0,0,1-22.71-12.73c-2.53-1.94-6-4.4-8.34-6.55-1.91-1.75-4.54-4-6.38-5.88-2.17-2.2-5-5.21-7-7.55a165.7,165.7,0,0,1-10.58-14.56c-1.7-2.58-3.61-6.23-5-9a90.28,90.28,0,0,1-4.18-9.25,183.1,183.1,0,0,1-5.57-17.88,161,161,0,0,1-2.7-17.06A72.93,72.93,0,0,1,186.34,345Z"/></clipPath><clipPath id="clip-path-2" transform="translate(-115.05 -152.36)"><path class="cls-1" d="M247,449.16c-2.08-1.2-4.78-2.8-6.81-4.16-3.13-2.18-7.17-5.16-10.23-7.55a154.3,154.3,0,0,1-12.57-11.95,75.67,75.67,0,0,1-7.17-8.82A109.3,109.3,0,0,1,199.72,400c-1.43-2.77-3.25-6.57-4.45-9.39s-2.22-6.12-3.2-8.75a76.38,76.38,0,0,1-2.72-10,169.44,169.44,0,0,1-2.73-19,105.91,105.91,0,0,1,.17-17.54c.38-3.13.67-7.34,1.34-10.42s1.27-6.53,2-9.28a94.87,94.87,0,0,1,3-9.87c1-2.58,2.39-6.07,3.41-8.62s3.06-6.5,4.54-9.28a119.91,119.91,0,0,1,10.76-16.27,148.64,148.64,0,0,1,11.76-12.95A130.69,130.69,0,0,1,238,246.81c2.72-1.84,6.45-4.16,9.3-5.83a69.43,69.43,0,0,1,6.16-3.23,115.65,115.65,0,0,1,20.27-7.69,119.51,119.51,0,0,1,69.73,1.67,107.32,107.32,0,0,1,12.14,4.78c2.85,1.26,6.53,3.22,9.25,4.78a92.72,92.72,0,0,0-58.74-10.85,92.69,92.69,0,0,1,58.74,10.8,156.33,156.33,0,0,1,13.55,9c2.65,2.08,6.1,5,8.58,7.17,2,1.77,4.47,4.23,6.24,6.19,2.2,2.39,5.07,5.74,7.17,8.29,1.67,2.13,3.77,5.09,5.28,7.34,1.72,2.63,3.87,6.24,5.4,9s2.89,5.76,4.06,8.24S418,303.11,419,306s1.89,6.29,2.7,9a70.35,70.35,0,0,1,2.17,10.18c.36,2.84,1,6.66,1.22,9.56s.43,7.43.43,10.61a143.66,143.66,0,0,1-1.58,19.31,85.67,85.67,0,0,1-2.39,11.3,108.07,108.07,0,0,1-6.57,18.4c-1.19,2.39-2.77,5.81-4.08,8.22s-3.59,6.17-5.29,8.7a118.34,118.34,0,0,1-11.94,15.11,115.1,115.1,0,0,1-14.15,13c-1.91,1.51-4.52,3.44-6.55,4.78-2.77,1.82-6.55,4.11-9.42,5.76A122.57,122.57,0,0,1,350,456.25a121.05,121.05,0,0,1-17.33,5.38,119.48,119.48,0,0,1-64.26-3,112,112,0,0,1-12.14-4.78A76.57,76.57,0,0,1,247,449.16Z"/></clipPath></defs><title>meet</title><ellipse class="cls-2" cx="190.95" cy="192.8" rx="190.45" ry="192.3"/><ellipse class="cls-3" cx="190.95" cy="192.8" rx="146.11" ry="147.53"/><g id="Layer_3" data-name="Layer 3"><circle class="cls-4" cx="191.13" cy="192.83" r="119.49"/><g class="cls-5"><path class="cls-6" d="M258.77,235.43l1.84-.21c1.75-.41,4.11-.91,5.88-1.27l1.87-1.39,5.56-2q-1,0-2,0l3.44-1a124.29,124.29,0,0,0-14.81,4.95L258,235.7l.77-.27" transform="translate(-115.05 -152.36)"/><path class="cls-6" d="M186.93,350.26l.67-1.5c0-3,0-7,.15-10,.79-3.65,1.91-8.5,3-12.09,1-2.39,2.23-5.64,3.33-8,1.84-2.56,4.23-5.9,6.19-8.34.74-2.87,1.62-6.72,2.39-9.56l2.39-4.56c2.17-2.73,5.06-6.39,7.36-9l2.17-4.59,3.78-7.17,3.61-4.38,4.58-6.16,2.51-3.61,2.68-4.78,1.36-2.8,1.24-1.81c1.65-1.53,3.8-3.63,5.55-5.07l4.78-3.61,4.3-3,5.88-3.06a120.65,120.65,0,0,0-13.53,7.63,127,127,0,0,0-16.08,12.4A121.38,121.38,0,0,0,201,287.79l-3,6h.21a12.68,12.68,0,0,1,1.34-.86l-.86,3.25c-.79,2.79-1.91,6.47-2.53,9.29-1.65,4-3.78,9.42-5,13.55l.26-4.77-.74.47c-.55,2.89-1.34,6.69-1.72,9.56s-1.24,6.55-1.56,9.3l-.57,8.08-.17,5.23c0,2.39,0,5.64.17,8.05a23.89,23.89,0,0,1,.14-4.78" transform="translate(-115.05 -152.36)"/><path class="cls-6" d="M254,452.81l-3.68-1.91c2.72,1.27,6.3,3,9,4.16l1.46.12c2.77.81,6.43,2,9.25,2.65,4,.79,9.25,1.77,13.24,2.39,2.39,0,5.64.29,8.05.31s5,.29,7.17.29a60.56,60.56,0,0,1-9.32-.53,102.27,102.27,0,0,1-21.08-4.06A111.78,111.78,0,0,1,231,437.83a104.12,104.12,0,0,1-13.48-12.31c-2.1-2.56-4.78-6-6.81-8.72a108.45,108.45,0,0,1-12.42-23.4c-1.72-3.87-4-9.06-5.45-13a83.86,83.86,0,0,1-4.78-15.72c-.36-2.92-1-6.79-1.27-9.71v-1.07c.6,5.4,1.65,12.57,2.65,17.92a116.42,116.42,0,0,0,5.83,18.79,114.43,114.43,0,0,0,8.85,17.37,116.52,116.52,0,0,0,11.59,15.73,120.64,120.64,0,0,0,14.22,13.83,125.52,125.52,0,0,0,17,11.71l5.3,2.85,1.68.81" transform="translate(-115.05 -152.36)"/><path class="cls-6" d="M392.13,265.09l-.27-.74,2.58,1.53c1.7,2.51,4,5.85,5.5,8.48s2.77,6.79,3.73,9.78l1.22,2.94c1.24,3,2.39,6.11,3.37,9.29,2.2,3.16,5.09,7.39,7.17,10.69l2.55,2.39c1,3.29,2.39,7.67,3.23,11-.33,2.39-.79,5.38-1.34,7.65.55,3.8,1.29,8.84,1.65,12.67a45.08,45.08,0,0,0,2.39-5.19c-.21,4-.6,9.27-1.1,13.22a93,93,0,0,1-4.32,17.32c1.14-1.91,2.67-4.47,3.65-6.47a81.66,81.66,0,0,0,2.56-16.45c0-3.58-.14-8.34-.41-11.95a13.1,13.1,0,0,0,0-2.17l-.57-3.85a113.43,113.43,0,0,0-12.74-37A114.78,114.78,0,0,0,400.3,271.9a118.53,118.53,0,0,0-13.22-14.48A125.5,125.5,0,0,0,365,241.24a90.61,90.61,0,0,1,27.25,23.9" transform="translate(-115.05 -152.36)"/><path class="cls-6" d="M360.48,436.58c-.16,1-.31,2.23-.55,3.16l6.89-3.06a131.2,131.2,0,0,0,19.12-17.13,64.07,64.07,0,0,0-.22-8.54,133.47,133.47,0,0,1-25.24,25.57" transform="translate(-115.05 -152.36)"/></g><g class="cls-7"><path class="cls-6" d="M270,245.06l-.81-.28-3.83,2.65-2,.5.5-1.89,2.15-1.88,5-2.16,2.54-1.14v-1.13l.28-.59-6.64,2.46-1.51.19h-2.39l-3.41,1-4,1.17-.27-.41c-1.55.43-3.63,1-5.18,1.41l-4.59,2.39-.22.79L240.87,252l-.62,1.77-6.59,4.63,6.26-3.29,4.27-1.75,3.95-2,5.47-2.75,3.94-2,1.44.72-2,2.15-4,2.74,1.89.65,3.39-1.48-4.54,4.09c-1.41,1.84-3.37,4.23-4.78,6.14l-1.86,3.84-5.67,4.19-3.2,5c-.72-1.08-1.72-2.39-2.39-3.61,2.1-1.41,4.9-3.27,7-4.64l-4.64,1.18-.67-2.39-4.78,4.13-3.2,2.27.36,4.25-2.75-.4-1.91-.12-4.28.14L216,280h-1.46l-1.41-.14c-2,2-4.78,4.64-6.62,6.72l-4.09,4.39a72.67,72.67,0,0,0-4.92,5.95l-1.31,2.87-2,5-2.39,5.76,2.51-7.17,2.38-5.76,1.1-3,.17-.72,3.08-6a115.1,115.1,0,0,1,10.76-16.27A119.9,119.9,0,0,1,225.17,257a127.84,127.84,0,0,1,16.13-12.26,119.88,119.88,0,0,1,13.58-7.53l2.94-1.36h.24l2.55-1.1a131.41,131.41,0,0,1,14.82-4.95l1-.26a4.23,4.23,0,0,0-1.17.31h.41l2.7-.53.12.36a6.53,6.53,0,0,0-1.1.93,59,59,0,0,0-6.22,2.23l3.42,0a27.72,27.72,0,0,0-4.59,2.82,5.45,5.45,0,0,0-1,2.39l15.08-3-8,2.61,2.75-.5h2.05l.22.21.88.29-2.39,1.07-4.18,2.85-2.65,2.55-2.73,1" transform="translate(-115.05 -152.36)"/><path class="cls-6" d="M235.11,431.18c1.92,2.58,4.45,6,6.53,8.46-1.89,1.84-1.91,1.87-2.22,2.73,1.5,1.29,3.41,3.11,5,4.32s4.49,3.3,6.55,4.54l1.31.7-5.3-2.85a126.43,126.43,0,0,1-17-11.71,123,123,0,0,1-14.22-13.83,118.67,118.67,0,0,1-11.59-15.73,116,116,0,0,1-8.85-17.25,113.92,113.92,0,0,1-5.92-18.74c-1-5.4-2.08-12.57-2.65-18v-5a27.22,27.22,0,0,0,4.46,9.94,88.76,88.76,0,0,0,6.39,15.85c1.43,3,3.13,6.95,4.7,9.87A115.15,115.15,0,0,0,213,396.51a194.45,194.45,0,0,0,18.91,20.33c.54,4,1.52,11.31,3.17,14.34" transform="translate(-115.05 -152.36)"/><path class="cls-6" d="M364.88,241.24a125.88,125.88,0,0,1,22.2,16.18,119.66,119.66,0,0,1,36.66,67.82l.58,3.85v-.19c-.72-3.56-1.84-8.29-2.89-11.78.28,2.72.71,6.38.83,9.1.15,4.93,0,11.5-.26,16.4.17,3.61.45,8.41.43,11.95-.41,3.17-.89,7.48-1.43,10.65l-.48-4.78a85.79,85.79,0,0,0-3.11-18.06c-.86-4.11-2.05-9.56-3.15-13.62l-1.32,4.58c-1.07-2.39-2.39-5.47-3.61-7.76-2.72.38-6.38.81-9.1,1.1l-9.56-.53c-2.25-3.08-5.24-7.17-7.58-10.23l-3.51,2.94c2.2,3.56,5.14,8.34,7.17,11.95,8.22,2.22,9.7,2.63,14.34,3.94a121.48,121.48,0,0,1-4.35,17.74,134.49,134.49,0,0,1-14.34,8.86c-1.58-2.15-3.63-5-5.23-7.17-6.19-9.91-6.19-9.91-10.42-16-1.49-3.56-3.49-8.34-5.07-11.95l-5.09,3.18a328.34,328.34,0,0,1,16.58,29.44c2.27,4.4,5.21,10.32,7.17,14.82,3.92-1.8,9.11-4.28,12.93-6.24-.83,5-2,11.59-3.13,16.49a170.09,170.09,0,0,1-12.21,17.78c-2.39,3.66-5.35,8.56-7.79,12.12a108.64,108.64,0,0,1-6.69,19.78c-8.68,6.77-8.84,6.91-14.05,10.47L347,448.53c-2.39,1.08-5.64,2.56-8.08,3.59a89.42,89.42,0,0,1-10.61,7.29c-3,.5-7,1.12-9.94,1.55,0-.74.21-1.72.21-2.39-.48-1-1.07-2.39-1.58-3.3,0-2.08-.16-4.78-.31-6.95-1.22-2.39-2.87-5.52-4.16-7.86,3.4-7.17,3.68-7.89,5.45-11.95-3-6.93-3-6.93-8-17.95.79-2.87,1.84-6.67,2.6-9.56l-8.29-2.89c-3.25-1.29-7.89-2.77-11.26-4.11-4,.33-9.34.79-13.33,1.07-3-.93-7-2.17-9.92-3.15-3.73-4.21-8.6-9.92-12.19-14.34a300.88,300.88,0,0,1-1.43-30.76L272.61,330c5.21-8.65,8.27-13.76,11.64-19.45,2.05,1.89,4.78,4.42,6.83,6.24,9.32-3.16,11-3.73,18.6-6.65,1.57,3.35,3.68,7.8,5.28,11.09,4.78,1.6,11.06,3.64,15.82,5.12l2.87-6.65c10.37-.45,13.07-.62,23.75-1.6l-3-7.93c-4.42-1.94-10.32-4.57-14.7-6.57A167.75,167.75,0,0,0,359,294.49c-11.43-4.47-12.74-5-20-8.08a126.61,126.61,0,0,1-8.89,18.11c-6.72-8.08-7.75-9.32-12.19-15.2-8.27,3-8.77,3.18-14.63,5-3,2.27-7.17,5.26-10.23,7.46-3.49,0-8.12.24-11.59.26V291.88c8.92.12,8.92.12,13.53,0-1.15-2.87-2.65-6.67-3.66-9.56,3.18-1.29,7.41-3,10.57-4.37,2.17-2.13,5-4.95,7.17-7.17,2.67,1.17,6.26,2.75,9,3.85a63.78,63.78,0,0,0,5.88-11.74c-1.53-3.34-3.61-7.81-5.21-11.14-.62,2.39-1.55,5.36-2.39,7.58l1.46,5.59a102.7,102.7,0,0,1-11-8.19c.64-2.11,1.5-4.78,2-7a50.1,50.1,0,0,0,9.2-5c2.63,1.91,6.21,4.42,8.91,6.23a13.07,13.07,0,0,0,.62-9,100.48,100.48,0,0,0,10.16,3.57c-3.3-2.18-7.74-5-11.18-7h2.2a25,25,0,0,0-8.13-5.28c.62-.19,1.46-.43,2.08-.69,2.63.79,6.19,1.77,8.77,2.7a3.56,3.56,0,0,0,1.05-1.46,1.91,1.91,0,0,0,0-1.29l2.39-.62.6-1.27a89.69,89.69,0,0,1,29.44,10.59" transform="translate(-115.05 -152.36)"/><path class="cls-6" d="M298.52,238.63c-1.53,1-3.61,2.25-5.19,3.18v2.63c-4.78,1.56-4.78,1.56-7.41,2.39-1.6.1-4,.34-5.69.5-2.58,2-6,4.66-8.55,6.7a15.8,15.8,0,0,1,.26-6.53c7-3.58,8.7-4.44,15.94-8.08a14.38,14.38,0,0,1,5.78-5.4c3.11-.55,3.52-.62,5.69-1.12l.93.33a6,6,0,0,0,2.25-.24,5.1,5.1,0,0,0,.72.82,61.59,61.59,0,0,1-4.78,4.78" transform="translate(-115.05 -152.36)"/></g></g></svg>